<svg xmlns="http://www.w3.org/2000/svg" width="96" height="96" viewBox="0 0 72.3 72.3"><path fill="#785fa9" d="M57.6 7.3a6.5 6.5 0 0 1 6.5 6.2v54.2l-6.7-5.8-3.7-3.3-4-3.5 1.6 5.5H16a6.3 6.3 0 0 1-6.4-6.2V13.5A6.3 6.3 0 0 1 16 7.3h41.6zM42.2 21.6h-.1l-.5.5a20.4 20.4 0 0 1 7.7 3.8 27.8 27.8 0 0 0-9.4-2.8 21.4 21.4 0 0 0-6.2 0h-.5a23.4 23.4 0 0 0-7.1 1.8 11.6 11.6 0 0 0-1.8.9s2.5-2.5 8-3.9l-.3-.3a15 15 0 0 0-8.8 3.2 39.5 39.5 0 0 0-4.5 17.6s2.5 4.4 9.4 4.6a31.8 31.8 0 0 1 2.1-2.6 9.5 9.5 0 0 1-5.4-3.5l.8.5h.5l2.3 1a20.3 20.3 0 0 0 4.5 1.3 24.4 24.4 0 0 0 8.1 0 19.1 19.1 0 0 0 4.5-1.3 25.2 25.2 0 0 0 3.5-1.7 9.9 9.9 0 0 1-5.5 3.6c.8 1.1 2 2.5 2 2.5a12.7 12.7 0 0 0 9.7-4.4 39.5 39.5 0 0 0-4.5-17.6 15 15 0 0 0-8.7-3.2zm.4 11.1a3.4 3.4 0 1 1-3.2 3.3 3.2 3.2 0 0 1 3.2-3.3zm-11.4 0a3.4 3.4 0 0 1 0 6.7 3.4 3.4 0 0 1 0-6.7z"/></svg>