<svg xmlns="http://www.w3.org/2000/svg" width="96" height="96" viewBox="0 0 72 72"><circle cx="36.6" cy="35.4" r="34.6" fill="#d17cb3"/><path fill="#fae7f1" d="M19.1 40.6a1.8 1.8 0 0 1-.5-1.1c0-.3.3-.7.8-1.2a1.2 1.2 0 0 1 .9-.4c.4 0 .8.3 1.4.9a2.8 2.8 0 0 0 .8.6l.8.3c1.1 0 1.7-.5 1.7-1.4s-.2-.5-.5-.7l-1.1-.4-1.5-.4-1.5-.7a2.6 2.6 0 0 1-1.1-1.2 3.8 3.8 0 0 1-.5-1.9 3.8 3.8 0 0 1 1.2-2.8 4.4 4.4 0 0 1 3.2-1.2 6.4 6.4 0 0 1 2 .3 3.3 3.3 0 0 1 1.2.6l.5.3a1.4 1.4 0 0 1 .5.9 1.9 1.9 0 0 1-.4 1c-.4.6-.8.9-1.3.9a1.6 1.6 0 0 1-.9-.4l-.2-.2-.3-.2-.9-.2a1.5 1.5 0 0 0-1 .3.7.7 0 0 0-.4.7.9.9 0 0 0 .5.8 1.8 1.8 0 0 0 1.1.4l1.5.4 1.5.5a2.6 2.6 0 0 1 1.1 1.2 3.6 3.6 0 0 1 .5 1.9 4.6 4.6 0 0 1-.5 2.1 4.1 4.1 0 0 1-1.2 1.4 5.9 5.9 0 0 1-3.1.9l-1.6-.2a3.3 3.3 0 0 1-1.2-.5 6.1 6.1 0 0 1-1.4-1.1zM35.5 34a1.3 1.3 0 0 1 1.4-1.1l1.1.2a.9.9 0 0 1 .5.3 1.1 1.1 0 0 1 .1.5c0 .2.1.4.1.6v6.3c0 .3-.1.5-.1.7a.6.6 0 0 1-.1.4 1.4 1.4 0 0 1-1.3.5l-1.3-.2a1.5 1.5 0 0 1-.4-.8 2.3 2.3 0 0 1-2.2 1 4.2 4.2 0 0 1-2.9-1.4 4.8 4.8 0 0 1-1.3-3.3 4.4 4.4 0 0 1 1.3-3.3 3.9 3.9 0 0 1 3-1.4 2 2 0 0 1 1.1.2l.7.4zm-3.3 3.7a1.7 1.7 0 0 0 1.6 1.6 1.7 1.7 0 0 0 1.2-.5 2.5 2.5 0 0 0 .4-1.1 1.5 1.5 0 0 0-.4-1.1 1.7 1.7 0 0 0-1.2-.5 1.7 1.7 0 0 0-1.6 1.6zm7.9-7.6v-.7l.2-.4c.1-.4.6-.5 1.4-.5s1.2.1 1.3.5.2.3.2.5v8.9c0 .5.1.7.2.8s.2.2.4.2h.5l.3.2c.3.1.4.6.4 1.3s-.1 1.2-.4 1.4a4.4 4.4 0 0 1-2.2.1 2.6 2.6 0 0 1-1.8-1 6 6 0 0 1-.5-2.8zm14.8 6.5a2.1 2.1 0 0 1-.5 1.6 1.6 1.6 0 0 1-1.2.5h-4.3c0 .4.2.6.6.9a2.7 2.7 0 0 0 1.2.3l1.6-.2h.2l.8-.2a1.2 1.2 0 0 1 .9.8 1.9 1.9 0 0 1 .3.9c0 1-1.3 1.6-3.9 1.6a5.9 5.9 0 0 1-2.3-.5 3.4 3.4 0 0 1-1.6-1.3 5.2 5.2 0 0 1-1.2-3.3 4.6 4.6 0 0 1 1.5-3.6 5.2 5.2 0 0 1 3.7-1.3 3.9 3.9 0 0 1 3.6 1.7 3.7 3.7 0 0 1 .6 2.1zm-3.8.5c.5 0 .7-.2.7-.6a.9.9 0 0 0-.3-.7l-.9-.2a1.6 1.6 0 0 0-1.1.5 1.2 1.2 0 0 0-.6 1z"/></svg>