<svg xmlns="http://www.w3.org/2000/svg" width="96" height="96" viewBox="0 0 72.3 72.3"><path fill="#785fa9" d="M36.5 7.3c-8 0-9 0-12.1.2a20.9 20.9 0 0 0-7.1 1.3 14.6 14.6 0 0 0-5.2 3.4 13 13 0 0 0-3.4 5.2 24 24 0 0 0-1.4 7.1c-.1 3.1-.2 4.1-.2 12.1s.1 9 .2 12.1a24 24 0 0 0 1.4 7.1 13 13 0 0 0 3.4 5.2 14.6 14.6 0 0 0 5.2 3.4 20.9 20.9 0 0 0 7.1 1.3c3.1.2 4.1.2 12.1.2s8.9 0 12-.2a21.6 21.6 0 0 0 7.2-1.3 16.6 16.6 0 0 0 5.2-3.4 13.9 13.9 0 0 0 3.3-5.2 19 19 0 0 0 1.4-7.1c.2-3.1.2-4.1.2-12.1s-.1-9-.2-12.1a19 19 0 0 0-1.4-7.1 13.9 13.9 0 0 0-3.3-5.2 16.6 16.6 0 0 0-5.2-3.4 21.6 21.6 0 0 0-7.2-1.3c-3.1-.2-4.1-.2-12-.2zm0 5.3h11.8a19.1 19.1 0 0 1 5.5 1 10.6 10.6 0 0 1 3.3 2.2 8.3 8.3 0 0 1 2.2 3.4 15.4 15.4 0 0 1 1 5.4c.2 3.1.2 4.1.2 11.9s0 8.8-.2 11.8a15.6 15.6 0 0 1-1 5.5 11.1 11.1 0 0 1-2.2 3.4 10 10 0 0 1-3.4 2.2 18.2 18.2 0 0 1-5.4 1H24.5a17.3 17.3 0 0 1-5.4-1.1 7.7 7.7 0 0 1-3.4-2.2 9.1 9.1 0 0 1-2.2-3.3 16.1 16.1 0 0 1-1-5.5c-.2-3.1-.2-4-.2-11.8s0-8.8.2-11.9a16.1 16.1 0 0 1 1-5.5 8.3 8.3 0 0 1 2.2-3.3 7.7 7.7 0 0 1 3.4-2.2 16.6 16.6 0 0 1 5.4-1.1h12zm0 8.9a15.1 15.1 0 1 0 15 15.1 15.1 15.1 0 0 0-15-15.1zm0 24.9a9.8 9.8 0 1 1 9.7-9.8 9.8 9.8 0 0 1-9.7 9.8zm19.1-25.5a3.5 3.5 0 0 1-3.5 3.6 3.6 3.6 0 0 1 0-7.1 3.5 3.5 0 0 1 3.5 3.5z"/></svg>