<svg xmlns="http://www.w3.org/2000/svg" width="96" height="96" viewBox="0 0 72.3 72"><path fill="none" stroke="#7860a9" stroke-linecap="round" stroke-linejoin="round" stroke-width="3.74" d="M58 14v29.7H12L7.4 14zm0 0l4.5-9.3H69M10.8 55.5H58"/><circle cx="55.8" cy="63.8" r="3" fill="none" stroke="#7860a9" stroke-linecap="round" stroke-linejoin="round" stroke-width="3.74"/><circle cx="10.8" cy="63.8" r="3" fill="none" stroke="#7860a9" stroke-linecap="round" stroke-linejoin="round" stroke-width="3.74"/><path fill="none" stroke="#7860a9" stroke-linecap="round" stroke-linejoin="round" stroke-width="3.74" d="M58 43.7s6 .5 6 6-5.7 5.8-5.7 5.8"/><path fill="#9b9b9a" stroke="#7860a9" stroke-linecap="round" stroke-linejoin="round" stroke-width="3.74" d="M50.3 20.3v1m0 15.4v.9m-6.7-17.3v1m0 15.4v.9m-6.8-17.3v1m0 15.4v.9m-6.7-17.3v1m0 15.4v.9m-6.6-17.3v1m0 15.4v.9m-6.7-17.3v1m0 15.4v.9m33.5-9.4v1m-6.7-1v1m-6.8-1v1m-6.7-1v1m-6.6-1v1m-6.7-1v1"/></svg>