<svg xmlns="http://www.w3.org/2000/svg" width="96" height="96" viewBox="0 0 72.3 72.3"><path fill="#785fa9" d="M69.3 17.6a25.5 25.5 0 0 1-7.2 1.9 12.6 12.6 0 0 0 5.5-6.9 26.5 26.5 0 0 1-8 3 12.5 12.5 0 0 0-21.7 8.6 14.3 14.3 0 0 0 .3 2.9A35.7 35.7 0 0 1 12.3 14a12.1 12.1 0 0 0-1.7 6.3 12.5 12.5 0 0 0 5.6 10.4 12.4 12.4 0 0 1-5.7-1.5 12.5 12.5 0 0 0 10.1 12.4 12.6 12.6 0 0 1-3.3.5l-2.3-.2a12.6 12.6 0 0 0 11.7 8.7A25 25 0 0 1 11.1 56l-3-.2a36.3 36.3 0 0 0 19.3 5.6c23.1 0 35.8-19.1 35.8-35.7a9.2 9.2 0 0 0-.1-1.6 24.4 24.4 0 0 0 6.3-6.5z"/></svg>