<svg xmlns="http://www.w3.org/2000/svg"><symbol id="hamburger-nav" viewBox="0 0 72.3 72"><path fill="none" stroke="#785fa9" stroke-linecap="round" stroke-linejoin="round" stroke-width="6.65" d="M13.4 20.8H59M13.4 33.5H59M13.4 46.2H59"/></symbol><symbol id="instagram" viewBox="0 0 72.3 72.3"><path fill="#785fa9" d="M36.5 7.3c-8 0-9 0-12.1.2a20.9 20.9 0 0 0-7.1 1.3 14.6 14.6 0 0 0-5.2 3.4 13 13 0 0 0-3.4 5.2 24 24 0 0 0-1.4 7.1c-.1 3.1-.2 4.1-.2 12.1s.1 9 .2 12.1a24 24 0 0 0 1.4 7.1 13 13 0 0 0 3.4 5.2 14.6 14.6 0 0 0 5.2 3.4 20.9 20.9 0 0 0 7.1 1.3c3.1.2 4.1.2 12.1.2s8.9 0 12-.2a21.6 21.6 0 0 0 7.2-1.3 16.6 16.6 0 0 0 5.2-3.4 13.9 13.9 0 0 0 3.3-5.2 19 19 0 0 0 1.4-7.1c.2-3.1.2-4.1.2-12.1s-.1-9-.2-12.1a19 19 0 0 0-1.4-7.1 13.9 13.9 0 0 0-3.3-5.2 16.6 16.6 0 0 0-5.2-3.4 21.6 21.6 0 0 0-7.2-1.3c-3.1-.2-4.1-.2-12-.2zm0 5.3h11.8a19.1 19.1 0 0 1 5.5 1 10.6 10.6 0 0 1 3.3 2.2 8.3 8.3 0 0 1 2.2 3.4 15.4 15.4 0 0 1 1 5.4c.2 3.1.2 4.1.2 11.9s0 8.8-.2 11.8a15.6 15.6 0 0 1-1 5.5 11.1 11.1 0 0 1-2.2 3.4 10 10 0 0 1-3.4 2.2 18.2 18.2 0 0 1-5.4 1H24.5a17.3 17.3 0 0 1-5.4-1.1 7.7 7.7 0 0 1-3.4-2.2 9.1 9.1 0 0 1-2.2-3.3 16.1 16.1 0 0 1-1-5.5c-.2-3.1-.2-4-.2-11.8s0-8.8.2-11.9a16.1 16.1 0 0 1 1-5.5 8.3 8.3 0 0 1 2.2-3.3 7.7 7.7 0 0 1 3.4-2.2 16.6 16.6 0 0 1 5.4-1.1h12zm0 8.9a15.1 15.1 0 1 0 15 15.1 15.1 15.1 0 0 0-15-15.1zm0 24.9a9.8 9.8 0 1 1 9.7-9.8 9.8 9.8 0 0 1-9.7 9.8zm19.1-25.5a3.5 3.5 0 0 1-3.5 3.6 3.6 3.6 0 0 1 0-7.1 3.5 3.5 0 0 1 3.5 3.5z"/></symbol><symbol id="left-cheveron" viewBox="0 0 72 72"><path fill="none" stroke="#785fa9" stroke-linecap="round" stroke-linejoin="round" stroke-width="6.65" d="M13.2 35.3l36-28.9m-36 28.8l36 28.9"/></symbol><symbol id="twitch" viewBox="0 0 72 72.3"><path fill="#785fa9" d="M10.6 7.3L6.9 17v39h13.4v7.3h7.4L35 56h10.9l14.6-14.6V7.3zm4.9 4.8h40.2v26.8l-8.6 8.6H33.7l-7.3 7.3v-7.3H15.5z"/><path fill="#785fa9" d="M28.9 36.5h4.8V21.9h-4.8zm13.4 0h4.8V21.9h-4.8z"/></symbol><symbol id="right-cheveron" viewBox="0 0 72.3 72"><path fill="none" stroke="#785fa9" stroke-linecap="round" stroke-linejoin="round" stroke-width="6.65" d="M57.2 33.8L21.2 5m36 28.8l-36 28.8"/></symbol><symbol id="twitter" viewBox="0 0 72.3 72.3"><path fill="#785fa9" d="M69.3 17.6a25.5 25.5 0 0 1-7.2 1.9 12.6 12.6 0 0 0 5.5-6.9 26.5 26.5 0 0 1-8 3 12.5 12.5 0 0 0-21.7 8.6 14.3 14.3 0 0 0 .3 2.9A35.7 35.7 0 0 1 12.3 14a12.1 12.1 0 0 0-1.7 6.3 12.5 12.5 0 0 0 5.6 10.4 12.4 12.4 0 0 1-5.7-1.5 12.5 12.5 0 0 0 10.1 12.4 12.6 12.6 0 0 1-3.3.5l-2.3-.2a12.6 12.6 0 0 0 11.7 8.7A25 25 0 0 1 11.1 56l-3-.2a36.3 36.3 0 0 0 19.3 5.6c23.1 0 35.8-19.1 35.8-35.7a9.2 9.2 0 0 0-.1-1.6 24.4 24.4 0 0 0 6.3-6.5z"/></symbol><symbol id="x" viewBox="0 0 72.3 72"><path fill="none" stroke="#785fa9" stroke-linecap="round" stroke-linejoin="round" stroke-width="6.65" d="M13.6 17.3l46.3 42m-.8-41.5L16.9 58.7"/></symbol><symbol id="artboard-8" viewBox="0 0 72.3 72.3"><path fill="#785fa9" d="M57.6 7.3a6.5 6.5 0 0 1 6.5 6.2v54.2l-6.7-5.8-3.7-3.3-4-3.5 1.6 5.5H16a6.3 6.3 0 0 1-6.4-6.2V13.5A6.3 6.3 0 0 1 16 7.3h41.6zM42.2 21.6h-.1l-.5.5a20.4 20.4 0 0 1 7.7 3.8 27.8 27.8 0 0 0-9.4-2.8 21.4 21.4 0 0 0-6.2 0h-.5a23.4 23.4 0 0 0-7.1 1.8 11.6 11.6 0 0 0-1.8.9s2.5-2.5 8-3.9l-.3-.3a15 15 0 0 0-8.8 3.2 39.5 39.5 0 0 0-4.5 17.6s2.5 4.4 9.4 4.6a31.8 31.8 0 0 1 2.1-2.6 9.5 9.5 0 0 1-5.4-3.5l.8.5h.5l2.3 1a20.3 20.3 0 0 0 4.5 1.3 24.4 24.4 0 0 0 8.1 0 19.1 19.1 0 0 0 4.5-1.3 25.2 25.2 0 0 0 3.5-1.7 9.9 9.9 0 0 1-5.5 3.6c.8 1.1 2 2.5 2 2.5a12.7 12.7 0 0 0 9.7-4.4 39.5 39.5 0 0 0-4.5-17.6 15 15 0 0 0-8.7-3.2zm.4 11.1a3.4 3.4 0 1 1-3.2 3.3 3.2 3.2 0 0 1 3.2-3.3zm-11.4 0a3.4 3.4 0 0 1 0 6.7 3.4 3.4 0 0 1 0-6.7z"/></symbol></svg>