<svg xmlns="http://www.w3.org/2000/svg" width="64" height="64" viewBox="0 0 64 64"><title>logo</title><g id="Layer_2" data-name="Layer 2"><path d="M57.5,29.3a5.9,5.9,0,0,1-.3,3.7,9.3,9.3,0,0,0-.5,1l-.7.9c-.3.3-.2.4-.1.7s1.1,1.3,1.5,2.1a8.3,8.3,0,0,1,.5,3.5l-.3,1.7h-.1c-.7.6-1.6,1.1-1.7,2.1a14.3,14.3,0,0,1-2.6,2.3c-.2,0-.3.1-.4.3h0a53.2,53.2,0,0,1-5,2.1,9.2,9.2,0,0,1-4,.7,3.2,3.2,0,0,0-1.4.3,9.7,9.7,0,0,1-2.9.4l-2.3-.2a16.7,16.7,0,0,1-5.9-.1h-.6a3.6,3.6,0,0,1-2.5.3h-.1a2.4,2.4,0,0,0-1-.5L20.8,50h0a28.8,28.8,0,0,1-5-1.5,6.4,6.4,0,0,1-3.7-4l.5.4a6.7,6.7,0,0,0,4.1,1.8l3,.3a3.7,3.7,0,0,0,2.3.5,2.2,2.2,0,0,0,2.9.4h.2l2.4.3a34.7,34.7,0,0,0,7.2-.1c2.4-.3,4.9-.7,7.3-.8a16.8,16.8,0,0,0,6.3-1.2,11.8,11.8,0,0,0,2.9-1.6h-.1a7.1,7.1,0,0,0,2.6-1.8,8.7,8.7,0,0,0,3-4.3,1.6,1.6,0,0,0-.4-1.7v.6a9.2,9.2,0,0,1-1.5,2.5h-.1a1.8,1.8,0,0,0-.5.7h0c-.7.8-1.6,1.3-2.3,2a7.9,7.9,0,0,1-2.9,1.7,15.9,15.9,0,0,1-7.2.8,4,4,0,0,0-1.1,0,16.3,16.3,0,0,1-3.8.3,6.5,6.5,0,0,0-3.1.2H26.6c0-1.1-.4-2.3-.5-3.4H36.9c1.9-.1,3.8-.5,5.6-.5a20,20,0,0,0,7.3-1.2,13.3,13.3,0,0,0,3.9-2.1,3.2,3.2,0,0,0,1.1-2.3l-2.5,1.6c-.1-.1-.2,0-.4,0a12.8,12.8,0,0,1-7.2,1.1,5.6,5.6,0,0,0-2.2.3,4.5,4.5,0,0,1-1.6.3c-2.2-.1-4.3,0-6.4,0H32.7a53,53,0,0,1-6.9.2h0l-.3-3.1c6.1.2,12.1-.2,18.1-.5a16.4,16.4,0,0,0,4.4-.4h1.2C52.7,34.4,56,33,57.5,29.3Z" fill="#f7fdc3"/><path d="M57.5,29.3c-1.5,3.7-4.8,5.1-8.3,6.1H48c-.5-.4.3-.4.2-.7a2.2,2.2,0,0,0,1.3-2.2c-.2-1.3-2-2.2-3.5-1.6a5.6,5.6,0,0,0-1.2.4.7.7,0,0,0-.6-.7c-.2-.1-.5-.1-.5-.5a2.4,2.4,0,0,0,1-.5c.7-.6.7-1-.1-1.6l-2.4-1.3c-.6-.5-1.5-.8-1.4-1.8a1.9,1.9,0,0,1,.2-.7h.2a4.9,4.9,0,0,1,2-1.1c0,.5-.3.7-.7.9s-.3.3-.1.4.8.4,1.1,0a3.6,3.6,0,0,1,2.8-.7h2.2l1.1.2,3.2.2c1.1.1,2.1.1,2.8-1s.9.4,1.3.4a8.9,8.9,0,0,1,.7,4.2C57.6,28.3,57.5,28.8,57.5,29.3Z" fill="#ebc141"/><path d="M57.6,42.9l.3-1.7a1.4,1.4,0,0,1,1.1,1,1.9,1.9,0,0,0,.9,1.2,1.6,1.6,0,0,1,1.2,1.3c0,.2-.1.2-.3.3l-1.3,1.1a5,5,0,0,0-1.6,3.4,1.5,1.5,0,0,0-.6,1.6,7.9,7.9,0,0,0-.3,1.3c0,.4-.1.6-.5.6s-.8-.5-1.4-.3.8.6-.1.7-.1.2-.2.3a1.6,1.6,0,0,1-1.3.7c-.2,0-.4-.1-.6.1a1.5,1.5,0,0,1-1.1.6,3.5,3.5,0,0,0-1.8.5.4.4,0,0,1-.6-.1c-.2-.1,0-.3.1-.4l.3-.6c.7.1,1.4-.3,2.1-.2s.9-.1.6-.7a.7.7,0,0,1,.3-.5c.2.1.1.6.5.6a1.1,1.1,0,0,0,.7-.6v-.2c.3-.4,1.1-.6,1.1-1.4s1.3-.6,1.1-1.4a.1.1,0,0,1,.1-.1c.1,0,.1.4.5.2s.3-.2.3-.4-.2-.3-.4-.3l-.3-.3c-.6-.5-1.6-.7-1.8-.3s-.8.6-1.3.9l-.2.2c.1.8-.5.7-.9.8l-.6.3a10.5,10.5,0,0,0-2.3,1.3H49c-.7-.2-1.1.3-1.6.6s-.2.3-.1.5,1.2.6,1.8.9a.7.7,0,0,1-.5,1c-.4.1-.2-.4-.5-.3s-.3.9.1,1.3-.8.1-1-.4a.2.2,0,0,0,.1-.4c0-.1-.1-.1-.2,0s-.1.3,0,.4-.5.1-.7-.1a10.7,10.7,0,0,1-2.2-1.5.9.9,0,0,0-.9-.5,3.8,3.8,0,0,1-.8-2.3c0-.2-.1-.3-.1-.4v-.2h2.7c0,.6.2.9.8.8a1.2,1.2,0,0,1,.8.2c.1.1.2,0,.4-.1a1.5,1.5,0,0,1,1.5-.4c.7.5.8.2,1.1-.3s.1-.4.3-.3.7,0,.9-.4l.4-.3c.7.3.7-.2.8-.6a.8.8,0,0,1,.2-.4c.1-.1.3-.2.3-.4s-.3-.1-.5-.1.7-.4.7-.9h0c.2,0,.4,0,.4-.3a14.3,14.3,0,0,0,2.6-2.3c.8-.3,1-1,1.5-1.5s.2-.4.2-.6h.1ZM48,52h-.2a.1.1,0,0,1,.1.1H48Z" fill="#dc8b12"/><path d="M40.8,25c-.1,1,.8,1.3,1.4,1.8l2.4,1.3c.8.6.8,1,.1,1.6s-1.1-.5-1.6-.7a.9.9,0,0,0-.5-1.2,5.2,5.2,0,0,1-1.3-.6,1.7,1.7,0,0,0-1.2-.4c-.9,0-1.9-.3-2.9-.3a.5.5,0,0,1-.4-.7A3.1,3.1,0,0,1,37.9,24a.9.9,0,0,0-.1-1.4c-.1-.7.2-1.3.1-2A1.8,1.8,0,0,0,37,19a2.2,2.2,0,0,0,.6-1.3,2.7,2.7,0,0,0,0-.9c0-1.1,1.2-1.5,1.4-2.5h0c.4-.2.4-.2.3-.5a3.1,3.1,0,0,1,1.9,0,13.8,13.8,0,0,1,2.7.8c0,.5-.3.7-.6,1.1h-.4c0-.8-.5-1.1-1.3-.7a6.2,6.2,0,0,0-2.8,2.3c-.4.8-.2,1.6.4,1.8a.6.6,0,0,0,.7.5,6.9,6.9,0,0,0,2.5-.2,23.2,23.2,0,0,1,5.9-.6c1.9.1,3.8-.3,5.7,0h0c0,.1,0,.1.1.1s.7.2.9.6-.1.3,0,.4a8.6,8.6,0,0,0,1,1.6,6.6,6.6,0,0,0-1.4-.1c0-.3.4-.6.1-.8a7.5,7.5,0,0,0-1.3-.6,37.1,37.1,0,0,0-4.7-.3,4.2,4.2,0,0,0-1.6.4h-.4c-.9,0-1,.1-1.1,1l-1.7.5a5.3,5.3,0,0,0-3.1,1.9C40.5,24,40.2,24.5,40.8,25Z" fill="#d57c0f"/><path d="M9.4,51.3l-.5-1.5.2-.4c.3.2.6.1,1,.2s.2-.2.2-.3-.1-.3-.3-.2-.2.1-.2-.1.4-.3.4-.6-.6,0-.5-.3-.2-.8-.5-1.1l.2-.7c.5,0,.4-.3.2-.6l-.5-.2v-.6c.3-.1.3.1.5.2h.3c.6,0,.8.1.9.7a3,3,0,0,0,.9,1.3c0,.1.1,0,.2,0s.4.3.1.5-.3.5.2.6l1.2.2a8.1,8.1,0,0,0,1.4,1.2c1.5.8,3.2.8,4.9,1a29.3,29.3,0,0,1,5.9,1.1c.1.2.1.3.3.1h.1c.1.3.1.6-.1.7s-.9,1.8-1.9,2.5a5,5,0,0,1-2.6,1.1l-1.9.3c-.8.3-.8.3-1.1-.7s0-.5.3-.7.4.8.7.5a.6.6,0,0,1,.7-.1c.1.1.4.1.4,0s1.2-.4,1.8-.6a1.7,1.7,0,0,0,1.2-1c.2-.4.1-.7-.4-.6a1.9,1.9,0,0,1-1.3-.3h-.4c-.3.2-.4.1-.5-.2a.4.4,0,0,0-.8,0c-.2.3-.3.4-.7.3s-.3-.3-.4-.6-.3-.9-1.1-.8-.2,0-.2-.1a3.7,3.7,0,0,0-2-.7,3.5,3.5,0,0,1-1.7-.6c-.2-.3-.5-.4-.8,0s-.5.3-.9.2l.3-.4c.2-.1.3-.3.2-.4s-.3,0-.4.1-.3,0-.4,0-.3-.1-.4.1-.5.9.3,1H12a3.2,3.2,0,0,0,1.1,2.4c.4.4.5,1.1,1.1,1.1s.5.2.6.5.5.6.9.2a.4.4,0,0,1,.7,0,1.6,1.6,0,0,0,1.5.2H18a.4.4,0,0,1,.1.3c-.1.3.1.9-.6.5s0,.2-.1.2-.2.3-.4.2-.5-.2-.8-.2-.8.1-1.2-.3a1.8,1.8,0,0,0-.8-.5c-.5,0-1.1,0-1.2-.7s-.2-.2-.4-.2-1.4-.9-1.3-1.2-.2-.5-.5-.5H10c-.4-.1,0-.7-.5-.8V52C9.7,51.7,9.8,51.4,9.4,51.3Zm.6-4.6c0-.1-.1-.1-.2-.2a.1.1,0,0,0-.1.1c-.1.1,0,.2.1.2Zm1.5.8h-.1a.1.1,0,0,0-.1.1h.2Zm-.6-.2h0a.1.1,0,0,1,.1.1h0C11,47.3,11,47.3,10.9,47.3Z" fill="#db880c"/><path d="M23.2,13.7a16.6,16.6,0,0,1,4.9-.7,45.6,45.6,0,0,1,10.5,1,1.2,1.2,0,0,0-.6.6,17.1,17.1,0,0,1-2.2,2.5c-.5.5-1.1.7-1.4,1.2L32.9,18a3.3,3.3,0,0,0-3.3.4c-1.6-.9-3.2-1.6-4.3-3.1A6.5,6.5,0,0,0,23.2,13.7Z" fill="#ebc141"/><path d="M61.1,44.7a1.6,1.6,0,0,0-1.2-1.3,1.9,1.9,0,0,1-.9-1.2,1.4,1.4,0,0,0-1.1-1,8.3,8.3,0,0,0-.5-3.5c-.4-.8-1.1-1.3-1.5-2.1s-.2-.4.1-.7l.7-.9a5.8,5.8,0,0,1,4.1,1.5,18,18,0,0,1,2.6,2.9,4.8,4.8,0,0,1-1,5.9c-.2-.1-.2-.2-.2-.3s.1-.3-.1-.3-.5.1-.3.4S61.4,44.5,61.1,44.7Zm.3-1.2c.1-.1.4-.1.3-.4h-.2c-.2.1-.1.3-.1.5s-.3,0-.2.2h.2C61.6,43.7,61.4,43.6,61.4,43.5Z" fill="#db8608"/><path d="M9.5,24.2a7.4,7.4,0,0,1,1.8-4.7,12.7,12.7,0,0,1,5.9-4c-.1.4-.2.9.5.9a.3.3,0,0,1,.1.2c-.2,1,.8,1.6.7,2.5s.3-.4.6-.3,1.1.6,1.2,1.2a2.2,2.2,0,0,0,.7.9l.4.5a5,5,0,0,1-2.1.2c0-.1.1-.4-.1-.5s0,.4,0,.5a6.5,6.5,0,0,1-2.4.1C14.1,21.9,11.6,22.4,9.5,24.2Zm9.3-4.8v1c0,.1,0,.2.2.3s.1.1.2,0,.2-.3.1-.5S19.1,19.8,18.8,19.4Zm-1.6-1.7.2-.2c0-.1,0-.2-.1-.1h-.2C17.1,17.6,17.1,17.6,17.2,17.7Z" fill="#ebc141"/><path d="M9.5,24.2c2.1-1.8,4.6-2.3,7.3-2.5a6.5,6.5,0,0,0,2.4-.1h.1a5,5,0,0,0,2.1-.2,2.6,2.6,0,0,0,1.7-.9h.8c0,.3-.1.6-.1.8s-.1.3.1.3,1,.8,1.3,1.3.1.3.3.3a.8.8,0,0,0,.6.9l1.7.7c0,.3.2.4.4.5s-.2.7.1.7.5.7,1,.6.6.4.8.3,1.1.1,1.7,0,.3.1.3.4a6.5,6.5,0,0,0-2.3.6c-.1-.4-.6,0-.8-.3a.4.4,0,0,0-.6-.3c-.2.1-.2,0-.3-.1a5.8,5.8,0,0,0-2.1-1c0-.2.5-.1.2-.4s-.1-.6-.5-.5l-.5.2c-.4.3-.6.1-.7-.3s0-.3-.2-.4a.8.8,0,0,1-.5.5c-.4.2-.3.6-.3.8s.2.7.5.6.3.1.3.3-.2.2-.4.2-.7-.1-.9.4h-.2a.4.4,0,0,0-.2-.5c0-.1-.1-.2-.2-.3l-.3-.3c.5.1.6-.3.6-.6a13.1,13.1,0,0,0-.8-2.1.8.8,0,0,0-.8-.4c-.6.2-1-.2-1.4-.4s-.2-.2-.3-.1-.5.3-.8-.1-.4.3-.7.3-.9.2-1.2.2-1.5-.1-1.9.7-.2.2-.2.1-.9.1-1.2.5,0-.5-.3-.7a2.1,2.1,0,0,1-1.3.5h0c0,.1-.1.3-.2.2a.6.6,0,0,0-.9.1c-.2.2,0,.5.2.7s.1.2,0,.3-.7-.3-.6-.7h0c-.4.1-.4.5-.7.8s.5-.1.6.2a.2.2,0,0,1,0,.3c-.3.1-.4-.1-.6-.3H9.4c-.1-.3.1-.6-.2-.9l.2-.6h.1Zm4.7-.6h.1c.1.1.3.2.3.1s0-.2-.1-.3-.1.1-.2.2Zm10.1-1.3a.1.1,0,0,1-.1-.1H24c0,.1,0,.2.1.2Zm-9.1.3v.2a.1.1,0,0,0,.1-.1c0-.1-.1-.1-.1-.2A.1.1,0,0,0,15.2,22.6Zm7.6,2h0Z" fill="#d57c0f"/><path d="M.6,39.4a4.8,4.8,0,0,1,3.2-2.7c.5-.1.9-.4,1.4-.2h.1c0-.3.3-.2.4-.3s0,1.4.4,2.1.1.7.7.7h.3v.8H6.3c0,.2,0,.3.1.3s.7.1.4.7-.3-.1-.3.1a.3.3,0,0,0,.3.3c.2,0,.1-.2.1-.3a1,1,0,0,1,.7.4c0,.4.2.7.1,1s.3-.5.5-.1.4.2.7.3-.3.9-.7,1.3v-.2c-.1-.2-.3-.6-.5-.5s.2.3.2.5v.4c-.6.1-.6-.2-.6-.6s.1-.9-.5-1.1a4.8,4.8,0,0,0,.3,1.8c0,.2,0,.3-.2.3s-.3.6-.5,0h0l-.7.2c-.3-.1-.2-.4-.3-.6s-.1-.3-.3-.2,0,.3.1.4H4.9a.9.9,0,0,0-.9-.5v-.2c-.4-.4-.7-.9-1.3-.9s.5-.2.4-.3-.3-.5-.5-.6-.2.2-.3.3-.7.3-.8,0-.5-.2-.8,0S.6,42.1.6,42a.2.2,0,0,0,0-.3.7.7,0,0,0-.6-.4v-.5c.2-.1.4,0,.6.2s.2,0,.3-.1.1-.2,0-.2.1-.4.2-.7S1,39.4.6,39.4Zm1.5,1.8c-.8.2-.8.2-.4.8s.7-.4.4-.8.2-.1.2-.2H2.2C2.1,40.9,2.1,41.1,2.1,41.2Zm3.5-3.4c0-.1,0-.2-.1-.2a.1.1,0,0,0-.1.1v.2ZM2.7,41.4H2.6c0,.1-.1.1-.1.2h.2ZM6,39.5H6a.1.1,0,0,1-.1.1ZM3.9,42.6h0Z" fill="#db880c"/><path d="M43.3,15.7c.3-.4.6-.6.6-1.1a18.4,18.4,0,0,1,4.7.6A8.9,8.9,0,0,1,54,18.9c-1.9-.3-3.8.1-5.7,0a23.2,23.2,0,0,0-5.9.6c0-.4,0-.7.4-.8s.5-.1.3-.3a.7.7,0,0,1,.2-1A1.4,1.4,0,0,0,43.3,15.7Z" fill="#ebc141"/><path d="M18.3,55.7c.3,1,.3,1,1.1.7l1.9-.3A5,5,0,0,0,23.9,55c1-.7,1.1-1.8,1.9-2.5s.2-.4.1-.7l2.7.4h.1a4.9,4.9,0,0,1,.1,1.2c-.5-.1-.7.4-1.1.4s.1-.2.1-.3.4-.2.2-.5-.3-.1-.5-.1a2.4,2.4,0,0,0-1.8,1.2,8,8,0,0,1-3.2,2.6,8.8,8.8,0,0,1-3.2.4c-.3,0-.6-.2-.9,0a.9.9,0,0,1-1.2.1h-.3c-.2.2-.5.1-.8.1a6.4,6.4,0,0,1-2.7-.7c-.1,0-.2-.1-.3,0a.3.3,0,0,0,0,.4.5.5,0,0,1,.2.4,1.3,1.3,0,0,1-.9-.5c-.4-.4-.6-.9-1-1.3A7,7,0,0,1,10,53h.8c.3,0,.7-.1.5.5s.9,1.2,1.3,1.2.4-.1.4.2.7.7,1.2.7a1.8,1.8,0,0,1,.8.5c.4.4.8.3,1.2.3s.6-.1.8.2.4.1.4-.2.1-.1.1-.2.5-.2.6-.5Zm-5.7.8c.1,0,.2,0,.2-.2s-.1-.2-.3-.2v.2C12.4,56.5,12.5,56.5,12.6,56.5Z" fill="#dc8b12"/><path d="M23.2,13.7a6.5,6.5,0,0,1,2.1,1.6c1.1,1.5,2.7,2.2,4.3,3.1L28,19.5c-.3-.1-.3-.4-.4-.6s-.1-.3-.2-.3-.3.1-.3.2a.7.7,0,0,1-.7.6c-.4,0-.3-.4-.4-.6s-.1-.2-.1-.3-.2-.5-.5-.3-.6,0-.5-.2,0-.4-.2-.5A10.6,10.6,0,0,0,23.2,16c-.2-.2-.4-.3-.3-.7s-.1-.3-.3-.2-.5.1-.7,0a1,1,0,0,0-.9,0h0l-.2-.6c-.2.2-.2.4-.3.6s-.9-.4-1.3.1-.3-.2-.4-.3v-.2a16.6,16.6,0,0,0,3.8-1.1Zm1.3,2.8h.1c.1.1.3.2.2-.1Zm-.6-.6-.2-.2h.2Z" fill="#d57c0f"/><path d="M1.7,50.2c.2-.6.8-.8,1.4-.9s3.1.2,3.3,1.8L5.3,52.4c-.6.4-1.3.1-1.9.4H3.3a1.5,1.5,0,0,0-.9-.7A2.6,2.6,0,0,1,1.7,50.2Z" fill="#dd901e"/><path d="M7.1,39.9v-.8c.2-.4.2-1.2-.2-1.2s-.5-.4-.5-.8a.5.5,0,0,0,.8-.1c.3-.4-.1-.7-.2-1.2s-.3,0-.5.1a2,2,0,0,0,.6-1.2,1.1,1.1,0,0,1,.2-.8c.2.6,0,1.3.6,1.9v.4c-.6.4-.4.9-.3,1.4a4.9,4.9,0,0,0,2.6,4.5c-.3.3.1.6.2.8s-.1.4-.4.4-.7-.3-.8.3h0c.2.2.5.4.4.8h0v.6c-.2-.1-.2-.3-.5-.2v.6c-.2-.1-.3-.2-.3-.4s-.3-.9-.9-1v-.4c0-.2-.6-.3-.2-.5s.4.3.5.5v.2c.4-.4.2-.9.7-1.3s-.5-.1-.7-.3-.2.3-.5.1-.1-.6-.1-1A1.2,1.2,0,0,0,7.1,39.9Z" fill="#dd901e"/><path d="M18.8,14.9c.1.1.2.3.4.3s1,.6,1.4,1.2h-.2c-.4.5-1.1-.1-1.6.4s.8.3.6.9,0,.2.2.3l.8.9a3.3,3.3,0,0,0,1.2,1.4c.4.3.8.5,1.2,0h.3a2.6,2.6,0,0,1-1.7.9l-.4-.5a2.2,2.2,0,0,1-.7-.9c-.1-.6-.7-.9-1.2-1.2s-.2.3-.6.3-.9-1.5-.7-2.5a.3.3,0,0,0-.1-.2c-.7,0-.6-.5-.5-.9Z" fill="#ecc348"/><path d="M42.4,51.1v.2a38.7,38.7,0,0,0-4.9.5,22.1,22.1,0,0,1-3.7.4,21.8,21.8,0,0,1-5.1,0h-.1c.1-.3-.2-.5-.4-.8a3.6,3.6,0,0,0,2.5-.3h.6a16.7,16.7,0,0,0,5.9.1l2.3.2a9.7,9.7,0,0,0,2.9-.4Z" fill="#faf7ca"/><path d="M10,53a7,7,0,0,0,1.4,2.7c.4.4.6.9,1,1.3a1.3,1.3,0,0,0,.9.5h.1a.4.4,0,0,0,.4.4.3.3,0,0,1,.1.2c.7-.1,1.3.5,1.9.6a22.6,22.6,0,0,1,2.6.1c-.1.2,0,.5-.4.4a.4.4,0,0,0-.6.4c-4.1.2-7-2.2-7.8-6.3,0-.4-.2-.7-.1-1.1S9.6,52.9,10,53Z" fill="#d57f16"/><path d="M.6,42c0,.1,0,.2.1.2a2.1,2.1,0,0,0,1,1.7v.2a.4.4,0,0,0,.1.6,12.7,12.7,0,0,1,1.2,1c.3.1.5.4.8.2a1.3,1.3,0,0,0,.7.6l1.6.5c.3.1.9.1,1.1.6s.2,0,.3-.1h0c.4,0,.2.8.8.7l.8,1.2-.2.4a7.5,7.5,0,0,0-3.6-2.2,7.6,7.6,0,0,1-3.9-2.4A5.1,5.1,0,0,1,0,41.3a.7.7,0,0,1,.6.4Z" fill="#d57f16"/><path d="M17.4,59.6a.4.4,0,0,1,.6-.4c.4.1.3-.2.4-.4h.5c.2,0,.3.1.4,0s1.2,0,1.5-.7h.6a3,3,0,0,0,2.2-.8h.2a2.3,2.3,0,0,0,1.7-1h.2c.2-.1.4-.2.4-.4h.1c.3-.1.6-.2.5-.6h0a2.2,2.2,0,0,0,.7-.6.7.7,0,0,1,1.1-.3,2.9,2.9,0,0,1-1.3,1.9,33.6,33.6,0,0,1-4.3,2,20.4,20.4,0,0,1-3.5,1.1A6.8,6.8,0,0,1,17.4,59.6Z" fill="#cf7210"/><path d="M34.4,18.3c.3-.5.9-.7,1.4-1.2A17.1,17.1,0,0,0,38,14.6a1.2,1.2,0,0,1,.6-.6c.2-.1.4-.3.7-.2s.1.3-.3.5h0c-.2,1-1.4,1.4-1.4,2.5a2.7,2.7,0,0,1,0,.9A2.2,2.2,0,0,1,37,19,12.5,12.5,0,0,0,34.4,18.3Z" fill="#d37806"/><path d="M57.5,52.9a5.7,5.7,0,0,1-3.9,4.2,8.5,8.5,0,0,1-7.3-.6.5.5,0,0,1,.5,0,7.4,7.4,0,0,0,3.6.6c.3,0,.8.2,1-.3h.7l.2.4c.4-.5,1-.5,1.6-.7s.4-.1.3-.4h.4a.3.3,0,0,0,.3-.3l.3-.2c.7-.3,1-1,1.5-1.6S56.9,53,57.5,52.9Z" fill="#cf7210"/><path d="M9.2,25c.3.3.1.6.2.9s-.3.3-.3.5-.1.8-.1,1.2-.1,1.6.5,2.2v.5c-.2,1,.2,2,.1,3A2.8,2.8,0,0,1,9.1,32c-.1-.3,0-.7-.4-.8v-1a7.6,7.6,0,0,0-.1-1.5A5.8,5.8,0,0,1,9.2,25Z" fill="#dd901e"/><path d="M3.3,52.8h.1c.3.4.8.3,1.2.2s1.1-.5,1.7-.8a1.9,1.9,0,0,1-2.7,1.4,2.8,2.8,0,0,1-2.2-2.7c0-.3,0-.5.3-.7a2.6,2.6,0,0,0,.7,1.9C2.4,52.7,2.9,52.6,3.3,52.8Z" fill="#cf7210"/><path d="M62.2,44c0,.1,0,.2.2.3L61,45.4a8.2,8.2,0,0,0-2.9,4.2h-.2a5,5,0,0,1,1.6-3.4L60.8,45c.2-.1.3-.1.3-.3s.6-.3.7-.6Z" fill="#d57c0f"/><path d="M7.9,35.8c-.6-.6-.4-1.3-.6-1.9h0c.2-.1.2-.2.2-.3a.8.8,0,0,1,.1-.4,2.4,2.4,0,0,0,.9-1.1,13.4,13.4,0,0,0,.7,1.8h0A4.6,4.6,0,0,0,7.9,35.8Z" fill="#d57f16"/><path d="M6.5,35.9c.2-.1.4.6.5-.1s.5.8.2,1.2a.5.5,0,0,1-.8.1c0,.4,0,.8.5.8s.4.8.2,1.2H6.8c-.6,0-.5-.4-.7-.7s-.1-1.4-.4-2.1H6s0,.2.1.2.1-.2.2-.3Z" fill="#dc8b12"/><path d="M51.4,56.8c-.2.5-.7.3-1,.3a7.4,7.4,0,0,1-3.6-.6.5.5,0,0,0-.5,0h-.1c-.1-.5-.4-.5-.8-.5a6.7,6.7,0,0,1-2.1-2,.9.9,0,0,1,.9.5A10.7,10.7,0,0,0,46.4,56c.2.2.5.1.7.1h.1c.2.5.7.2,1,.4a1.1,1.1,0,0,0,.8.3Z" fill="#d57c0f"/><path d="M56,21.6A8.6,8.6,0,0,1,55,20c-.1-.1-.3-.3,0-.4a5.3,5.3,0,0,1,1.9,4c-.4,0-.8-.4-1.3-.4l-.2-.2C56.4,22.4,56.4,22.4,56,21.6Z" fill="#d57f16"/><path d="M8.5,32.1a2.4,2.4,0,0,1-.9,1.1,5.4,5.4,0,0,1,1-3,3.4,3.4,0,0,1,.1,1C8.6,31.5,8.6,31.8,8.5,32.1Z" fill="#ecc348"/><path d="M6.3,52.2c-.6.3-1,.8-1.7.8s-.9.2-1.2-.2,1.3,0,1.9-.4l1.1-1.3C6.4,51.5,6.5,51.9,6.3,52.2Z" fill="#d57f16"/><path d="M57.5,52.9c-.6.1-.6.6-.8.9h-.3v-.4a.4.4,0,0,0,.1-.3c.4,0,.5-.2.5-.6a7.9,7.9,0,0,1,.3-1.3h.4A5.5,5.5,0,0,1,57.5,52.9Z" fill="#d57c0f"/><path d="M22.6,13.6a16.6,16.6,0,0,1-3.8,1.1,11.5,11.5,0,0,1,3.1-1.1Z" fill="#dd901e"/><path d="M28.5,54.4a.7.7,0,0,0-1.1.3,2.2,2.2,0,0,1-.7.6c.1-.7.8-.9,1-1.5s.6-.5,1.1-.4-.2.5-.2.7-.3.1-.1.3Z" fill="#d57f16"/><path d="M.6,39.4c.4,0-.1.8.6.6s-.9.3-.2.7.1.1,0,.2-.2.2-.3.1-.4-.3-.6-.2A2.4,2.4,0,0,1,.6,39.4Z" fill="#dc8b12"/><path d="M57.7,51.1h-.4a1.5,1.5,0,0,1,.6-1.6h.2c.1.2,0,.3-.1.5s-.3.2-.1.4Z" fill="#db880c"/><path d="M45.4,56c.4,0,.7,0,.8.5Z" fill="#cf7210"/><path d="M9.4,51.3c.4.1.3.4.1.7A.9.9,0,0,1,9.4,51.3Z" fill="#d57f16"/><path d="M6.3,36.1c-.1.1,0,.2-.2.3s-.1-.2-.1-.2S6.2,36,6.3,36.1Z" fill="#db880c"/><path d="M57.9,50.5c-.2-.2-.2-.4.1-.4A.6.6,0,0,1,57.9,50.5Z" fill="#d57c0f"/><path d="M28.5,54.4c-.2-.2-.1-.3.1-.3S28.6,54.4,28.5,54.4Z" fill="#cf7210"/><path d="M7.5,33.6c0,.1,0,.2-.2.3S7.4,33.7,7.5,33.6Z" fill="#dd901e"/><path d="M54.1,19c-.1,0-.1,0-.1-.1A.1.1,0,0,1,54.1,19Z" fill="#ebc141"/><path d="M5.3,36.5h0Z" fill="#dc8b12"/><path d="M9.5,24.3h0Z" fill="#ebc141"/><path d="M43.6,35.9c-6,.3-12,.7-18.1.5h-.1V34.8a9.7,9.7,0,0,1,.1-2.4,8.8,8.8,0,0,1,4.2-4.3,1,1,0,0,0,.9.2h.3c.1.5.6.3.9.5h.7c.3.1.7.1.8.5s.1.4.4.4a.5.5,0,0,1,.6.3,1,1,0,0,0,.5.4c.7.2,1.4.4,1.7,1.3s.2.3.3.1.6-.3.8.1.3.2.5.3l1,.3c.3.2.7.5,1.1.1s.3,0,.4,0a7,7,0,0,0,1.9.6,1.8,1.8,0,0,1,.9.8c.2.3.3.5-.1.7h0C43.7,35.2,43.6,35.6,43.6,35.9Z" fill="#ebc141"/><path d="M52.3,37.7l2.5-1.6a3.2,3.2,0,0,1-1.1,2.3,13.3,13.3,0,0,1-3.9,2.1,20,20,0,0,1-7.3,1.2c-1.8,0-3.7.4-5.6.5H26.1c.1-.5-.2-.9-.2-1.4s2.4.1,3.6,0a7.2,7.2,0,0,1,2.5-.3,10.9,10.9,0,0,0,4.4-.1c2.6-.4,5.3-.3,8-.6s2.5,0,3.8-.3A8.9,8.9,0,0,0,52.3,37.7Z" fill="#ecc348"/><path d="M51.2,44.5a11.8,11.8,0,0,1-2.9,1.6A16.8,16.8,0,0,1,42,47.3c-2.4.1-4.9.5-7.3.8a34.7,34.7,0,0,1-7.2.1l-2.4-.3a5.3,5.3,0,0,0,1.3-1.3.1.1,0,0,1,.1-.1,22.9,22.9,0,0,0,3.7-.1c1.4-.1,2.9-.1,4.3-.3s4.7-.5,7-.5,3.6-.2,5.4-.1a11.3,11.3,0,0,0,1.8-.3A11.7,11.7,0,0,0,51.2,44.5Z" fill="#ecc54e"/><path d="M43.6,35.9c0-.3.1-.7-.3-1h0c.4-.2.3-.4.1-.7a1.8,1.8,0,0,0-.9-.8,7,7,0,0,1-1.9-.6c-.1,0-.3-.1-.4,0s-.8.1-1.1-.1l-1-.3c-.2-.1-.4-.1-.5-.3s-.4-.7-.8-.1-.3.1-.3-.1-1-1.1-1.7-1.3a1,1,0,0,1-.5-.4.5.5,0,0,0-.6-.3c-.3,0-.4,0-.4-.4s-.5-.4-.8-.5h-.7c-.3-.2-.8,0-.9-.5h-.3a1,1,0,0,1-.9-.2v-.2a6.5,6.5,0,0,1,2.3-.6,6.2,6.2,0,0,1,3.3.8.9.9,0,0,0,.3,1.4.9.9,0,0,1,.4.6c0,.1,0,.3.2.3s1.9.9,3,1.2a10.9,10.9,0,0,0,2.5.4c.7.1,1.5-.3,2.1.4s-.2,1.6.8,1.9h.4c.4.3.9.2,1.3.4h1.8c.1.3-.7.3-.2.7A16.4,16.4,0,0,1,43.6,35.9Z" fill="#ecc348"/><path d="M52.3,37.7a8.9,8.9,0,0,1-4.1,1.8c-1.3.3-2.6.1-3.8.3s-5.4.2-8,.6a10.9,10.9,0,0,1-4.4.1,7.2,7.2,0,0,0-2.5.3c-1.2.1-2.4-.1-3.6,0v-.2c0-.3-.1-.6-.1-1a53,53,0,0,0,6.9-.2h1.8c2.1,0,4.2-.1,6.4,0a4.5,4.5,0,0,0,1.6-.3,5.6,5.6,0,0,1,2.2-.3,12.8,12.8,0,0,0,7.2-1.1C52.1,37.7,52.2,37.6,52.3,37.7Z" fill="#d19435"/><path d="M26.1,42.3c.1,1.1.5,2.3.5,3.4h0c-1.8-.1-3.6,0-5.4-.2V42.1h4.9Z" fill="#de9e18"/><path d="M51.2,44.5a11.7,11.7,0,0,1-2.5.7,11.3,11.3,0,0,1-1.8.3c-1.8-.1-3.6.1-5.4.1s-4.7.3-7,.5-2.9.2-4.3.3a22.9,22.9,0,0,1-3.7.1,1.7,1.7,0,0,1,.1-.7h7.1a6.5,6.5,0,0,1,3.1-.2,16.3,16.3,0,0,0,3.8-.3,4,4,0,0,1,1.1,0,15.9,15.9,0,0,0,7.2-.8,7.9,7.9,0,0,0,2.9-1.7c.7-.7,1.6-1.2,2.3-2s-.1.5-.3.7v.3a.8.8,0,0,0-.4.4,8.5,8.5,0,0,1-2,2.2l-.2.3Z" fill="#d19435"/><path d="M25.4,36.4h.1l.3,3.1a23.7,23.7,0,0,1-4.6-.1h0a15.8,15.8,0,0,0-.1-3.1c1-.1,2,.2,3,.1h1.3Z" fill="#de9e18"/><path d="M19.7,47l-3-.3a6.7,6.7,0,0,1-4.1-1.8l-.5-.4a.6.6,0,0,0-.1-.4l.7.3a9.6,9.6,0,0,0,3.7.9,29.2,29.2,0,0,1,5,.9l.4,1.1Z" fill="#ecc54e"/><path d="M28.2,51.4c.2.3.5.5.4.8l-2.7-.4h-.4a29.3,29.3,0,0,0-5.9-1.1c-1.7-.2-3.4-.2-4.9-1a8.1,8.1,0,0,1-1.4-1.2c-.3-.5-.8-.9-.8-1.6l.2.3c1,1,1.8,2.1,3.2,2.5a13.4,13.4,0,0,0,4.9.4h0c.5.5,1.1.4,1.7.5a34.4,34.4,0,0,0,5.6.9Z" fill="#cf7210"/><path d="M20.8,50a13.4,13.4,0,0,1-4.9-.4c-1.4-.4-2.2-1.5-3.2-2.5l-.2-.3-.3-.6c-.3-.7-.8-1.5-.4-2.3l.2.2a.6.6,0,0,1,.1.4,6.4,6.4,0,0,0,3.7,4A28.8,28.8,0,0,0,20.8,50Z" fill="#de9e18"/><path d="M42.4,51.1v-.2a3.2,3.2,0,0,1,1.4-.3,9.2,9.2,0,0,0,4-.7,53.2,53.2,0,0,0,5-2.1c0,.5-.7.4-.7.9s-.5.2-.8.3l-2,1.1a21,21,0,0,1-4.2.9Z" fill="#cf7210"/><path d="M53.3,42a.8.8,0,0,1,.4-.4c.3.1-.1.3.1.5a.6.6,0,0,0,.4-.6c0-.2-.2-.2-.4-.2s.4-.4.3-.7h0a.5.5,0,0,0,.5-.7h.1a3.2,3.2,0,0,0,1.7-2.2c0-.2-.1-.3-.2-.3v-.6a1.6,1.6,0,0,1,.4,1.7,8.7,8.7,0,0,1-3,4.3C53.4,42.5,53.8,42,53.3,42Z" fill="#ecc348"/><path d="M21.2,39.4a23.7,23.7,0,0,0,4.6.1h0c0,.4.1.7.1,1a14.8,14.8,0,0,1-2.1-.1,19,19,0,0,1-2.5-.3h-.1Z" fill="#cf7210"/><path d="M26.4,46.6a5.3,5.3,0,0,1-1.3,1.3h-.2l-1.5-.3c.2-.2,0-.4-.1-.7s-.2-.5.3-.5Z" fill="#d57f16"/><path d="M28.1,51.4a34.4,34.4,0,0,1-5.6-.9c-.6-.1-1.2,0-1.7-.5l6.3.9A2.4,2.4,0,0,1,28.1,51.4Z" fill="#de9e18"/><path d="M53.3,42c.5,0,.1.5.4.7a7.1,7.1,0,0,1-2.6,1.8l.2-.3A8.5,8.5,0,0,0,53.3,42Z" fill="#ecc54e"/><path d="M23.4,47.6l1.5.3a2.2,2.2,0,0,1-2.9-.4h.1A5.3,5.3,0,0,0,23.4,47.6Z" fill="#de9e18"/><path d="M57.5,43.1c0,.2,0,.5-.2.6s-.7,1.2-1.5,1.5S56.8,43.7,57.5,43.1Z" fill="#cf7210"/><path d="M56.2,37.3c.1,0,.2.1.2.3a3.2,3.2,0,0,1-1.7,2.2A9.2,9.2,0,0,0,56.2,37.3Z" fill="#d19435"/><path d="M19.7,47l2.1.3.3.2H22A3.7,3.7,0,0,1,19.7,47Z" fill="#fefefe"/><path d="M54.6,39.9a.5.5,0,0,1-.5.7A1.8,1.8,0,0,1,54.6,39.9Z" fill="#d19435"/><path d="M53.2,47.5c0,.3-.2.3-.4.3S53,47.5,53.2,47.5Z" fill="#cf7210"/><path d="M57.6,42.9h0Z" fill="#cf7210"/><path d="M56,21.6c.4.8.4.8-.6,1.4H54.2a.3.3,0,0,0-.3-.3,34.7,34.7,0,0,0-4.5-.6.8.8,0,0,0-1,.3,16.2,16.2,0,0,0-2.2,0c-.3-.5-.5-.2-.6.1l-2.4.6a4.9,4.9,0,0,0-2,1.1H41a1.9,1.9,0,0,0-.2.7c-.6-.5-.3-1,0-1.4a5.3,5.3,0,0,1,3.1-1.9l1.7-.5H46c1.9-.5,3.8-.1,5.7,0a28.5,28.5,0,0,0,2.9.3A6.6,6.6,0,0,1,56,21.6Z" fill="#cf7210"/><path d="M43.2,23.1l2.4-.6h.6a16.2,16.2,0,0,1,2.2,0h1a26.1,26.1,0,0,0,4.8.5h1.2l.2.2c-.7,1.1-1.7,1.1-2.8,1L49.6,24l-1.1-.2H46.3a3.6,3.6,0,0,0-2.8.7c-.3.4-.8.1-1.1,0s0-.3.1-.4S43.2,23.6,43.2,23.1Z" fill="#ecc348"/><path d="M43.9,32.4c-.6-.7-1.4-.3-2.1-.4a10.9,10.9,0,0,1-2.5-.4c-1.1-.3-1.9-1.1-3-1.2s-.2-.2-.2-.3a.9.9,0,0,0-.4-.6.9.9,0,0,1-.3-1.4,8.8,8.8,0,0,1,2.2,1A9.9,9.9,0,0,0,40,30a5.9,5.9,0,0,0,3.7.2c0,.4.3.4.5.5a.7.7,0,0,1,.6.7A8.1,8.1,0,0,0,43.9,32.4Z" fill="#ecc54e"/><path d="M48.2,34.8H46.4a.6.6,0,0,1,.1-.4.8.8,0,0,0,0-1.4.4.4,0,0,0-.1-.3c.3,0,.6.1.6-.3s-.2-.3-.3-.4-.7-.5-.7-1c1.5-.6,3.3.3,3.5,1.6A2.2,2.2,0,0,1,48.2,34.8Z" fill="#d37806"/><path d="M43.7,30.2A5.9,5.9,0,0,1,40,30a.5.5,0,0,0-.2-.4c-.6-.2-.9-.8-1.6-.9s-.3-.2-.2-.4.2-.3.3-.2,1.4.2,2,.5a3.9,3.9,0,0,0,2.8.4c.5.2,1.3-.2,1.6.7A2.4,2.4,0,0,1,43.7,30.2Z" fill="#cf7210"/><path d="M46,31c0,.5.4.7.7,1s.4.2.3.4-.3.3-.6.3-1.8.4-1.7,1.6-.8-1.1-.8-1.9a8.1,8.1,0,0,1,.9-1A5.6,5.6,0,0,1,46,31Z" fill="#d57c0f"/><path d="M41,24.3h0Z" fill="#d57c0f"/><path d="M49.1,54.5c-.6-.3-1.3-.3-1.8-.9s-.2-.3.1-.5.9-.8,1.6-.6h.3a10.5,10.5,0,0,1,2.3-1.3l.6-.3c.4-.1,1,0,.9-.8l.2-.2c.5-.3,1-.2,1.3-.9s1.2-.2,1.8.3l.3.3c.2,0,.4.1.4.3s-.2.3-.3.4-.4-.2-.5-.2a.1.1,0,0,0-.1.1c.2.8-.2,1.3-1.1,1.4s-.8,1-1.1,1.4v.2a1.1,1.1,0,0,1-.7.6c-.4,0-.3-.5-.5-.6a.7.7,0,0,0-.3.5c.3.6-.3.7-.6.7s-1.4.3-2.1.2v-.2c-.1-.3-.2-.8-.5-.6s.1.4.1.7h-.3Zm6.3-5.2h-.3a.1.1,0,0,0-.1.1c0,.1.1.1.2.1Zm-.7,2.3h0Z" fill="#db880c"/><path d="M49.1,54.5h.7l-.3.6c-.1.1-.3.3-.1.4a.4.4,0,0,0,.6.1,3.5,3.5,0,0,1,1.8-.5,1.5,1.5,0,0,0,1.1-.6c.2-.2.4-.1.6-.1a1.6,1.6,0,0,0,1.3-.7c.1-.1.1-.3.2-.3s.2-.4.1-.7,1,.3,1.4.3a.4.4,0,0,1-.1.3c-.6,0-.5.4-.5.8s-.6.8-.7,1.3l-.3.2c-.2,0-.2.1-.3.3h-.4l-2.1.7H49a1.1,1.1,0,0,1-.8-.3c-.4-.4-.7-.9-.1-1.3s.1.4.5.3A.7.7,0,0,0,49.1,54.5Z" fill="#dd901e"/><path d="M45.1,51a21,21,0,0,0,4.2-.9l2-1.1c.3-.1.5-.3.8-.3s.4-.1.5.1-.2.3-.3.4a.8.8,0,0,0-.2.4c-.1.4-.1.9-.8.6l-.4.3c-.2.4-.4.6-.9.4s-.3.1-.3.3-.4.8-1.1.3a1.5,1.5,0,0,0-1.5.4c-.2.1-.3.2-.4.1a1.2,1.2,0,0,0-.8-.2C45.3,51.9,45.1,51.6,45.1,51Z" fill="#dd901e"/><path d="M47.2,56.1h-.1c-.1-.1-.2-.3,0-.4s.2-.1.2,0A.2.2,0,0,1,47.2,56.1Z" fill="#dd901e"/><path d="M48,52h-.1a.1.1,0,0,0-.1-.1Z" fill="#dd901e"/><path d="M34.4,18.3A12.5,12.5,0,0,1,37,19a1.8,1.8,0,0,1,.9,1.6l-.6.9c-.3.1-.5.4-.8.4s-.1-.5-.5-.5a1,1,0,0,0-1.2.4,4.1,4.1,0,0,1-2.9,1.5,11.3,11.3,0,0,0-1.8.3h-.8l-2-.7c-.1-.6-.5-1.3-.2-2s-.1-.2-.2-.4l1.1-.9,1.6-1.1a3.3,3.3,0,0,1,3.3-.4Z" fill="#faf7ca"/><path d="M43.1,29a3.9,3.9,0,0,1-2.8-.4c-.6-.3-1.4-.1-2-.5s-.3,0-.3.2,0,.4.2.4,1,.7,1.6.9a.5.5,0,0,1,.2.4,9.9,9.9,0,0,1-2.4-.9,8.8,8.8,0,0,0-2.2-1,6.2,6.2,0,0,0-3.3-.8c0-.3-.1-.4-.3-.4s-1.1-.3-1.7,0-.5-.3-.8-.3-.6-.4-1-.6,0-.5-.1-.7a4.3,4.3,0,0,0,1.8.6c.5,0,1.1.1,1.5-.4h.7l2.6-.8a4.6,4.6,0,0,0,2.7-1.3c.2-.1.3-.3,0-.5l.3-.2a.9.9,0,0,1,.1,1.4,3.1,3.1,0,0,0-1.1,1.8.5.5,0,0,0,.4.7c1,0,2,.3,2.9.3a1.7,1.7,0,0,1,1.2.4,5.2,5.2,0,0,0,1.3.6A.9.9,0,0,1,43.1,29Z" fill="#d57f16"/><path d="M43.3,15.7a1.4,1.4,0,0,1,0,1.7.7.7,0,0,0-.2,1c.2.2-.1.3-.3.3s-.4.4-.4.8a6.9,6.9,0,0,1-2.5.2.6.6,0,0,1-.7-.5,2.4,2.4,0,0,1,.7-1.2c.8-1,2-1.4,3-2.2Z" fill="#ecc348"/><path d="M54.6,21.5a28.5,28.5,0,0,1-2.9-.3c-1.9-.1-3.8-.5-5.7,0h-.4c.1-.9.2-1,1.1-1h.4a4.2,4.2,0,0,1,1.6-.4,37.1,37.1,0,0,1,4.7.3,7.5,7.5,0,0,1,1.3.6C55,20.9,54.6,21.2,54.6,21.5Z" fill="#d57f16"/><path d="M34.8,24.6l-2.6.8h-.7a4.8,4.8,0,0,1-1.2,0l-2.5-.7-1.7-.7a.8.8,0,0,1-.6-.9c.1-.3-.1-.7.1-1.1a3.6,3.6,0,0,0,1.7.7l2,.7c-.1.4-.3.2-.6.2s-.4,0-.5.2,0,.1,0,.2a1.8,1.8,0,0,0,1.4.9h1.3A10.5,10.5,0,0,0,35.1,24a17.7,17.7,0,0,0,1.7-1.2,1.1,1.1,0,0,0,.5-1.3l.6-.9c.1.7-.2,1.3-.1,2l-.3.2a7.1,7.1,0,0,1-1.4,1C35.6,24.1,35.1,24.2,34.8,24.6Z" fill="#ebc141"/><path d="M42.9,15.8c-1,.8-2.2,1.2-3,2.2a2.4,2.4,0,0,0-.7,1.2c-.6-.2-.8-1-.4-1.8a6.2,6.2,0,0,1,2.8-2.3C42.4,14.7,42.9,15,42.9,15.8Z" fill="#cf7210"/><path d="M18.3,55.7h-.2a.4.4,0,0,0-.1-.3h-.1a1.6,1.6,0,0,1-1.5-.2.4.4,0,0,0-.7,0c-.4.4-.7.3-.9-.2s-.2-.5-.6-.5-.7-.7-1.1-1.1A3.2,3.2,0,0,1,12,51h-.2c-.8-.1-.4-.5-.3-1s.2-.3.4-.1.3.1.4,0,.2-.4.4-.1,0,.3-.2.4l-.3.4c.4.1.7.1.9-.2s.6-.3.8,0a3.5,3.5,0,0,0,1.7.6,3.7,3.7,0,0,1,2,.7c0,.1.1.2.2.1s1,.1,1.1.8.1.6.4.6.5,0,.7-.3a.4.4,0,0,1,.8,0c.1.3.2.4.5.2h.4a1.9,1.9,0,0,0,1.3.3c.5-.1.6.2.4.6a1.7,1.7,0,0,1-1.2,1c-.6.2-1.3.1-1.8.6s-.3.1-.4,0a.6.6,0,0,0-.7.1c-.3.3-.5-.2-.7-.5S18.4,55.5,18.3,55.7Zm-1.5-.8h.1a.1.1,0,0,0,.1-.1h-.1A.1.1,0,0,1,16.8,54.9Z" fill="#db8608"/><path d="M7.5,47.5c-.1.1-.3.2-.3.1s-.8-.5-1.1-.6l-1.6-.5a1.3,1.3,0,0,1-.7-.6c-.3-.5.2-.7.4-1s.5,0,.8.1-.1-.4-.1-.6h.3c-.1-.1-.2-.3-.1-.4s.3.1.3.2,0,.5.3.6a.7.7,0,0,1-.2.6.3.3,0,0,0,0,.4c.2.1.3.1.5-.1s.6-.1.7.3a.5.5,0,0,0,.3.5c0-.4.1-.8.1-1.1s.2.8.2,1.2.6,0,.5-.5a.9.9,0,0,1-.1-.5c.1-.3.2-.4.4-.4s.2.2.2.3-.2.9.2,1.3.3-.8.9-.4l-.2.7c-.4,0-.3,1-1,.3v.9c-.6.1-.4-.7-.8-.7h0Z" fill="#dd901e"/><path d="M11.8,43.9c-.4.8.1,1.6.4,2.3l.3.6c0,.7.5,1.1.8,1.6l-1.2-.2c-.5-.1-.6-.2-.2-.6s.2-.3-.1-.5-.2.1-.2,0a3,3,0,0,1-.9-1.3c-.1-.6-.3-.7-.9-.7H9.5v-.6h0c.7-.2.6-.6.4-1.1s.7.1.4-.4-.5-.5-.2-.8a3.1,3.1,0,0,1,1.4,1.1A6.4,6.4,0,0,1,11.8,43.9Z" fill="#dc8b12"/><path d="M9.4,46.3c-.6-.4-.7,0-.9.4s0-.9-.2-1.3.1-.4-.2-.3-.3.1-.4.4a.9.9,0,0,0,.1.5c.1.5-.2.5-.5.5s.4-.8-.2-1.2S7,46,7,46.4a.5.5,0,0,1-.3-.5c-.1-.4-.4-.5-.7-.3s-.3.2-.5.1a.3.3,0,0,1,0-.4.7.7,0,0,0,.2-.6l.7-.2h0c.2.6.4.1.5,0s.2-.1.2-.3a4.8,4.8,0,0,1-.3-1.8c.6.2.5.7.5,1.1s0,.7.6.6.9.3.9,1,.1.3.3.4l.5.2C9.8,46,9.9,46.3,9.4,46.3Z" fill="#dc8b12"/><path d="M8.3,48.2v-.9c.7.7.6-.3,1-.3s.7.6.5,1.1.5-.1.5.3-.4.4-.4.6.1.2.2.1.3-.1.3.2.1.3-.2.3-.7,0-1-.2Z" fill="#dc8b12"/><path d="M10,46.7H9.8c-.1,0-.2-.1-.1-.2a.1.1,0,0,1,.1-.1C9.9,46.6,10,46.6,10,46.7Z" fill="#dc8b12"/><path d="M11.5,47.5h-.2a.1.1,0,0,1,.1-.1Z" fill="#dc8b12"/><path d="M25.5,51.7h.3C25.6,52,25.6,51.9,25.5,51.7Z" fill="#dc8b12"/><path d="M10.9,47.3c.1,0,.1,0,.1.1h0a.1.1,0,0,0-.1-.1Z" fill="#dc8b12"/><path d="M17.9,55.4h0Z" fill="#dc8b12"/><path d="M61.4,43.5c0-.2-.1-.4.1-.5h.2c.1.3-.2.3-.3.4Z" fill="#dc8b12"/><path d="M62.2,44h-.4c-.2-.3.1-.3.3-.4S62.3,43.9,62.2,44Z" fill="#dc8b12"/><path d="M61.4,43.5c0,.1.2.2,0,.3h-.2c-.1-.2.1-.2.2-.2Z" fill="#dc8b12"/><path d="M18.8,19.4c.3.4.3.7.5.8s0,.3-.1.5-.2.1-.2,0-.2-.2-.2-.3Z" fill="#ecc348"/><path d="M17.2,17.7c-.1-.1-.1-.1-.1-.2h.2c.1-.1.1,0,.1.1Z" fill="#ecc348"/><path d="M19.3,21.6h-.1c0-.1-.2-.3,0-.5S19.3,21.5,19.3,21.6Z" fill="#ecc348"/><path d="M22.8,27.5H23a4.9,4.9,0,0,1-.5,2,1.8,1.8,0,0,0-.4,1c-.4.6-.2,1.2-.5,1.8s-.3-.2-.2-.4-.1-.3-.2-.4-1.6.8-1.5.9-.1.8-.2,1.1-.1.8-.6.8-.5.4-.8.5H18c-.3-.7-1-.2-1.4-.6s.7.9,1.1,1.3a10.2,10.2,0,0,1-3.4-1,.9.9,0,0,1,.7.1c.6.3,1,.2,1.2-.4s.2-.3,0-.4-.2,0-.3.2-.1.4-.3.3-.2-.4-.2-.6a.4.4,0,0,1,.1-.5c.2-.1.2.3.4.2s-.2-.7,0-1,0-.2-.1-.2a.2.2,0,0,0-.2.2c0,.5-.3.4-.6.3s-.3-.2-.3,0-.9.1-1.1.5-.4-.1-.4-.3a1.3,1.3,0,0,1-.1-.6c0-.3-.1-.6-.3-.5s-.6-.6-.7-.9,0-.8.7-.7.4-.4.8-.3v-.2c-.3-.1-.7-.1-.9-.4a.8.8,0,0,0-.4.4.3.3,0,0,1-.3.3c-.2,0-.3-.2-.2-.4a4.5,4.5,0,0,1,.1-1.1c.1-.3.3-.4.4,0s.2.3.4.2.1-.2.2-.3.1-.7.4-.6,1.2-.3,1.6.4l.3.2c0,.1.2.3.2.4s.4.3.5.1.6-.6.7-1,.3-.4.5-.2.5.1.8.2.9.6,1.6.1.5.3.8.3-.1.3.1.3,0-.3.1-.3l.5-.2C21.6,28,22.1,27.5,22.8,27.5Zm-4.7,4.6c-.2.3-.2.5.2.7a.4.4,0,0,1,.2.6c0,.1-.1.3.2.3s.2-.2.2-.3A1.3,1.3,0,0,0,18.1,32.1ZM21,30.5c0,.3-.1.5.2.7S21.3,30.8,21,30.5Zm-3.5,3.6c0-.1,0-.2-.1-.2a.2.2,0,0,0-.2.2c0,.1.1.2.2.1Zm-3.9-3.5h0Zm.4,1.8a.1.1,0,0,0,.1.1H14Z" fill="#ebc141"/><path d="M22.1,30.6a1.8,1.8,0,0,1,.4-1,4.9,4.9,0,0,0,.5-2c.2-.5.5-.6.9-.4s.4.1.4-.2.1-.5-.3-.3-.4-.3-.5-.6-.1-.6.3-.8a.8.8,0,0,0,.5-.5c.2.1.1.3.2.4s.3.6.7.3l.5-.2c.4-.1.4.3.5.5s-.2.2-.2.4a5.8,5.8,0,0,1,2.1,1c.1.1.1.2.3.1a.4.4,0,0,1,.6.3c.2.3.7-.1.8.3v.2a8.8,8.8,0,0,0-4.2,4.3,9.7,9.7,0,0,0-.1,2.4v1.6H24.1a.5.5,0,0,0-.3-.5.6.6,0,0,1-.3-.6,22.6,22.6,0,0,0,.1-3.7c.1-.3-.2-.4-.4-.5s-.3.1-.4.3,0,.2-.1.2-.2-.1-.2-.2S22.5,30.7,22.1,30.6Zm.9-.1a.4.4,0,0,0-.2-.5C22.8,30.2,22.8,30.4,23,30.5Z" fill="#d37806"/><path d="M15.2,28.5l-.3-.2c-.4-.7-1-.4-1.6-.4s-.4.3-.4.6-.1.3-.2.3-.3-.1-.4-.2-.3-.3-.4,0a4.5,4.5,0,0,0-.1,1.1c-.1.2,0,.4.2.4a.3.3,0,0,0,.3-.3.8.8,0,0,1,.4-.4c.2.3.6.3.9.4V30c-.4-.1-.5.4-.8.3s-.7.5-.7.7-.1.9.7.9.3.2.3.5a1.3,1.3,0,0,0,.1.6c0,.2.3.5.4.3s.8-.1,1.1-.5.2,0,.3,0,.6.2.6-.3a.2.2,0,0,1,.2-.2c.1,0,.2.1.1.2s.2.7,0,1-.2-.3-.4-.2a.4.4,0,0,0-.1.5c0,.2-.1.5.2.6s.2-.2.3-.3.2-.3.3-.2,0,.2,0,.4-.6.7-1.2.4a.9.9,0,0,0-.7-.1,7.2,7.2,0,0,1-2.6-1.4,10.5,10.5,0,0,1-2.3-2.9c0-.2.1-.3.1-.5A4.1,4.1,0,0,1,11,27.4a8.2,8.2,0,0,1,2.3-1.1c.1.2.1.6.5.5s.1-.4.2-.6h.1a.2.2,0,0,1,.2-.2,1.5,1.5,0,0,0,.1.7c0,.2-.1.4.1.5s.4,0,.6-.2l.4-.4c.1,0,.2-.2.4-.1s0,.3,0,.4-.3.7.1,1-.2-.7.2-.7,1-.2,1.4.1.7.5,1.3.4.7.4,1.2,0,.6.2.9-.3.6-.5,0-.9l-.6-.2c-.5-.2-1.1,0-1.3-.6a8.8,8.8,0,0,1,2.7.6c0,.1.1.1.2.1h.1l.3.3c-.1.2-.5.2-.3.5s.3-.1.5-.2a.4.4,0,0,1,.2.5c-.7,0-1.2.5-1.8.7l-.5.2c0-.2.1-.4-.1-.4s-.1.2-.1.4-.7-.4-.8-.3-1.1.1-1.6-.1-.6,0-.8-.2-.4,0-.5.2S15.7,28.5,15.2,28.5Z" fill="#ecc348"/><path d="M11,27.4a4.1,4.1,0,0,0-1.5,2.4c-.6-.6-.4-1.5-.5-2.2s.1-.8.1-1.2-.1-.4.3-.5h.1c0,.1.1.1.1,0s.3.4.6.3a.2.2,0,0,0,0-.3c-.1-.3-.4-.2-.6-.2s.3-.7.7-.8h0c-.1.4.1.7.6.7s0-.2,0-.3-.4-.5-.2-.7a.6.6,0,0,1,.9-.1c.1.1.2-.1.2-.2h0a2.1,2.1,0,0,0,1.3-.5c.3.2,0,.5.3.7s.6-.7,1.2-.5.2,0,.2-.1,1.1-.8,1.9-.7.7-.3,1.2-.2.6-.5.7-.3.5.2.8.1.2.1.3.1.8.6,1.4.4a.8.8,0,0,1,.8.4,13.1,13.1,0,0,1,.8,2.1c0,.3-.1.7-.6.6H22c0-.2,0-.4-.2-.4a1.3,1.3,0,0,0-.7-1.2,7.8,7.8,0,0,0-1.4-.2,11.3,11.3,0,0,0-4.1,0c-.3.1-.3.4-.6.3s-1-.2-1.2.5-.2.1-.3.1-1.2.2-1.6.8-.2.1-.3.1A.8.8,0,0,0,11,27.4Zm2-2h-.1A.1.1,0,0,1,13,25.4Z" fill="#d57f16"/><path d="M25.6,22.1c-.2.4,0,.8-.1,1.1s-.2-.1-.3-.3-.6-1.1-1.3-1.3-.2-.1-.1-.3.1-.5.1-.8a1.1,1.1,0,0,0,.4-1.2,8.3,8.3,0,0,0-1.9-2.6A7,7,0,0,1,21,15.1a1,1,0,0,1,.9,0c.2.1.5.3.7,0s.4,0,.3.2.1.5.3.7a10.6,10.6,0,0,1,1.5,1.5c.2.1.4.2.2.5s.3.3.5.2.5,0,.5.3.1.2.1.3,0,.6.4.6a.7.7,0,0,0,.7-.6c0-.1.1-.2.3-.2s.2.2.2.3.1.5.4.6l-1.1.9A7,7,0,0,0,25.6,22.1Z" fill="#d57f16"/><path d="M21,15.1a7,7,0,0,0,1.4,1.6,8.3,8.3,0,0,1,1.9,2.6,1.1,1.1,0,0,1-.4,1.2h-.8c.2-.2.3-.4.2-.6a4.1,4.1,0,0,0-1.8-2.5h0a1.3,1.3,0,0,0-.9-.9c-.4-.6-1-.7-1.4-1.2s.9-.3,1.3-.1Z" fill="#cf7210"/><path d="M27.8,24.8l2.5.7a4.8,4.8,0,0,0,1.2,0c-.4.5-1,.4-1.5.4a4.3,4.3,0,0,1-1.8-.6C28,25.2,27.8,25.1,27.8,24.8Z" fill="#cf7210"/><path d="M22.6,27c-.2.1-.3.4-.5.2s.2-.3.3-.5S22.6,26.9,22.6,27Z" fill="#ecc54e"/><path d="M14.3,23.6c.1-.1.1-.2.2-.2s.2.2.1.3-.2,0-.3-.1Z" fill="#d57f16"/><path d="M24.3,22.3h-.2c-.1,0-.1-.1-.1-.2h.2A.1.1,0,0,0,24.3,22.3Z" fill="#d57f16"/><path d="M15.2,22.6a.1.1,0,0,1,.1-.1c0,.1.1.1.1.2a.1.1,0,0,1-.1.1Z" fill="#d57f16"/><path d="M22.8,24.6h0Z" fill="#d57f16"/><path d="M14.2,23.6Z" fill="#d57f16"/><path d="M14.3,23.6h0Z" fill="#d57f16"/><path d="M11.8,24.3h0Z" fill="#d57f16"/><path d="M9.6,25.9c0,.1-.1.1-.1,0Z" fill="#dd901e"/><path d="M10.3,24.9h0Z" fill="#d57f16"/><path d="M4.9,44.4c0,.2.2.4.1.6s-.6-.4-.8-.1-.7.5-.4,1-.5-.1-.8-.2a12.7,12.7,0,0,0-1.2-1,.4.4,0,0,1-.1-.6c.5-.1,1,.2,1.6.3s-.2-.3-.2-.4-.6-.7-.9-.8-.3.5-.5.7a2.1,2.1,0,0,1-1-1.7c.3-.2.5-.4.8,0s.5.4.8,0,0-.4.3-.3.2.4.5.6-.4.1-.4.3.9.5,1.3.9-.1.1,0,.2A.9.9,0,0,1,4.9,44.4Zm-1.6.5-.2-.2c-.2,0-.2.1-.1.2h.2A.1.1,0,0,1,3.3,44.9Zm.7-.6H3.9a.1.1,0,0,0,.1.1c.1,0,.2,0,.2-.1S4.1,44.3,4,44.3Z" fill="#dc8b12"/><path d="M7.1,39.9a1.2,1.2,0,0,1,.5,1.5,1,1,0,0,0-.7-.4H6.8c.3-.6.3-.7-.4-.7s-.1-.1-.1-.3h.8Z" fill="#dc8b12"/><path d="M2.1,41.2c.3.4-.3.5-.4.8s-.4-.6.4-.8Z" fill="#dc8b12"/><path d="M6.8,40.9h.1c0,.1.1.3-.1.3a.3.3,0,0,1-.3-.3C6.5,40.8,6.7,40.9,6.8,40.9Z" fill="#dd901e"/><path d="M5.6,37.8H5.5v-.2a.1.1,0,0,1,.1-.1C5.6,37.6,5.6,37.7,5.6,37.8Z" fill="#dc8b12"/><path d="M2.1,41.2c0-.1,0-.3.1-.2h.1c0,.1-.1.1-.2.2Z" fill="#dc8b12"/><path d="M2.7,41.4H2.5c0-.1.1-.1.1-.2Z" fill="#dc8b12"/><path d="M6,39.5H5.9a.1.1,0,0,0,.1-.1Z" fill="#dc8b12"/><path d="M6.3,39.9h0Z" fill="#dc8b12"/><path d="M3.9,42.6Z" fill="#dc8b12"/><path d="M.6,42v-.3A.2.2,0,0,1,.6,42Z" fill="#dc8b12"/><path d="M4,43.9c-.1-.1-.1-.1,0-.2Z" fill="#dd901e"/><path d="M5.2,44.3h0Z" fill="#dc8b12"/><path d="M6.4,44.5Z" fill="#dc8b12"/><path d="M27.7,53.8c-.2.6-.9.8-1,1.5h0c-.3.1-.5.2-.5.6h-.1c-.3,0-.4.1-.4.4h-.2a4.8,4.8,0,0,0-1.7,1h-.2l-1.4.4c-.3.2-.7,0-.8.4h-.6c-.6.2-1.4.1-1.9.7h-.5a22.6,22.6,0,0,0-2.6-.1c-.6-.1-1.2-.7-1.9-.6a.3.3,0,0,0-.1-.2c0-.3-.1-.4-.4-.4h-.1a.5.5,0,0,0-.2-.4.3.3,0,0,1,0-.4c.1-.1.2,0,.3,0a6.4,6.4,0,0,0,2.7.7c.3,0,.6.1.8-.1h.3a.9.9,0,0,0,1.2-.1c.3-.2.6,0,.9,0a8.8,8.8,0,0,0,3.2-.4,8,8,0,0,0,3.2-2.6,2.4,2.4,0,0,1,1.8-1.2c.2,0,.4-.1.5.1s-.1.4-.2.5S27.7,53.7,27.7,53.8Z" fill="#dd901e"/><path d="M12.6,56.5c-.1,0-.2,0-.2-.2v-.2c.2,0,.3.1.3.2S12.7,56.5,12.6,56.5Z" fill="#dd901e"/><path d="M21,15.1h-.5c.1-.2.1-.4.3-.6Z" fill="#d57f16"/><path d="M24.5,16.5h.3c.1.3-.1.2-.2.1h-.1Z" fill="#d57f16"/><path d="M23.9,15.9h-.2Z" fill="#d57f16"/><path d="M3.3,52.8c-.4-.2-.9-.1-.9-.7A1.5,1.5,0,0,1,3.3,52.8Z" fill="#d57f16"/><path d="M11.6,43.2a3.1,3.1,0,0,0-1.4-1.1,4.9,4.9,0,0,1-2.6-4.5c-.1-.5-.3-1,.3-1.4s.2.1.2.2A9.9,9.9,0,0,0,14.4,41a17.1,17.1,0,0,0,4.5.9l2.3.2v3.5h0c-1.3-.4-2.8-.1-4.1-.9s-.2,0-.4,0a7.2,7.2,0,0,1-3.2-.8Z" fill="#f7fdc3"/><path d="M21.2,42.1l-2.3-.2c0-.2-.2-.2-.3-.2L15.2,41c-.3,0-.6-.3-.8,0a9.9,9.9,0,0,1-6.3-4.6c0-.1-.1-.1-.2-.2v-.4A4.6,4.6,0,0,1,9.2,34c.4.2.4.7.8.8h0c.1.1.1.1.2,0a8.5,8.5,0,0,0,4,3h.3A4.1,4.1,0,0,0,16.9,39l4.3,1.1h.1a4,4,0,0,0,.1,1.9h-.2Z" fill="#ecc54e"/><path d="M10,43.3c.2.5.3.9-.4,1.1s-.2-.6-.4-.8h0C9.3,43,9.6,42.8,10,43.3Z" fill="#db880c"/><path d="M9.2,43.6Z" fill="#db880c"/><path d="M9.6,44.5v0Z" fill="#db880c"/><path d="M22.8,20.3c-.4.5-.8.3-1.2,0a3.3,3.3,0,0,1-1.2-1.4l-.8-.9c-.2-.1-.3-.2-.2-.3s-.2-.7-.6-.9,1.2.1,1.6-.4.3.9,1.1.9h0v.4A9.1,9.1,0,0,1,22.8,20.3Z" fill="#ecc54e"/><path d="M22.8,20.3a9.1,9.1,0,0,0-1.3-2.6v-.4a4.1,4.1,0,0,1,1.8,2.5c.1.2,0,.4-.2.6Z" fill="#ebc141"/><path d="M21.5,17.3c-.8,0-1-.3-1.1-.9h.2A1.3,1.3,0,0,1,21.5,17.3Z" fill="#ebc141"/><path d="M13.4,57.5c.3,0,.4.1.4.4A.4.4,0,0,1,13.4,57.5Z" fill="#dc8b12"/><path d="M1.7,43.9c.2-.2,0-.8.5-.7s.9.2.9.8.1.2.2.4-1.1-.4-1.6-.3Z" fill="#dd901e"/><path d="M21.4,58.1c.1-.4.5-.2.8-.4l1.4-.4A3,3,0,0,1,21.4,58.1Z" fill="#d57f16"/><path d="M18.9,58.8c.5-.6,1.3-.5,1.9-.7s-1,.4-1.5.7S19.1,58.8,18.9,58.8Z" fill="#d57f16"/><path d="M23.8,57.3a4.8,4.8,0,0,1,1.7-1A2.3,2.3,0,0,1,23.8,57.3Z" fill="#d57f16"/><path d="M26.2,55.9c0-.4.2-.5.5-.6S26.5,55.8,26.2,55.9Z" fill="#d57f16"/><path d="M25.7,56.3c0-.3.1-.4.4-.4S25.9,56.2,25.7,56.3Z" fill="#d57f16"/><path d="M52.1,56.7l2.1-.7c.1.3-.1.3-.3.4s-1.2.2-1.6.7Z" fill="#d57f16"/><path d="M55.2,55.4c.1-.5.7-.7.7-1.3a.7.7,0,0,0,.5-.4h.3C56.2,54.4,55.9,55.1,55.2,55.4Z" fill="#d57f16"/><path d="M54.6,55.9c.1-.2.1-.3.3-.3A.3.3,0,0,1,54.6,55.9Z" fill="#d57f16"/><path d="M14.2,37.8a8.5,8.5,0,0,1-4-3H10a3.1,3.1,0,0,0-.5-1.2v-.3c.1-1-.3-2-.1-3a10.5,10.5,0,0,0,2.3,2.9,7.2,7.2,0,0,0,2.6,1.4,10.2,10.2,0,0,0,3.4,1,20.2,20.2,0,0,0,3.4.6h0a15.8,15.8,0,0,1,.1,3.1,9.9,9.9,0,0,1-2.4-.3,33.9,33.9,0,0,1-4.3-1.1h-.3Z" fill="#f7fdc3"/><path d="M9.5,33.3v.3l-.3.3a13.4,13.4,0,0,1-.7-1.8c.1-.3.1-.6.2-.9s.3.5.4.8A2.8,2.8,0,0,0,9.5,33.3Z" fill="#cf7210"/><path d="M9.2,33.9l.3-.3a3.1,3.1,0,0,1,.5,1.2c-.4-.1-.4-.6-.8-.8Z" fill="#d19435"/><path d="M56.4,53.7a.7.7,0,0,1-.5.4c0-.4-.1-.8.5-.8Z" fill="#dc8b12"/><path d="M23.8,40.5a14.8,14.8,0,0,0,2.1.1v.2c0,.5.3.9.2,1.4H23.8A9.6,9.6,0,0,1,23.8,40.5Z" fill="#d37806"/><path d="M22.1,47.5l-.3-.2a7.6,7.6,0,0,1-.4-1.1c-.1-.2-.1-.4-.2-.6h0c1.8.2,3.6.1,5.4.2a1.7,1.7,0,0,0-.1.7.1.1,0,0,0-.1.1l-2.8-.2c-.5,0-.5.2-.3.5s.3.5.1.7A5.3,5.3,0,0,1,22.1,47.5Z" fill="#cf7210"/><path d="M44.7,34.3c-.1-1.2.2-1.8,1.7-1.6a.4.4,0,0,1,.1.3.8.8,0,0,1,0,1.4.6.6,0,0,0-.1.4c-.4-.2-.9-.1-1.3-.4s-.1-.3-.3-.1Z" fill="#cf7210"/><path d="M44.8,34.3c.2-.2.3,0,.3.1Z" fill="#d57c0f"/><path d="M23.8,40.5a9.6,9.6,0,0,0,0,1.7H21.4a4,4,0,0,1-.1-1.9A19,19,0,0,0,23.8,40.5Z" fill="#d57c0f"/><path d="M53.8,41.3c.2,0,.4,0,.4.2a.6.6,0,0,1-.4.6c-.2-.2.2-.4-.1-.5S53.8,41.4,53.8,41.3Z" fill="#ecc54e"/><path d="M22.1,30.6c.4.1.3.4.4.7s0,.2.2.2.1-.1.1-.2.1-.4.4-.3.5.2.4.5a22.6,22.6,0,0,1-.1,3.7.6.6,0,0,0,.3.6.5.5,0,0,1,.3.5c-1,.1-2-.2-3-.1h0c-.2-1.3.4-2.5.5-3.8S21.7,31.2,22.1,30.6Z" fill="#d57c0f"/><path d="M14.5,37.9A33.9,33.9,0,0,0,18.8,39a9.9,9.9,0,0,0,2.4.3h0v.7L16.9,39A4.1,4.1,0,0,1,14.5,37.9Z" fill="#d19435"/><path d="M24.2,36.3h0Z" fill="#d57c0f"/><path d="M21.2,45.6c.1.2.1.4.2.6a29.2,29.2,0,0,0-5-.9,9.6,9.6,0,0,1-3.7-.9l-.7-.3-.2-.2a6.4,6.4,0,0,0-.2-.7l1.9.7a7.2,7.2,0,0,0,3.2.8c.2,0,.3-.1.4,0S19.9,45.2,21.2,45.6Z" fill="#d19435"/><path d="M54.2,23a26.1,26.1,0,0,1-4.8-.5h-1a.8.8,0,0,1,1-.3,34.7,34.7,0,0,1,4.5.6A.3.3,0,0,1,54.2,23Z" fill="#d57f16"/><path d="M46.2,22.4h-.6C45.7,22.2,45.9,21.9,46.2,22.4Z" fill="#d57f16"/><path d="M49.8,54.5h-.4c0-.3-.6-.6-.1-.7s.4.3.5.6Z" fill="#dc8b12"/><path d="M55.4,49.4h-.2c-.1,0-.2,0-.2-.1a.1.1,0,0,1,.1-.1C55.2,49.2,55.3,49.2,55.4,49.4Z" fill="#dc8b12"/><path d="M54.7,51.6h0Z" fill="#dc8b12"/><path d="M37.3,21.5a1.1,1.1,0,0,1-.5,1.3A17.7,17.7,0,0,1,35.1,24a10.5,10.5,0,0,1-4.2,1.1H29.6a1.8,1.8,0,0,1-1.4-.9c0-.1-.1-.2,0-.2s.3-.2.5-.2.5.2.6-.2h.8a2.1,2.1,0,0,0,1.5.3,14.9,14.9,0,0,0,4.9-2C36.8,21.9,37,21.6,37.3,21.5Z" fill="#ecc54e"/><path d="M36.5,21.9a14.9,14.9,0,0,1-4.9,2,2.1,2.1,0,0,1-1.5-.3,11.3,11.3,0,0,1,1.8-.3,4.1,4.1,0,0,0,2.9-1.5,1,1,0,0,1,1.2-.4C36.4,21.4,36.4,21.7,36.5,21.9Z" fill="#f7fdc3"/><path d="M25.6,22.1a7,7,0,0,1,1.3-1.7c.1.2.3.3.2.4s.1,1.4.2,2A3.6,3.6,0,0,1,25.6,22.1Z" fill="#f7fdc3"/><path d="M34.8,24.6c.3-.4.8-.5,1.3-.8a7.1,7.1,0,0,0,1.4-1c.3.2.2.4,0,.5A4.6,4.6,0,0,1,34.8,24.6Z" fill="#cf7210"/><path d="M16.8,54.9a.1.1,0,0,0,.1-.1H17a.1.1,0,0,1-.1.1Z" fill="#db880c"/><path d="M7.5,47.5h0Z" fill="#d57f16"/><path d="M21.6,32.4c-.1,1.3-.7,2.5-.5,3.8a20.2,20.2,0,0,1-3.4-.6c-.4-.4-1.3-.3-1.1-1.3s1.1-.1,1.4.6h.1c.3-.1.4-.6.8-.5s.5-.4.6-.8.6-.6.2-1.1,1.2-.9,1.5-.9.3.2.2.4S21.4,32.4,21.6,32.4Z" fill="#ecc348"/><path d="M18.1,32.1a1.3,1.3,0,0,1,.8,1.3c0,.1,0,.3-.2.3s-.2-.2-.2-.3a.4.4,0,0,0-.2-.6C17.9,32.6,17.9,32.4,18.1,32.1Z" fill="#ecc348"/><path d="M15.2,28.5c.5,0,.9-.6,1.4-.5s-.5.6-.7,1-.4.2-.5-.1S15.2,28.6,15.2,28.5Z" fill="#ecc54e"/><path d="M20.3,28.4c0-.2-.1-.4.1-.4s.1.2.1.4.1.3-.1.3S20.3,28.5,20.3,28.4Z" fill="#ecc54e"/><path d="M21,30.5c.3.3.2.4.2.7S21,30.8,21,30.5Z" fill="#ecc348"/><path d="M17.5,34.1h-.1c-.1.1-.2,0-.2-.1a.2.2,0,0,1,.2-.2C17.5,33.9,17.5,34,17.5,34.1Z" fill="#ecc348"/><path d="M13.6,30.6h0Z" fill="#ecc348"/><path d="M14,32.4h.1A.1.1,0,0,1,14,32.4Z" fill="#ecc348"/><path d="M23,30.5c-.2-.1-.2-.3-.2-.5A.4.4,0,0,1,23,30.5Z" fill="#d57c0f"/><path d="M11,27.4a.8.8,0,0,1,.6-1.1c.1,0,.3,0,.3-.1s1.2-.3,1.6-.8.3.1.3-.1.7-.7,1.2-.5.3-.2.6-.3a11.3,11.3,0,0,1,4.1,0,7.8,7.8,0,0,1,1.4.2,1.3,1.3,0,0,1,.7,1.2v.3a8.8,8.8,0,0,0-2.7-.6,15.5,15.5,0,0,0-4.8.3.2.2,0,0,0-.2.2,1.1,1.1,0,0,0-.8.2A8.2,8.2,0,0,0,11,27.4Z" fill="#cf7210"/><path d="M14.3,25.9a15.5,15.5,0,0,1,4.8-.3c.2.6.8.4,1.3.6l.6.2c.6.4.5.4,0,.9s-.7.2-.9.3-.8,0-1.2,0-.9-.2-1.3-.4-.9,0-1.4-.1-.1.4-.2.7-.3-.6-.1-1,.1-.3,0-.4-.3.1-.4.1l-.4.4c-.2.2-.4.3-.6.2s-.1-.3-.1-.5A1.5,1.5,0,0,1,14.3,25.9Z" fill="#ecc54e"/><path d="M13.3,26.3a1.1,1.1,0,0,1,.8-.2H14c-.1.2.1.6-.2.6S13.4,26.5,13.3,26.3Z" fill="#ecc54e"/><path d="M21.8,26.2v-.3c.2,0,.2.2.2.4S21.8,26.3,21.8,26.2Z" fill="#d57c0f"/><path d="M13,25.4a.1.1,0,0,0-.1.1H13Z" fill="#cf7210"/><path d="M3.3,44.9a.1.1,0,0,0-.1.1H3c-.1-.1-.1-.2.1-.2Z" fill="#dd901e"/><path d="M4,44.3c.1,0,.2,0,.2.1s-.1.1-.2.1a.1.1,0,0,1-.1-.1Z" fill="#dd901e"/><path d="M14.4,41c.2-.3.5,0,.8,0l3.4.7c.1,0,.3,0,.3.2A17.1,17.1,0,0,1,14.4,41Z" fill="#ebc141"/><path d="M14.2,37.8h0Z" fill="#d19435"/><path d="M10,34.8h.2C10.1,34.9,10.1,34.9,10,34.8Z" fill="#d19435"/><path d="M42.7,14.3,38.4,4.5l7.9,4.9,4.7-6,1.9,7.5,8.8-1.8L54.4,19S48.6,14.3,42.7,14.3Z" fill="#f6c64e"/><circle cx="38.5" cy="4.7" r="1.3" fill="#f6c64e"/><circle cx="51.1" cy="3.5" r="1.3" fill="#f6c64e"/><circle cx="60.9" cy="9.2" r="1.3" fill="#f6c64e"/><path d="M3.5,48.1H3l-.5-.3v-3a27.2,27.2,0,0,0-.1-3H1a.9.9,0,0,1-.1-.5.6.6,0,0,1-.1-.4l2.1-.3H5.2v1a.6.6,0,0,0-.1.4H3.7v3.8a3.7,3.7,0,0,0-.1,1.1C3.6,47,3.5,47.5,3.5,48.1Z"/><path d="M8.7,46.7c-.1.8-.2,1.7-.4,2.6s-.4,1.7-.5,2.2a1,1,0,0,1-.5-.4l-.5-.5c.2-.7.3-1.4.5-2.1a18.3,18.3,0,0,0,.2-2.1V45.3a.3.3,0,0,0-.3-.3c-.1,0-.2,0-.4.2a5.9,5.9,0,0,0-.4.8c0,.4-.1.7-.1.9v.6c0,.3-.1.6-.1,1v1.2H5.8l-.6-.3V46.7a20.1,20.1,0,0,0,.1-2.4c.1-.6.1-1.1.2-1.8A5.8,5.8,0,0,1,5.6,41H6.8c0,.1.1.1.2.1a8.8,8.8,0,0,0-.2,1.7l-.3,2,.6-.7.6-.2a1.1,1.1,0,0,1,.8.8A6.5,6.5,0,0,1,8.7,46.7Z"/><path d="M11.7,49.9c.2.1.3.3.5.5a4.3,4.3,0,0,1,.4.7,2.4,2.4,0,0,1-.8,1.3.9.9,0,0,1-1.2.2,2,2,0,0,1-1.1-1.4,5.3,5.3,0,0,1-.3-2.6,10,10,0,0,1,.8-3.2c.5-.9,1.1-1.4,1.6-1.3a1.1,1.1,0,0,1,.9.7,4.8,4.8,0,0,1,.3,1.8c0,.4-.1.7-.1,1.1s-.1.9-.3,1.1-.3.1-.5.1h-.7l-.4-.2-.4-.2V49a4.3,4.3,0,0,0,0,1.6,1.9,1.9,0,0,0,.4.8.5.5,0,0,0,.5-.4A3.6,3.6,0,0,0,11.7,49.9Zm-1.1-2.6.3.2h.6a1.7,1.7,0,0,0,.1-.7,1.3,1.3,0,0,0,.1-.6v-.7c-.1-.2-.1-.3-.2-.3s-.3.2-.5.5A4.6,4.6,0,0,0,10.6,47.3Z"/><path d="M16.3,50.5a20.1,20.1,0,0,1-.1,2.5v2.6l-.6-.2-.5-.3c0-2,.1-3.8.1-5.4s.1-3.3.2-5,.1-.8.1-1.3a6.6,6.6,0,0,0,.1-1.4l1-.5a1.8,1.8,0,0,1,1-.2,1.8,1.8,0,0,1,1.5.9,7,7,0,0,1,.4,2.7,9.5,9.5,0,0,1-.9,3.6A5,5,0,0,1,16.3,50.5Zm1.9-5.2a4.7,4.7,0,0,0-.2-1.8.7.7,0,0,0-.7-.6c-.1-.1-.1,0-.2,0h-.2l-.3,2.9c0,.9-.1,1.9-.2,2.9a2,2,0,0,0,1.3-1.1A7.1,7.1,0,0,0,18.2,45.3Z"/><path d="M23.1,49a24.7,24.7,0,0,1-.3,3.4c-.1,1.5-.3,2.8-.5,4.2l-.5-.2-.5-.3a1.8,1.8,0,0,0,.1-.6.4.4,0,0,1,.1-.3l-.5.2h-.4a1.4,1.4,0,0,1-1-1,3.6,3.6,0,0,1-.3-2.1,2.8,2.8,0,0,1,.5-1.8,1.6,1.6,0,0,1,1.5-.5h.6v-.2a15.6,15.6,0,0,0-.1-2.5c0-.5-.2-.8-.3-.8s-.4.2-.5.6a4.8,4.8,0,0,0-.3,1.8c-.3-.1-.5-.2-.6-.5a2.3,2.3,0,0,1-.4-1,4.8,4.8,0,0,1,.7-1.8,1.5,1.5,0,0,1,1.2-.7c.6,0,.9.4,1.2,1.1A10.7,10.7,0,0,1,23.1,49Zm-2.6,3.8a2.2,2.2,0,0,0,.1.9c.1.2.2.4.4.4h.3c.1,0,.3-.1.3-.2a4.9,4.9,0,0,0,.1-1.2c0-.4.1-.8.1-1.1a.9.9,0,0,0-.9.2A1.6,1.6,0,0,0,20.5,52.8Z"/><path d="M24.9,53.7v3l-.5.2h-.6V51.4c0-2.2-.2-4.7.1-5.7l.4-.2h1v.8c0,.4-.1.7-.1,1.1a6.4,6.4,0,0,1,.6-1.4c.2-.3.4-.5.7-.5s.6.4.8,1.1a11.5,11.5,0,0,1,.2,3c0,1-.1,2.2-.2,3.6s-.1,2.3-.2,3.1l-.6-.2-.7-.3a21.6,21.6,0,0,0,.3-3.5c.1-1,.2-2,.2-2.7a4.2,4.2,0,0,0-.1-1.3c0-.3-.1-.4-.3-.4s-.3.2-.4.5a6.2,6.2,0,0,0-.4,1.6,11.5,11.5,0,0,0-.1,1.9A10.9,10.9,0,0,1,24.9,53.7Z"/><path d="M31.8,49.1c0,.1-.3.2-.5.3a.7.7,0,0,1-.6.1,9.7,9.7,0,0,0-.1-1.8q-.2-.6-.3-.6c-.3,0-.5.6-.6,1.6a20.5,20.5,0,0,0-.3,3.7,14.1,14.1,0,0,0,.1,2.2c.2.5.3.8.5.8s.4-.2.5-.6a6.8,6.8,0,0,0,.6-1.6l.3.4a.9.9,0,0,1,.3.7,5.9,5.9,0,0,1-.6,2c-.4.6-.8.9-1.3.9s-1-.5-1.3-1.3a10.9,10.9,0,0,1-.4-3.4,22.3,22.3,0,0,1,.7-5c.4-1.3.9-2,1.5-2s.9.3,1.1,1A4.6,4.6,0,0,1,31.8,49.1Z"/><path d="M35.9,49.4c0,.8-.1,2-.1,3.5l-.3,4.4h-1V56a.8.8,0,0,1-.4.4l-.4.2c-.5,0-.8-.3-1.1-.8a4.8,4.8,0,0,1-.4-2.2,3.3,3.3,0,0,1,.5-2.1,1.7,1.7,0,0,1,1.4-.8h.6v-.2h0a14.7,14.7,0,0,0-.2-2.7c-.1-.5-.2-.8-.4-.8s-.3.2-.4.7a5.5,5.5,0,0,0-.2,1.9.8.8,0,0,1-.7-.4,2.3,2.3,0,0,1-.4-1,6.5,6.5,0,0,1,.6-2.1,1.7,1.7,0,0,1,1.2-.8c.5,0,.9.3,1.2,1A10.4,10.4,0,0,1,35.9,49.4Zm-2.4,4.4a2.2,2.2,0,0,0,.1.9c.1.2.2.3.4.3h.3c.1-.1.3-.2.3-.3s0-1,.1-1.4V52.1a1,1,0,0,0-.9.4A2.3,2.3,0,0,0,33.5,53.8Z"/><path d="M37.9,52.1a20.1,20.1,0,0,0,.1,2.6c0,.8.1,1.6.1,2.3a1,1,0,0,1-.5.4H37c-.1-1.1-.2-2.3-.2-3.4s-.1-2.4-.1-3.7-.1-3.2-.1-4.9.1-3.1.1-4.1h.7a.9.9,0,0,1,.6.4c0,.9-.1,2.1-.1,3.5s-.1,2.8-.1,4.2a11.8,11.8,0,0,0,.7-2,20.4,20.4,0,0,0,.8-3,2.2,2.2,0,0,1,.5.8,3,3,0,0,1,.4,1,17.2,17.2,0,0,1-.7,2.1,18.9,18.9,0,0,1-.9,2.1,7.5,7.5,0,0,0,.8,1.8,9.4,9.4,0,0,0,1.2,1.8,7.2,7.2,0,0,1-.5,1.4.9.9,0,0,1-.4.6,10.1,10.1,0,0,1-.9-1.8L37.9,52h0Z"/><path d="M43.7,51.9l.5.3a1.5,1.5,0,0,1,.4.6,6.6,6.6,0,0,1-.6,2,1.8,1.8,0,0,1-1.2,1.1c-.5.1-1-.2-1.3-1a10.7,10.7,0,0,1-.6-3.2,20.9,20.9,0,0,1,.5-4.6c.4-1.4.9-2.1,1.5-2.2s.7.3,1,.7a5.4,5.4,0,0,1,.4,2v1.3a4.9,4.9,0,0,1-.1,1.3l-.5.4-.7.2c-.2.1-.3.1-.4,0h-.4v.8a10.3,10.3,0,0,0,.2,2c.2.5.3.7.5.7s.3-.3.5-.8Zm-1.5-2.7.3.2h.7V47.6a2.2,2.2,0,0,0-.1-.9c-.1-.1-.1-.2-.2-.2s-.3.3-.5.8S42.3,48.4,42.2,49.2Z"/><path d="M50.1,48.1l.3,1a5.3,5.3,0,0,1,.1,1.3,5.9,5.9,0,0,1-.3,2.7,2.5,2.5,0,0,1-1.3,1.5c-.6.2-1.1-.1-1.5-.8a5.2,5.2,0,0,1-.8-3.1l.5-.5.5-.3a4.9,4.9,0,0,0,.4,2.4c.2.6.4.8.7.7s.4-.2.5-.6a2.3,2.3,0,0,0,.1-1.2,3.6,3.6,0,0,0-.2-1.1,4,4,0,0,0-.9-1.4c-.2-.4-.5-.7-.6-.9l-.4-.7-.3-1.2c-.1-.4-.1-.9-.2-1.4a7,7,0,0,1,.4-2.7,1.3,1.3,0,0,1,1.3-1,1.2,1.2,0,0,1,1.2.8,5.2,5.2,0,0,1,.7,2.3.8.8,0,0,1-.4.4l-.5.3a10.8,10.8,0,0,0-.4-1.7c-.1-.3-.3-.5-.6-.4a.5.5,0,0,0-.4.3,4,4,0,0,0,0,1.1,5.1,5.1,0,0,0,.2,1.3,4.6,4.6,0,0,0,.9,1.4l.6.9Z"/><path d="M54.6,46.7v2.9c-.1,1.1-.2,1.9-.3,2.6h-1c.1-.9.1-1.8.2-2.7a17.7,17.7,0,0,0-.1-2.4c0-.6-.1-1-.1-1.2s-.2-.2-.3-.2-.3.2-.4.5a10.4,10.4,0,0,0-.3,1.2v1.1c0,.2.1.5.1.7a5.7,5.7,0,0,0,.1,1.2,6.1,6.1,0,0,0,.1,1.4l-.4.4-.6.3c-.2-1.1-.3-2.3-.4-3.4s-.1-2.3-.2-3.4a17.7,17.7,0,0,1-.1-2.4,7.4,7.4,0,0,1-.1-2l.4-.3h1v4.6a2.8,2.8,0,0,1,.5-1.1.7.7,0,0,1,.5-.4,1,1,0,0,1,1,.6A6.9,6.9,0,0,1,54.6,46.7Z"/><path d="M55.3,47.9a6,6,0,0,1,.4-3.1,1.8,1.8,0,0,1,1.4-1.4,1.2,1.2,0,0,1,1.1.4,2.9,2.9,0,0,1,.5,1.7,7.3,7.3,0,0,1-.4,3,3.1,3.1,0,0,1-1.3,2c-.5.2-.9.2-1.2-.3A6.1,6.1,0,0,1,55.3,47.9Zm2.3-1.4a4.3,4.3,0,0,0-.3-1.5c-.1-.3-.2-.5-.4-.4s-.3.3-.4.8a9.7,9.7,0,0,0-.1,1.8,3.5,3.5,0,0,0,.3,1.6c.1.4.2.5.4.4s.3-.4.4-.9A9.7,9.7,0,0,0,57.6,46.5Z"/><path d="M60.5,48.1a1.3,1.3,0,0,1,.1.6c0,.3.1.8.2,1.5l-.4.4-.5.5c-.1-.8-.2-1.7-.3-2.9l-.3-3.1V44a4,4,0,0,1,0-1.1l.4-.2h.9c-.1.1-.1.2-.1.4v.4a4.3,4.3,0,0,1,.4-.7.9.9,0,0,1,.6-.3.6.6,0,0,1,.8.3,1.6,1.6,0,0,1,.3,1.1,5.2,5.2,0,0,1-.5,2.4,2.9,2.9,0,0,1-1.3,1.7.1.1,0,0,1-.1.1Zm0-1a.1.1,0,0,0,.1.1h.2a1.5,1.5,0,0,0,.5-1,5,5,0,0,0,.2-1.8c0-.3,0-.5-.1-.6s-.2-.2-.3-.2a.8.8,0,0,0-.4.4,4.6,4.6,0,0,0-.3.9v2.3Z"/></g></svg>