<svg xmlns="http://www.w3.org/2000/svg" width="0.4in" height="0.4in" viewBox="0 0 32 32"><title>logo-32</title><g id="Layer_2" data-name="Layer 2"><path d="M0,31.5V.4C0,.1.1.1.3.1H31.2c.2,0,.2,0,.2.3V31.2c0,.3,0,.3-.3.3Zm22-5.8h0a4.4,4.4,0,0,0,3.4.2A2.4,2.4,0,0,0,27.1,24a1.9,1.9,0,0,0,.2-.8V23a.6.6,0,0,0,.1-.4h0a3.8,3.8,0,0,1,1.4-1.9l.6-.5a2.3,2.3,0,0,0,.4-2.7,4.9,4.9,0,0,0-1.2-1.3,2,2,0,0,0-1.8-.6c0-.2.1-.3.2-.5a2.5,2.5,0,0,0,.1-1.7,1.3,1.3,0,0,0,.1-.6,4.6,4.6,0,0,0-.3-2A2.7,2.7,0,0,0,26.1,9a1,1,0,0,0-.5-.4h0a4.7,4.7,0,0,0-2.5-1.7L21,6.6l-1.3-.3a.8.8,0,0,0-.8,0h-.3a25.9,25.9,0,0,0-4.8-.4,8.3,8.3,0,0,0-2.2.3H11a3.4,3.4,0,0,0-1.4.5h0l-.8.3A5.1,5.1,0,0,0,6.2,8.9,3.2,3.2,0,0,0,5.4,11H5.3v.3A2.9,2.9,0,0,0,4.9,13c0,.3.1.5.1.7a2.4,2.4,0,0,0-.5,1.4v.2h0c-.1.1-.1.2-.1.4s-.1.4-.3.5H3.8c-.1,0-.2,0-.2.1s-.2,0-.2.1h0a.7.7,0,0,0-.6.1,2.2,2.2,0,0,0-1.5,1.2,1.4,1.4,0,0,0-.2.6v.3a2.2,2.2,0,0,0,.6,1.8,3.7,3.7,0,0,0,1.7,1,3.2,3.2,0,0,1,1.7,1l.2.6h0v.5c-.1.1,0,.3,0,.4a3.5,3.5,0,0,0,1.9,2.6,4.9,4.9,0,0,0,2,.3l.8-.2,1.4-.5a8.2,8.2,0,0,0,1.9-.9c.2-.1.5-.3.5-.6a.7.7,0,0,0,.2-.6v-.6h.3a13.3,13.3,0,0,0,2,0h1.1l1.7-.2,1.1-.2h0a2,2,0,0,0,.4,1.3,2.2,2.2,0,0,0,1,.9C21.7,25.5,21.9,25.6,22,25.7Zm-18.1-2a.4.4,0,0,0,0-.5c0-.7-.8-.9-1.4-.8a.7.7,0,0,0-.7.4.4.4,0,0,0-.1.3,1.3,1.3,0,0,0,1,1.2A.8.8,0,0,0,3.9,23.7Z" fill="#fefefe"/><path d="M27.1,13.3A2.5,2.5,0,0,1,27,15c-.1.2-.2.3-.2.5l-.4.4c0,.1-.1.1-.1.2s.2.3.4.5a1.6,1.6,0,0,1,.4.7,3.9,3.9,0,0,1,.2,1.5v.7h-.1c-.3.3-.7.5-.7.9s-.8.7-1.2,1.1a15.3,15.3,0,0,1-2.7,1.1,5.1,5.1,0,0,1-1.7.3h-.5a4.7,4.7,0,0,1-1.7.2h-.7a7.6,7.6,0,0,1-2.6,0H15a2.3,2.3,0,0,1-1.1.2h-.1l-.5-.2-2.8-.4h0L8.2,22a3,3,0,0,1-1.7-1.8l.3.2a2.5,2.5,0,0,0,1.8.8l1.4.2a1.8,1.8,0,0,0,1,.2,1.2,1.2,0,0,0,1.4.2h.1l1,.2a12.2,12.2,0,0,0,3.3-.1c1.1-.1,2.2-.3,3.3-.3a7.2,7.2,0,0,0,2.9-.6,4.2,4.2,0,0,0,1.3-.7h0l1.1-.8a4.6,4.6,0,0,0,1.4-2,.7.7,0,0,0-.2-.7v.2a4.5,4.5,0,0,1-.6,1.2h0l-.3.3h0a10.9,10.9,0,0,1-1.1,1,2.7,2.7,0,0,1-1.3.7,6.9,6.9,0,0,1-3.2.4h-.5a10.3,10.3,0,0,1-1.7.1,3.8,3.8,0,0,0-1.5.1H13.1a7.8,7.8,0,0,0-.2-1.6h4.9a23,23,0,0,1,2.6-.3,7,7,0,0,0,3.2-.5,5.2,5.2,0,0,0,1.8-1,1.1,1.1,0,0,0,.5-1l-1.1.7h-.2a6.1,6.1,0,0,1-3.3.5h-1l-.7.2H12.8l-.2-1.4c2.8,0,5.5-.2,8.2-.3a6.5,6.5,0,0,0,2-.2C24.7,15.8,26.3,15.2,27.1,13.3Z" fill="#f7fdc3"/><path d="M27.1,13.3c-.8,1.9-2.4,2.5-4.3,2.8-.2-.1.2-.1.1-.3s.1,0,.1-.1a.8.8,0,0,0,.2-1.4,1.2,1.2,0,0,0-1.3-.2h-.3c0-.2-.2-.2-.3-.3s-.3,0-.3-.2l.3-.2c.4-.3.4-.5,0-.7l-1.1-.6c-.3-.2-.7-.4-.7-.8l.2-.3h0l1-.5c0,.1-.1.3-.2.3s-.2.2-.1.3.3.2.4,0,.1-.2.2-.2l1-.2,1.5.2h1.8a1.3,1.3,0,0,0,1-.4c.2-.1.4.1.6.1a4.6,4.6,0,0,1,.3,2A1.3,1.3,0,0,1,27.1,13.3Z" fill="#ebc141"/><path d="M5.3,23.2l-.2-.6v-.2c.1,0,.2.2.2.1l.3-.5c0-.2-.2-.1-.2-.1h0c.1-.2-.2-.3-.3-.5V21c.1,0,.2,0,.2-.1a.3.3,0,0,1-.1-.2l-.3-.2c0-.3.2-.1.3,0s.4-.1.5.1.1.3.2.5.1.3.3.3.2.1,0,.2-.1.3.1.3H7l.2.2a2.1,2.1,0,0,0,1.5.7l2.2.3a4.2,4.2,0,0,1,1.6.4.6.6,0,0,1,0,.6c-.2.2-.3.5-.6.7a2.7,2.7,0,0,1-1,.6h-.5a.7.7,0,0,1-1.1-.1c-.1.1,0,.3-.1.3s-.3.1-.3.1-.7,0-1-.2l-.4-.2c-.2-.1-.6,0-.6-.4H6.8c-.1.1-.2,0-.3-.1s-.4-.2-.3-.4,0-.2-.2-.2H5.6c-.2-.1,0-.3-.2-.3v-.5h.4C5.6,23.2,5.5,23,5.3,23.2Zm.4.4H5.6l.2.2h.1C5.9,23.7,5.8,23.7,5.7,23.6Zm0-1.2H5.6c0,.1,0,.1.1.1S5.7,22.4,5.7,22.4Zm-.1-1.1h0Zm1.3,1.5h0Zm-.6-1.2h0Zm-.2-.1h0Zm.5,1.4Z" fill="#db880b"/><path d="M19.5,11.4c0,.4.4.6.7.8l1.1.6c.4.2.4.4,0,.7s-.4-.3-.7-.3.1-.4-.1-.5l-.9-.4a7.7,7.7,0,0,0-1.5-.2c-.1-.1-.3,0-.3-.2a.4.4,0,0,1,0-.5c.3-.2.3-.6.6-.6h0c-.1-.1,0-.4-.2-.5s.2-.5,0-.8-.1-.5-.4-.7,0-.2.1-.2.2-.4.2-.6a1.3,1.3,0,0,1,.5-1.1c.2-.1.5-.2.3-.5a.8.8,0,0,1,.8,0l1.3.3a.6.6,0,0,1-.3.5h-.2q0-.6-.6-.3A3.5,3.5,0,0,0,18.6,8a.5.5,0,0,0,.3.7.3.3,0,0,0,.3.3,2.2,2.2,0,0,0,1.1-.2L23,8.6a11.3,11.3,0,0,1,2.6,0h0a1,1,0,0,1,.5.4c-.2,0-.1.1,0,.2s.2.4.4.6h-.6c.1-.2,0-.3-.1-.3a1.3,1.3,0,0,0-.8-.3c-.5.1-.9-.3-1.3-.1H22.1c-.3,0-.4.1-.4.4l-1.4.5a1.8,1.8,0,0,0-.9,1A.5.5,0,0,0,19.5,11.4Z" fill="#d57c0f"/><path d="M27.1,19.6h.1v-.7c.3,0,.4.2.5.4s.2.7.7.6.3.1.1.3.1.2.2.2l-.6.5a2.1,2.1,0,0,0-.9,1.7s-.1.1-.1,0l-.9-.4a.6.6,0,0,0-.7.2c0,.2-.2.2-.4.3h-.1c0,.3-.2.3-.4.4s-.7.2-1.1.5a.6.6,0,0,1-.6.2c0-.1-.1,0-.2,0s-.1.3-.3.3-.1.1-.1.2.6.3.9.4.1-.1.1-.2,0-.1,0-.1h.1c-.1.2.2.2.2.4s-.4-.1-.4.1-.1.2-.2.3-.1-.2-.2-.2-.2.4.1.6.2.1.2.2H23c0-.2-.2-.1-.3-.2s-.2,0-.2-.1.1-.1,0-.2h-.1c-.1,0,0,.1,0,.2h-.3a4.1,4.1,0,0,1-1.1-.7c-.1-.1-.1-.2-.3-.2a2,2,0,0,1-.4-1.3h1.9a6.4,6.4,0,0,0,2.9-1.3c0-.1.1-.1.1-.2s.9-.6,1.2-1.1.4-.4.7-.7Z" fill="#dc8b14"/><path d="M11.6,6.2a8.3,8.3,0,0,1,2.2-.3,25.9,25.9,0,0,1,4.8.4l-.3.3a12.7,12.7,0,0,1-1,1.2l-.7.5H16a1.4,1.4,0,0,0-1.5.2,7.2,7.2,0,0,1-2-1.4A2.4,2.4,0,0,0,11.6,6.2Z" fill="#ebc141"/><path d="M28.8,20.3c-.1,0-.2,0-.2-.2s0-.3-.1-.3-.6-.3-.7-.6-.2-.4-.5-.4a3.9,3.9,0,0,0-.2-1.5,1.6,1.6,0,0,0-.4-.7c-.2-.2-.2-.4-.4-.5s.1-.1.1-.2l.4-.4a2,2,0,0,1,1.8.6,4.9,4.9,0,0,1,1.2,1.3,2.3,2.3,0,0,1-.4,2.7.1.1,0,0,1-.1-.1c0-.1,0-.1-.1-.1s-.2,0-.1.1Zm.1-.6a.1.1,0,0,0-.1.1H29A.1.1,0,0,1,28.9,19.7Zm.2-.1h0Z" fill="#db880b"/><path d="M5.3,11h.1l.4-.4a6.7,6.7,0,0,1,3.1-.7h.9a2.1,2.1,0,0,0,1.1-.1l.6-.2h0V9.3h.4c-.1.2-.2.5.2.6h.1c-.1,0-.2-.1-.3.1h.3c.1,0,.1.1.2.2l.2.3c0,.2.1.3.3.4l.8.3c-.1.2.3.1.3.3s-.1.1,0,.1.3.1.4.3h.1a4.9,4.9,0,0,1,1.7.1.3.3,0,0,1,.3.3,3.1,3.1,0,0,0-1.9.2h-.1c-.2.1-.5-.1-.7-.2l-.9-.5h0c.1-.2,0-.3-.1-.4h-.6c-.1-.4-.3-.1-.4,0s-.1.2,0,.3,0,.3.2.2.1.1.1.1,0,.2-.2.2-.3-.1-.4.1h-.1c0-.1,0-.2-.1-.2s0-.1-.1-.1-.2-.2-.3-.3h0c.1,0,.2.2.4.1s0-.3,0-.4-.2-.5-.3-.7h0l-.5-.2c-.3.1-.5-.3-.9-.2H9.5c0-.1,0,0-.1,0s-.6.1-.8.3H8.5c-.1-.1-.7.1-.7.2s-.2.2-.3.1h.1a.1.1,0,0,0,.1.1c0-.1,0-.1-.1-.1H7.5a1.2,1.2,0,0,0-.5.7H6.8c-.1-.2.1-.4-.1-.5s-.2,0-.3.1H6.2c-.1-.1-.2,0-.3.1s0,.2.1.2v.2H5.7v-.3h0c-.1,0-.2.2-.2.3h.2c-.1.1.1.2-.1.3H5.3c0-.2.1-.3-.1-.4v-.3ZM7,10.8c0,.1-.2.1-.1.2H7A.2.2,0,0,0,7,10.8Zm4.4.4h0Z" fill="#d57c0f"/><path d="M9.8,9.8H8.9a6.7,6.7,0,0,0-3.1.7l-.4.4a3.2,3.2,0,0,1,.8-2.1A5.1,5.1,0,0,1,8.8,7.1c.1.1.1.3.3.3s.1.1.1.3.3.6.3,1.1,0-.3,0-.4,0-.2.1-.2.2,0,.2.1.1.3.3.4.4.7.8,1a2.1,2.1,0,0,1-1.1.1.1.1,0,0,0,0-.2A.1.1,0,0,0,9.8,9.8Zm-.2-1v.5c0,.1,0,.2.1.1s.1-.1.1-.2Z" fill="#ebc141"/><path d="M1.3,17.9a2.2,2.2,0,0,1,1.5-1.2.7.7,0,0,1,.6-.1h0c0-.1.1-.1.2-.1s0,.6.2.9.1.3.3.3h.2v.3H4c.3.1.3.1.1.4H4v.2c.1,0,.1-.1.1-.2l.3.2c0,.2.1.3,0,.5h.2l.3.2c-.1.2-.1.4-.2.5s0-.2-.2-.2.1-.1,0-.1H4.5c0,.1.1,0,.1,0V20c-.2.1-.2-.1-.2-.3a.4.4,0,0,0-.2-.4,1.1,1.1,0,0,0,.1.8H4.2c-.1,0-.2.3-.2,0H3.7c-.2-.1-.2-.2-.2-.3s-.1-.1-.1,0,0,.1,0,.1H3.3c-.1-.2-.2-.3-.4-.3h0c-.2-.2-.3-.5-.6-.4s.2-.1.1-.2L2.2,19c-.1,0-.1.1-.1.2s-.3.1-.4,0-.2-.1-.3,0H1.3c.1-.1.1-.1,0-.2H1.1v-.3h.4c0-.1.1-.1,0-.1s.1-.2.1-.3S1.5,17.9,1.3,17.9Zm.7.8c-.4.1-.4.1-.2.4s.3-.2.2-.4H2Zm1.6-1.5h0ZM2.3,18.8h0Zm1.5-.9h0Zm-1,1.5h0Z" fill="#db880b"/><path d="M20.7,7.1a.6.6,0,0,0,.3-.5l2.1.3a4.7,4.7,0,0,1,2.5,1.7,11.3,11.3,0,0,0-2.6,0l-2.7.2c0-.1,0-.2.2-.3s.2,0,.1-.2,0-.3.1-.4A.6.6,0,0,0,20.7,7.1Z" fill="#ebc141"/><path d="M23.7,24.8c0-.2-.3-.2-.2-.4h-.1s-.1,0,0,.1,0,.2-.1.2-.7-.1-.9-.4-.1-.2.1-.2.2-.1.3-.3.2-.1.2,0a.6.6,0,0,0,.6-.2c.4-.3.8-.3,1.1-.5s.4-.1.4-.4h.1c.2-.1.4-.1.4-.3a.6.6,0,0,1,.7-.2l.9.4c0,.1.1,0,.1,0h.1c-.2.1-.2.2-.1.4v.2c-.1,0-.2,0-.2.1s-.1-.2-.1-.3-.1-.2-.2-.1-.2.5-.5.3h0c-.2.2-.3.6-.6.6a.1.1,0,0,0-.1.1c0,.3-.2.3-.3.4s-.2-.2-.3-.3a.3.3,0,0,0-.1.2.3.3,0,0,1-.3.4C24.2,24.6,24,24.8,23.7,24.8Zm-.3-.9h0Z" fill="#db880b"/><path d="M5.6,24.1H6c.2,0,.2,0,.2.2s.2.3.3.4.2.2.3.1h.1c0,.4.4.3.6.4l.4.2c.3.2.7,0,1,.2s.2-.2.3-.1,0-.2.1-.3a.7.7,0,0,0,1.1.1h.5a2.7,2.7,0,0,0,1-.6c.3-.2.4-.5.6-.7a.6.6,0,0,0,0-.6l1.5.2h.1v.6c-.1-.1-.2.1-.4.1s.1-.5-.3-.4a1.8,1.8,0,0,0-.7.5,3.2,3.2,0,0,1-1.2,1.1l-.9.3c-.5.1-.9-.1-1.4,0h0c0,.1,0,.3-.2.1a.2.2,0,0,0-.3,0c0,.1-.1.1-.2.1s-.9,0-1.3-.4H7c-.1.1-.1.1,0,.2a.3.3,0,0,1,.1.2.5.5,0,0,1-.4-.2A4.2,4.2,0,0,1,5.6,24.1Zm1.3,1.5a.1.1,0,0,0-.1-.1c-.1,0-.2,0-.2.1h.3Z" fill="#dc8b14"/><path d="M10.9,9.7c-.4-.3-.5-.7-.8-1s-.2-.3-.3-.4-.1-.2-.2-.1-.1.1-.1.2.1.2,0,.4S9.2,8,9.2,7.7s0-.3-.1-.3-.2-.2-.3-.3l.8-.3h.2l.2.2a4.7,4.7,0,0,1,1.4,1.4c.2.3.3.5.1.8v.2h0Z" fill="#ecc348"/><path d="M9.8,6.9H9.6l1.7-.5h.3a2.4,2.4,0,0,1,.9.8,7.2,7.2,0,0,0,2,1.4l-.7.5c-.1-.1-.2-.1-.2-.2s0-.2-.1-.2l-.2.2c0,.1-.2.1-.3.1s-.1-.1-.1-.2V8.4c0-.1-.1-.2-.3-.1s-.2,0-.1-.1-.1-.2-.1-.3-.6-.4-.7-.7a.7.7,0,0,0-.6-.3c-.1,0-.3-.1-.4,0h0c-.1-.1,0-.2-.1-.3a.4.4,0,0,0-.1.3C10.2,6.8,10,6.7,9.8,6.9Zm2.5.7h0Zm-.4-.4h0Z" fill="#d57c0f"/><path d="M1.8,22.8a.7.7,0,0,1,.7-.4c.6-.1,1.4.1,1.4.8a2.1,2.1,0,0,1-.4.6c-.3.2-.6.1-.9.2H2.5c-.1-.2-.2-.3-.4-.3A3.2,3.2,0,0,1,1.8,22.8Z" fill="#dd901e"/><path d="M4.6,20v-.3h0c.2,0,.1.2.2.2s.1-.3.2-.5l-.3-.2H4.5c.1-.2,0-.3,0-.5a.6.6,0,0,0-.2-.7v-.3c.1-.3.1-.4-.2-.6s-.2-.1-.1-.3.1,0,.2,0a.2.2,0,0,0,.2-.2c-.1-.2-.1-.3-.2-.4s-.1-.1-.2,0,.2-.3.3-.5,0-.3.1-.4a1.1,1.1,0,0,0,.2.8v.3c-.2.1-.1.4-.1.6a2.4,2.4,0,0,0,1.2,2c-.1.2,0,.3.1.4s-.1.2-.2.2-.3-.2-.4.1h0a.5.5,0,0,1,.2.4h0v.2c-.1-.1-.3-.3-.3,0S5,20,4.6,20Z" fill="#dd901e"/><path d="M5.6,24.1a4.2,4.2,0,0,0,1.1,1.8.5.5,0,0,0,.4.2c-.1.2.2.3.3.3l.6.2H9.5a.5.5,0,0,0-.2.4,4.9,4.9,0,0,1-2-.3,3.5,3.5,0,0,1-1.9-2.6c0-.1-.1-.3,0-.4S5.4,24,5.6,24.1Z" fill="#d57f16"/><path d="M13.9,23.4a2.3,2.3,0,0,0,1.1-.2h.3a7.6,7.6,0,0,0,2.6,0h.7a4.7,4.7,0,0,0,1.7-.2h0l-1.1.2-1.7.2H16.4a13.3,13.3,0,0,1-2,0H14C14,23.6,13.9,23.5,13.9,23.4Z" fill="#e1c0b2"/><path d="M1.1,18.8h.2v.2h.1c0,.3.2.7.4.7h0c-.1.2,0,.3.1.3l.5.4c.2.1.2.2.4.1s.1.3.3.3l.7.3c.2,0,.4,0,.5.2h.1c.2,0,.2.3.4.3l.4.5v.2a3.2,3.2,0,0,0-1.7-1,3.7,3.7,0,0,1-1.7-1A2.2,2.2,0,0,1,1.1,18.8Z" fill="#d57f16"/><path d="M16.6,8.3l.7-.5a12.7,12.7,0,0,0,1-1.2l.3-.3h.3c.2.3-.1.4-.3.5a1.3,1.3,0,0,0-.5,1.1c0,.2.1.5-.2.6s-.1.1-.1.2Z" fill="#d37806"/><path d="M9.3,27.1a.5.5,0,0,1,.2-.4h.1a10.5,10.5,0,0,0,2.4-.6c.2-.2.5-.3.7-.6h.1c.2-.1.4-.2.4-.4s.1-.2.2-.2h.1c.2-.2.3-.1.4.1s-.3.5-.5.6a8.2,8.2,0,0,1-1.9.9l-1.4.5Z" fill="#cf7310"/><path d="M23,25.8h.2l.2.2h1.3v.2c.2-.2.5-.2.7-.3a.2.2,0,0,0,.2-.2h.2a.3.3,0,0,0,.1-.2h.1a2.7,2.7,0,0,0,.7-.8c.1-.1.1-.3.3-.4a2.4,2.4,0,0,1-1.7,1.9,4.4,4.4,0,0,1-3.4-.2.8.8,0,0,1,.7.1Z" fill="#cf7310"/><path d="M20.3,23.2h.5a5.1,5.1,0,0,0,1.7-.3,15.3,15.3,0,0,0,2.7-1.1c0,.1-.1.1-.1.2a6.4,6.4,0,0,1-2.9,1.3Z" fill="#cf7310"/><path d="M5.2,11.4c.2.1.1.2.1.4s-.1.1-.1.2a4.3,4.3,0,0,1-.1.5c.1.4,0,.8.3,1.1H5.3a6.1,6.1,0,0,0,.1,1.4c-.2-.1-.2-.4-.2-.6s0-.3-.2-.3v-.5c0-.2-.1-.4-.1-.7A2.9,2.9,0,0,1,5.2,11.4Z" fill="#dd901e"/><path d="M1.8,22.8a3.2,3.2,0,0,0,.3.9c.1.2.3.2.4.3h.1c.2.2.4.1.6.1s.4-.3.7-.4a.8.8,0,0,1-1.2.6,1.3,1.3,0,0,1-1-1.2A.4.4,0,0,1,1.8,22.8Z" fill="#cf7310"/><path d="M4.6,16.2a1.1,1.1,0,0,1-.2-.8h0v-.2a1,1,0,0,0,.4-.5l.3.8h0Z" fill="#d57f16"/><path d="M27.4,22.5h-.1a2.1,2.1,0,0,1,.9-1.7l.6-.5.3-.3h.2a.1.1,0,0,0,.1.1l-.6.5A3.8,3.8,0,0,0,27.4,22.5Z" fill="#d57c0f"/><path d="M4,16.3c.1-.1.2.4.2,0s.1.2.2.4a.2.2,0,0,1-.2.2c-.1,0-.2-.2-.2,0s0,.3.1.3.3.3.2.6H4.1c-.2,0-.2-.1-.3-.3s0-.7-.2-.9.1-.1.2-.1h0a.1.1,0,0,0,.1-.1Z" fill="#dc8b14"/><path d="M26.5,9.8c-.2-.2-.4-.3-.4-.6s-.2-.2,0-.2a2.7,2.7,0,0,1,.8,1.7c-.2,0-.4-.2-.6-.1h-.1C26.6,10.2,26.6,10.2,26.5,9.8Z" fill="#d57f16"/><path d="M23,25.8h-.3a.8.8,0,0,0-.7-.1h0c0-.3-.2-.3-.3-.3a2.2,2.2,0,0,1-1-.9c.2,0,.2.1.3.2a4.1,4.1,0,0,0,1.1.7h.4c0,.1.1.1.2.1S23,25.6,23,25.8Z" fill="#d57c0f"/><path d="M4.9,14.6a1,1,0,0,1-.4.5A2.4,2.4,0,0,1,5,13.7v.9Z" fill="#ecc348"/><path d="M27.1,24c-.2.1-.2.3-.3.4h-.2v-.2c.1,0,.1-.1.1-.2l.3-.6c0-.1.1-.1.2-.1A1.9,1.9,0,0,1,27.1,24Z" fill="#d57c0f"/><path d="M3.9,23.7c-.3.1-.4.4-.7.4s-.4.1-.6-.1.6,0,.9-.2a2.1,2.1,0,0,0,.4-.6A.4.4,0,0,1,3.9,23.7Z" fill="#d57f16"/><path d="M11.3,6.2l-1.7.5A3.4,3.4,0,0,1,11,6.2Z" fill="#dd901e"/><path d="M13.9,24.9c-.1-.2-.2-.3-.4-.1h-.1a.9.9,0,0,1,.3-.5c.2,0,.3-.2.4-.1A.7.7,0,0,1,13.9,24.9Z" fill="#d57f16"/><path d="M1.3,17.9c.2,0,0,.3.3.3s-.4.1-.1.3,0,0,0,.1H1.1A1.4,1.4,0,0,1,1.3,17.9Z" fill="#dc8b14"/><path d="M5.3,23.2c.2-.2.3,0,.4,0H5.3Z" fill="#dc8b14"/><path d="M27.3,23c-.1-.2-.1-.3.1-.4A.6.6,0,0,1,27.3,23Z" fill="#d57c0f"/><path d="M21.7,25.4c.1,0,.3,0,.3.3S21.7,25.5,21.7,25.4Z" fill="#cf7310"/><path d="M3.9,16.4a.1.1,0,0,1-.1.1h.1Z" fill="#db880b"/><path d="M4.4,15.3h0Z" fill="#dd901e"/><path d="M5.3,11h0Z" fill="#ebc141"/><path d="M25.6,8.6Z" fill="#ebc141"/><path d="M3.4,16.6Z" fill="#dc8b14"/><path d="M20.8,16.3c-2.7.1-5.4.3-8.2.3h0v-.8a4.1,4.1,0,0,1,0-1.1,3.9,3.9,0,0,1,1.9-1.9c.2.2.6-.1.7.3h.1c.3.1.7-.1.9.4a1,1,0,0,1,.7.4c.2.1.5.1.6.4s.1.4.3.1H18c.2.3.5.3.7.4s.4.3.6.1h.2c.2.2.5.1.8.2s.5.2.4.7h0C20.9,16,20.8,16.2,20.8,16.3Z" fill="#ebc141"/><path d="M24.8,17.1l1.1-.7a1.1,1.1,0,0,1-.5,1,5.2,5.2,0,0,1-1.8,1,7,7,0,0,1-3.2.5,23,23,0,0,0-2.6.3H12.9c0-.2-.1-.5-.1-.7a8.5,8.5,0,0,0,1.6,0c.4,0,.8-.2,1.2-.1a6.1,6.1,0,0,0,1.9,0l3.7-.3h1.7A4.2,4.2,0,0,0,24.8,17.1Z" fill="#ecc348"/><path d="M24.3,20.2a4.2,4.2,0,0,1-1.3.7,7.2,7.2,0,0,1-2.9.6c-1.1,0-2.2.2-3.3.3a12.2,12.2,0,0,1-3.3.1l-1-.2a1,1,0,0,0,.5-.6h1.8l1.9-.2,3.2-.2h3.3Z" fill="#ecc54e"/><path d="M20.8,16.3c0-.1.1-.3-.1-.4h0c.1-.5,0-.5-.4-.7s-.6,0-.8-.2h-.2c-.2.2-.4,0-.6-.1s-.5-.1-.7-.4h-.2c-.2.3-.3,0-.3-.1s-.4-.3-.6-.4a1,1,0,0,0-.7-.4c-.2-.5-.6-.3-.9-.4h-.1c-.1-.4-.5-.1-.7-.3h.1a3.1,3.1,0,0,1,1.9-.2l.9.4c0,.1-.1.2,0,.3l.5.5c.4.2.6.5,1,.6s.3-.1.5,0,.9,0,1.3,0a.2.2,0,0,0,.2-.2l-.2-.2c-.1,0-.3.1-.3-.1H21c0,.2.2.2.3.2s.3.1.3.3l-.5.3a.7.7,0,0,0,.2,1.1h.2c.2.2.4.1.6.2h.8c.1.2-.3.2-.1.3A6.5,6.5,0,0,1,20.8,16.3Z" fill="#ecc348"/><path d="M24.8,17.1a4.2,4.2,0,0,1-1.9.9H21.2l-3.7.3a6.1,6.1,0,0,1-1.9,0c-.4-.1-.8.1-1.2.1a8.5,8.5,0,0,1-1.6,0h0c0-.2-.1-.3,0-.5h6.8l.7-.2h1a6.1,6.1,0,0,0,3.3-.5Z" fill="#d19435"/><path d="M12.9,19.2a7.8,7.8,0,0,1,.2,1.6H10.7V19.1h2.2Z" fill="#de9e18"/><path d="M24.3,20.2l-1.1.3H19.9l-3.2.2-1.9.2H13.1v-.3h3.2a3.8,3.8,0,0,1,1.5-.1,10.3,10.3,0,0,0,1.7-.1H20a6.9,6.9,0,0,0,3.2-.4,2.7,2.7,0,0,0,1.3-.7,10.9,10.9,0,0,0,1.1-1c0,.2-.1.3-.1.4h-.1c-.1,0-.1.1-.2.2a8.1,8.1,0,0,1-.9,1Z" fill="#d19435"/><path d="M12.6,16.6h0c.1.4.1.9.2,1.4H10.7a7.1,7.1,0,0,0-.1-1.4h2Z" fill="#de9e18"/><path d="M10,21.4l-1.4-.2a2.5,2.5,0,0,1-1.8-.8l-.3-.2V20h.3a3.4,3.4,0,0,0,1.7.5,7.8,7.8,0,0,1,2.2.4l.2.5Z" fill="#ecc54e"/><path d="M13.9,23.4c0,.1.1.2.1.3l-1.5-.2a4.2,4.2,0,0,0-1.6-.4l-2.2-.3a2.1,2.1,0,0,1-1.5-.7L7,21.9c-.1-.2-.3-.4-.3-.6h.1c.5.4.8,1,1.5,1.1a5.3,5.3,0,0,0,2.2.2h0c.2.3.5.2.8.2a10.1,10.1,0,0,0,2.5.4Z" fill="#cf7310"/><path d="M10.5,22.7a5.3,5.3,0,0,1-2.2-.2c-.7-.1-1-.7-1.5-1.1H6.7c0-.1-.1-.2-.1-.3a1.1,1.1,0,0,1-.2-1.1h.1v.2A3,3,0,0,0,8.2,22Z" fill="#de9e18"/><path d="M25.5,18.8c0-.1.1-.2.1-.4h0a.3.3,0,0,0,.3-.3h0a1.4,1.4,0,0,0,.7-1c0-.1,0-.1-.1-.2v-.2a.7.7,0,0,1,.2.7,4.6,4.6,0,0,1-1.4,2c-.1-.1,0-.3-.2-.3s.1-.2.2-.2,0,.1.1.2.2-.1.2-.3A.1.1,0,0,0,25.5,18.8Z" fill="#ecc348"/><path d="M10.7,17.9h2.1c-.1.2,0,.3,0,.5H10.7Z" fill="#cf7310"/><path d="M13,21.1a1,1,0,0,1-.5.6h-.1l-.7-.2a.4.4,0,0,0-.1-.3c-.1-.2,0-.2.2-.2Z" fill="#d57f16"/><path d="M13.8,23.3a10.1,10.1,0,0,1-2.5-.4c-.3,0-.6.1-.8-.2l2.8.4Z" fill="#de9e18"/><path d="M25.2,19.1c.2,0,.1.2.2.3l-1.1.8h0A8.1,8.1,0,0,0,25.2,19.1Z" fill="#ecc54e"/><path d="M11.7,21.6l.7.2a1.2,1.2,0,0,1-1.4-.2h.7Z" fill="#de9e18"/><path d="M27.1,19.6v.2c-.3.3-.4.6-.7.7S26.8,19.9,27.1,19.6Z" fill="#cf7310"/><path d="M26.5,16.9c.1.1.1.1.1.2a1.4,1.4,0,0,1-.7,1A4.5,4.5,0,0,0,26.5,16.9Z" fill="#d19435"/><path d="M10,21.4h1A1.8,1.8,0,0,1,10,21.4Z" fill="#fefefe"/><path d="M25.9,18.1a.3.3,0,0,1-.3.3Z" fill="#d19435"/><path d="M27.2,19.5h0Z" fill="#cf7310"/><path d="M26.5,9.8c.1.4.1.4-.3.7h-.7l-2-.3c-.2,0-.4,0-.5.2a5.8,5.8,0,0,0-2.3.3l-1,.5h0l-.2.3a.5.5,0,0,1-.1-.3,1.8,1.8,0,0,1,.9-1l1.4-.5h1.6l2.6.2Z" fill="#cf7310"/><path d="M25.7,10.4h.6a1.3,1.3,0,0,1-1,.4H23.5L22,10.7l-1,.2c-.1,0-.1.1-.2.2s-.3.1-.4,0,0-.2.1-.3.2-.2.2-.3a5.8,5.8,0,0,1,2.3-.3h.5A7.8,7.8,0,0,0,25.7,10.4Z" fill="#ecc348"/><path d="M22.9,15.8h-.8c.1-.3.4-.6.1-.9s.3-.2,0-.4-.3-.2-.3-.4a1.2,1.2,0,0,1,1.3.2.8.8,0,0,1-.2,1.4C23,15.8,23,15.8,22.9,15.8Z" fill="#d37806"/><path d="M21,13.7h-.6a1.7,1.7,0,0,1-1.2-.2h-.1c-.2-.1-.4-.4-.7-.4s-.1-.1-.1-.2.1-.2.1-.1.7.1.9.2a2,2,0,0,0,1.3.2c.3,0,.6-.1.7.3Z" fill="#cf7310"/><path d="M21.9,14.1c0,.2.2.3.3.4s.3.3,0,.4-.9.1-.9.7a.7.7,0,0,1-.2-1.1l.5-.3Z" fill="#d57c0f"/><path d="M19.7,11.1h0Z" fill="#d57c0f"/><path d="M4.4,21.6H4.3c-.1-.2-.3-.2-.5-.2l-.7-.3c-.2,0-.2-.1-.3-.3s.1-.3.1-.4.3,0,.4,0,0-.1,0-.2h.1s-.1-.1,0-.1.1,0,.1,0,0,.2.2.3-.1.2-.1.3-.1.1,0,.1.1.1.2,0,.2,0,.3.1a.4.4,0,0,0,.1.3,4.3,4.3,0,0,1,.1-.5c.2.1.1.3,0,.5s.3,0,.3-.2v-.2c0-.2,0-.2.1-.2s.1.1.1.1-.1.4.1.6.2-.3.4-.2v.3c-.1,0-.1.5-.4.2v.4c-.2,0-.2-.3-.4-.3Z" fill="#dd901e"/><path d="M6.4,19.9A1.1,1.1,0,0,0,6.6,21c0,.1.1.2.1.3s.2.4.3.6H6.5c-.2,0-.2-.1-.1-.3s.1-.2,0-.2-.2-.2-.3-.3-.2-.3-.2-.5-.4-.1-.5-.1v-.2h0c.4-.1.2-.3.2-.5s.3,0,.2-.2-.2-.2-.1-.4.4.4.6.5Z" fill="#dc8b14"/><path d="M5.3,21c-.2-.1-.3,0-.4.2s0-.4-.1-.6.1-.2-.1-.1-.1,0-.1.2v.2c0,.2-.1.2-.3.2s.2-.4,0-.5a4.3,4.3,0,0,0-.1.5.4.4,0,0,1-.1-.3c-.1-.1-.2-.2-.3-.1s-.2.1-.2,0-.1-.1,0-.1.1-.2.1-.3H4c0,.3.1,0,.2,0h.1a1.1,1.1,0,0,1-.1-.8.4.4,0,0,1,.2.4c0,.2,0,.4.2.3s.4.3.5.5l.3.2a.3.3,0,0,0,.1.2C5.5,21,5.4,21,5.3,21Z" fill="#dc8b14"/><path d="M4.8,21.9v-.4c.3.3.3-.2.4-.2s.4.3.3.5h0s.2-.1.2.1l-.3.5c0,.1-.1-.1-.2-.1Z" fill="#dc8b14"/><path d="M5.7,23.6c.1.1.2.1.2.2H5.8l-.2-.2Z" fill="#dc8b14"/><path d="M5.7,22.4s.1.1,0,.1-.1,0-.1-.1h.1Z" fill="#dc8b14"/><path d="M5.6,21.3h0Z" fill="#dc8b14"/><path d="M6.9,22.8h0Z" fill="#dc8b14"/><path d="M6.3,21.6h0Z" fill="#dc8b14"/><path d="M6.1,21.5h0Z" fill="#dc8b14"/><path d="M6.6,22.9Z" fill="#dc8b14"/><path d="M16.6,8.3l1.2.4c.3.2.6.3.4.7s-.2.3-.3.4l-.3.2c0-.2,0-.3-.2-.3s-.4,0-.5.2a1.9,1.9,0,0,1-1.4.7H14.4l-1-.3c0-.3-.2-.6,0-.9V9.3l.5-.4.7-.5A1.4,1.4,0,0,1,16,8.2Z" fill="#faf7ca"/><path d="M20.6,13.2a2,2,0,0,1-1.3-.2c-.2-.1-.6,0-.9-.2s-.1,0-.1.1,0,.2.1.2.5.3.7.4h.1l-.6-.2-1.2-.5-.9-.4a.3.3,0,0,0-.3-.3,4.9,4.9,0,0,0-1.7-.1h-.1c-.1-.2-.3-.2-.4-.3s-.1-.1,0-.1l.7.2a.7.7,0,0,0,.6-.2h.4l1.1-.3c.6,0,.9-.4,1.3-.6a.1.1,0,0,0,0-.2v-.2c.2.1.1.4.2.5h0c-.3,0-.3.4-.6.6a.4.4,0,0,0,0,.5c0,.2.2.1.3.2a7.7,7.7,0,0,1,1.5.2l.9.4C20.7,12.8,20.6,13,20.6,13.2Z" fill="#d57f16"/><path d="M20.7,7.1a.6.6,0,0,1,0,.8c-.1.1-.2.2-.1.4s0,.2-.1.2-.2.2-.2.3a2.2,2.2,0,0,1-1.1.2.3.3,0,0,1-.3-.3.8.8,0,0,1,.2-.5,6.1,6.1,0,0,1,1.4-1Z" fill="#ecc348"/><path d="M25.9,9.7l-2.6-.2H21.7c0-.3.1-.4.4-.4h1.6c.4-.2.8.2,1.3.1a1.3,1.3,0,0,1,.8.3C25.9,9.4,26,9.5,25.9,9.7Z" fill="#d57f16"/><path d="M18.2,10.2v.2l-.5.3-.8.5-1.1.3h-.9l-1.1-.3-.8-.3c-.2-.1-.3-.2-.3-.4s0-.4.1-.5l.7.3,1,.3c-.1.2-.2.1-.3.1s-.3-.1-.3,0,0,.2.1.2.6.4,1,.4a4.4,4.4,0,0,0,2.9-1.1c.2-.1.2-.3.1-.5s.3-.2.3-.4S18.2,9.9,18.2,10.2Z" fill="#ebc141"/><path d="M20.5,7.2a6.1,6.1,0,0,0-1.4,1,.8.8,0,0,0-.2.5.5.5,0,0,1-.3-.7,3.5,3.5,0,0,1,1.3-1.1Q20.5,6.6,20.5,7.2Z" fill="#cf7310"/><path d="M26.7,24.1v.2c-.2,0-.1.1-.1.3s-.3.3-.4.6H26c-.1,0-.1.1-.1.2h-.2l-1,.3H23.2c0-.1-.1-.1-.2-.2s-.3-.2-.1-.6,0,.3.2.2.3-.1.2-.3.2-.1.4-.1h-.1c-.1.1-.2.2-.1.3a.2.2,0,0,0,.3,0l.7-.2c.2.1.3-.2.6-.1s.1-.2.2-.2h.4c.2-.1.2-.3.3-.3s.2-.2,0-.4Z" fill="#dd901e"/><path d="M22.5,25.5h-.1c0-.1-.1-.2,0-.2h.1C22.6,25.4,22.6,25.4,22.5,25.5Z" fill="#dd901e"/><path d="M29.3,20h-.2c-.1-.1.1-.1.1-.1S29.3,19.9,29.3,20Z" fill="#dc8b14"/><path d="M28.9,19.7a.1.1,0,0,0,.1.1h-.2A.1.1,0,0,1,28.9,19.7Z" fill="#dc8b14"/><path d="M29.1,19.6h0Z" fill="#dc8b14"/><path d="M11.4,12.5h.1a2.4,2.4,0,0,1-.2.9c-.1.2-.2.3-.2.5s-.1.6-.2.8h-.1c-.1-.1,0-.3-.1-.3s-.3,0-.4.2-.4.1-.2.4H10c-.2.2-.1.6-.6.6h0c0,.1-.2.2-.2.1s-.4,0-.2-.3H8.9c0,.3-.2.1-.3.1s.3.4.5.6a4.3,4.3,0,0,1-1.6-.5h.4c.3.1.4.1.5-.2s.1-.1,0-.2H8.2c0,.1,0,.2-.1.1a.3.3,0,0,1,0-.4c.1-.2.1.1.2,0s-.1-.3,0-.4a.1.1,0,0,0-.2,0s0,.2-.1.1-.4.1-.6.1-.4.2-.4-.2,0-.3-.1-.3-.3-.2-.3-.4,0-.3.2-.3.2-.2.4-.2.1,0,0-.1a.4.4,0,0,1-.4-.2l-.2.3H6.5c-.1,0-.1-.1-.1-.2s.1-.3,0-.5h.2c.2.3.2.1.3-.1a.2.2,0,0,1,.2-.2c.3,0,.6-.1.7.2h.1l.2.3c0,.1.1.1.1,0s.4-.3.4-.5h.6c.2.1.4.3.7.1s.2.1.4.1-.1.1,0,.1h.3C10.9,12.7,11.1,12.5,11.4,12.5ZM9.3,14.6a.2.2,0,0,0,0,.3l.2.2c-.1.1-.1.2,0,.2s.1-.1.1-.2A.5.5,0,0,0,9.3,14.6Zm1.3-.8c-.1.2-.1.3,0,.4S10.7,14,10.6,13.8Zm-3.5-.6c.1-.1.2-.2.1-.4Zm.1.7Zm.2.8Z" fill="#ebc141"/><path d="M11.1,13.9c0-.2.1-.3.2-.5a2.4,2.4,0,0,0,.2-.9c.1-.2.2-.3.4-.1s.2-.1.2-.2.1-.2-.1-.1-.2-.1-.2-.2-.1-.3,0-.3.3-.4.4,0h.6c.1.1.2.2.1.4h0l.9.5c.2.1.5.3.7.2h0a3.9,3.9,0,0,0-1.9,1.9,4.1,4.1,0,0,0,0,1.1v.8h-.7c0-.2-.2-.3-.2-.5s0-1.1.1-1.7-.1-.1-.2-.2h-.2c0,.1,0,.2-.1.1s-.1-.1-.1-.2Zm.3-.3c0,.1,0,.2.1.2S11.5,13.7,11.4,13.6Z" fill="#d37806"/><path d="M11.4,12.5c-.3,0-.5.2-.8.3h-.2c0-.1,0-.2-.1-.2s0,.1,0,.2-.3-.2-.4-.1-.5,0-.7-.1H8.6c-.3,0-.4.3-.7.2H7.8c-.1-.3-.4-.2-.7-.2a.2.2,0,0,0-.2.2c-.1.2-.1.4-.3.1H6.4c.1.2,0,.4,0,.5s0,.2.1.2h.1l.2-.3a.4.4,0,0,0,.4.2c.1.1,0,.2,0,.1s-.2.2-.4.2-.3.2-.2.3,0,.5.3.4.1.1.1.3,0,.3.4.2.4-.2.6-.1.1-.1.1-.1a.1.1,0,0,1,.2,0c-.1.1,0,.3,0,.4s-.1-.2-.2,0a.3.3,0,0,0,0,.4c.1.1.1,0,.1-.1h.2c.1.1,0,.1,0,.2s-.2.3-.5.2H7.5l-1.2-.6a7.1,7.1,0,0,1-1-1.4h.1A1.5,1.5,0,0,1,6,12.5c.4-.2.7-.5,1.1-.5s0,.2.2.2.1-.2.1-.3h.2v.3c0,.1-.1.2,0,.2s.2,0,.3-.1h.4v.2c0,.1-.1.3.1.4s-.1-.3.1-.3.4-.1.6,0l.6.3h.6l.4-.2c.2-.2.3-.2,0-.4h-.3c-.2-.1-.5,0-.6-.3l1.2.3c.1.1.3.1.3.3s-.2,0-.1.2.1-.1.2-.1S11.4,12.4,11.4,12.5Z" fill="#ecc348"/><path d="M6,12.5a1.5,1.5,0,0,0-.6,1.1c-.3-.3-.2-.7-.3-1.1a4.3,4.3,0,0,0,.1-.5c0-.1,0-.2.1-.2h.3c.2-.1,0-.2.1-.3h.4v-.2c-.1,0-.2-.1-.1-.2s.2-.2.3-.1h.2c.1-.1.2.3.3-.1s0,.3.1.5H7a1.2,1.2,0,0,1,.5-.7h0c.1.1.3.4.3-.1s.6-.3.7-.2h.1c.2-.2.6-.1.8-.3s.1-.1.1,0h.1c.4-.1.6.3.9.2l.5.2h0c.1.2.1.5.3.7s.1.3,0,.4-.3-.1-.4-.1-.1-.5-.4-.6H8.1c-.1.1-.1.2-.3.2s-.4-.1-.5.2H7.2c-.2.1-.6,0-.7.3H6.3C6.1,12,6,12.2,6,12.5Z" fill="#d57f16"/><path d="M12.7,10.1c-.1.1,0,.3-.1.5l-.2-.3c-.1-.1-.1-.2-.2-.2h-.1c-.4-.1-.3-.4-.2-.6V9.2c.2-.1.1-.3.1-.5l-1-1.2a1.5,1.5,0,0,1-.5-.6c.1-.1.3,0,.4,0a.7.7,0,0,1,.6.3c.1.3.5.5.7.7s.1.1.1.3.1.1.1.1.3,0,.3.1v.2c0,.1,0,.3.1.2s.3,0,.3-.1l.2-.2c.1,0,.1.1.1.2s.1.1.2.2l-.5.4A1.6,1.6,0,0,0,12.7,10.1Z" fill="#d57f16"/><path d="M6,12.5c0-.3.1-.5.3-.5h.2c.1-.3.5-.2.7-.3h.1c.1-.3.3-.3.5-.2s.2-.1.3-.2h2.4c.3.1.5.3.4.6h0l-1.2-.3a7.5,7.5,0,0,0-2.1.2H7.4l-.3.2C6.7,12,6.4,12.3,6,12.5Z" fill="#cf7310"/><path d="M10.6,6.9a1.5,1.5,0,0,0,.5.6l1,1.2c0,.2.1.4-.1.5v.2h-.4c.2-.3.1-.5-.1-.8A4.7,4.7,0,0,0,10,7.1l-.2-.2c.2-.2.4-.1.6,0Z" fill="#cf7310"/><path d="M13.7,11.3l1.1.3h.5a.7.7,0,0,1-.6.2l-.7-.2C14,11.4,13.6,11.5,13.7,11.3Z" fill="#cf7310"/><path d="M7,10.8a.2.2,0,0,1,0,.3H6.9C6.8,10.9,7,10.9,7,10.8Z" fill="#d57f16"/><path d="M5.7,11.3v.3H5.5c0-.1.1-.3.2-.3Z" fill="#d57f16"/><path d="M11.3,12.3c-.1,0-.1.2-.2.1s.1-.2.1-.2S11.3,12.2,11.3,12.3Z" fill="#ecc54e"/><path d="M7.6,10.7h0c.1,0,.1,0,.1.1a.1.1,0,0,1-.1-.1Z" fill="#d57f16"/><path d="M12.2,10.1h-.3c.1-.2.2-.1.3-.1Z" fill="#d57f16"/><path d="M11.5,9.5h0Z" fill="#d57f16"/><path d="M9.8,9.8a.1.1,0,0,1,0-.2.1.1,0,0,1,0,.2Z" fill="#ecc348"/><path d="M7,11.5H7Z" fill="#cf7310"/><path d="M5.5,11.6h0Z" fill="#d57f16"/><path d="M11.4,11.2Z" fill="#d57f16"/><path d="M7.5,10.7Z" fill="#d57f16"/><path d="M5.7,11.3Z" fill="#d57f16"/><path d="M7.5,10.8h0Z" fill="#d57f16"/><path d="M6.4,11.1h0Z" fill="#d57f16"/><path d="M5.4,11.8Z" fill="#dd901e"/><path d="M9.6,8.8l.2.4c0,.1,0,.2-.1.2s-.1,0-.1-.1Z" fill="#ecc348"/><path d="M3.3,20.2c0,.1.1.1,0,.2s-.3-.2-.4,0-.3.2-.1.4-.2,0-.4-.1l-.5-.4c-.1,0-.2-.1-.1-.3l.7.2V20c.1-.3-.2-.3-.3-.4s-.2.2-.3.3-.4-.4-.4-.7.2-.2.3,0,.3.2.4,0,0-.2.1-.2l.2.3c.1.1-.1,0-.1.2s.4.2.6.4h0C3.1,19.9,3.2,20,3.3,20.2Zm-.8.2h0Zm.4-.3h0Z" fill="#dc8b14"/><path d="M4.3,18.1a.6.6,0,0,1,.2.7l-.3-.2H4.1c.2-.3.2-.3-.1-.4h.3Z" fill="#dc8b14"/><path d="M2,18.7c.1.2-.1.3-.2.4s-.2-.3.2-.4Z" fill="#dc8b14"/><path d="M4.1,18.6h.1c0,.1,0,.2-.1.2v-.2Z" fill="#dd901e"/><path d="M4.6,19.7s-.1.1-.1,0h.1c.1,0,0,.1,0,.1Z" fill="#dd901e"/><path d="M3.6,17.2h0Z" fill="#dc8b14"/><path d="M2,18.7H2Z" fill="#dc8b14"/><path d="M2.3,18.8Z" fill="#dc8b14"/><path d="M3.8,17.9Z" fill="#dc8b14"/><path d="M3.9,18.1h0Z" fill="#dc8b14"/><path d="M1.3,19.1v-.2C1.4,19,1.4,19,1.3,19.1Z" fill="#dc8b14"/><path d="M2.8,19.4Z" fill="#dc8b14"/><path d="M2.9,19.9h0Z" fill="#dd901e"/><path d="M3.4,20.1h0Z" fill="#dc8b14"/><path d="M4,20.2Z" fill="#dc8b14"/><path d="M26.7,24.1l-.7-.2c.2.2.3.3,0,.4s-.1.2-.3.3h-.4c-.1,0-.2-.1-.2.2s-.4.2-.6.1l-.7.2a.2.2,0,0,1-.3,0c-.1-.1,0-.2.1-.3h.1c.3,0,.5-.2.9-.1a.3.3,0,0,0,.3-.4.3.3,0,0,1,.1-.2c.1.1.1.3.3.3s.3-.1.3-.4a.1.1,0,0,1,.1-.1c.3,0,.4-.4.6-.6h0c.3.2.3-.2.5-.3s.1,0,.2.1-.1.3.1.3l-.3.6C26.8,24,26.8,24.1,26.7,24.1Z" fill="#dc8b14"/><path d="M23.4,23.9Z" fill="#dc8b14"/><path d="M13.7,24.4a.9.9,0,0,0-.3.5c-.1,0-.1.2-.2.2a.8.8,0,0,0-.4.4h-.3a9.2,9.2,0,0,1-2.3.9.7.7,0,0,0-.6.2H8l-.6-.2c-.1,0-.4-.1-.3-.3a.3.3,0,0,0-.1-.2c-.1-.1-.1-.1,0-.2h.2c.4.4.9.3,1.3.4s.2,0,.2-.1A.2.2,0,0,1,9,26c.2.2.2,0,.2-.1h0c.5-.1.9.1,1.4,0l.9-.3a3.2,3.2,0,0,0,1.2-1.1,1.8,1.8,0,0,1,.7-.5C13.8,23.9,13.9,23.9,13.7,24.4Z" fill="#dd901e"/><path d="M6.9,25.6H6.6c0-.1.1-.1.2-.1A.1.1,0,0,1,6.9,25.6Z" fill="#dd901e"/><path d="M9.2,25.9Z" fill="#dd901e"/><path d="M10.6,6.9h-.2a.4.4,0,0,1,.1-.3C10.6,6.7,10.5,6.8,10.6,6.9Z" fill="#d57f16"/><path d="M12.3,7.6h0Z" fill="#d57f16"/><path d="M11.9,7.2h0Z" fill="#d57f16"/><path d="M2.5,24c-.1-.1-.3-.1-.4-.3S2.4,23.8,2.5,24Z" fill="#d57f16"/><path d="M6.3,19.6c-.2-.1-.3-.4-.6-.5a2.4,2.4,0,0,1-1.2-2c0-.2-.1-.5.1-.6h.1a4.2,4.2,0,0,0,2.9,2.1,6.5,6.5,0,0,0,2,.4h1.1v1.6h0l-1-.2a1.1,1.1,0,0,1-.8-.2H8.7a2.4,2.4,0,0,1-1.5-.4Z" fill="#f7fdc3"/><path d="M7.6,18.6a4.2,4.2,0,0,1-2.9-2.1H4.6v-.3l.6-.7c.2,0,.2.3.4.3h.1a4.9,4.9,0,0,0,1.8,1.4h.1c0,.1.1.1.2.1H7.7a2.1,2.1,0,0,0,1,.4l2,.5h0v.8H9.5a9,9,0,0,1-1.6-.3C7.8,18.6,7.7,18.5,7.6,18.6Z" fill="#ecc54e"/><path d="M5.6,19.7c0,.2.2.4-.2.5a.5.5,0,0,0-.2-.4h0C5.3,19.5,5.4,19.5,5.6,19.7Z" fill="#db880b"/><path d="M5.2,19.8Z" fill="#db880b"/><path d="M5.4,20.2h0Z" fill="#db880b"/><path d="M1.8,19.9c.1-.1,0-.3.3-.3s.4.1.3.4v.2L1.8,20Z" fill="#dd901e"/><path d="M9.6,26.7a.7.7,0,0,1,.6-.2,9.2,9.2,0,0,0,2.3-.9h.2c-.2.3-.5.4-.7.6A10.5,10.5,0,0,1,9.6,26.7Z" fill="#d57f16"/><path d="M12.8,25.5a.8.8,0,0,1,.4-.4C13.2,25.3,13,25.4,12.8,25.5Z" fill="#d57f16"/><path d="M23.2,25.8h.2Z" fill="#d57c0f"/><path d="M24.7,25.7l1-.3a.2.2,0,0,1-.2.2c-.2.1-.5.1-.7.3Z" fill="#d57f16"/><path d="M26.1,25.2c.1-.3.3-.4.4-.6s.1-.1.1-.2h.2A2.7,2.7,0,0,1,26.1,25.2Z" fill="#d57f16"/><path d="M25.9,25.4c0-.1,0-.2.1-.2A.3.3,0,0,1,25.9,25.4Z" fill="#d57f16"/><path d="M7.5,17.2a4.9,4.9,0,0,1-1.8-1.4H5.6a.8.8,0,0,0-.2-.5v-.2a6.1,6.1,0,0,1-.1-1.4,7.1,7.1,0,0,0,1,1.4l1.2.6a4.3,4.3,0,0,0,1.6.5l1.5.2h0a7.1,7.1,0,0,1,.1,1.4,4.4,4.4,0,0,1-1.6-.2l-1.4-.3H7.5Z" fill="#f7fdc3"/><path d="M5.4,15.1v.2H5.2l-.3-.8v-.4c.2,0,.1.2.2.3S5.2,15,5.4,15.1Z" fill="#cf7310"/><path d="M5.2,15.4h.2a.8.8,0,0,1,.2.5c-.2,0-.2-.3-.4-.3Z" fill="#d19435"/><path d="M26.6,24.4c0,.1-.1.1-.1.2s-.1-.3.1-.3Z" fill="#dc8b14"/><path d="M11.8,18.4h1c0,.2.1.5.1.7H11.8A2.2,2.2,0,0,0,11.8,18.4Z" fill="#d37806"/><path d="M11.1,21.6h-.2l-.2-.5v-.3h2.4v.3H11.8c-.2,0-.3,0-.2.2a.4.4,0,0,1,.1.3Z" fill="#cf7310"/><path d="M17.4,12.9l1.2.5.6.2a1.7,1.7,0,0,0,1.2.2c0,.2.2.1.3.1l.2.2a.2.2,0,0,1-.2.2c-.4,0-.9.2-1.3,0s-.3,0-.5,0-.6-.4-1-.6l-.5-.5C17.3,13.1,17.4,13,17.4,12.9Z" fill="#ecc54e"/><path d="M21.3,15.6c0-.6.2-.9.9-.7s0,.6-.1.9-.4,0-.6-.2h-.2Z" fill="#cf7310"/><path d="M21.4,15.6h0Z" fill="#d57c0f"/><path d="M11.8,18.4a2.2,2.2,0,0,1,0,.8H10.7v-.8Z" fill="#d57c0f"/><path d="M25.5,18.8a.1.1,0,0,1,.2,0c0,.2-.1.3-.2.3s0-.2-.1-.2Z" fill="#ecc54e"/><path d="M11.1,13.9v.2c0,.1,0,.2.1.2s.1,0,.1-.1h.2c.1.1.2.1.2.2s.1,1.2-.1,1.7.2.3.2.5H10.6a5.1,5.1,0,0,1,.3-1.7C11,14.5,10.9,14.2,11.1,13.9Z" fill="#d57c0f"/><path d="M7.7,17.3l1.4.3a4.4,4.4,0,0,0,1.6.2h0v.3l-2-.5A2.1,2.1,0,0,1,7.7,17.3Z" fill="#d19435"/><path d="M10.7,20.7V21a7.8,7.8,0,0,0-2.2-.4,3.4,3.4,0,0,1-1.7-.5H6.4v-.3l.9.3a2.4,2.4,0,0,0,1.5.4h.2a1.1,1.1,0,0,0,.8.2Z" fill="#d19435"/><path d="M25.7,10.4a7.8,7.8,0,0,1-2.2-.2H23c.1-.2.3-.2.5-.2l2,.3Z" fill="#d57f16"/><path d="M4.4,21.6Z" fill="#d57f16"/><path d="M17.9,9.8c.1.2.1.4-.1.5a4.4,4.4,0,0,1-2.9,1.1c-.4,0-.8,0-1-.4s-.2-.1-.1-.2.2-.1.3,0,.2.1.3-.1h.3l.7.2a8.5,8.5,0,0,0,2.2-.9Z" fill="#ecc54e"/><path d="M17.6,10a8.5,8.5,0,0,1-2.2.9l-.7-.2h.8a1.9,1.9,0,0,0,1.4-.7c.1-.2.3-.2.5-.2S17.6,9.8,17.6,10Z" fill="#f7fdc3"/><path d="M12.7,10.1a1.6,1.6,0,0,1,.6-.8v.2c-.2.3,0,.6,0,.9Z" fill="#f7fdc3"/><path d="M16.8,11.2l.8-.5.5-.3a.1.1,0,0,1,0,.2C17.7,10.8,17.4,11.2,16.8,11.2Z" fill="#cf7310"/><path d="M10.9,14.7a5.1,5.1,0,0,0-.3,1.7l-1.5-.2c-.2-.2-.6-.2-.5-.6s.3.2.3-.1H9c-.2.3.2.2.2.3s.2,0,.2-.1h0c.5,0,.4-.4.6-.6h.1c-.2-.3.1-.3.2-.4s.2-.3.4-.2,0,.2.1.3Z" fill="#ecc348"/><path d="M9.3,14.6a.5.5,0,0,1,.3.5c0,.1.1.2-.1.2s-.1-.1,0-.2l-.2-.2A.2.2,0,0,1,9.3,14.6Z" fill="#ecc348"/><path d="M7.9,12.9c.3.1.4-.2.7-.2s-.3.3-.4.5-.1.1-.1,0Z" fill="#ecc54e"/><path d="M10.6,13.8c.1.2.1.3,0,.4S10.5,14,10.6,13.8Z" fill="#ecc348"/><path d="M10.3,12.9c0-.1-.1-.2,0-.2s.1.1.1.2h-.1C10.2,13,10.3,12.9,10.3,12.9Z" fill="#ecc54e"/><path d="M7.1,13.2v-.4C7.3,13,7.2,13.1,7.1,13.2Z" fill="#ecc54e"/><path d="M7.2,13.9h0Z" fill="#ecc348"/><path d="M7.4,14.7h0Z" fill="#ecc348"/><path d="M11.4,13.6c.1.1.1.1.1.2S11.4,13.7,11.4,13.6Z" fill="#d57c0f"/><path d="M7.6,11.8a7.5,7.5,0,0,1,2.1-.2c.1.3.4.2.6.3h.3c.3.2.2.2,0,.4l-.4.2H9.6L9,12.3c-.2-.1-.4,0-.6,0s0,.2-.1.3-.1-.3-.1-.4V12H7.9c-.1.1-.2.2-.3.1s0-.1,0-.2Z" fill="#ecc54e"/><path d="M7.1,12l.3-.2h0c0,.1,0,.3-.1.3S7.1,12.1,7.1,12Z" fill="#ecc54e"/><path d="M2.5,20.4Z" fill="#dd901e"/><path d="M2.9,20.1h0Z" fill="#dd901e"/><path d="M7.6,18.6c.1-.1.2,0,.3,0a9,9,0,0,0,1.6.3h.1A6.5,6.5,0,0,1,7.6,18.6Z" fill="#ebc141"/><path d="M7.5,17.2h0Z" fill="#d19435"/><path d="M7.6,17.2h.2C7.7,17.3,7.6,17.3,7.6,17.2Z" fill="#d19435"/><path d="M5.6,15.8h0Z" fill="#d19435"/><path d="M3.8,27.3H3.3a12.1,12.1,0,0,0,0-2.7V22.1H2.8a.4.4,0,0,1-.1-.3v-.3H4.4v.2h0v.2H3.8v5.2Z" fill="#231f20"/><path d="M6.1,25.2c0,.6-.1,1.2-.1,1.9s-.2,1.2-.2,1.5H5.5c0-.1-.1-.2-.2-.3a6.1,6.1,0,0,0,.2-1.5c0-.5.1-1.1.1-1.6v-.8c-.1-.1-.1-.2-.2-.2a.3.3,0,0,0-.1.2,1.4,1.4,0,0,0-.2.7v2.8H4.6v-4a4.5,4.5,0,0,1,.1-1.2v-.8c0-.1.1-.1.2-.1h.4c0,.2-.1.5-.1.9s-.1.8-.1,1.3l.3-.5.2-.2c.2,0,.3.2.4.5A5.8,5.8,0,0,1,6.1,25.2Z" fill="#231f20"/><path d="M7.6,27c.1.1.2.1.2.3s.2.2.2.3a1.7,1.7,0,0,1-.3,1c-.2.2-.3.3-.5.2s-.4-.2-.5-.6a4.2,4.2,0,0,1-.2-1.7,7.5,7.5,0,0,1,.3-2.3c.2-.7.4-1,.7-.9s.3.1.4.4A3.1,3.1,0,0,1,8,24.8v.7a1.7,1.7,0,0,1-.1.7H7v.4a3.7,3.7,0,0,0,.1,1.1c0,.2.1.4.2.4l.2-.3A1.9,1.9,0,0,0,7.6,27Zm-.5-1.6h.4V25c0-.1.1-.3.1-.4s0-.3-.1-.4,0-.2-.1-.2l-.2.4C7.2,24.6,7.1,24.9,7.1,25.4Z" fill="#231f20"/><path d="M9.6,26.9v2.8H9.2c0-1-.1-2.1-.1-3.1v-3a1.7,1.7,0,0,1,.1-.7v-.7l.4-.2H10a.7.7,0,0,1,.6.4,3.9,3.9,0,0,1,.2,1.3,6.4,6.4,0,0,1-.3,2A2.8,2.8,0,0,1,9.6,26.9Zm.7-3.2a2.2,2.2,0,0,0-.1-.9q-.1-.3-.3-.3H9.7V24a10.9,10.9,0,0,0-.1,1.8,1.6,1.6,0,0,0,.5-.8A4.4,4.4,0,0,0,10.3,23.7Z" fill="#231f20"/><path d="M12.3,25.7v2c-.1.8-.1,1.6-.2,2.2h-.2c0-.1-.1-.1-.1-.2v-.5a.3.3,0,0,1-.1.2h-.2c-.2,0-.3-.2-.4-.4a4.1,4.1,0,0,1-.1-1.2,3.4,3.4,0,0,1,.1-1.1.7.7,0,0,1,.6-.3h.2c0-.7-.1-1.2-.1-1.5a.6.6,0,0,0-.1-.4c-.1-.1-.2.1-.2.3s-.1.6-.1,1l-.2-.2a4.2,4.2,0,0,1-.2-.6l.3-1c.1-.3.2-.4.4-.4s.3.2.4.5A7.2,7.2,0,0,1,12.3,25.7ZM11.4,28a.7.7,0,0,0,.1.5.3.3,0,0,0,.1.2h.1c.1,0,.1,0,.1-.1a1.7,1.7,0,0,0,.1-.7v-.6c-.2-.1-.3,0-.4.1S11.4,27.7,11.4,28Z" fill="#231f20"/><path d="M13.2,28.4V30h-.4c0-.7,0-1.7-.1-3a17.7,17.7,0,0,1,0-3.3h.5v1.1a1.5,1.5,0,0,1,.2-.8c0-.2.1-.2.2-.2s.2.1.3.5A7.6,7.6,0,0,1,14,26v3.8h-.2l-.3-.2c0-.6.1-1.3.1-1.9V26c0-.4,0-.6-.1-.7s0-.3-.1-.3a.4.4,0,0,0-.1.3,2.8,2.8,0,0,0-.1.9v2.2Z" fill="#231f20"/><path d="M15.7,25.8c0,.1-.1.1-.1.2h-.3V25c-.1-.2-.1-.3-.2-.3a3.5,3.5,0,0,0-.2.9v2a4.5,4.5,0,0,0,.1,1.3c0,.3.1.4.2.4a.4.4,0,0,0,.1-.3,2,2,0,0,0,.2-.9c.1,0,.1.1.1.2s.1.3.2.4a3.5,3.5,0,0,1-.3,1.1c-.1.3-.2.4-.4.4s-.4-.2-.5-.6a9.2,9.2,0,0,1-.2-1.9,20.3,20.3,0,0,1,.2-2.8c.2-.8.3-1.1.6-1.1s.3.2.4.5A6.6,6.6,0,0,1,15.7,25.8Z" fill="#231f20"/><path d="M17.4,26a15.6,15.6,0,0,1-.1,2v2.4h-.4v-.5a.3.3,0,0,1-.1.2h-.2c-.2,0-.3-.2-.4-.5a7.5,7.5,0,0,1-.2-1.1,2.9,2.9,0,0,1,.2-1.2.5.5,0,0,1,.5-.4h.2a5.8,5.8,0,0,0-.1-1.5c0-.3,0-.4-.1-.4s-.1.1-.2.4v1l-.3-.2c0-.2-.1-.4-.1-.6a3.1,3.1,0,0,1,.2-1.1c.1-.3.3-.4.4-.4s.4.2.5.5S17.3,25.3,17.4,26Zm-.9,2.5a.7.7,0,0,0,.1.5.3.3,0,0,0,.1.2h.1c.1,0,.1-.1.1-.2s0-.5,0-.7v-.6c-.1-.1-.2,0-.3.2S16.5,28.2,16.5,28.5Z" fill="#231f20"/><path d="M18.2,27.6c0,.6.1,1.1.1,1.5v1.2H18c-.1-.6-.1-1.2-.2-1.8V26.6c0-.8-.1-1.8-.1-2.7V22h.5v4a3.6,3.6,0,0,0,.2-1.1,15.7,15.7,0,0,0,.3-1.6c.1.1.1.3.2.4s.1.4.2.6l-.3,1.1-.3,1.2.3,1.1a10.4,10.4,0,0,1,.4,1c0,.3-.1.5-.1.7s-.1.3-.2.3l-.3-1c-.1-.4-.3-.8-.4-1.3Z" fill="#231f20"/><path d="M20.3,27.7l.2.2.2.3a3.6,3.6,0,0,1-.2,1.1c-.1.3-.3.5-.5.5s-.3-.1-.4-.5a6.6,6.6,0,0,1-.3-1.8,18.4,18.4,0,0,1,.2-2.6c.1-.8.3-1.2.5-1.2s.3.1.4.4a3.1,3.1,0,0,1,.2,1.1v1.5l-.2.2-.3.2h-.3v.4a4.1,4.1,0,0,0,.1,1.2c0,.2.1.4.2.3a.6.6,0,0,0,.1-.4A1.9,1.9,0,0,0,20.3,27.7Zm-.5-1.6h.4v-.9a2,2,0,0,0-.1-.5c0-.1,0-.2-.1-.1a.6.6,0,0,0-.1.4A3.4,3.4,0,0,0,19.8,26.1Z" fill="#231f20"/><path d="M23,25.7c.1.2.1.5.2.7v.8a4,4,0,0,1-.1,1.6c-.2.4-.4.7-.6.7s-.5-.1-.7-.5a5.8,5.8,0,0,1-.3-1.9.2.2,0,0,1,.2-.2l.2-.2c.1.7.1,1.1.2,1.5s.2.5.3.4.2-.1.2-.3.1-.4.1-.7a1.7,1.7,0,0,0-.1-.7l-.4-.9-.3-.6c0-.1-.1-.3-.1-.4a2,2,0,0,1-.1-.7,2.2,2.2,0,0,1-.1-.8,5.7,5.7,0,0,1,.1-1.4c.2-.3.3-.4.6-.4a.5.5,0,0,1,.5.3,2.4,2.4,0,0,1,.4,1.2l-.2.2h-.3a5.4,5.4,0,0,0-.1-.8l-.3-.3c-.1,0-.1.1-.2.2v.6c0,.2.1.5.1.7a5.9,5.9,0,0,0,.4.8,1.6,1.6,0,0,0,.3.6C22.9,25.5,23,25.6,23,25.7Z" fill="#231f20"/><path d="M25.1,25.2v1.9c0,.7-.1,1.2-.1,1.6h-.5a9.7,9.7,0,0,0,.1-1.7V25.3a1.7,1.7,0,0,0-.1-.8c0-.1,0-.2-.1-.2l-.2.3c0,.2-.1.5-.1.8v1.2a2.5,2.5,0,0,0,.1.8v.9h-.5a16.2,16.2,0,0,0-.1-2.1c0-.8-.1-1.5-.1-2.1V22.9a7.7,7.7,0,0,0-.1-1l.2-.2h.5a4.5,4.5,0,0,1-.1,1.1,7.1,7.1,0,0,0,.1,1.4,1.1,1.1,0,0,1,.2-.6.2.2,0,0,1,.2-.2c.2,0,.3.1.4.4A3.7,3.7,0,0,1,25.1,25.2Z" fill="#231f20"/><path d="M25.5,26a6.5,6.5,0,0,1,.2-2.1c.1-.6.3-.8.6-.8s.4.1.5.3a4.4,4.4,0,0,1,.2,1.3,7.2,7.2,0,0,1-.2,2.2c-.1.6-.3,1-.6,1.1s-.3,0-.5-.4A5.7,5.7,0,0,1,25.5,26Zm1-.7a3.1,3.1,0,0,0-.1-1.1c0-.3-.1-.4-.2-.4s-.1.2-.2.6v1.3c0,.5.1.8.1,1.1s.1.4.2.4.1-.2.2-.6Z" fill="#231f20"/><path d="M27.8,27.1v.4a2.2,2.2,0,0,1,.1.9l-.2.2h-.1a15.5,15.5,0,0,1-.2-1.8,18.5,18.5,0,0,0-.1-2.4V22.9l.2-.2h.3v.6a.8.8,0,0,1,.2-.5l.2-.2q.2,0,.3.3a3.1,3.1,0,0,1,.1,1,6.8,6.8,0,0,1-.2,2.1c-.1.6-.3.9-.5,1h-.1Zm0-.8h.1a1,1,0,0,0,.2-.7,6.6,6.6,0,0,0,.1-1.5v-.6H28v.2a1.5,1.5,0,0,0-.1.7v1.8Z" fill="#231f20"/><path d="M20.5,6.5,18.5,2l3.6,2.3,2.1-2.8.9,3.4,4-.8L25.8,8.6S23.1,6.5,20.5,6.5Z" fill="#f6c64e"/><circle cx="18.5" cy="2.1" r="0.6" fill="#f6c64e"/><circle cx="24.3" cy="1.6" r="0.6" fill="#f6c64e"/><circle cx="28.7" cy="4.2" r="0.6" fill="#f6c64e"/></g></svg>