<svg xmlns="http://www.w3.org/2000/svg" width="64" height="64" viewBox="0 0 64 64"><title>logo-64</title><g id="Layer_2" data-name="Layer 2"><path d="M.4,63C.4,42.2.4,21.3.3.5.3.1.4.1.8.1h62c.4,0,.5.1.5.4,0,20.7-.1,41.4,0,62.1,0,.5-.2.4-.5.4ZM55.1,45.7a.4.4,0,0,0,.1-.3c0-.2.1-.3.1-.5a6.5,6.5,0,0,1,2.6-3.7,13.1,13.1,0,0,0,1.2-1.1,2.9,2.9,0,0,0,1-1.2.4.4,0,0,0,.1-.3,4.2,4.2,0,0,0-.5-4.4A14.5,14.5,0,0,0,57.6,32a4.9,4.9,0,0,0-3.7-1.2,9.3,9.3,0,0,0,.5-1,5.3,5.3,0,0,0,.3-3.3c0-.5.1-.9.1-1.4a10.1,10.1,0,0,0-.6-3.8c.1-.2,0-.5,0-.7A6,6,0,0,0,51.6,17a9.3,9.3,0,0,0-4.9-3.4,22,22,0,0,0-4.4-.5l-2.5-.7a2.5,2.5,0,0,0-1.7,0c-.2-.1-.4.1-.6.1a37.8,37.8,0,0,0-9.5-.8,17.3,17.3,0,0,0-4.5.5H22.3a7.3,7.3,0,0,0-2.8,1h0l-.8.3A12.7,12.7,0,0,0,13,17.2a7.4,7.4,0,0,0-2,4.6h0v.6a5.8,5.8,0,0,0-.7,3.4,3.2,3.2,0,0,1,.1,1.4,5.2,5.2,0,0,0-.9,2.8v.3c-.1,0-.1.1-.1.2h0a1.1,1.1,0,0,0-.3.8,1.3,1.3,0,0,1-.5,1.1H7.4c-.1.1-.3,0-.2.2H7.1c-1.7.4-3.3,1-4.2,2.6a3.7,3.7,0,0,0-.4,1.4v.5A4.9,4.9,0,0,0,3.6,41a7.3,7.3,0,0,0,3.6,2.1,7,7,0,0,1,3.3,2c0,.4.3.6.4,1s.2.4.1.6v.7a6.9,6.9,0,0,0,1.3,3.7c1.5,2.4,3.8,3.2,6.6,2.9H20a17.3,17.3,0,0,0,3.2-1.1A23.2,23.2,0,0,0,27.1,51a2.4,2.4,0,0,0,1.2-1.7h0c.1,0,.2-.1.1-.3s.2-.4.1-.6a4.1,4.1,0,0,0,0-1.1,23.6,23.6,0,0,0,4.6,0c1.2-.1,2.3-.1,3.4-.3a22,22,0,0,1,4.4-.5.4.4,0,0,1,.1.3,3.5,3.5,0,0,0,.7,2A6.1,6.1,0,0,0,43,50.3l.3.3h0a8.6,8.6,0,0,0,4.1,1.6,7.1,7.1,0,0,0,6-1.9,5.3,5.3,0,0,0,1.4-3v-1Zm-47,1.6c.2-.3.1-.6.1-1s-1.7-1.9-3-1.6-1.1.2-1.3.8a.7.7,0,0,0-.2.6,2.5,2.5,0,0,0,2,2.5A1.7,1.7,0,0,0,8.1,47.3Z" fill="#fefefe"/><path d="M54.7,26.5a5.3,5.3,0,0,1-.3,3.3,9.3,9.3,0,0,1-.5,1l-.7.9c-.1.1-.2.2-.1.3s.3.7.6.9a5.2,5.2,0,0,1,1.4,3.5v1.2l-.2,1.2V39s-.1,0,0,.1-1.4.9-1.5,1.8A12.7,12.7,0,0,1,50.7,43l-1.8,1-3.8,1.5a9.7,9.7,0,0,1-2.9.4,2,2,0,0,0-1.3.2,7.5,7.5,0,0,1-2.6.4l-2.1-.2a15.7,15.7,0,0,1-5.3-.1h-.6a4.2,4.2,0,0,1-2.2.3h-.2a1.1,1.1,0,0,0-.9-.4l-5.7-.9h0a23.5,23.5,0,0,1-4.5-1.4,6,6,0,0,1-3.4-3.6l.4.3a6,6,0,0,0,3.8,1.7l2.7.3a3.9,3.9,0,0,0,2.1.4,2,2,0,0,0,2.6.4h.2l2.2.3a35.2,35.2,0,0,0,6.5-.1,52.6,52.6,0,0,1,6.7-.7,15.7,15.7,0,0,0,5.7-1.2,9.4,9.4,0,0,0,2.6-1.4h0a8.1,8.1,0,0,0,2.4-1.7A8.3,8.3,0,0,0,54,34.7a1.7,1.7,0,0,0-.4-1.5v.5A8.6,8.6,0,0,1,52.2,36h-.1a1.8,1.8,0,0,0-.5.7h0a19,19,0,0,1-2.1,1.9,7.2,7.2,0,0,1-2.7,1.5,14.4,14.4,0,0,1-6.5.7h-1a20,20,0,0,1-3.4.2,7.1,7.1,0,0,0-2.9.2H26.6c0-1.1-.4-2.1-.5-3.2H36c1.7-.1,3.4-.4,5.1-.4a16.8,16.8,0,0,0,6.6-1.2,9.8,9.8,0,0,0,3.6-2,2.3,2.3,0,0,0,.9-1.9L50,34.1h-.4a11.5,11.5,0,0,1-6.6,1,4.9,4.9,0,0,0-2,.3,6.6,6.6,0,0,1-1.5.3c-1.9-.2-3.8,0-5.7-.1H32.1l-6.2.2c0-.1,0-.1-.1-.1L25.6,33h7.3l10-.4a28.4,28.4,0,0,0,4.2-.5C50.4,31.1,53.3,29.8,54.7,26.5Z" fill="#f7fdc3"/><path d="M54.7,26.5c-1.4,3.3-4.3,4.6-7.6,5.5a28.4,28.4,0,0,1-4.2.5l-10,.4H25.5V30.5a3.4,3.4,0,0,1,.7-2.4,11.5,11.5,0,0,1,3.3-2.9l.8-.2c0,.3.2.2.4.2a3.7,3.7,0,0,1,2.5,1.2c.5.8,1.4.9,2.1,1.4a10.1,10.1,0,0,0,2.4,1,1.1,1.1,0,0,1,.7.6c.1.3.3.4.4,0s.4-.2.6-.1,1.2.1,1.8.3a1.3,1.3,0,0,1,.9.6h0c0,.2-.2.6.3.4l.3.3a.8.8,0,0,0-.4.4c.4,0,.5-.1.5-.4H43l1.6.4a3.8,3.8,0,0,0,1.5.1,2,2,0,0,0,1.3-2.1,2.3,2.3,0,0,0-3.2-1.3h-.6c0-.4-.3-.5-.6-.5a.8.8,0,0,1-.7-.3c.1-.3.5-.3.7-.6s.7-.9,0-1.3-1.5-.8-2.1-1.3-1.5-.7-1.4-1.7l.2-.6h.1a4.8,4.8,0,0,1,1.9-.9c0,.2-.2.4-.4.6s-.5.2-.4.4.4.2.7.3L42,22a.7.7,0,0,1,.8-.4,9,9,0,0,1,2.3-.2l2.9.2c1.2,0,2.5.4,3.8.1a1.4,1.4,0,0,0,1.2-.9c.4.1.7.5,1.2.5a10.1,10.1,0,0,1,.6,3.8C54.8,25.6,54.7,26,54.7,26.5Zm-23.3-.6c.1-.1.2-.1.2-.2h-.1c-.1,0-.1.1-.1.2h0Z" fill="#ebc141"/><path d="M54.2,21.3c-.5,0-.8-.4-1.2-.5s-.3.1-.4-.1.4-.2.6-.3.4-.3.3-.5a.4.4,0,0,0-.4-.4h-.5l-5.8-.5a12.4,12.4,0,0,0-6,1.2,3.3,3.3,0,0,0-1.6,1.7c-.2.3-.2.6.3.7s.7,1.3,1.4,1.7,1.4.8,2.1,1.3.7.8,0,1.3-.2-.6-.4-.5-.8-.1-1.2-.1.2-.8-.5-1.1-.5-.1-.6-.3-1-.2-1.4-.7-1.8-.3-2.7-.1l-.3-.2c-.3-.4-.3-.9.3-1.4s.4-.9.9-1.1v-.2c-.3-.2-.2-.5-.4-.8s.4-1.1.1-1.7a.9.9,0,0,0,0-.7c-.2-.4-.6-.6-.9-.9s.3-.2.4-.1.4-.1.3-.4a.8.8,0,0,1,0-.7,1.1,1.1,0,0,0,.2-.9,1.1,1.1,0,0,1,.7-1.3c.9-.5.9-.7.6-1.2a2.5,2.5,0,0,1,1.7,0l2.5.7a1.9,1.9,0,0,1-.5,1h-.4c0-.8-.6-1.1-1.4-.6a7.5,7.5,0,0,0-2.4,2.3,1,1,0,0,0,.5,1.4c0,.4.3.5.6.5a7.8,7.8,0,0,0,2.2-.3,33.1,33.1,0,0,1,5.5-.5,6,6,0,0,0,1.9,0,12.2,12.2,0,0,1,3.3,0,6,6,0,0,1,2.6,3.6C54.2,20.8,54.3,21.1,54.2,21.3Z" fill="#d57d10"/><path d="M54.7,39.1c-.1-.1,0-.1,0-.1v-.2l.2-1.2c.2.1.6-.1.6.2s.6,1.2.9,1.8.3.6.6,0,.4,0,.5,0,.2.4.2.4-.1.6-.3.8-.7.6-1,.9A4.8,4.8,0,0,0,55,44.9a1.2,1.2,0,0,0-.5,1.4,2.7,2.7,0,0,0-.2,1.3.4.4,0,0,1-.4.4c-.5.1-.8-.4-1.4-.2s.7.5-.1.6-.1.1-.2.2a1.1,1.1,0,0,1-1.2.7c-.2,0-.3-.1-.5.1a1.2,1.2,0,0,1-1,.6,2.4,2.4,0,0,0-1.7.4.4.4,0,0,1-.5-.1c-.2-.1.1-.2.1-.4l.3-.5,1.9-.2c.3,0,.8-.1.6-.6a.4.4,0,0,1,.2-.5c.3.6.7.7,1,.2s.1-.8.7-.7.3-.3.3-.4.1-.5.4-.6.9-.4.6-1a.4.4,0,0,1,.1-.3c.2,0,.2.4.5.2s.4-.2.4-.4-.3-.2-.5-.3l-.3-.3c-.5-.4-1.4-.6-1.6-.2s-.5.5-.8.7a.7.7,0,0,0-.6.7c0,.2-.1.2-.3.3a14.5,14.5,0,0,0-2.6,1.1c-.3.2-.2.6-.4.7s-.3-.3-.7-.3-.7.4-1.1.6-.2.3-.1.5,1.1.5,1.7.8v.2c0,.3-.1.4-.4.6s-.3-.1-.5-.2-.3,0-.3.2.1.7.3,1h-.4c0-.1-.1-.1-.2-.1h-.2v-.2a.2.2,0,0,0,.1-.4c0-.1-.1-.1-.2,0s0,.2,0,.4h-.5c-.1,0-.2,0-.3-.2A18.4,18.4,0,0,1,42.2,49a.6.6,0,0,0-.5-.2,3.5,3.5,0,0,1-.7-2,.4.4,0,0,0-.1-.3v-.2h2.5c0,.5.2.8.8.8a.5.5,0,0,1,.6.1c.1,0,.2.1.3,0a1.4,1.4,0,0,1,1.8-.2c.2.1.2-.1.4-.2s.2-.6.5-.5.7-.2.9-.5.3-.3.4-.2.5-.1.6-.4.1-.4.3-.5.3-.2.2-.4h-.4c0-.2.2-.3.3-.4s.6-.3.6-.7a12.7,12.7,0,0,0,2.5-2.1c.6-.2.9-.9,1.3-1.3A.6.6,0,0,0,54.7,39.1Zm-8.6,8.1H46c-.1,0-.1,0-.1.1h.2Z" fill="#dc8b13"/><path d="M11,21.8a7.4,7.4,0,0,1,2-4.6,12.7,12.7,0,0,1,5.7-3.6l.8-.3a.3.3,0,0,0,.3.3c.3.5.9.5,1.2,1.1a1.1,1.1,0,0,1-1.2.1h-.4c0,.2.1.3.2.3s.4.2.4.5a.5.5,0,0,0,.3.6,9.4,9.4,0,0,1,.9,1.2c.4.5.8,1,1.5,1s.5,0,.4-.4a14.7,14.7,0,0,0-.6-1.4c-.2-.3-.7-.6-.5-1.2a3.9,3.9,0,0,1,1.4,1.7,1.2,1.2,0,0,1,0,1.3c-.1.1-.1.2-.2.2a7.3,7.3,0,0,1-3.1.9H17.6A10.5,10.5,0,0,0,11,21.8Z" fill="#ebc141"/><path d="M23.5,12.2a17.3,17.3,0,0,1,4.5-.5,37.8,37.8,0,0,1,9.5.8l-.6.6a12.1,12.1,0,0,1-2.1,2.4c-.4.4-.9.5-1.2,1a6.1,6.1,0,0,1-1.3-.3,2.9,2.9,0,0,0-3,.3,10.5,10.5,0,0,1-3.9-2.7A5.8,5.8,0,0,0,23.5,12.2Z" fill="#ebc141"/><path d="M20.1,19.6a7.3,7.3,0,0,0,3.1-.9c.1,0,.1-.1.2-.2h.7c0,.5-.4,1.1.5,1.2s.1.2.2.2.3.9.8,1.1.2.6.6.8l1.5.6a.4.4,0,0,0,.4.4c0,.2-.1.6,0,.7s.7.6,1.2.7,1.1,0,1.6.1.6,0,.7.3a2.8,2.8,0,0,0-1.3.4l-.8.2c-.1-.4-.5,0-.7-.3a.4.4,0,0,0-.6-.2h-.3c-.5-.6-1.2-.6-1.9-1s.4-.1.2-.5a.5.5,0,0,0-.7-.2c-.8.3-.8.3-.9-.5s0-.2-.2-.1a.6.6,0,0,1-.4.6c-.4.1-.2.5-.2.8s.2.5.4.4.3-.1.3.2-.1.3-.3.2a.8.8,0,0,0-.9.3l-.4-.4v-.3c.2,0,.3-.2.2-.4a1.9,1.9,0,0,1,0-1.3c.1-.2.1-.3-.2-.3s-.5-.2-.5-.5-.1-.3-.3-.5-1-.1-1.5-.4-.6-.3-.9,0-.3-.1-.3-.2-.1-.3-.2-.2-.8.3-1.2.5-.5.7-.8,0-.6,0-.5.4-.7-.4-.7,0-.4.5-.7.5-.4,0-.6.3a3.5,3.5,0,0,1-.5.8H14c-.2-.3-.1-.6-.3-1.1s-.4.1-.6.2h0c0,.1-.1.3-.2.2s-.5-.2-.7.1,0,.4.2.6a.3.3,0,0,1,0,.4c-.1.1-.2,0-.3,0s-.4-.3-.4,0-.2.5-.5.3h-.4a1,1,0,0,0,0-.9v-.6h0a10.5,10.5,0,0,1,6.6-2.2H20v0Zm-4.4,1.7h0c0-.1,0-.2-.2-.2h0C15.5,21.3,15.6,21.3,15.7,21.3Zm-1.4.7c.2-.1.2-.2.1-.3s0-.2-.1-.2-.2.2-.2.3Zm10.3-2h-.2c-.1,0-.2,0-.2.1h.1ZM11.2,23.2h0Z" fill="#d57d10"/><path d="M55.1,36.4a5.2,5.2,0,0,0-1.4-3.5c-.3-.2-.3-.6-.6-.9s0-.2.1-.3l.7-.9A4.9,4.9,0,0,1,57.6,32a14.5,14.5,0,0,1,2.1,2.2,4.2,4.2,0,0,1,.5,4.4c-.1,0-.3,0-.3.1s.1.1.2.2a2.9,2.9,0,0,1-1,1.2.4.4,0,0,1-.1-.3c.1-.1,0-.4.2-.4s.2-.4.1-.6-.3-.2-.4-.3a8.4,8.4,0,0,1-1.7-.5c-.2-.1-.4,0-.4-.2v-.2c.2-.1.3,0,.4.1l.3.2h.3c.1-.1-.1-.2-.1-.4s-.7-.4-.3-.9l-1-.3v.2c0,.1.1.2,0,.2a.2.2,0,0,1-.3,0A1.5,1.5,0,0,0,55.1,36.4Zm3.7,1.2h0c0-.4,0-.4-.7-.3S58.5,37.7,58.8,37.6Zm.5-.1a.1.1,0,0,1-.1-.1h-.1a.1.1,0,0,1,.1.1A.1.1,0,0,0,59.3,37.5Z" fill="#db8607"/><path d="M2.9,35.5c.9-1.6,2.5-2.2,4.2-2.6h.1c-.1-.2.1-.1.2-.2s.1,1.3.5,1.9.1.6.6.5l.3.2v.8a.9.9,0,0,0-.7,0V36H8v.4c.7,0,.7.1.4.6s-.3,0-.3.1a.3.3,0,0,0,.3.3c.1,0,.1-.2.1-.3s.4.2.6.4.2.6.1.9.2-.4.5-.1.3.9,0,1.5-.1-.1-.1-.2-.2-.6-.4-.5.2.3.2.5-.1.2-.1.4-.5-.3-.4-.6,0-.8-.5-1A4.1,4.1,0,0,0,8.8,40c.1.2.1.3-.1.3s-.4.5-.5,0H7.6c-.3,0-.2-.3-.3-.5s-.1-.2-.2-.1-.1.2,0,.3H6.9c-.3-.2-.5-.5-.9-.5H6c-.3-.4-.6-.9-1.2-.8s.5-.2.4-.3-.2-.5-.5-.6-.2.2-.2.3-.6.3-.8,0-.4-.1-.7,0a.3.3,0,0,1-.1-.2q.3-.2,0-.3a.5.5,0,0,0-.5-.3v-.5a.6.6,0,0,1,.5.2c.1.1.2,0,.3-.1s.1-.1,0-.2.1-.3.2-.6S3.2,35.7,2.9,35.5Zm1.4,1.8c-.8.2-.8.2-.4.8s.6-.4.4-.8.2-.1.2-.2H4.4C4.3,37.1,4.3,37.2,4.3,37.3Zm3-3.2h.1v-.2C7.5,34.1,7.4,34,7.3,34.1ZM4.8,37.5H4.7a.1.1,0,0,0,.1.1Zm3.1-1.8h0Zm-2,2.9Z" fill="#db880c"/><path d="M41.8,14.1a1.9,1.9,0,0,0,.5-1,22,22,0,0,1,4.4.5A9.3,9.3,0,0,1,51.6,17a12.2,12.2,0,0,0-3.3,0,6,6,0,0,1-1.9,0,33.1,33.1,0,0,0-5.5.5c0-.3.1-.6.4-.6s.5-.1.3-.4,0-.6.2-.9A1.1,1.1,0,0,0,41.8,14.1Z" fill="#ebc141"/><path d="M11,47.4v-.7c.2,0,.5.1.6-.2s-.3-.3-.5-.4h-.2c-.1-.4-.4-.6-.4-1l.2-.4c.2,0,.3.5.5.1s.1-.5.3-.7,0-.4-.3-.4h0c.2-.6-.2-.8-.5-1.1s.1-.4.2-.6.3.1.3-.1a.4.4,0,0,0-.2-.5.5.5,0,0,1-.5-.4c0-.6.3-.1.5-.1s.9-.1,1.1.3a3.6,3.6,0,0,0,.4.9c.1.3.2.6.6.7s.4.2.1.4-.3.5.1.5l1,.2c.3.1.4.4.7.6a7.2,7.2,0,0,0,2.5,1.2c0,.1,0,.1.1.2s.3.3.1.4-.4.1-.5-.1-.5-.2-.7-.3a1.8,1.8,0,0,1-1.7-.6.5.5,0,0,0-.8,0c0-.3-.1-.7-.3-.5s-.5,0-.7-.2-.3.7-.5.9.1.8.4.9.5.4.4.6.2.8.6,1,.3.1.3.3.4.6.5,1,.3.5.5.4.5.1.6.4.4.5.8.2.5-.2.8-.1a1.1,1.1,0,0,0,1.2.2h.1a.2.2,0,0,1,.2.2c-.1.2.1.8-.6.5h0c-.1.3-.3.3-.5.1h-.5a3.3,3.3,0,0,1-1,0c-.5-.5-1.3-.7-1.7-1.3s-1.1-.6-1.6-1.1-.3-.9-.9-.9a1.3,1.3,0,0,0-.1-.6c-.1-.1-.1-.3-.3-.2s-.3.2-.2.4.1.2.1.3h-.3A.3.3,0,0,0,11,47.4Zm.7-3c-.2.2-.2.4,0,.5A.4.4,0,0,0,11.7,44.4Zm-.4-2.3a.1.1,0,0,0-.1.1c0,.1,0,.2.1.2s.2-.1.1-.1S11.3,42.2,11.3,42.1Zm1.5.9h-.1c0,.1,0,.1.1.1Zm-.5-.2h0c0,.1,0,.1.1.1h0A.1.1,0,0,1,12.3,42.8Z" fill="#db880c"/><path d="M11.3,47.7h.8c.6,0,.6.6.9.9s1.2.6,1.6,1.1,1.2.8,1.7,1.3a3.3,3.3,0,0,0,1,0h.5c.2.2.4.2.5-.1h0c.7.3.5-.3.6-.5H19c.2.6.8.8,1.5.5s.6-.4,1-.3a4,4,0,0,0,3.4-1.8,2,2,0,0,1,.4-.8,1.2,1.2,0,0,0,.2-1.3l2.9.5h.1a4.1,4.1,0,0,1,0,1.1c-.3-.1-.4.2-.7.3s.3-.6.1-.8-.6,0-.8.1a4.2,4.2,0,0,0-1.4.9A6.9,6.9,0,0,1,23,51.3a21.7,21.7,0,0,1-2.5.4c-.6.2-1.1-.2-1.7,0a3.2,3.2,0,0,1-1.4.3,3.7,3.7,0,0,1-2.5-.6,1.2,1.2,0,0,0-.8-.2c-.1-.2-.1-.4-.4-.4s-.3.2-.2.3.3.1.5.1h.1c-.2.4.3.6.4.9s-1-.6-1.4-1a8.4,8.4,0,0,1-1.5-2.6C11.5,48.2,11.3,48,11.3,47.7Z" fill="#dc8b13"/><path d="M23.5,12.2a5.8,5.8,0,0,1,1.9,1.6,10.5,10.5,0,0,0,3.9,2.7l-1.5,1c-.2-.1-.2-.3-.3-.5s-.1-.2-.2-.3l-.3.2a.6.6,0,0,1-.6.6c-.4,0-.2-.4-.4-.6s-.1-.1-.1-.2-.1-.5-.4-.3-.5-.1-.4-.2-.1-.3-.2-.5-1-.9-1.4-1.4-.4-.2-.3-.5-.1-.4-.2-.2a.6.6,0,0,1-.7,0,1,1,0,0,0-.9,0h0c0-.2.1-.4-.1-.6a.7.7,0,0,0-.2.6c-.4-.2-.9-.4-1.3,0a.3.3,0,0,1-.3-.3h0a13.3,13.3,0,0,0,3.4-1Zm1.1,2.7c.1,0,.2.2.4,0Zm-.7-.8h-.1a.1.1,0,0,1,.1.1h0Z" fill="#d57d10"/><path d="M3.9,45.5c.2-.6.8-.7,1.3-.8s2.8.1,3,1.6-.6.9-1,1.2-1.2.1-1.7.3H5.4a1.5,1.5,0,0,0-.9-.6C4,46.8,4.1,46.1,3.9,45.5Z" fill="#dd901e"/><path d="M11,40.8c-.2,0-.5-.5-.5.1s-.3-1-1-.9,0-.3.1-.4-.5-.3-.2-.5.4.3.4.5,0,.1.1.2.5-1,0-1.5-.3.2-.5.1-.1-.6-.1-.9,0-1.1-.5-1.3v-.8c.2-.4.2-1.1-.1-1.1s-.5-.4-.5-.8.5.3.7,0,0-.7-.1-1.1-.3,0-.5.1a1.3,1.3,0,0,0,.5-1.1,1.1,1.1,0,0,1,.3-.8c.1.6-.1,1.3.4,1.8a.8.8,0,0,0,.1.4c-.5.3-.4.8-.3,1.2a4.4,4.4,0,0,0,2.4,4.1c-.3.3,0,.6.1.7s0,.4-.3.4-.6-.2-.7.3h0c.2.2.4.4.3.7H11Z" fill="#dd901e"/><path d="M44.4,50.7c.1.2.2.2.3.2s.4.3.7.2h.2c0,.2,0,.3.2.1h.5c.1.2.2.3.4.3h.6c.2.2.3.2.5,0h.5c.1.1.2.1.2,0h.3c.1.1.2.1.4,0l1.5-.4a3.5,3.5,0,0,0,2.4-1.7,1.6,1.6,0,0,0,.7-1.1,1,1,0,0,1,.5-.7.5.5,0,0,1,.5-.3,5.3,5.3,0,0,1-1.4,3,7.1,7.1,0,0,1-6,1.9,8.6,8.6,0,0,1-4.1-1.6C43.7,50.4,44,50.9,44.4,50.7Z" fill="#cf7310"/><path d="M40.9,46.3v.2a22,22,0,0,0-4.4.5c-1.1.2-2.2.2-3.4.3a23.6,23.6,0,0,1-4.6,0h-.1a1.5,1.5,0,0,0-.3-.7,4.2,4.2,0,0,0,2.2-.3h.6a15.7,15.7,0,0,0,5.3.1l2.1.2a7.5,7.5,0,0,0,2.6-.4Z" fill="#faf7ca"/><path d="M10.7,44.7l-.2.4a7,7,0,0,0-3.3-2A7.3,7.3,0,0,1,3.6,41a4.9,4.9,0,0,1-1.2-3.6.5.5,0,0,1,.5.3V38a.3.3,0,0,0,.1.2,1.7,1.7,0,0,0,.9,1.5V40c-.2.2,0,.4.2.5s.6.6,1,.8.4.5.8.3a1,1,0,0,0,.6.5l1.4.5c.3.1.8.1,1,.5s.2,0,.3-.1h0c.4.1.2.7.7.6Z" fill="#d57f18"/><path d="M11.3,47.7c0,.3.2.5.3.8a8.4,8.4,0,0,0,1.5,2.6c.4.4.6,1,1.4,1s.3.3.3.6,0,.2.2.2a.3.3,0,0,1,.1-.2h.5a.4.4,0,0,0,.4.4c.5-.1.8.2,1.3.2s.5.2.8,0,.7.2,1,.1v.3h-.1V54c-2.8.3-5.1-.5-6.6-2.9A6.9,6.9,0,0,1,11,47.4.3.3,0,0,1,11.3,47.7Z" fill="#d57d10"/><path d="M33.6,16.5c.3-.5.8-.6,1.2-1a12.1,12.1,0,0,0,2.1-2.4l.6-.6c.2,0,.4-.2.6-.1s.3.7-.6,1.2a1.1,1.1,0,0,0-.7,1.3,1.1,1.1,0,0,1-.2.9.8.8,0,0,0,0,.7c.1.3.2.6-.3.4s-.3.1-.4.1Z" fill="#d37806"/><path d="M19,53.7v-.3h.5c.1,0,.3.1.4,0s1.1,0,1.3-.6h.5a3.1,3.1,0,0,0,2.1-.7h.2a2.3,2.3,0,0,0,1.5-1h.1c.3,0,.4-.1.4-.4h.1c.3,0,.5-.1.5-.5h0c.2-.2.5-.3.6-.5a.7.7,0,0,1,1-.3A2.4,2.4,0,0,1,27.1,51a23.2,23.2,0,0,1-3.9,1.8A17.3,17.3,0,0,1,20,53.9H18.9v-.2Z" fill="#cf7310"/><path d="M10.8,22.5a1,1,0,0,1,0,.9c-.3.6-.1,1.2-.3,1.8s.1.5.2.7,0,.7.3.9v.5c-.1,1,.2,1.9.1,2.8s-.2-.8-.4-1.2.1-.6-.3-.7v-.9a3.2,3.2,0,0,0-.1-1.4A5.8,5.8,0,0,1,10.8,22.5Z" fill="#dd901e"/><path d="M5.4,47.8h.1c.3.4.7.3,1.1.3s1-.6,1.5-.8a1.7,1.7,0,0,1-2.4,1.3,2.5,2.5,0,0,1-2-2.5.7.7,0,0,1,.2-.6c.2.6.1,1.3.6,1.7S5,47.7,5.4,47.8Z" fill="#cf7310"/><path d="M9.5,32.4c-.5-.5-.3-1.2-.4-1.8h0c.1,0,.1-.1.1-.2a.4.4,0,0,1,.1-.3,2.8,2.8,0,0,0,.8-1.1,7.7,7.7,0,0,0,.7,1.6v.2A3.4,3.4,0,0,0,9.5,32.4Z" fill="#d57f18"/><path d="M59,39.8a.4.4,0,0,0,.1.3,13.1,13.1,0,0,1-1.2,1.1,6.5,6.5,0,0,0-2.6,3.7H55a4.8,4.8,0,0,1,1.5-3.2c.3-.3.8-.4,1-.9S58.4,40.1,59,39.8Z" fill="#d57d10"/><path d="M8.3,32.5c.2-.1.3.5.5-.1s.4.7.1,1.1-.4.2-.7,0,0,.7.5.8.3.7.1,1.1l-.3-.2c-.5.1-.4-.2-.6-.5s.1-1.4-.5-1.9h.4c0,.1,0,.2.2.2s.1-.2.1-.3Z" fill="#dc8b13"/><path d="M10.1,29a2.8,2.8,0,0,1-.8,1.1,5.2,5.2,0,0,1,.9-2.8,2.8,2.8,0,0,1,.1.9C10.2,28.5,10.2,28.7,10.1,29Z" fill="#ecc349"/><path d="M44.4,50.7c-.4.2-.7-.3-1.1-.1h0c.1-.4-.1-.3-.3-.3a6.1,6.1,0,0,1-1.3-1.5.6.6,0,0,1,.5.2A18.4,18.4,0,0,0,44.4,50.7Z" fill="#d57d10"/><path d="M8.1,47.3c-.5.2-.9.7-1.5.8s-.8.1-1.1-.3,1.2.1,1.7-.3.6-.8,1-1.2S8.3,47,8.1,47.3Z" fill="#d57f18"/><path d="M22.9,12.2a13.3,13.3,0,0,1-3.4,1,7.3,7.3,0,0,1,2.8-1Z" fill="#dd901e"/><path d="M28.3,49.3a.7.7,0,0,0-1,.3c-.1.2-.4.3-.6.5a3.8,3.8,0,0,1,1.1-1.4c.3-.1.4-.4.7-.3s-.1.4-.1.6-.3.2-.1.3Z" fill="#d57f18"/><path d="M2.9,35.5c.3.2,0,.8.6.7s-.9.3-.2.6.1.2,0,.2-.2.2-.3.1a.6.6,0,0,0-.5-.2A3.7,3.7,0,0,1,2.9,35.5Z" fill="#dc8b13"/><path d="M55,44.9h.3c0,.2-.1.3-.1.5s-.4.1-.1.3l-.2.6h-.4A1.2,1.2,0,0,1,55,44.9Z" fill="#db880c"/><path d="M54.5,46.3h.4v1a.5.5,0,0,0-.5.3A2.7,2.7,0,0,1,54.5,46.3Z" fill="#d57d10"/><path d="M10.9,46.1h.2c.2.1.5.2.5.4s-.4.2-.6.2S10.8,46.3,10.9,46.1Z" fill="#dc8b13"/><path d="M60.1,38.9c-.1-.1-.3-.1-.2-.2s.2-.1.3-.1A.4.4,0,0,1,60.1,38.9Z" fill="#db880c"/><path d="M55.1,45.7c-.3-.2-.2-.3.1-.3A.4.4,0,0,1,55.1,45.7Z" fill="#d57d10"/><path d="M8.1,32.6c0,.1,0,.3-.1.3s-.2-.1-.2-.2Z" fill="#db880c"/><path d="M43,50.3c.2,0,.4-.1.3.3Z" fill="#cf7310"/><path d="M28.3,49.3c-.2-.1-.1-.2.1-.3S28.4,49.3,28.3,49.3Z" fill="#cf7310"/><path d="M9.2,30.4c0,.1,0,.2-.1.2S9.1,30.4,9.2,30.4Z" fill="#dd901e"/><path d="M7.2,33h0Z" fill="#dc8b13"/><path d="M11,21.9v0Z" fill="#ebc141"/><path d="M50,34.1l2.2-1.4a2.3,2.3,0,0,1-.9,1.9,9.8,9.8,0,0,1-3.6,2,16.8,16.8,0,0,1-6.6,1.2c-1.7,0-3.4.3-5.1.4H26.1c.1-.4-.2-.9-.1-1.3s2.1.2,3.2,0a6,6,0,0,1,2.3-.2,13.4,13.4,0,0,0,4-.1c2.4-.4,4.8-.3,7.2-.6s2.4,0,3.5-.2A8.7,8.7,0,0,0,50,34.1Z" fill="#ecc349"/><path d="M48.9,40.3a9.4,9.4,0,0,1-2.6,1.4,15.7,15.7,0,0,1-5.7,1.2,52.6,52.6,0,0,0-6.7.7,35.2,35.2,0,0,1-6.5.1l-2.2-.3a4.6,4.6,0,0,0,1.2-1.2h.1l3.4-.2,3.9-.2a44.6,44.6,0,0,1,6.3-.5c1.7,0,3.3-.2,5-.1l1.6-.2C47.5,40.9,48.1,40.4,48.9,40.3Z" fill="#ecc54e"/><path d="M50,34.1a8.7,8.7,0,0,1-3.8,1.7c-1.1.2-2.3.1-3.5.2s-4.8.2-7.2.6a13.4,13.4,0,0,1-4,.1,6,6,0,0,0-2.3.2c-1.1.2-2.1-.1-3.2,0h0a1.4,1.4,0,0,1-.1-.9l6.2-.2h1.7c1.9.1,3.8-.1,5.7.1a6.6,6.6,0,0,0,1.5-.3,4.9,4.9,0,0,1,2-.3,11.5,11.5,0,0,0,6.6-1Z" fill="#d19435"/><path d="M26.1,38.2c.1,1.1.5,2.1.5,3.2h0a39.7,39.7,0,0,1-4.9-.1V38.1h4.4Z" fill="#de9e18"/><path d="M48.9,40.3c-.8.1-1.4.6-2.2.7l-1.6.2c-1.7-.1-3.3.1-5,.1a44.6,44.6,0,0,0-6.3.5l-3.9.2-3.4.2a2.2,2.2,0,0,1,.1-.8H33a7.1,7.1,0,0,1,2.9-.2,20,20,0,0,0,3.4-.2h1a14.4,14.4,0,0,0,6.5-.7,7.2,7.2,0,0,0,2.7-1.5,19,19,0,0,0,2.1-1.9c.1.3-.1.5-.2.7l-.2.2c-.1.1-.3.2-.3.4A12.4,12.4,0,0,1,49,40.1c-.1,0-.1.1-.1.2Z" fill="#d19435"/><path d="M25.5,33h.1a24.6,24.6,0,0,1,.2,2.8H21.7a28.1,28.1,0,0,0-.1-2.9c.8-.1,1.7.2,2.5.1Z" fill="#de9e18"/><path d="M20.3,42.6l-2.7-.3a6,6,0,0,1-3.8-1.7l-.4-.3c0-.1-.1-.2-.1-.4l.6.3a9.9,9.9,0,0,0,3.4.8,35.4,35.4,0,0,1,4.5.8l.4,1.1Z" fill="#ecc54e"/><path d="M59,39.8c-.6.3-.9.9-1.5,1s-.6-.8.3-.8,0-.3-.2-.4-.3-.3-.5,0-.5.3-.6,0-.9-1-.9-1.8-.4-.1-.6-.2V36.4a1.5,1.5,0,0,1,1.1.4.2.2,0,0,0,.3,0c.1,0,0-.1,0-.2v-.2l1,.3c-.4.5.3.6.3.9s.2.3.1.4h-.3l-.3-.2c-.1-.1-.2-.2-.4-.1v.2c0,.2.2.1.4.2a8.4,8.4,0,0,0,1.7.5c.1.1.3.1.4.3s.5.5-.1.6S59.1,39.7,59,39.8Z" fill="#db880c"/><path d="M28.1,46.6a1.5,1.5,0,0,1,.3.7l-2.9-.5-.8-.2a37.6,37.6,0,0,0-6.6-1h-.6A7.2,7.2,0,0,1,15,44.4c-.3-.2-.4-.5-.7-.6s-.5-.9-.6-1.4l.3.3c.8.9,1.5,1.9,2.8,2.2a11.5,11.5,0,0,0,4.5.4h0c.3.5.8.3,1.2.4a50.7,50.7,0,0,0,5.4.9Z" fill="#cf7310"/><path d="M21.3,45.3a11.5,11.5,0,0,1-4.5-.4c-1.3-.3-2-1.3-2.8-2.2l-.3-.3a.8.8,0,0,0-.2-.5c-.3-.7-.8-1.4-.4-2.2l.2.2c0,.2.1.3.1.4a6,6,0,0,0,3.4,3.6A23.5,23.5,0,0,0,21.3,45.3Z" fill="#de9e18"/><path d="M40.9,46.3v-.2a2,2,0,0,1,1.3-.2,9.7,9.7,0,0,0,2.9-.4L48.9,44l1.8-1c0,.4-.4.5-.6.7s-.3.2-.3.4a1.5,1.5,0,0,0-.7.3l-1.9,1a23.3,23.3,0,0,1-3.8.8Z" fill="#cf7310"/><path d="M50.9,38c0-.2.2-.3.3-.4s-.2.6.3.5a.8.8,0,0,0,.2-.5c0-.2-.2-.2-.3-.2s.3-.4.2-.7h0c.4-.1.5-.3.5-.7h.1a2.5,2.5,0,0,0,1.4-2c.1-.1,0-.2-.1-.3v-.5a1.7,1.7,0,0,1,.4,1.5,8.3,8.3,0,0,1-2.7,3.9C51,38.5,51.3,38,50.9,38Z" fill="#ecc349"/><path d="M21.7,35.7h4.1c.1,0,.1,0,.1.1a1.4,1.4,0,0,0,.1.9l-2-.2a17.9,17.9,0,0,1-2.3-.2h0Z" fill="#cf7310"/><path d="M26.4,42.2a4.6,4.6,0,0,1-1.2,1.2H25l-1.4-.3c.2-.2.1-.4,0-.6s-.2-.5.3-.5Z" fill="#d57f18"/><path d="M27.9,46.6a50.7,50.7,0,0,1-5.4-.9c-.4-.1-.9.1-1.2-.4l5.7.9A1.1,1.1,0,0,1,27.9,46.6Z" fill="#de9e18"/><path d="M50.9,38c.4,0,.1.5.4.6a8.1,8.1,0,0,1-2.4,1.7c0-.1,0-.2.1-.2A12.4,12.4,0,0,0,50.9,38Z" fill="#ecc54e"/><path d="M23.6,43.1l1.4.3a2,2,0,0,1-2.6-.4h0C22.8,43,23.2,43.2,23.6,43.1Z" fill="#de9e18"/><path d="M54.7,39.1a.6.6,0,0,1-.2.5c-.4.4-.7,1.1-1.3,1.3S54.1,39.6,54.7,39.1Z" fill="#cf7310"/><path d="M53.5,33.7c.1.1.2.2.1.3a2.5,2.5,0,0,1-1.4,2A8.6,8.6,0,0,0,53.5,33.7Z" fill="#d19435"/><path d="M20.3,42.6l1.9.3h.2A3.9,3.9,0,0,1,20.3,42.6Z" fill="#fefefe"/><path d="M52.1,36.1c0,.4-.1.6-.5.7A1.8,1.8,0,0,1,52.1,36.1Z" fill="#d19435"/><path d="M54.8,38.8v0Z" fill="#cf7310"/><path d="M25.5,33l-1.4-.2c.1-.3-.4-.5-.3-.9s-.1-2.3.1-3.4-.1-.3-.3-.4-.3-.1-.4.1,0,.4-.3.3-.3-.2-.2-.4,0-.3-.2-.4.2-.7.4-1a3.1,3.1,0,0,0,.4-1.9.8.8,0,0,1,.9-.3c.2.1.3.1.3-.2s0-.3-.3-.2-.4-.2-.4-.4-.2-.7.2-.8a.6.6,0,0,0,.4-.6c.2-.1.2,0,.2.1s.1.8.9.5a.5.5,0,0,1,.7.2c.2.4-.1.4-.2.5s1.4.4,1.9,1h.3a.4.4,0,0,1,.6.2c.2.3.6-.1.7.3a11.5,11.5,0,0,0-3.3,2.9,3.4,3.4,0,0,0-.7,2.4Zm-2.2-5.4c.1-.3,0-.4-.2-.5S23.1,27.4,23.3,27.6Z" fill="#d37806"/><path d="M30.3,25a2.8,2.8,0,0,1,1.3-.4h.9A16.3,16.3,0,0,1,36.2,26a11.2,11.2,0,0,0,2.5,1.1,7.4,7.4,0,0,0,3.6.3.8.8,0,0,0,.7.3c.3,0,.6.1.6.5s-1.5,1.2-1.2,2.4-.3-.2-.3-.4h0a1.3,1.3,0,0,0-.9-.6c-.6-.2-1.2-.1-1.8-.3s-.4-.2-.6.1-.3.3-.4,0a1.1,1.1,0,0,0-.7-.6,10.1,10.1,0,0,1-2.4-1c-.7-.5-1.6-.6-2.1-1.4a3.7,3.7,0,0,0-2.5-1.2C30.5,25.2,30.3,25.3,30.3,25Z" fill="#ecc349"/><path d="M39.5,22.5c-.5-.1-.5-.4-.3-.7a3.3,3.3,0,0,1,1.6-1.7,12.4,12.4,0,0,1,6-1.2l5.8.5h.5a.4.4,0,0,1,.4.4c.1.2-.1.4-.3.5s-.5.1-.6.3h-.9c0-.2-.2-.2-.3-.3s-2.7-.3-4.1-.5-.7-.1-1,.3a10.3,10.3,0,0,0-4.6.7,4.8,4.8,0,0,0-1.9.9h-.1Z" fill="#cf7310"/><path d="M51.7,20.7h.9c.1.2.2.1.4.1a1.4,1.4,0,0,1-1.2.9c-1.3.3-2.6-.1-3.8-.1l-2.9-.2a9,9,0,0,0-2.3.2.7.7,0,0,0-.8.4l-.4.2c-.3-.1-.6-.1-.7-.3s.3-.3.4-.4.4-.4.4-.6a10.3,10.3,0,0,1,4.6-.7h1A21.8,21.8,0,0,0,51.7,20.7Z" fill="#ecc349"/><path d="M44.2,28.1a2.3,2.3,0,0,1,3.2,1.3,2,2,0,0,1-1.3,2.1,3.8,3.8,0,0,1-1.5-.1,1.4,1.4,0,0,0,.1-1.7c.2-.3.4,0,.5,0h0c.1-.4,0-.6-.4-.8A1.6,1.6,0,0,1,44.2,28.1Z" fill="#d37806"/><path d="M42.3,27.4a7.4,7.4,0,0,1-3.6-.3A1.9,1.9,0,0,0,37.2,26a.5.5,0,0,1-.3-.5.2.2,0,0,1,.3-.1c.6.4,1.3.1,1.9.4a2.8,2.8,0,0,0,2.3.4c.4,0,.8.2,1.2.1s.4.3.4.5S42.4,27.1,42.3,27.4Z" fill="#cf7310"/><path d="M44.2,28.1a1.6,1.6,0,0,0,.6.8c.4.2.5.4.4.8h0c-.1,0-.3-.3-.5,0S43,29.6,43,31h-.3l-.3-.3c-.3-1.2,0-1.8,1.2-2.4Z" fill="#d57d10"/><path d="M43,31c0-1.4.2-1.6,1.7-1.3a1.4,1.4,0,0,1-.1,1.7Z" fill="#cf7310"/><path d="M42.7,30.9h.1c0,.3-.1.4-.5.4A.8.8,0,0,1,42.7,30.9Z" fill="#ecc349"/><path d="M31.4,25.9c0-.1,0-.2.1-.2h.1c0,.1-.1.1-.2.2Z" fill="#ecc349"/><path d="M42.1,30.2Z" fill="#d57d10"/><path d="M31.4,25.9h0Z" fill="#ecc349"/><path d="M39.7,21.9h0Z" fill="#d57d10"/><path d="M33.6,16.5l2.3.5c.3.3.7.5.9.9a.9.9,0,0,1,0,.7c-.1.4-.5.6-.6.9l-.6.3c-.1-.3-.1-.5-.4-.6s-.8,0-1.1.4A4,4,0,0,1,31.4,21l-1.6.3H29l-1.8-.6c-.1-.6-.4-1.2-.1-1.8s-.2-.3-.3-.4l1-.9,1.5-1a2.9,2.9,0,0,1,3-.3A6.1,6.1,0,0,0,33.6,16.5Z" fill="#faf7ca"/><path d="M41.4,26.2a2.8,2.8,0,0,1-2.3-.4c-.6-.3-1.3,0-1.9-.4a.2.2,0,0,0-.3.1.5.5,0,0,0,.3.5,1.9,1.9,0,0,1,1.5,1.1A11.2,11.2,0,0,1,36.2,26a16.3,16.3,0,0,0-3.7-1.3h-.9c-.1-.3-.4-.3-.7-.3s-1,.1-1.6-.1-.8-.5-1.2-.7,0-.5,0-.7a3,3,0,0,0,1.6.5,2,2,0,0,0,1.3-.2l.7-.2,2.3-.7c1.1,0,1.7-.7,2.5-1.2s.2-.3,0-.4l.2-.3c.2.3.1.6.4.8v.2c-.5.2-.6.8-.9,1.1s-.6,1-.3,1.4l.3.2c.9-.2,1.8.4,2.7.1s1,.2,1.4.7.4.2.6.3S41.7,25.6,41.4,26.2Z" fill="#d57f18"/><path d="M41.8,14.1a1.1,1.1,0,0,1,0,1.5c-.2.3-.5.5-.2.9s-.1.3-.3.4-.4.3-.4.6a7.8,7.8,0,0,1-2.2.3c-.3,0-.6-.1-.6-.5a1.5,1.5,0,0,1,.6-1.1c.7-1,1.8-1.3,2.7-2Z" fill="#ecc349"/><path d="M36.7,20.3l-.2.3-1,.7a7.5,7.5,0,0,0-1.5.9l-2.3.7-.7.2H30l-2.3-.6-1.5-.6c-.4-.2-.6-.4-.6-.8s-.1-.7.1-1a9.4,9.4,0,0,0,1.5.6l1.8.6c-.1.4-.3.2-.5.1s-.5-.1-.6.1.1.4.2.5,1.3.7,2.1.8A8.5,8.5,0,0,0,36,20.4a.8.8,0,0,0,.2-.9c.1-.3.5-.5.6-.9S36.7,19.8,36.7,20.3Z" fill="#ebc141"/><path d="M41.4,14.2c-.9.7-2,1-2.7,2a1.5,1.5,0,0,0-.6,1.1,1,1,0,0,1-.5-1.4A7.5,7.5,0,0,1,40,13.6C40.8,13.1,41.4,13.4,41.4,14.2Z" fill="#cf7310"/><path d="M47.1,49.4c-.6-.3-1.3-.2-1.7-.8s-.2-.4.1-.5.6-.5,1.1-.6.5.5.7.3.1-.5.4-.7A14.5,14.5,0,0,1,50.3,46c.2-.1.3-.1.3-.3a.7.7,0,0,1,.6-.7c.3-.2.7-.1.8-.7s1.1-.2,1.6.2l.3.3c.2.1.5,0,.5.3s-.3.3-.4.4-.3-.2-.5-.2a.4.4,0,0,0-.1.3c.3.6-.1.9-.6,1s-.5.2-.4.6-.2.4-.3.4-.5.4-.7.7-.7.4-1-.2a.4.4,0,0,0-.2.5c.2.5-.3.6-.6.6l-1.9.2v-.2c-.1-.2-.2-.7-.5-.6s.1.4.1.7h-.2Zm5.6-4.6c0-.2,0-.2-.1-.2h.1Zm-.6,1.9Z" fill="#db880c"/><path d="M47.1,49.4h.6l-.3.5c0,.2-.3.3-.1.4a.4.4,0,0,0,.5.1,2.4,2.4,0,0,1,1.7-.4,1.2,1.2,0,0,0,1-.6c.2-.2.3-.1.5-.1a1.1,1.1,0,0,0,1.2-.7c.1-.1.1-.2.2-.2s.3-.4.1-.6.9.3,1.4.2a.4.4,0,0,1-.1.3c-.7,0-.5.7-.7,1.1a3.5,3.5,0,0,1-2.4,1.7l-1.5.4c-.2-.2-.3-.2-.4,0h-.3c0-.1-.1-.1-.2,0h-.5c-.2-.2-.3-.2-.5,0h-.6c0-.3-.2-.3-.4-.3h-.1c-.2-.3-.5-.6-.3-1s.1-.4.3-.2.1.4.5.2.4-.3.4-.6Z" fill="#dd901e"/><path d="M43.4,46.2a23.3,23.3,0,0,0,3.8-.8l1.9-1a1.5,1.5,0,0,1,.7-.3h.4c.1.2-.1.3-.2.4s-.2.3-.3.5-.1.6-.6.4-.3.1-.4.2-.4.6-.9.5-.3.4-.5.5-.2.3-.4.2a1.4,1.4,0,0,0-1.8.2c-.1.1-.2,0-.3,0a.5.5,0,0,0-.6-.1C43.6,47,43.4,46.7,43.4,46.2Z" fill="#dd901e"/><path d="M45.4,51.1c-.3.1-.6.1-.7-.2h.6Z" fill="#d57d10"/><path d="M45.3,50.9h-.1c0-.2-.1-.3,0-.4s.2-.1.2,0A.2.2,0,0,1,45.3,50.9Z" fill="#dd901e"/><path d="M46.1,47.2h-.2c0-.1,0-.1.1-.1Z" fill="#dd901e"/><path d="M45.8,51.2c-.2.2-.2.1-.2-.1S45.8,51.1,45.8,51.2Z" fill="#d57d10"/><path d="M22,15.5c-.2.6.3.9.5,1.2a14.7,14.7,0,0,1,.6,1.4c.1.4-.2.4-.4.4s-1.1-.5-1.5-1a9.4,9.4,0,0,0-.9-1.2.5.5,0,0,1-.3-.6c0-.3-.1-.5-.4-.5s-.2-.1-.2-.3h.4a1.1,1.1,0,0,0,1.2-.1h0c-.1.7.4.8.9.8Z" fill="#ecc54e"/><path d="M19.8,13.6c.4-.4.9-.2,1.3,0h.3l2.3,2.5a1.9,1.9,0,0,1,.4,2.4h-.7a1.2,1.2,0,0,0,0-1.3A3.9,3.9,0,0,0,22,15.5h-.1a1.1,1.1,0,0,0-.9-.8h0C20.7,14.1,20.1,14.1,19.8,13.6Z" fill="#cf7310"/><path d="M20.1,19.6v0Z" fill="#d57f18"/><path d="M23.3,24.8a3.1,3.1,0,0,1-.4,1.9c-.2.3-.2.7-.4,1s-.2,1.1-.5,1.6-.2-.1-.2-.3-.1-.4-.4-.4-.6.6-1.1.8-.2.7-.2,1.1a.5.5,0,0,1-.6.6h-.3c-.1.2-.3.5-.4.4s-.6-.3-.5-.7,0-.2-.1-.2-.2,0-.2.1-.3.3-.5.2.7.9,1,1.2a9,9,0,0,1-3.2-.9,1.1,1.1,0,0,1,.8.1c.5.3.9.2,1-.4s.2-.2,0-.3-.2-.1-.3.1,0,.3-.2.3-.2-.3-.2-.5a.4.4,0,0,1,.1-.5c.2-.1.1.3.3.2s-.1-.6.1-.8,0-.3-.1-.3-.2.1-.3.2,0,.4-.2.3-.8.1-1.2.2-.7.3-.8-.5-.1-.6-.2-.6-.6-.3-.6-.5-.2-.9.5-.9.4-.4.7-.3.1-.1.1-.2-.7,0-.8-.4a.7.7,0,0,0-.4.5c0,.2-.2.2-.3.2s-.2-.2-.2-.3a3.3,3.3,0,0,0,0-1l.2-.2c.2-.1.3,0,.3.1a.3.3,0,0,0,.3.3.5.5,0,0,0,.2-.4c.1-.2.1-.6.5-.6s1,0,1.3.6h.3c.1.2.2.3.2.4s.3.3.4.1.6-.5.7-1l.3-.2c.3.3.8.1.9.3s1,.2,1.5.1a.2.2,0,0,0,.3,0c.3-.2.3,0,.3.2s0,.3.2.3.2-.3.3-.5,1.3-.4,1.6-1ZM18.8,29c-.1.3-.1.5.2.7s.2.2.2.4-.2.4.2.4.2-.3.2-.5A1.2,1.2,0,0,0,18.8,29Zm2.8-.7a.6.6,0,0,0,0-.6Q21.3,27.9,21.6,28.3Zm-6.4.9h0Zm-.4-1.5h0Z" fill="#ebc141"/><path d="M10.5,25.2c.2-.6,0-1.2.3-1.8h.4c.3.2.5.4.5-.3s.2-.2.4,0,.2.1.3,0a.3.3,0,0,0,0-.4c-.2-.2-.5-.3-.2-.6s.4-.4.7-.1.2-.1.2-.2h0c.2-.1.5.7.6-.2s.1.8.3,1.1,0,.2.1.2.1-.1.1-.2a3.5,3.5,0,0,0,.5-.8c.2-.3.3-.3.6-.3s.6.1.7-.5.5.1.7,0,.4-.5.5-.4.5.1.8,0,.9-.1,1.2-.5.1.1.2.2.2.2.3.2.7-.1.9,0,1.1,0,1.5.4.3.3.3.5.1.6.5.5.3.1.2.3a1.9,1.9,0,0,0,0,1.3c.1.2,0,.4-.2.4l-.9-.5a.9.9,0,0,0-.5-1.3,2.5,2.5,0,0,0-1.2-.2,9.2,9.2,0,0,0-3.7,0c-.3.1-.5.4-.9.2s-.7-.1-.7.5l-.3.2c-.3.2-.9.1-1.2.4s-.7.5-1.2.1a2.8,2.8,0,0,0,.1,1.3c-.2.2-.3.4-.6.5s0-.5.1-.9A5,5,0,0,1,10.5,25.2Z" fill="#d57f18"/><path d="M24.1,18.5a1.9,1.9,0,0,0-.4-2.4l-2.3-2.5a1,1,0,0,1,.9,0,.6.6,0,0,0,.7,0c.1-.2.3,0,.2.2s.1.4.3.5,1,.9,1.4,1.4.3.2.2.5.2.3.4.2.4-.1.4.3.1.1.1.2,0,.6.4.6a.6.6,0,0,0,.6-.6l.3-.2c.1.1.2.2.2.3s.1.4.3.5l-1,.9A9.1,9.1,0,0,0,25.7,20c-.2.3,0,.6-.1,1s-.4-.8-.8-1.1-.1-.2-.2-.2S24.1,19,24.1,18.5Z" fill="#d57f18"/><path d="M22,23.6l.9.5v.3c-.3.6-1.1.6-1.6,1s-.3.3-.3.5-.2-.2-.2-.3,0-.4-.3-.2a.2.2,0,0,1-.3,0,.4.4,0,0,0-.1-.3L18,24.4c-.7-.2-1.1.1-1.1.7a.6.6,0,0,1-.2-.7c.1-.2.3-.3,0-.5s-.3.1-.4.2-.4.5-.7.4a.6.6,0,0,1-.2-.8v-.3a9.3,9.3,0,0,1,2.3-.4A12.4,12.4,0,0,1,22,23.6Z" fill="#ecc54e"/><path d="M27.7,22.4,30,23h1a2,2,0,0,1-1.3.2,3,3,0,0,1-1.6-.5A.4.4,0,0,1,27.7,22.4Z" fill="#cf7310"/><path d="M14.3,22l-.2-.2c0-.1.1-.2.2-.3s.1.1.1.2S14.5,21.9,14.3,22Z" fill="#d57f18"/><path d="M24.6,20l-.3.2h-.1c0-.1.1-.1.2-.1Z" fill="#d57f18"/><path d="M15.7,21.3c-.1,0-.2,0-.2-.1h0c.2,0,.2.1.2.2Z" fill="#d57f18"/><path d="M14.2,22.8c0,.1,0,.2-.1.2s-.1-.1-.1-.2Z" fill="#cf7310"/><path d="M11.2,23.2h0Z" fill="#d57f18"/><path d="M13.1,21.9Z" fill="#d57f18"/><path d="M15.7,21.3Z" fill="#d57f18"/><path d="M58.8,37.6c-.3.1-.5,0-.7-.3s.7-.1.7.3Z" fill="#db880c"/><path d="M59.3,37.5a.1.1,0,0,1-.1.1.1.1,0,0,0-.1-.1h.1A.1.1,0,0,0,59.3,37.5Z" fill="#db880c"/><path d="M58.8,37.6h0Z" fill="#db880c"/><path d="M9.2,43c-.1.1-.2.2-.3.1s-.7-.4-1-.5l-1.4-.5a1,1,0,0,1-.6-.5c-.4-.5.1-.7.3-.9s.5,0,.7,0-.1-.3,0-.5h.2c-.1-.1-.2-.2,0-.3s.1,0,.2.1,0,.5.3.5a.8.8,0,0,1-.2.6c-.1.2-.1.3,0,.4s.3,0,.4-.1a.4.4,0,0,1,.7.2c0,.2,0,.4.3.5a1.6,1.6,0,0,1,.1-1c.5.4.1.7.1,1.1s.5,0,.4-.4v-.5a.4.4,0,0,1,.4-.4c.2,0,.1.2.2.4s-.3.8.1,1.1.3-.7.8-.4-.1.5-.2.6-.3.8-.9.5v.6c-.5.1-.3-.5-.7-.6h0Z" fill="#dd901e"/><path d="M6.9,40.2c-.1.2.1.3,0,.5s-.6-.3-.7,0-.7.4-.3.9-.5-.1-.8-.3-.6-.6-1-.8-.4-.3-.2-.5.9.1,1.4.2a.4.4,0,0,0-.1-.3c0-.6-.5-.7-.8-.8s-.3.5-.5.6A1.7,1.7,0,0,1,3,38.2c.3-.1.4-.4.7,0s.5.4.8,0,0-.4.2-.3.3.4.5.6-.3,0-.4.3.9.4,1.2.8-.1.1,0,.1S6.6,40,6.9,40.2Zm-1.5.5c-.1-.1-.1-.2-.2-.2s-.2,0-.1.1,0,.1.1.2Zm.6-.4h.2a.1.1,0,0,0-.1-.1H6Z" fill="#dc8b13"/><path d="M10.9,41.9c-.5-.3-.6.1-.8.4s0-.8-.1-1.1,0-.4-.2-.4a.4.4,0,0,0-.4.4v.5c.1.4-.1.4-.4.4s.4-.7-.1-1.1a1.6,1.6,0,0,0-.1,1c-.3-.1-.3-.3-.3-.5a.4.4,0,0,0-.7-.2c-.1.1-.3.2-.4.1s-.1-.2,0-.4a.8.8,0,0,0,.2-.6h.6c.1.5.3,0,.5,0s.2-.1.1-.3a4.1,4.1,0,0,1-.2-1.6c.5.2.5.6.5,1s-.1.6.4.6.8.5,1,.9a.5.5,0,0,0,.5.4.4.4,0,0,1,.2.5C11.2,42,11,41.9,10.9,41.9Z" fill="#dc8b13"/><path d="M8.8,36.2c.5.2.7.6.5,1.3s-.3-.4-.6-.4H8.6c.3-.5.3-.6-.4-.6v-.2h0A.9.9,0,0,1,8.8,36.2Z" fill="#dc8b13"/><path d="M4.3,37.3c.2.4-.2.5-.4.8s-.4-.6.4-.8Z" fill="#dc8b13"/><path d="M8.6,37h.1c0,.1,0,.3-.1.3a.3.3,0,0,1-.3-.3C8.3,37,8.5,37,8.6,37Z" fill="#dd901e"/><path d="M7.3,34.1c.1-.1.2,0,.1,0v.2H7.3Z" fill="#dc8b13"/><path d="M4.3,37.3c0-.1,0-.2.1-.2h.1c0,.1-.1.1-.2.2Z" fill="#dc8b13"/><path d="M4.8,37.5h0a.1.1,0,0,1-.1-.1h.1Z" fill="#dc8b13"/><path d="M2.9,38v-.3Q3.2,37.8,2.9,38Z" fill="#dc8b13"/><path d="M7.9,35.7h0Z" fill="#dc8b13"/><path d="M5.9,38.6h0Z" fill="#dc8b13"/><path d="M8.1,36.2V36H8v.2Z" fill="#dc8b13"/><path d="M8.2,40.3Z" fill="#dc8b13"/><path d="M7.1,40.1h0Z" fill="#dc8b13"/><path d="M6,39.7c-.1,0-.1-.1,0-.1Z" fill="#dd901e"/><path d="M17.5,45.6h.6a.6.6,0,0,1-.1.4.6.6,0,0,0,.4.8c.2.2.5.1.5-.3s.3-.2.5-.2a1.5,1.5,0,0,1,1.1.8c0,.2.1.4.3.3s.7,0,1,.2a1.7,1.7,0,0,0,1.7.4q.5-.2.3.3a1.2,1.2,0,0,1-1.1,1.4c-.9.3-1.9.4-2.8.8h-.4c-.3-.8-.3-.1-.5.1h-.1a.2.2,0,0,0-.2-.2h-.1a1.1,1.1,0,0,1-1.2-.2c-.3-.1-.6-.2-.8.1s-.6.1-.8-.2-.1-.6-.6-.4-.5-.2-.5-.4-.5-.6-.5-1-.2-.2-.3-.3-.8-.4-.6-1,0-.5-.4-.6-.7-.4-.4-.9.2-.6.5-.9.2,1.1.7.2.3.2.3.5a.5.5,0,0,1,.8,0,1.8,1.8,0,0,0,1.7.6c.2.1.5.1.7.3s.3.3.5.1-.1-.3-.1-.4S17.5,45.7,17.5,45.6Zm3,2.1-.5-.6c-.1-.1-.1-.3-.3-.2s-.2.2-.2.4a.9.9,0,0,1,.1.5.4.4,0,0,0,.6.2A.3.3,0,0,0,20.5,47.7Z" fill="#db8607"/><path d="M13.1,39.7c-.4.8.1,1.5.4,2.2a.8.8,0,0,1,.2.5c.1.5.5.9.6,1.4l-1-.2c-.4,0-.5-.2-.1-.5s.2-.3-.1-.4-.5-.4-.6-.7a3.6,3.6,0,0,1-.4-.9c-.2-.4-.7-.2-1.1-.3v-.4h.1c.8-.1.5-.6.4-1s.6.1.3-.4-.4-.4-.1-.7.8.7,1.3,1S13.1,39.5,13.1,39.7Z" fill="#dc8b13"/><path d="M9.9,43.6V43c.6.3.7-.2.9-.5s.7.5.5,1.1h0c.3,0,.6.1.3.4s-.2.5-.3.7-.3-.1-.5-.1Z" fill="#dc8b13"/><path d="M12.1,47.8h-.5c0-.1-.1-.2-.1-.3s0-.3.2-.4.2.1.3.2A1.3,1.3,0,0,1,12.1,47.8Z" fill="#dd901e"/><path d="M11.7,44.4a.4.4,0,0,1,0,.5C11.5,44.8,11.5,44.6,11.7,44.4Z" fill="#dc8b13"/><path d="M11.3,42.1c0,.1.1.1.1.2s0,.1-.1.1-.1-.1-.1-.2A.1.1,0,0,1,11.3,42.1Z" fill="#dc8b13"/><path d="M12.8,43h0c-.1,0-.1,0-.1-.1h.1Z" fill="#dc8b13"/><path d="M12.3,42.8a.1.1,0,0,0,.1.1h0c-.1,0-.1,0-.1-.1Z" fill="#dc8b13"/><path d="M18.6,50.3h0Z" fill="#dc8b13"/><path d="M27.8,48.7a3.8,3.8,0,0,0-1.1,1.4h0a.6.6,0,0,0-.5.5h-.1a.4.4,0,0,0-.4.4h-.1c-.5.3-1.2.4-1.5,1h-.2a2.8,2.8,0,0,0-1.3.3c-.3.1-.7,0-.8.4h-.5c-.6.2-1.2.1-1.7.6h-.5c-.3.1-.6-.1-1-.1s-.5-.1-.8,0-.8-.3-1.3-.2a.4.4,0,0,0-.4-.4h-.8c0-.3-.5-.3-.3-.6s-.6-.5-.4-.9h0a1.2,1.2,0,0,1,.8.2,3.7,3.7,0,0,0,2.5.6,3.2,3.2,0,0,0,1.4-.3c.6-.2,1.1.2,1.7,0a21.7,21.7,0,0,0,2.5-.4,6.9,6.9,0,0,0,2.7-2.4,4.2,4.2,0,0,1,1.4-.9c.2-.1.5-.4.8-.1S27.8,48.4,27.8,48.7Z" fill="#dd901e"/><path d="M19,50.5c.2-.2.2-.9.5-.1h.4c.9-.4,1.9-.5,2.8-.8a1.2,1.2,0,0,0,1.1-1.4q.1-.4-.3-.3a1.7,1.7,0,0,1-1.7-.4c-.3-.2-.6-.4-1-.2s-.3-.1-.3-.3a1.5,1.5,0,0,0-1.1-.8c-.2,0-.4,0-.5.2s-.3.5-.5.3A.6.6,0,0,1,18,46a.6.6,0,0,0,.1-.4,37.6,37.6,0,0,1,6.6,1l.8.2a1.2,1.2,0,0,1-.2,1.3,2,2,0,0,0-.4.8,4,4,0,0,1-3.4,1.8c-.4-.1-.7.2-1,.3S19.2,51.1,19,50.5Z" fill="#db880c"/><path d="M14.1,51.2H14c-.2,0-.4.1-.5-.1s.1-.2.2-.3.3.2.4.4Z" fill="#dd901e"/><path d="M21.4,13.6h-.3a.7.7,0,0,1,.2-.6C21.5,13.2,21.4,13.4,21.4,13.6Z" fill="#d57f18"/><path d="M24.6,14.9H25C24.8,15.1,24.7,14.9,24.6,14.9Z" fill="#d57f18"/><path d="M23.9,14.1h0a.1.1,0,0,0-.1-.1Z" fill="#d57f18"/><path d="M5.4,47.8c-.4-.1-.8-.1-.9-.6A1.5,1.5,0,0,1,5.4,47.8Z" fill="#d57f18"/><path d="M13,39.1c-.5-.3-.7-.8-1.3-1A4.4,4.4,0,0,1,9.3,34c-.1-.4-.2-.9.3-1.2h.1a9,9,0,0,0,5.7,4.2,20.7,20.7,0,0,0,4.2.8l2.1.2v3.2h0c-1.2-.4-2.6-.1-3.7-.8h-.4a5.3,5.3,0,0,1-3-.7Z" fill="#f7fdc3"/><path d="M21.7,38.1l-2.1-.2-.3-.2c-1-.3-2.1-.3-3.1-.6s-.5-.2-.8,0a9,9,0,0,1-5.7-4.2H9.6a.8.8,0,0,1-.1-.4,3.4,3.4,0,0,1,1.3-1.6c.3.1.4.6.7.7h0c.1.1.1.1.1,0a8.3,8.3,0,0,0,3.7,2.7h.3a4.5,4.5,0,0,0,2.1,1l4,1h0a4.9,4.9,0,0,0,.1,1.7h-.1Z" fill="#ecc54e"/><path d="M11.5,39.2c.1.4.4.9-.4,1s-.1-.5-.3-.7h0C10.9,39,11.1,38.8,11.5,39.2Z" fill="#db880c"/><path d="M11.1,40.3h0Z" fill="#db880c"/><path d="M10.8,39.5h0Z" fill="#db880c"/><path d="M53.1,49.4c.2-.4,0-1.1.7-1.1A1.6,1.6,0,0,1,53.1,49.4Z" fill="#dc8b13"/><path d="M47.3,51.5c.2-.2.3-.2.5,0S47.5,51.7,47.3,51.5Z" fill="#d57f18"/><path d="M48.8,51.5c.1-.2.2-.2.4,0S48.9,51.6,48.8,51.5Z" fill="#d57f18"/><path d="M46.3,51.2c.2,0,.4,0,.4.3S46.4,51.4,46.3,51.2Z" fill="#dc8b13"/><path d="M48.3,51.5c.1-.1.2-.1.2,0S48.4,51.6,48.3,51.5Z" fill="#d57f18"/><path d="M3.9,39.7c.2-.1.1-.7.5-.6s.8.2.8.8a.4.4,0,0,1,.1.3c-.5-.1-.9-.4-1.4-.2Z" fill="#dd901e"/><path d="M17.3,53.3c.3-.1.5-.2.8,0S17.6,53.6,17.3,53.3Z" fill="#d57f18"/><path d="M15.6,52.7a.4.4,0,0,1,.4.4A.4.4,0,0,1,15.6,52.7Z" fill="#d57f18"/><path d="M14.8,52.7h.3a.3.3,0,0,0-.1.2C14.8,52.9,14.8,52.8,14.8,52.7Z" fill="#d57f18"/><path d="M19,53.7h0Z" fill="#d57f18"/><path d="M21.8,52.7c.1-.4.5-.3.8-.4a2.8,2.8,0,0,1,1.3-.3A3.1,3.1,0,0,1,21.8,52.7Z" fill="#d57f18"/><path d="M19.6,53.3c.5-.5,1.1-.4,1.7-.6s-.9.4-1.3.6S19.7,53.3,19.6,53.3Z" fill="#d57f18"/><path d="M24.1,52c.3-.6,1-.7,1.5-1A2.3,2.3,0,0,1,24.1,52Z" fill="#d57f18"/><path d="M26.2,50.6a.6.6,0,0,1,.5-.5C26.7,50.5,26.5,50.6,26.2,50.6Z" fill="#d57f18"/><path d="M25.7,51a.4.4,0,0,1,.4-.4C26.1,50.9,26,51,25.7,51Z" fill="#d57f18"/><path d="M15.3,34.2a8.3,8.3,0,0,1-3.7-2.7h-.1a2.2,2.2,0,0,0-.5-1.1v-.3c.1-.9-.2-1.8-.1-2.8s.2.4.3.5a7.4,7.4,0,0,0,4.1,3.5,9,9,0,0,0,3.2.9,28.7,28.7,0,0,0,3.1.5h0a28.1,28.1,0,0,1,.1,2.9,8.3,8.3,0,0,1-2.2-.3,27.9,27.9,0,0,1-3.9-1h-.3Z" fill="#f7fdc3"/><path d="M15.3,31.3a7.4,7.4,0,0,1-4.1-3.5c-.1-.1-.1-.3-.3-.5v-.5a4.4,4.4,0,0,1,.8-1.5c.3-.1.4-.3.6-.5a6.2,6.2,0,0,1,2-1c.2.1.2.5.5.4s.1-.3.3-.5v-.2c0-.1.1-.1.2-.1v.3a.6.6,0,0,0,.2.8c.3.1.5-.1.7-.4s.3-.3.4-.2.1.3,0,.5a.6.6,0,0,0,.2.7c0-.6.4-.9,1.1-.7l2.1.7a.4.4,0,0,1,.1.3c-.5.1-.9.4-1.5-.1s-.6,0-.9-.3l-.3.2c-.5,0-.8.5-1.3.5h-.3c-.3-.6-.8-.5-1.3-.6s-.4.4-.5.6a.5.5,0,0,1-.2.4.3.3,0,0,1-.3-.3c0-.1-.1-.2-.3-.1l-.2.2a3.3,3.3,0,0,1,0,1c0,.1,0,.2.2.3s.3,0,.3-.2a.7.7,0,0,1,.4-.5c.1.4.5.3.8.4s0,.2-.1.2-.4.4-.7.3-.6.5-.5.9,0,.7.6.5.2.3.2.6.1.7.8.5.7-.5,1.2-.2.2-.2.2-.3.1-.2.3-.2.1.2.1.3.1.5-.1.8-.1-.3-.3-.2a.4.4,0,0,0-.1.5c0,.2-.1.4.2.5s.2-.2.2-.3.2-.2.3-.1.1.2,0,.3-.5.7-1,.4A1.1,1.1,0,0,0,15.3,31.3Z" fill="#ecc349"/><path d="M11.8,25.3a4.4,4.4,0,0,0-.8,1.5c-.3-.2-.3-.6-.3-.9s-.1-.5-.2-.7a5,5,0,0,0,1.4-.8C11.8,24.8,11.7,25,11.8,25.3Z" fill="#cf7310"/><path d="M11,30.1v.3l-.2.2a7.7,7.7,0,0,1-.7-1.6c.1-.3.1-.5.2-.8s.3.5.3.7S10.8,29.8,11,30.1Z" fill="#cf7310"/><path d="M10.8,30.6l.2-.2a2.2,2.2,0,0,1,.5,1.1c-.3-.1-.4-.6-.7-.7Z" fill="#d19435"/><path d="M24,36.6l2,.2h0c-.1.4.2.9.1,1.3H24A8.5,8.5,0,0,1,24,36.6Z" fill="#d37806"/><path d="M22.4,43h-.2c-.1-.4-.3-.7-.4-1.1v-.5h0a39.7,39.7,0,0,0,4.9.1,2.2,2.2,0,0,0-.1.8h-.1L23.9,42c-.5,0-.5.2-.3.5s.2.4,0,.6S22.8,43,22.4,43Z" fill="#cf7310"/><path d="M24,36.6a8.5,8.5,0,0,0,0,1.6H21.8a4.9,4.9,0,0,1-.1-1.7A17.9,17.9,0,0,0,24,36.6Z" fill="#d57d10"/><path d="M51.4,37.4c.1,0,.3,0,.3.2a.8.8,0,0,1-.2.5c-.5.1,0-.5-.3-.5Z" fill="#ecc54e"/><path d="M22,29.3c.3-.5.2-1.1.5-1.6s.3.2.2.4.1.3.2.4.2-.2.3-.3.2-.1.4-.1.3.2.3.4.1,2.3-.1,3.4.4.6.3.9-1.7-.2-2.5-.1h0C21.4,31.5,21.9,30.4,22,29.3Z" fill="#d57d10"/><path d="M15.6,34.3a27.9,27.9,0,0,0,3.9,1,8.3,8.3,0,0,0,2.2.3h0v.6l-4-1A4.5,4.5,0,0,1,15.6,34.3Z" fill="#d19435"/><path d="M21.7,41.3v.5a35.4,35.4,0,0,0-4.5-.8,9.9,9.9,0,0,1-3.4-.8l-.6-.3-.2-.2c0-.2-.1-.4-.1-.6l1.6.6a5.3,5.3,0,0,0,3,.7H18C19.1,41.2,20.5,40.9,21.7,41.3Z" fill="#d19435"/><path d="M23.3,27.6c-.2-.2-.1-.3-.2-.5S23.4,27.3,23.3,27.6Z" fill="#d57d10"/><path d="M51.7,20.7a21.8,21.8,0,0,1-4.4-.4h-1c.3-.4.7-.3,1-.3s2.7.2,4.1.5S51.7,20.5,51.7,20.7Z" fill="#d57f18"/><path d="M45.2,29.7h0Z" fill="#d57d10"/><path d="M36.2,19.5a.8.8,0,0,1-.2.9,8.5,8.5,0,0,1-5.8,2.3c-.8-.1-1.6-.1-2.1-.8s-.4-.3-.2-.5.4-.1.6-.1.4.3.5-.1h.8a2,2,0,0,0,1.3.2,14.4,14.4,0,0,0,4.5-1.7Z" fill="#ecc54e"/><path d="M35.6,19.8a14.4,14.4,0,0,1-4.5,1.7,2,2,0,0,1-1.3-.2l1.6-.3a4,4,0,0,0,2.7-1.4c.3-.4.6-.4,1.1-.4S35.5,19.5,35.6,19.8Z" fill="#f7fdc3"/><path d="M25.7,20a9.1,9.1,0,0,1,1.1-1.6c.1.1.3.3.3.4s0,1.2.1,1.8A9.4,9.4,0,0,1,25.7,20Z" fill="#f7fdc3"/><path d="M34,22.2a7.5,7.5,0,0,1,1.5-.9l1-.7c.2.1.1.3,0,.4S35.1,22.2,34,22.2Z" fill="#cf7310"/><path d="M47.7,49.4h-.4c0-.3-.5-.5-.1-.7s.4.4.5.6Z" fill="#dc8b13"/><path d="M52.7,44.8h-.1C52.7,44.6,52.7,44.6,52.7,44.8Z" fill="#dc8b13"/><path d="M52.1,46.7h0Z" fill="#dc8b13"/><path d="M21,14.7a1.1,1.1,0,0,1,.9.8C21.4,15.5,20.9,15.4,21,14.7Z" fill="#ebc141"/><path d="M22,29.3c-.1,1.1-.6,2.2-.4,3.4a28.7,28.7,0,0,1-3.1-.5c-.3-.3-1.2-.3-1-1.2s.6.4.5-.2.1-.1.2-.1.2.1.1.2.3.5.5.7.3-.2.4-.4h.3a.5.5,0,0,0,.6-.6c0-.4.5-.7.2-1.1s.6-.8,1.1-.8.6,0,.4.4S21.9,29.3,22,29.3Z" fill="#ecc349"/><path d="M18.8,29a1.2,1.2,0,0,1,.8,1c0,.2.1.5-.2.5s-.2-.2-.2-.4,0-.3-.2-.4S18.7,29.3,18.8,29Z" fill="#ecc349"/><path d="M16.2,25.7c.5,0,.8-.5,1.3-.5s-.5.6-.7,1-.3.2-.4-.1S16.3,25.9,16.2,25.7Z" fill="#ecc54e"/><path d="M21.6,28.3q-.3-.4,0-.6A.6.6,0,0,1,21.6,28.3Z" fill="#ecc349"/><path d="M15.2,29.2h0Z" fill="#ecc349"/><path d="M14.8,27.7h0Z" fill="#ecc349"/><path d="M14.4,23.8a6.2,6.2,0,0,0-2,1,2.8,2.8,0,0,1-.1-1.3c.5.4.8.3,1.2-.1s.9-.2,1.2-.4l.3-.2c0-.6.4-.7.7-.5s.6-.1.9-.2a9.2,9.2,0,0,1,3.7,0,2.5,2.5,0,0,1,1.2.2.9.9,0,0,1,.5,1.3,12.4,12.4,0,0,0-4.3-.6,9.3,9.3,0,0,0-2.3.4c-.1,0-.2,0-.2.1A1.3,1.3,0,0,0,14.4,23.8Z" fill="#cf7310"/><path d="M9.2,43h0Z" fill="#d57f18"/><path d="M5.4,40.7H5.2c-.1-.1-.1-.1-.1-.2s0-.1.1-.1S5.3,40.6,5.4,40.7Z" fill="#dd901e"/><path d="M6,40.3h.1a.1.1,0,0,1,.1.1Z" fill="#dd901e"/><path d="M20.5,47.7a.3.3,0,0,1-.3.3.4.4,0,0,1-.6-.2.9.9,0,0,0-.1-.5c0-.2,0-.4.2-.4s.2.1.3.2Z" fill="#db880c"/><path d="M15.4,37.1c.3-.2.5,0,.8,0s2.1.3,3.1.6l.3.2A20.7,20.7,0,0,1,15.4,37.1Z" fill="#ebc141"/><path d="M15.3,34.2h0Z" fill="#d19435"/><path d="M11.5,31.5h.1C11.6,31.6,11.6,31.6,11.5,31.5Z" fill="#d19435"/><path d="M14.4,23.8a1.3,1.3,0,0,1,.8-.3v.2c-.2.2,0,.5-.3.5S14.6,23.9,14.4,23.8Z" fill="#ecc54e"/><path d="M41.2,12.9l-3.9-9,7.2,4.5,4.3-5.5,1.7,6.8,8-1.6-6.6,9S46.6,12.8,41.2,12.9Z" fill="#f6c64e"/><circle cx="37.4" cy="4.1" r="1.2" fill="#f6c64e"/><circle cx="48.9" cy="3" r="1.2" fill="#f6c64e"/><circle cx="57.8" cy="8.2" r="1.2" fill="#f6c64e"/><path d="M6.1,47.8a.5.5,0,0,1-.5,0L5,47.6c-.1-1.8-.2-4.1-.3-6.6s-.3-4.4-.4-5.8H3.4a5.2,5.2,0,0,1-.2-1.1,2.8,2.8,0,0,1-.1-.9l1.6-.4a12.8,12.8,0,0,1,1.8-.1.6.6,0,0,1,.1.4v2H5.7c0,.7.1,1.5.1,2.5a30.1,30.1,0,0,1,.1,3.1c.1,1,.1,2.2.1,3.4S6.3,47.5,6.1,47.8Z"/><path d="M10.6,42.4c0,1.5,0,3.3-.1,5.2s-.2,3.3-.3,4.1a1.2,1.2,0,0,1-.5-.5l-.6-.8c.1-1.4.2-2.9.2-4.3s.1-2.8.1-4a9.5,9.5,0,0,1-.1-1.4c0-.3-.1-.4-.2-.4l-.2.3a7.4,7.4,0,0,1-.2,1.2A17.7,17.7,0,0,0,8.8,44v5.3H8.4l-.6-.2c-.1-1.7-.1-3.7-.2-5.7s-.1-4-.1-5.6-.1-2.1-.1-2.8a7.2,7.2,0,0,1,0-1.5c0-.1.2-.2.4-.2H8.9a10.9,10.9,0,0,0-.1,2c0,.8-.1,1.9-.1,3.1a5.1,5.1,0,0,1,.4-1,.5.5,0,0,1,.5-.3c.3.1.5.5.7,1.3A17.9,17.9,0,0,1,10.6,42.4Z"/><path d="M13.6,47.4a3.4,3.4,0,0,1,.4,1,5.7,5.7,0,0,1,.4,1.4,7.8,7.8,0,0,1-.2,1.4,4.3,4.3,0,0,1-.4,1.1c-.2.2-.3.4-.5.4h-.4c-.5-.2-.8-.8-1-1.8a18.2,18.2,0,0,1-.4-4.5c0-1.1,0-2.3.1-3.4s.2-2.1.3-3a7.3,7.3,0,0,1,.7-2.1c.2-.5.5-.7.7-.7s.7.4.9,1.2a11.9,11.9,0,0,1,.3,3.1,14.8,14.8,0,0,1-.1,2,9.2,9.2,0,0,1-.1,1.8c0,.3-.3.5-.5.6a.6.6,0,0,1-.6,0h-.3a.2.2,0,0,0-.2-.2v1a17,17,0,0,0,.1,2.5,2.3,2.3,0,0,0,.3,1c.1,0,.2-.2.2-.8S13.5,48.2,13.6,47.4Zm-.8-4.5c0,.1.1.1.1.2h.4V41.9a4.5,4.5,0,0,0,.1-1.1c0-.3-.1-.6-.1-.8s0-.3-.1-.3-.1.3-.2.8A14.4,14.4,0,0,0,12.8,42.9Z"/><path d="M17.8,48.1v7.6a.9.9,0,0,1-.6-.3,1,1,0,0,1-.5-.4c-.1-2.5-.1-5.6-.1-8.5s-.1-5.8-.1-8.2a9.7,9.7,0,0,1,.1-1.7V34.8a2,2,0,0,1,.8-.8,1.9,1.9,0,0,1,1-.3c.5,0,.9.3,1.2,1.1a10.1,10.1,0,0,1,.4,3.5,27.4,27.4,0,0,1-.6,5.9A10.4,10.4,0,0,1,17.8,48.1Zm.9-8.9a11.3,11.3,0,0,0-.2-2.3c-.1-.5-.2-.8-.4-.8H18c-.1,1.1-.1,2.3-.1,3.6s-.1,2.9-.1,4.4c.3-.2.5-.8.6-1.7A23.3,23.3,0,0,0,18.7,39.2Z"/><path d="M23.5,44.3c0,1.3-.1,3.2-.1,5.5s-.2,4.5-.4,6.5l-.5-.2-.5-.5a1.5,1.5,0,0,1,.1-.7v-.4l-.3.3h-.4c-.3-.1-.6-.5-.8-1.4a8,8,0,0,1-.3-3.3,12.2,12.2,0,0,1,.3-3.2c.3-.8.7-1.1,1.2-1h.3a.1.1,0,0,1,.1.1c.1-2,0-3.3,0-4S22.1,41,22,41s-.2.3-.3,1a17.8,17.8,0,0,0-.1,2.5c-.3,0-.5-.3-.7-.8a9.7,9.7,0,0,1-.4-2.2,8.3,8.3,0,0,1,.6-2.5c.3-.7.6-1,1-1s.8.5,1.1,1.6A25.9,25.9,0,0,1,23.5,44.3Zm-2,6.6c0,.4.1.8.1,1s.1.4.2.5.2,0,.2-.1.1-.1.1-.2a6.2,6.2,0,0,0,.1-1.9V48.8c-.2,0-.4.2-.5.5A5.7,5.7,0,0,0,21.5,50.9Z"/><path d="M25.9,52.8v3.6l-.5.3h-.6c0-2-.1-4.8-.1-8.5s-.4-7.3,0-9.1a.7.7,0,0,1,.4-.5l.6-.2h.2l.3.2a9.9,9.9,0,0,0-.1,1.5v1a11.8,11.8,0,0,1,.4-1.9q.3-.6.6-.6t.6,1.5a28,28,0,0,1,.3,4.8c0,1.7-.1,3.7-.1,5.9s-.2,3.7-.2,4.7l-.6-.2-.7-.5c.1-1.9.1-3.7.2-5.5s.1-3.2.1-4.3a4.5,4.5,0,0,0-.1-1.3,1.2,1.2,0,0,0-.1-.5c-.1,0-.2.2-.3.7a10.3,10.3,0,0,0-.2,2c-.1,1.3,0,2.6-.1,3.7Z"/><path d="M32,44.2a2.9,2.9,0,0,1-.4.8l-.7.2V42.6a7.3,7.3,0,0,0-.2-.8c-.2,0-.3.8-.4,2.4s-.1,3.4-.1,5.3a24.5,24.5,0,0,0,.1,3c0,.7.1,1,.2,1s.3-.2.4-.6.2-1.2.4-2.4a1.4,1.4,0,0,1,.4.7q.2.6.3,1.5a12.2,12.2,0,0,1-.3,1.7,5.4,5.4,0,0,1-.4,1.5l-.5.7-.5.2c-.5,0-.8-.6-1.1-1.8a33.7,33.7,0,0,1-.4-5.3c.1-1.3.1-2.7.2-4a30.9,30.9,0,0,1,.4-3.5,10.2,10.2,0,0,1,.6-2.5c.2-.6.5-.8.8-.8s.7.4.9,1.3A21,21,0,0,1,32,44.2Z"/><path d="M36,44.6c0,1.4,0,3.3-.1,5.6s-.1,4.7-.2,6.9h-.5a1,1,0,0,1-.5-.4V55.4l-.3.5H34q-.4,0-.9-1.2a15.6,15.6,0,0,1-.3-3.5,10.8,10.8,0,0,1,.4-3.5c.2-.8.6-1.2,1.1-1.2h.5a40.2,40.2,0,0,0-.1-4.1c0-.8-.1-1.1-.2-1.1s-.2.3-.3,1a21,21,0,0,0-.1,2.7c-.3,0-.5-.2-.7-.8a8.7,8.7,0,0,1-.4-2.2,14.6,14.6,0,0,1,.5-2.7c.3-.8.7-1.1,1.1-1.1s.8.4,1,1.5A18.8,18.8,0,0,1,36,44.6Zm-1.9,7.2c0,.4.1.8.1,1.1s.1.4.2.4h.2c0-.1.1-.2.1-.3a6.7,6.7,0,0,0,.1-2V49.4a1,1,0,0,0-.5.7A6.5,6.5,0,0,0,34.1,51.8Z"/><path d="M38.4,50.9v3.2c0,.9.1,1.8.1,2.5s-.3.5-.5.6l-.6.2a42.6,42.6,0,0,1-.2-4.3c0-1.9-.1-4.1-.1-6.5V38.5c.1-2.6.1-4.1.1-4.9l.8.2.6.6c0,.7-.1,1.9-.1,3.8s-.1,4-.1,6.3l.3-2.2c.2-.8.4-2.4.8-4.6l.5,1.5c.1.6.3,1.3.4,2l-.6,3c-.2,1.1-.5,2.1-.8,3.3l.6,2.4a22.2,22.2,0,0,0,.9,2.8c-.2,1.2-.4,2.1-.5,2.6a7.3,7.3,0,0,1-.5,1.2L38.9,54A22.4,22.4,0,0,1,38.4,50.9Z"/><path d="M43.4,49.2a2.5,2.5,0,0,1,.5.7,5,5,0,0,1,.4,1.3,9.9,9.9,0,0,1-.2,1.7,7.5,7.5,0,0,1-.5,1.6,1.6,1.6,0,0,1-.4.7l-.5.4c-.5.1-.8-.4-1.1-1.5a28.5,28.5,0,0,1-.4-5c0-1.4,0-2.7.1-4.1a36,36,0,0,1,.4-3.6,12.2,12.2,0,0,1,.6-2.7c.2-.6.5-.9.7-.9s.7.3.9,1.1a21.1,21.1,0,0,1,.4,3.3,17,17,0,0,1-.1,2.2,12.8,12.8,0,0,1-.1,2.1c0,.3-.3.6-.5.8a.8.8,0,0,1-.7.3h-.4v1.1a22.7,22.7,0,0,0,.1,2.9q.1.9.3.9c.1,0,.2-.4.3-1S43.3,50,43.4,49.2Zm-.8-4.8a.1.1,0,0,0,.1.1H43a7.1,7.1,0,0,0,.1-1.4V40.7c-.1,0-.2.3-.3,1S42.6,43.3,42.6,44.4Z"/><path d="M49,43.5l.3,1.9v2.2a22.5,22.5,0,0,1-.4,4.9c-.3,1.3-.7,2-1.1,2.1s-1-.2-1.3-1.5a11,11,0,0,1-.6-4.9,4.7,4.7,0,0,1,.5-1c.2-.3.4-.4.5-.4a32.1,32.1,0,0,0,.2,3.6c.1.8.3,1.2.5,1.2s.3-.3.4-.7.1-.9.1-1.6a8.8,8.8,0,0,0-.2-1.6,15.6,15.6,0,0,0-.5-2.2,8.3,8.3,0,0,1-.5-1.8l-.3-1.3a12.3,12.3,0,0,1-.2-2,15.5,15.5,0,0,1-.1-2.2,12.4,12.4,0,0,1,.4-3.9c.3-.9.7-1.2,1.2-1.2s.8.2,1.1.8a9.5,9.5,0,0,1,.5,3.2,2,2,0,0,1-.4.8c-.1.2-.4.3-.6.4s-.1-1.8-.2-2.2-.2-.6-.4-.6-.2.2-.2.4a2.2,2.2,0,0,0-.1.9,8.1,8.1,0,0,0,.1,1.6,15,15,0,0,0,.6,2.2l.5,1.6A5.1,5.1,0,0,1,49,43.5Z"/><path d="M53.1,42.5c0,1.5-.1,3.4-.2,5.4s-.2,3.5-.3,4.5h-.5l-.6-.4.3-4.9c0-1.6.1-3.1.1-4.4a5.8,5.8,0,0,0-.1-1.5.6.6,0,0,0-.1-.4c-.1,0-.2.2-.2.5a10.6,10.6,0,0,0-.3,1.4v8.3l-.4.6-.7.4c0-2,0-4.2-.1-6.6V35.6a11.6,11.6,0,0,1,0-1.9.8.8,0,0,1,.4-.4h1.1c0,.6-.1,1.3-.1,2.3s-.1,2.1-.1,3.6a3.3,3.3,0,0,1,.4-1.3c.1-.3.3-.4.4-.4s.6.3.8,1.1A29.9,29.9,0,0,1,53.1,42.5Z"/><path d="M53.8,45.2a26.5,26.5,0,0,1,.6-6.2c.3-1.5.8-2.2,1.3-2.3s.7.3,1,1.1a16.3,16.3,0,0,1,.2,3.6c0,1-.1,2.1-.2,3.2a20.3,20.3,0,0,1-.4,2.9,5.3,5.3,0,0,1-.6,2.2c-.2.5-.4.9-.7,1s-.7-.1-.9-1A24.1,24.1,0,0,1,53.8,45.2Zm1.9-2a21.1,21.1,0,0,0-.1-2.9c0-.6-.1-.9-.2-.9a3.3,3.3,0,0,0-.3,1.3c0,.9-.1,2-.1,3.4a22.7,22.7,0,0,0,.1,2.8c0,.8.1,1.1.2,1s.2-.4.2-1.3S55.6,44.6,55.7,43.2Z"/><path d="M58.4,48.3c0,.7-.1,1.3-.1,1.8v1.6l-.4.5c-.2.2-.4.3-.5.5s0-2.2,0-4.5.1-5,.1-7.3.1-1.8.1-2.5a12.1,12.1,0,0,1,.1-2c0-.2.2-.3.4-.4l.5-.3H59v.6a2.2,2.2,0,0,0-.1.9,4,4,0,0,1,.4-1.2,1.2,1.2,0,0,1,.5-.5c.3,0,.5.2.6.9a7.8,7.8,0,0,1,.1,2.8,43,43,0,0,1-.7,6.1c-.4,1.6-.8,2.5-1.3,2.8Zm.1-2.4h.1c.2-.1.3-.7.4-1.7s.2-2.5.3-4.1V39c0-.3-.1-.4-.2-.3s-.1.1-.2.4a4.4,4.4,0,0,0-.2,1.3,20.1,20.1,0,0,0-.1,2.5A10.2,10.2,0,0,0,58.5,45.9Z"/></g></svg>