<svg xmlns="http://www.w3.org/2000/svg" width="16" height="16" viewBox="0 0 16 16"><title>logo-16</title><g id="Layer_2" data-name="Layer 2"><path d="M14,7.4a1.4,1.4,0,0,1,0,.9l-.2.3a.3.3,0,0,0-.1.2c-.1.1-.1.1,0,.2l.3.5a1.9,1.9,0,0,1,.1.8v.4H14a1.1,1.1,0,0,0-.4.5,1.5,1.5,0,0,1-.6.5h-.1l-1.2.5-1,.2H9.1a3.3,3.3,0,0,1-1.4,0h-1l-1.6-.2h0l-1.2-.4a1.8,1.8,0,0,1-.9-1h.1a1.9,1.9,0,0,0,1,.5H5.4c.3.3.5.3.7.1H8.5l1.8-.2,1.5-.3.7-.4h0l.6-.4a2.1,2.1,0,0,0,.7-1.1c.1-.1.1-.2-.1-.4v.2l-.3.6h-.1v.2h0l-.6.5-.7.4a4.7,4.7,0,0,1-1.7.2c-.1-.1-.2,0-.3,0H6.5a2.2,2.2,0,0,0-.1-.8H9l1.4-.2a3.8,3.8,0,0,0,1.8-.3,2,2,0,0,0,.9-.5.5.5,0,0,0,.3-.5l-.6.4h-.1a3.7,3.7,0,0,1-1.8.2H6.3V9.2L10.7,9H12A2.4,2.4,0,0,0,14,7.4Z" fill="#f7fdc3"/><path d="M14,7.4a2.4,2.4,0,0,1-2,1.5h-.3c-.1-.1.1-.1.1-.1a.6.6,0,0,0,.3-.6c0-.3-.5-.5-.8-.4H11c0-.1-.1-.1-.2-.1h-.1l.2-.2c.2-.1.2-.2,0-.4l-.6-.3c-.1-.1-.3-.2-.3-.4V6.2h.1l.5-.3-.2.3h.2c.2-.2.5-.1.7-.1h1.6c.3,0,.5,0,.7-.3l.3.2a3,3,0,0,1,.2,1C14.1,7.2,14,7.3,14,7.4Z" fill="#ebc141"/><path d="M14.1,10.7v-.4a.3.3,0,0,1,.3.3c.1.1.1.2.2.2s.3.2.3.4h-.1l-.3.3a1.2,1.2,0,0,0-.4.8.6.6,0,0,0-.1.4c0,.1-.1.2-.1.3s0,.2-.1.2h-.3c0,.1.1.2-.1.2h0c-.1.2-.2.2-.3.2h-.2l-.3.2h-.5c-.1,0,0-.1,0-.1v-.2h.5c.1,0,.2,0,.1-.2a.1.1,0,0,1,.1-.1s0,.2.1.1.2,0,.2-.1h0c.1-.2.3-.2.3-.4s.3-.1.2-.3h0c.1.1.1.2.2.1h-.1c-.2-.2-.4-.2-.5-.1s-.2.1-.3.2h-.4L12,13h0c-.2-.1-.3,0-.4.1s-.1.1,0,.1a.4.4,0,0,0,.4.2c0,.2,0,.2-.1.3a.1.1,0,0,1-.1-.1c-.2.1-.1.2,0,.3h-.5c-.1-.1-.4-.2-.5-.4h-.2c-.1-.2-.2-.3-.2-.5H11a.2.2,0,0,0,.2.2h.7c.1.1.2.1.2-.1h.4c.2.1.2-.1.2-.1h.1c0-.1.1-.1,0-.1h-.1l.2-.2H13a1.5,1.5,0,0,0,.6-.5l.4-.4h.1Zm-2.4,2.2h0Z" fill="#dc8b12"/><path d="M10,6.4c0,.2.2.3.3.4l.6.3c.2.2.2.3,0,.4s-.2-.1-.4-.1,0-.3-.1-.3l-.3-.2h-1c-.1,0-.1,0-.1-.1s.2-.3.3-.5a.2.2,0,0,0,0-.3c-.1-.2,0-.3,0-.5a.5.5,0,0,0-.2-.4c0-.1.1-.2.1-.3V4.4c0-.3.3-.4.3-.6h.1c.1-.1.1-.1,0-.1a.5.5,0,0,1,.5,0l.6.2c0,.1,0,.1-.1.2h-.1c0-.2-.1-.3-.3-.2a1.8,1.8,0,0,0-.7.5c-.1.2-.1.4.1.5h2.2a6.6,6.6,0,0,1,1.4,0h0l.2.2h0l.3.4h-.3L13,5.2H11.4c-.2,0-.2,0-.2.3h-.5A1,1,0,0,0,10,6C9.9,6.1,9.8,6.3,10,6.4Z" fill="#d57c0f"/><path d="M2.4,12.8v-.4h.3c0-.1,0-.1-.1-.1H2.4c.1-.1,0-.2-.1-.3v-.2c.1,0,.1,0,0-.1H2.3v-.2h.4l.2.4H3c-.1.1-.1.1,0,.1h.3l.3.2a1.8,1.8,0,0,0,1.2.3,4,4,0,0,1,1.5.3h.1v.2c-.2.1-.2.4-.4.6l-.7.2H4.8c-.2.1-.2.1-.3-.2s0-.1.1-.1.1.2.2.1.1-.1.1,0H5c.2-.2.3-.1.5-.2l.3-.2c0-.1,0-.2-.1-.2h-1c0-.2-.1-.3-.3-.2H3.9l-.4-.2H2.9c-.1.1-.1.3.1.3H3a.9.9,0,0,0,.3.6l.2.2.2.2c0,.1.1.1.2,0h.6c0,.1,0,.3-.2.2H3.5c-.1,0-.2,0-.3-.2h0a.4.4,0,0,1-.4-.3c.1-.1,0-.1-.1-.1H2.5c-.1,0,0-.2-.1-.2h0S2.5,12.8,2.4,12.8Zm.1-1.1h0Zm.4.1h0Zm-.2,0Z" fill="#db880c"/><path d="M5.7,3.6H6.9a11.4,11.4,0,0,1,2.6.2H9.3a1.8,1.8,0,0,1-.5.7c-.1.1-.3.1-.4.3H8.1a.8.8,0,0,0-.8.1A2.8,2.8,0,0,1,6.2,4Z" fill="#ebc141"/><path d="M14.9,11.2c0-.2-.1-.3-.3-.4s-.1-.1-.2-.2a.3.3,0,0,0-.3-.3,1.9,1.9,0,0,0-.1-.8L13.7,9c-.1-.1-.1-.1,0-.2a.3.3,0,0,1,.1-.2,1.5,1.5,0,0,1,1,.3l.7.7a1.4,1.4,0,0,1-.3,1.5h0c-.1,0-.2,0-.1.1Zm.1-.3h0v.2h0Z" fill="#db8608"/><path d="M2.4,6.2a1.8,1.8,0,0,1,.4-1.1,3.3,3.3,0,0,1,1.4-1c0,.1,0,.2.2.2h0c0,.3.2.4.2.7h.1a.3.3,0,0,1,.3.3l.2.2H4.8v0H4.1A2.7,2.7,0,0,0,2.4,6.2ZM4.6,5v.3h.2Zm-.3-.4Z" fill="#ebc141"/><path d="M2.4,6.2a2.7,2.7,0,0,1,1.7-.6H5.3l.4-.2h.2v.2c-.1,0-.1.1,0,.1s.2.2.3.3h.1v.2h.4a.1.1,0,0,0,.1.1.1.1,0,0,1,0,.2l.3.2c.1,0,.1.1.2,0s.3.1.4,0h.1l-.6.2H6.9l-.5-.2c0-.1.1-.1,0-.1s0-.2-.1-.1H6.2c-.1.1-.1,0-.2-.1H6c0,.1-.1.1-.1.2s-.1.1-.1.2h.1c.1,0,.1,0,.1.1H5.6c0-.1,0-.1-.1-.1h0a.1.1,0,0,0,.1-.1c0-.2-.2-.4-.2-.5s-.1-.2-.2-.1H4.9a.1.1,0,0,1-.1-.1c-.1.1-.1.1-.2,0H4.1c-.2,0-.3,0-.4.2s-.1.1-.1,0l-.3.2V6.1H2.7c-.1,0,0,.1,0,.2h0c-.1,0-.1,0-.1-.2h0l-.2.2h0c-.1-.1,0-.2-.1-.2V6.2Zm1.1-.1h.1c.1-.1,0-.1,0-.1H3.5ZM6,5.7H6Zm-2.2.1Zm1.8.5Z" fill="#d57c0f"/><path d="M.2,9.9A1.3,1.3,0,0,1,1,9.2h.5a.9.9,0,0,0,.1.5c0,.1,0,.2.1.2h.1V10H1.6c.2,0,.2,0,.1.1h.2v.2h.2c-.1,0,0,.2-.1.3H2c-.1,0,0,.1,0,.1H1.9c0-.1,0-.2-.2-.3s0,.3.1.4h0c-.1,0-.1.2-.2,0H1.5V11H1.3c-.1-.1-.1-.2-.3-.1H1c0-.1-.1-.2-.3-.2s.2,0,.1-.1H.4c0-.2-.1-.1-.1,0H.2c.1,0,.1,0,0-.1H.1c.1,0,.1,0,.1.1s.1,0,.1-.1h0c-.1-.1.1-.1.1-.2S.3,9.9.2,9.9Zm.4.4c-.2.1-.2.1-.1.2s.2-.1.1-.2Zm.8-.8h0Zm-.7.9h0Zm.8-.5Zm-.5.8Z" fill="#db880c"/><path d="M10.6,4.1c.1-.1.1-.1.1-.2h1.2a2,2,0,0,1,1.3.9,6.6,6.6,0,0,0-1.4,0H10.5s.1-.1,0-.1a.4.4,0,0,1,.1-.3A.3.3,0,0,0,10.6,4.1Z" fill="#ebc141"/><path d="M4.5,13.8c.1.3.1.3.3.2h.4l.7-.2c.2-.2.2-.5.4-.6v-.2H7a.4.4,0,0,1,.1.3H6.8a.1.1,0,0,0,.1-.1H6.8a.6.6,0,0,0-.5.2,1.9,1.9,0,0,1-.8.7H4.6a.2.2,0,0,1-.3,0H4.2c-.1.1-.1,0-.2,0a.9.9,0,0,1-.7-.1h0c-.1,0-.1,0,0,.1h0l-.2-.2-.3-.3-.3-.6h.2c.1,0,.2,0,.1.1a.4.4,0,0,0,.4.3h0c.1.2.2.2.3.2h.8c.2.1.2-.1.2-.2ZM3.1,14h0Z" fill="#dc8b12"/><path d="M5.7,3.6l.5.4a2.8,2.8,0,0,0,1.1.8L6.9,5H6.8a.1.1,0,0,0-.1-.1H6.1c.1-.1,0-.1,0-.1l-.4-.4V4c.1,0,0-.1,0,0H5.4a.1.1,0,0,0-.2,0h0V4a.3.3,0,0,0-.4,0h0l.9-.3Zm.3.7H6a.1.1,0,0,0,.1.1H6Zm-.1-.1h0Z" fill="#d57c0f"/><path d="M.5,12.5l.3-.2c.4-.1.8,0,.8.4l-.2.3H.7A.6.6,0,0,1,.5,12.5Z" fill="#dd901e"/><path d="M1.8,10V9.8c.1-.1,0-.3,0-.3s-.2-.1-.2-.2h.2c.1-.1,0-.2,0-.3s-.1,0-.1,0,.1-.2.1-.3V8.5A.7.7,0,0,0,2,9H2a.4.4,0,0,0-.1.3c.1.5.2.9.7,1.1a.1.1,0,0,0,0,.2c.1.2,0,.1-.1.1s-.1,0-.2.1h0c.1,0,.1.1.1.2H2.3v.2H2.2c0-.2-.1-.3-.2-.3H2s-.1-.1,0-.1h.1c.1-.1,0-.3.1-.3H2v-.2C2,10.2,1.9,10.1,1.8,10Z" fill="#dd901e"/><path d="M4.6,3.9h.1l.4.3H4.6l.2.2h0c.1.1.2.1.2.2l.3.3c.1.1.2.2.3,0h.1l-.4.2H5.2L5,5.2a.3.3,0,0,0-.3-.3H4.6c0-.3-.2-.4-.2-.7h0c-.2,0-.2-.1-.2-.2Z" fill="#ecc348"/><path d="M10.4,12.7H7v-.2h.8a3.3,3.3,0,0,0,1.4,0h1.3Z" fill="#faf7ca"/><path d="M2.5,13.2l.3.6.3.3.2.2h.2l.4.2h.6s.1.1,0,.1-.2,0-.2.1a1.8,1.8,0,0,1-1.9-1.6V13C2.5,13,2.4,13.2,2.5,13.2Z" fill="#d57f16"/><path d="M.2,10.5H.3a.5.5,0,0,0,.2.4h0c-.1.1,0,.1,0,.2l.3.2H1l.2.2h.4a.2.2,0,0,1,.2.2h.1l.2.2.2.3h0a2,2,0,0,0-.9-.5,3.3,3.3,0,0,1-1-.6,1.7,1.7,0,0,1-.3-1H.2Z" fill="#d57f16"/><path d="M4.3,14.8c0-.1.1-.1.2-.1s0-.1,0-.1h.3c.1-.1.3,0,.3-.2h.2c.2,0,.4,0,.5-.2h.1l.4-.2h.1a.2.2,0,0,0,.2-.2H7a.9.9,0,0,1-.3.5l-1,.5-.9.2Z" fill="#cf7210"/><path d="M8.4,4.8c.1-.2.3-.2.4-.3a1.8,1.8,0,0,0,.5-.7h.2s.1-.1.1,0,.1,0,0,.1H9.5c0,.2-.3.3-.3.6v.2c0,.1-.1.2-.1.3Z" fill="#d37806"/><path d="M14,13.2a1.3,1.3,0,0,1-.9,1,2.3,2.3,0,0,1-1.8-.2h.1l.9.2h.5c.1-.2.2-.1.4-.2s.1,0,0-.1h.3l.3-.4C13.9,13.3,13.9,13.2,14,13.2Z" fill="#cf7210"/><path d="M2.3,6.4c.1,0,0,.1.1.2a.1.1,0,0,0-.1.1V7a1.3,1.3,0,0,0,.1.6h0c-.1.2,0,.5,0,.7a.4.4,0,0,1-.1-.3c0-.1,0-.2-.1-.2V7.6a.4.4,0,0,0-.1-.3A2.9,2.9,0,0,1,2.3,6.4Z" fill="#dd901e"/><path d="M.9,13.1h.3l.4-.2a.4.4,0,0,1-.6.3q-.6-.2-.6-.6c0-.1,0-.2.1-.2a.6.6,0,0,0,.2.5Z" fill="#cf7210"/><path d="M15.2,11h0l-.3.2a1.7,1.7,0,0,0-.7,1h-.1a1.2,1.2,0,0,1,.4-.8l.3-.3h.1l.2-.2Z" fill="#d57c0f"/><path d="M2,9a.7.7,0,0,1-.1-.5h0l.3-.3c0,.2,0,.3.1.4h0Z" fill="#d57f16"/><path d="M1.7,9s.1.2.1,0,.1.2,0,.3H1.6c0,.1,0,.2.2.2s.1.2,0,.3H1.7c-.1,0-.1-.1-.1-.2a.9.9,0,0,1-.1-.5h.2Z" fill="#dc8b12"/><path d="M12.6,14.1h-.3l-.9-.2h-.3l-.5-.5h.2c.1.2.4.3.5.4h1.3Z" fill="#d57c0f"/><path d="M13.7,5.6l-.3-.4h0a1.1,1.1,0,0,1,.5,1l-.3-.2h-.1C13.8,5.7,13.8,5.7,13.7,5.6Z" fill="#d57f16"/><path d="M2.2,8.1l-.3.3a1.3,1.3,0,0,1,.3-.8v.5Z" fill="#ecc348"/><path d="M1.6,13l-.4.2h.2l.2-.3C1.6,12.8,1.7,12.9,1.6,13Z" fill="#d57f16"/><path d="M14,13.2c-.1,0-.1.1-.2.2h0c.1,0,.1-.1.1-.2s.1-.2.1-.3h.1A.9.9,0,0,1,14,13.2Z" fill="#d57c0f"/><path d="M5.6,3.6l-.9.3.7-.3Z" fill="#dd901e"/><path d="M7,13.5H6.6l.2-.3H7Z" fill="#d57f16"/><path d="M.2,9.9c.1,0,0,.2.2.1s-.2.1-.1.2h0c0,.1,0,.1-.1.1s0-.1-.1-.1A.4.4,0,0,1,.2,9.9Z" fill="#dc8b12"/><path d="M14.1,12.7H14a.6.6,0,0,1,.1-.4h.1v.2h-.1Z" fill="#db880c"/><path d="M11.1,13.9h0Z" fill="#cf7210"/><path d="M2.4,12.8c.1,0,0,.1,0,.1S2.4,12.8,2.4,12.8Z" fill="#d57f16"/><path d="M1.6,9.1Z" fill="#db880c"/><path d="M14.1,12.6h0Z" fill="#d57c0f"/><path d="M7,13.5H7Z" fill="#cf7210"/><path d="M1.9,8.5Z" fill="#dd901e"/><path d="M13.2,4.9Z" fill="#ebc141"/><path d="M1.4,9.2Z" fill="#dc8b12"/><path d="M2.4,6.2Z" fill="#ebc141"/><path d="M10.7,9l-4.4.2H6.2V8.8c.1-.2,0-.4.1-.6a2.7,2.7,0,0,1,1-1.1H8l.2.2h.2a.1.1,0,0,0,.1.1c.2.1.4.1.4.3H9c.1-.1.2,0,.2.1h.4c.1.1.1.2.2.1s.1-.1.1,0h.5l.2.2c.1.1.1.1,0,.2h0C10.7,8.8,10.7,8.9,10.7,9Z" fill="#ebc141"/><path d="M12.8,9.5l.6-.4a.5.5,0,0,1-.3.5,2,2,0,0,1-.9.5,3.8,3.8,0,0,1-1.8.3L9,10.6H6.4v-.4c.3,0,.6.1.8,0h4.6Z" fill="#ecc348"/><path d="M12.5,11.1l-.7.4-1.5.3L8.5,12H6.2c.1-.1.2-.1.3-.3h5.4Z" fill="#ecc54e"/><path d="M10.7,9c0-.1,0-.2-.1-.2h0c.1-.1.1-.1,0-.2l-.2-.2H9.9c0-.1,0-.1-.1,0s-.1,0-.2-.1H9.2c0-.1-.1-.2-.2-.1H8.9c0-.2-.2-.2-.4-.3a.1.1,0,0,1-.1-.1H8.2L8,7.3H7.3l.6-.2.8.2c-.1.2-.1.3,0,.4h.1c0,.1,0,.1.1.1a1.5,1.5,0,0,1,.7.3h.6c.2,0,.4-.1.5.1s0,.4.2.4h.9s-.2,0-.1.1Z" fill="#ecc348"/><path d="M12.8,9.5l-1,.4H7.2c-.2.1-.5,0-.8,0h0c0-.1-.1-.2,0-.3h4.5a3.7,3.7,0,0,0,1.8-.2Z" fill="#d19435"/><path d="M6.4,10.6a2.2,2.2,0,0,1,.1.8H5.2v-.9H6.4Z" fill="#de9e18"/><path d="M12.5,11.1l-.6.2H6.5v-.2H9.9c.1,0,.2-.1.3,0a4.7,4.7,0,0,0,1.7-.2l.7-.4.6-.5a.1.1,0,0,1-.1.1H13l-.5.6Z" fill="#d19435"/><path d="M6.2,9.2h.1v.7H5.2V9.1h1Z" fill="#de9e18"/><path d="M4.9,11.7H4.1a1.9,1.9,0,0,1-1-.5h.1l.9.2,1.2.2v.3Z" fill="#ecc54e"/><path d="M6.9,12.8V13H6.3a4,4,0,0,0-1.5-.3,1.8,1.8,0,0,1-1.2-.3l-.3-.2c-.1-.2-.2-.3-.2-.4h.1a1.6,1.6,0,0,0,.7.7H5.5l1.4.2Z" fill="#cf7210"/><path d="M5.1,12.5H3.9a1.6,1.6,0,0,1-.7-.7H3.1v-.2c0-.1-.2-.3-.1-.5H3a1.8,1.8,0,0,0,.9,1Z" fill="#de9e18"/><path d="M10.4,12.7h.3l1-.2,1.2-.5-.2.2h-.2l-.5.3-1,.2Z" fill="#cf7210"/><path d="M13,10.5h.1c.1,0,0,.1,0,.1h0a.1.1,0,0,0,.1-.1h0c.1,0,.1-.1.1-.2h.1l.4-.6h-.1V9.2c.2.2.2.3.1.4a2.1,2.1,0,0,1-.7,1.1C13,10.6,13.1,10.5,13,10.5Z" fill="#ecc348"/><path d="M5.2,9.9H6.4c-.1.1,0,.2,0,.3H5.2Z" fill="#cf7210"/><path d="M6.5,11.6c-.1.2-.2.2-.3.3H5.8v-.2h.8Z" fill="#d57f16"/><path d="M6.9,12.8l-1.4-.2H5.1l1.6.2Z" fill="#de9e18"/><path d="M13,10.5c.1,0,0,.1.1.2l-.6.4h0Z" fill="#ecc54e"/><path d="M5.8,11.9h.3c-.2.2-.4.2-.7-.1h.4Z" fill="#de9e18"/><path d="M14,10.8h0l-.4.4A1.1,1.1,0,0,1,14,10.8Z" fill="#cf7210"/><path d="M13.7,9.4h.1l-.4.6Z" fill="#d19435"/><path d="M4.9,11.7h0Z" fill="#fefefe"/><path d="M13.3,10c0,.1,0,.2-.1.2Z" fill="#d19435"/><path d="M13,11.8h0Z" fill="#cf7210"/><path d="M14.1,10.7h0Z" fill="#cf7210"/><path d="M13.7,5.6c.1.1.1.1-.2.3H11.3c-.1-.2-.1-.1-.1,0h-.6l-.5.3H10v.2c-.2-.1-.1-.3,0-.4a1,1,0,0,1,.7-.4h.6a1.9,1.9,0,0,1,1.3,0h1.1Z" fill="#cf7210"/><path d="M10.6,5.9h3c-.2.3-.4.3-.7.3H11.3c-.2,0-.5-.1-.7.1h-.2Z" fill="#ecc348"/><path d="M10.7,8.2c-.1-.2-.3-.1-.5-.1H9.6a1.5,1.5,0,0,0-.7-.3c-.1,0-.1,0-.1-.1H8.7c-.1-.1-.1-.2,0-.4l.5.3.6.2h1c.1,0,.2,0,.2.1Z" fill="#ecc54e"/><path d="M11.8,8.8h-.5c0-.1,0-.1.1-.1s.1-.3,0-.4h-.1c.1,0,.2.1.2,0h-.1c-.1-.1-.2-.1-.1-.3s.8.1.8.4A.6.6,0,0,1,11.8,8.8Z" fill="#d37806"/><path d="M10.7,7.7h-1l-.3-.2H9.3a.1.1,0,0,1,.1-.1h.5a.7.7,0,0,0,.6.2c.2,0,.4-.1.4.1Z" fill="#cf7210"/><path d="M11.3,7.8c-.1.2,0,.2.1.3h.1c0,.1-.1,0-.2,0s-.4.1-.4.4-.2-.2-.2-.4l.3-.3Z" fill="#d57c0f"/><path d="M10,6.2h0Z" fill="#d57c0f"/><path d="M12,13.5a.4.4,0,0,1-.4-.2c-.1,0-.1-.1,0-.1s.2-.2.4-.1h0l.6-.3H13c.1-.1.3-.1.3-.2s.3-.1.5.1h.1c-.1.1-.1,0-.2-.1h0c.1.2,0,.3-.2.3s-.2.2-.3.4h0c0,.1-.1.1-.2.1s-.1-.1-.1-.1a.1.1,0,0,0-.1.1c.1.2,0,.2-.1.2h-.5l-.2-.2c-.1.1.1.1.1.2H12Zm1.5-1.2Zm-.1.5h0Z" fill="#db880c"/><path d="M12,13.5h.2v.2s-.1.1,0,.1h.5l.3-.2h.2c.1,0,.2,0,.3-.2h0c.2,0,.1-.1.1-.2h.3a.2.2,0,0,0-.2.2c0,.2-.1.2-.1.4h-.3l-.5.2h-.9c-.1-.1-.2-.2,0-.3a.1.1,0,0,0,.1.1C12,13.7,12,13.7,12,13.5Z" fill="#dd901e"/><path d="M11,12.7l1-.2.5-.3h.3c.1,0,0,0,0,.1h-.1s0,.2-.2.1h-.4c0,.2-.1.2-.2.1h-.7A.2.2,0,0,1,11,12.7Z" fill="#dd901e"/><path d="M11.5,13.9Z" fill="#dd901e"/><path d="M11.7,12.9h0Z" fill="#dd901e"/><path d="M8.4,4.8h.7a.5.5,0,0,1,.2.4l-.2.2H8.5a.8.8,0,0,1-.7.4H6.7c0-.2-.1-.4,0-.5a.1.1,0,0,0-.1-.1L6.9,5l.4-.2a.8.8,0,0,1,.8-.1Z" fill="#faf7ca"/><path d="M10.5,7.4a.7.7,0,0,1-.6-.2H9.4a.1.1,0,0,0-.1.1h.1l.3.2h.1l-.6-.2-.5-.3-.8-.2H7.8c-.1.1-.3,0-.4,0s-.1,0-.2,0l-.3-.2a.1.1,0,0,0,0-.2l.5.2h.5l.6-.2A1.5,1.5,0,0,0,9.2,6h.1a.2.2,0,0,1,0,.3c-.1.2-.3.3-.3.5s0,.1.1.1h1l.3.2C10.5,7.1,10.6,7.2,10.5,7.4Z" fill="#d57f16"/><path d="M10.6,4.1a.3.3,0,0,1,0,.4.4.4,0,0,0-.1.3c.1,0,0,.1,0,.1H9.6l.2-.3a1.5,1.5,0,0,1,.7-.5Z" fill="#ecc348"/><path d="M13.3,5.5h-.7a1.9,1.9,0,0,0-1.3,0h-.1c0-.3,0-.3.2-.3H13l.4.2Z" fill="#d57f16"/><path d="M8.5,6.3l-.6.2H7.4l-.6-.2H6.4V5.7l.4.2h.2a.5.5,0,0,0,.4.2h.3a1.9,1.9,0,0,0,1-.3L9,5.9c.1-.1.2-.2.1-.4l.2-.2c0,.2-.1.3,0,.5H9.2l-.4.2Z" fill="#ebc141"/><path d="M10.5,4.2a1.5,1.5,0,0,0-.7.5L9.6,5c-.2-.1-.2-.3-.1-.5a1.8,1.8,0,0,1,.7-.5C10.4,3.9,10.5,4,10.5,4.2Z" fill="#cf7210"/><path d="M4.5,13.8H3.9c-.1.1-.2.1-.2,0l-.2-.2-.2-.2a.9.9,0,0,1-.3-.6H3c-.2,0-.2-.2-.1-.3h.6l.4.2h.5c.2-.1.3,0,.3.2h1c.1,0,.1.1.1.2l-.3.2c-.2.1-.3,0-.5.2H4.9c0-.1-.1-.1-.1,0s-.2-.1-.2-.1S4.6,13.8,4.5,13.8Zm-.3-.2h0Z" fill="#db8608"/><path d="M1.9,11.8H1.8a.2.2,0,0,0-.2-.2H1.2L1,11.4c-.1-.1.1-.1.1-.2h.3v.2a.1.1,0,0,1-.1.1h.3v-.1c.1.1,0,.2,0,.3H2v-.2a.1.1,0,0,1,.1.1c.1.1-.1.3.1.4s0-.2.2-.2v.2c-.1,0-.1.3-.2.1V12l-.2-.2Z" fill="#dd901e"/><path d="M2.9,11c-.1.2.1.4.1.5v.2c0,.1.1.2.2.4H3c-.1,0-.1,0,0-.1H2.9l-.2-.4H2.4c.2,0,.2-.2.1-.3s.2.1.1-.1a.1.1,0,0,1,0-.2l.3.3Z" fill="#dc8b12"/><path d="M2.4,11.5c-.2,0-.2.1-.2.2s0-.3-.1-.4a.1.1,0,0,0-.1-.1v.2H1.8c0-.1.1-.2,0-.3v.1H1.4a.1.1,0,0,0,.1-.1h.1c.1.2.1,0,.2,0h0c-.1-.1-.1-.2-.1-.4s.2.2.2.3H2c.1,0,.2.1.2.3h.2C2.5,11.5,2.5,11.5,2.4,11.5Z" fill="#dc8b12"/><path d="M2.1,12v-.2c.1.2.1-.1.2-.1s.2.2.1.3h.1c.1,0,.1,0,.1.1H2.3Z" fill="#dc8b12"/><path d="M2.5,11.7Z" fill="#dc8b12"/><path d="M2.9,11.8h0Z" fill="#dc8b12"/><path d="M6.3,12.9Z" fill="#dc8b12"/><path d="M2.7,11.8h0Z" fill="#dc8b12"/><path d="M4.4,13.8Z" fill="#dc8b12"/><path d="M15,10.9v-.2h0Z" fill="#dc8b12"/><path d="M15.2,11h-.1c-.1-.1,0-.1.1-.1Z" fill="#dc8b12"/><path d="M15,10.9Z" fill="#dc8b12"/><path d="M4.6,5l.2.2H4.6Z" fill="#ecc348"/><path d="M4.3,4.6h0Z" fill="#ecc348"/><path d="M4.8,5.6H4.7v0Z" fill="#ecc348"/><path d="M5.6,7h.1c0,.2-.1.3-.2.5v.2l-.2.5H5.2l-.3.2c.1.1-.1.2-.1.3s0,.2-.1.2H4.4c0-.2-.2-.1-.3-.2s.2.3.3.4l-.9-.3h.2c.2.1.3.1.3-.1s.1,0,0-.1H3.9V8.5h.1c.1-.1,0-.2.1-.3H3.9c0,.1-.1.1-.2.1s0-.1-.1,0H3.3V8C3,8.1,3,7.9,3,7.8s0-.2.2-.1h.2l-.2-.2v.2H2.9c0-.1,0-.2.1-.2h.2a.1.1,0,0,1,.1-.1c.1,0,.3-.1.4.1h.2c.1-.1.2-.2.2-.3h.3c.1.1.3.2.4,0h.4ZM4.5,8.1c-.1.1-.1.1,0,.2h.1c0,.1-.1.1,0,.1h.1Zm.7-.4c0,.1-.1.1,0,.2Zm-.9.9h0Zm-.9-.9Zm.1.5Z" fill="#ebc141"/><path d="M5.5,7.7V7.5c.1-.2.2-.3.2-.5H6c0-.1,0-.1-.1-.1H5.8c0-.1,0-.2.1-.2s.1-.1.1-.2H6c.1.1.1.2.2.1h.1c.1-.1.1,0,.1.1s0,0,0,.1l.5.2h.4a2.7,2.7,0,0,0-1,1.1c-.1.2,0,.4-.1.6v.4H5.8a2.7,2.7,0,0,0,0-.9V7.8a.1.1,0,0,0-.1.1H5.5Zm.2,0a.1.1,0,0,0-.1-.1A.1.1,0,0,0,5.7,7.7Z" fill="#d37806"/><path d="M3.8,7.2H3.7c-.1-.2-.3-.1-.4-.1a.1.1,0,0,0-.1.1H3c-.1,0-.1.1-.1.2h.2V7.4l.2.2H3.2c-.2-.1-.2.1-.2.1s0,.3.2.2v.2h.3c.1-.1.1,0,.1,0s.2,0,.2-.1H4c-.1.1,0,.2-.1.3H3.8v.2H4c.1.1,0,.1,0,.1s-.1.2-.3.1H3.5l-.6-.3-.5-.7h0A.7.7,0,0,1,2.8,7a.9.9,0,0,1,.5-.3h.3v.2s-.1.1,0,.1h.3c.1.1,0,.1,0,.1a.4.4,0,0,0,.1.3c0-.1-.1-.2,0-.2s.2-.1.4,0H5s.1.1.2-.1.1-.1,0-.2H5c-.1-.1-.2,0-.3-.2l.7.2h.1s-.1,0,0,.1h.1l-.4.2H5.1A.1.1,0,0,0,5,7.1H4.8c-.1.2-.3.1-.4,0H3.8Z" fill="#ecc348"/><path d="M2.8,7a.7.7,0,0,0-.4.6A1.3,1.3,0,0,1,2.3,7V6.7a.1.1,0,0,1,.1-.1h0l.2-.2h0c0,.2,0,.2.1.2h0c0-.1-.1-.2,0-.2h.6v.2l.3-.2c0,.1.1,0,.1,0s.2-.2.4-.2h.5c.1.1.1.1.2,0a.1.1,0,0,0,.1.1h.3c.1-.1.2,0,.2.1s.2.3.2.5a.1.1,0,0,1-.1.1H5.4l-.2-.3H3.9c-.1,0-.1.1-.2,0s-.2,0-.3.2h0c-.1.1-.3,0-.4.2H2.9C2.8,6.7,2.7,6.8,2.8,7Zm.4-.5Z" fill="#d57f16"/><path d="M6.3,5.7V6H6.2c-.1-.1-.1-.3-.3-.3s-.1-.1,0-.1V5.3A.4.4,0,0,0,6,5a1,1,0,0,0-.5-.6L5.2,4a.1.1,0,0,1,.2,0h.2c0-.1.1,0,0,0v.2l.4.4s.1,0,0,.1h.6a.1.1,0,0,1,.1.1h.1l-.3.3Z" fill="#d57f16"/><path d="M5.2,4l.3.4A1,1,0,0,1,6,5a.4.4,0,0,1-.1.3H5.7c0-.1.1-.1,0-.2a.8.8,0,0,0-.4-.6h0a.2.2,0,0,0-.2-.2L4.7,4a.3.3,0,0,1,.4,0Z" fill="#cf7210"/><path d="M6.8,6.3l.6.2h0l-.5-.2A.1.1,0,0,1,6.8,6.3Z" fill="#cf7210"/><path d="M5.6,6.9H5.5c-.1-.1,0-.1,0-.1S5.6,6.8,5.6,6.9Z" fill="#ecc54e"/><path d="M3.6,6.1h0s.1,0,0,.1Z" fill="#d57f16"/><path d="M6,5.7H6Z" fill="#d57f16"/><path d="M3.8,5.8Z" fill="#d57f16"/><path d="M5.6,6.3Z" fill="#d57f16"/><path d="M3.5,6.1h0Z" fill="#d57f16"/><path d="M3.6,6.1h0Z" fill="#d57f16"/><path d="M2.9,6.2Z" fill="#d57f16"/><path d="M2.4,6.6Z" fill="#dd901e"/><path d="M2.6,6.3Z" fill="#d57f16"/><path d="M1.3,11.1H1.1c0,.1-.2.1-.1.2H.8l-.3-.2c0-.1-.1-.1,0-.2H.8c0-.2-.1-.2-.2-.2s-.1.1-.1.2a.5.5,0,0,1-.2-.4c0-.1.1-.2.1,0H.8c.1.1-.1,0-.1.1s.3.1.3.2H1C1.2,10.9,1.2,11,1.3,11.1Zm-.4.1h0Zm.2-.1h0Z" fill="#dc8b12"/><path d="M1.8,10c.1.1.2.2.1.4H1.7c.1-.1.1-.1-.1-.1h.2Z" fill="#dc8b12"/><path d="M.6,10.3c.1.1-.1.1-.1.2s-.1-.1.1-.2Z" fill="#dc8b12"/><path d="M1.7,10.2h0Z" fill="#dd901e"/><path d="M1.4,9.5Z" fill="#dc8b12"/><path d="M.6,10.3Z" fill="#dc8b12"/><path d="M.7,10.4Z" fill="#dc8b12"/><path d="M1.5,9.9Z" fill="#dc8b12"/><path d="M1.6,10Z" fill="#dc8b12"/><path d="M1,10.7Z" fill="#dc8b12"/><path d="M.2,10.5h0C.3,10.5.3,10.5.2,10.5Z" fill="#dc8b12"/><path d="M1,11H1Z" fill="#dd901e"/><path d="M1.3,11.1h0Z" fill="#dc8b12"/><path d="M1.6,11.1Z" fill="#dc8b12"/><path d="M6.8,13.4l-.2.3h0c-.1,0-.1.1-.2.2H6.3l-.4.2H5.1c-.1.1-.3,0-.4.2H3.9l-.4-.2H3.3c-.1-.1-.1-.1,0-.1h0a.9.9,0,0,0,.7.1c.1,0,.1.1.2,0h.1a.2.2,0,0,0,.3,0h.9a1.9,1.9,0,0,0,.8-.7.6.6,0,0,1,.5-.2h.1a.1.1,0,0,1-.1.1Z" fill="#dd901e"/><path d="M3.1,14Z" fill="#dd901e"/><path d="M5.2,4H5.1V4Z" fill="#d57f16"/><path d="M6,4.3h.1A.1.1,0,0,1,6,4.3Z" fill="#d57f16"/><path d="M5.9,4.2h0Z" fill="#d57f16"/><path d="M.9,13.1h0Z" fill="#d57f16"/><path d="M2.9,10.8l-.3-.3c-.5-.2-.6-.6-.7-1.1A.4.4,0,0,1,2,9.1H2a2.4,2.4,0,0,0,1.6,1.2l1.1.2h.5v.9h0l-1-.2H4.1L3.3,11Z" fill="#f7fdc3"/><path d="M5.2,10.5H3.8c-.1,0-.2-.1-.2,0A2.4,2.4,0,0,1,2,9.1H2l.3-.4.2.2h.1a2.2,2.2,0,0,0,.9.7h.1l.6.3,1,.2h0a.6.6,0,0,0,.1.4H5.2Z" fill="#ecc54e"/><path d="M2.5,10.8c.1.1.1.3-.1.3s0-.2-.1-.2h0C2.4,10.8,2.4,10.7,2.5,10.8Z" fill="#db880c"/><path d="M2.3,10.9Z" fill="#db880c"/><path d="M2.4,11.1h0Z" fill="#db880c"/><path d="M5.6,5.2c-.1.2-.2.1-.3,0L5,4.9c0-.1-.1-.1-.2-.2h0l-.2-.2H5c.1.2.1.2.3.2h0C5.5,4.8,5.5,5,5.6,5.2Z" fill="#ecc54e"/><path d="M5.6,5.2c-.1-.2-.1-.4-.3-.6h0a.8.8,0,0,1,.4.6c.1.1,0,.1,0,.2Z" fill="#ebc141"/><path d="M5.3,4.5c-.2,0-.2,0-.3-.2h.1A.2.2,0,0,1,5.3,4.5Z" fill="#ebc141"/><path d="M3.3,14.3h0Z" fill="#dc8b12"/><path d="M.5,11c0-.1,0-.2.1-.2s.2,0,.2.2H.5Z" fill="#dd901e"/><path d="M5.3,14.4h.5C5.7,14.4,5.5,14.4,5.3,14.4Z" fill="#d57f16"/><path d="M4.7,14.6c.1-.2.3-.1.4-.2s-.2.1-.3.2Z" fill="#d57f16"/><path d="M5.9,14.2l.4-.2Z" fill="#d57f16"/><path d="M6.4,13.9c.1-.1.1-.2.2-.2A.2.2,0,0,1,6.4,13.9Z" fill="#d57f16"/><path d="M6.3,14h0Z" fill="#d57f16"/><path d="M12.7,14.1l.5-.2c.1.1,0,.1,0,.1s-.3,0-.4.2Z" fill="#d57f16"/><path d="M13.5,13.8c0-.2.1-.2.1-.4h.2Z" fill="#d57f16"/><path d="M13.3,13.9h0Z" fill="#d57f16"/><path d="M3.5,9.5a2.2,2.2,0,0,1-.9-.7H2.5c0-.1-.1-.2-.1-.3h0c0-.2-.1-.5,0-.7l.5.7.6.3.9.3h.8v.8H4.7L3.6,9.5H3.5Z" fill="#f7fdc3"/><path d="M2.4,8.4H2.3c-.1-.1-.1-.2-.1-.4V7.9c.1,0,.1.1.1.2A.4.4,0,0,0,2.4,8.4Z" fill="#cf7210"/><path d="M2.3,8.5h.1c0,.1.1.2.1.3l-.2-.2Z" fill="#d19435"/><path d="M13.8,13.3h-.2a.2.2,0,0,1,.2-.2Z" fill="#dc8b12"/><path d="M5.9,10.1h.5v.4H5.9C5.8,10.4,5.9,10.3,5.9,10.1Z" fill="#d37806"/><path d="M5.4,11.8h0v-.3H6.5v.2H5.7v.2Z" fill="#cf7210"/><path d="M10.9,8.6c0-.3.1-.4.4-.4h.1c.1.1.1.2,0,.4s-.1,0-.1.1h-.4Z" fill="#cf7210"/><path d="M11,8.6h0Z" fill="#d57c0f"/><path d="M5.9,10.1c0,.2-.1.3,0,.5H5.3a.6.6,0,0,1-.1-.4Z" fill="#d57c0f"/><path d="M13.1,10.3h0s.1-.1,0-.1Z" fill="#ecc54e"/><path d="M5.5,7.7v.2h.1a.1.1,0,0,1,.1-.1V8a2.7,2.7,0,0,1,0,.9H5.2c0-.3.1-.6.1-.9Z" fill="#d57c0f"/><path d="M3.6,9.5l1.1.3h.5l-1-.2Z" fill="#d19435"/><path d="M6,9.1Z" fill="#d57c0f"/><path d="M5.2,11.4h.1l-1.2-.2-.9-.2H2.9v-.2l.4.2.8.2h.1Z" fill="#d19435"/><path d="M13.2,5.9h0Z" fill="#d57f16"/><path d="M11.3,5.8h-.1C11.2,5.7,11.2,5.6,11.3,5.8Z" fill="#d57f16"/><path d="M12.2,13.5h-.1c0-.1-.2-.1-.1-.2l.2.2Z" fill="#dc8b12"/><path d="M13.5,12.3Z" fill="#dc8b12"/><path d="M13.4,12.8h0Z" fill="#dc8b12"/><path d="M9.1,5.5c.1.2,0,.3-.1.4l-.4.2a1.9,1.9,0,0,1-1,.3H7.3a.5.5,0,0,1-.4-.2h.9a2.2,2.2,0,0,0,1.1-.5Z" fill="#ecc54e"/><path d="M8.9,5.6a2.2,2.2,0,0,1-1.1.5h0a.8.8,0,0,0,.7-.4h.4Z" fill="#f7fdc3"/><path d="M6.3,5.7l.3-.4a.1.1,0,0,1,.1.1c-.1.1,0,.3,0,.5Z" fill="#f7fdc3"/><path d="M8.5,6.3l.3-.2.4-.2h0A1.5,1.5,0,0,1,8.5,6.3Z" fill="#cf7210"/><path d="M4.2,13.6Z" fill="#db880c"/><path d="M1.9,11.8Z" fill="#d57f16"/><path d="M5.3,8.2c0,.3-.1.6-.1.9H4.4c-.1-.1-.3-.1-.3-.4s.3,0,.3.2h.3c.1,0,.1-.1.1-.2s.2-.2.1-.3L5.2,8h.1Z" fill="#ecc348"/><path d="M4.5,8.1l.2.3H4.6c-.1,0,0,0,0-.1H4.5C4.4,8.2,4.4,8.2,4.5,8.1Z" fill="#ecc348"/><path d="M3.8,7.2h.3c0,.1-.1.2-.2.3H3.8Z" fill="#ecc54e"/><path d="M5,7.2H5a.1.1,0,0,1,.1.1H5Z" fill="#ecc54e"/><path d="M5.2,7.7v.2C5.1,7.8,5.2,7.8,5.2,7.7Z" fill="#ecc348"/><path d="M4.3,8.6Z" fill="#ecc348"/><path d="M3.4,7.7h0Z" fill="#ecc348"/><path d="M3.5,8.2Z" fill="#ecc348"/><path d="M5.7,7.7a.1.1,0,0,1-.1-.1A.1.1,0,0,1,5.7,7.7Z" fill="#d57c0f"/><path d="M2.8,7c-.1-.2,0-.3.1-.3H3c.1-.2.3-.1.4-.2h0c.1-.2.2-.2.3-.2s.1,0,.2,0H5.2l.2.3h0l-.7-.2H3.3A.9.9,0,0,0,2.8,7Z" fill="#cf7210"/><path d="M3.6,6.6H4.7c.1.2.2.1.3.2h.2c.1.1.1.1,0,.2S5,7,5,7H4.4c-.2-.1-.3,0-.4,0S4,7,4,7.1a.4.4,0,0,1-.1-.3s.1,0,0-.1H3.6c-.1,0,0-.1,0-.1Z" fill="#ecc54e"/><path d="M3.3,6.7h0Z" fill="#ecc54e"/><path d="M5.4,6.7h0Z" fill="#d57c0f"/><path d="M3.2,6.5Z" fill="#cf7210"/><path d="M.9,11.2h0Z" fill="#dd901e"/><path d="M1.1,11.1Z" fill="#dd901e"/><path d="M3.6,10.3c0-.1.1,0,.2,0h.9Z" fill="#ebc141"/><path d="M3.5,9.5h0Z" fill="#d19435"/><path d="M2.5,8.8h0Z" fill="#d19435"/><path d="M10.5,3.8,9.4,1.4l1.9,1.2,1.2-1.5L12.9,3,15,2.5,13.3,4.9A5.4,5.4,0,0,0,10.5,3.8Z" fill="#f6c64e"/><circle cx="9.4" cy="1.5" r="0.3" fill="#f6c64e"/><circle cx="12.5" cy="1.2" r="0.3" fill="#f6c64e"/><circle cx="14.9" cy="2.5" r="0.3" fill="#f6c64e"/></g></svg>