<svg xmlns="http://www.w3.org/2000/svg" width="10in" height="10in" viewBox="0 0 720 720"><title>logo</title><g id="Layer_1" data-name="Layer 1"><path d="M113,656q0-254.4-.1-508.9c0-3.9,1.2-4.2,4.5-4.2H621.7c3.6,0,4.4.7,4.4,4.3q-.1,252.3,0,504.4c0,4-1.2,4.5-4.7,4.5Zm359-95.2a.8.8,0,0,0,.8.3c17.7,9.2,35.9,10.9,54.6,4.1,14.8-5.4,25.1-15.3,28.5-31.2.9-4.3,2.3-8.5,2.1-13l1-4c1.2-1.8,1-4.1,1.6-6.1l.3-1.6c4-12.4,10.6-23.1,21.5-30.8,3.5-2.5,7.1-5,9.8-8.4a34.7,34.7,0,0,0,7.5-43.7c-5-8.3-12.2-14.8-19.2-21.4s-18.9-11.3-30.5-10.8c1.3-2.6,2.6-5.1,3.7-7.7,4-8.9,4.3-18.1,2.3-27.5l1.2-10.8c.9-10.8-1.8-21.1-5.2-31.2.3-12-6-20.9-13.7-29.2-1.5-2.8-4.6-3.4-7.1-5.1l-1-.9h0c-10.1-13.8-23.2-23.4-39.9-27.7a134.9,134.9,0,0,0-35.3-4.2,93.2,93.2,0,0,0-20-5.7c-4.5-.9-9.3-2.6-14-.3-1.9-.4-3.3,1-5,1.2-25.6-5.4-51.6-7.2-77.7-6.9-12.2.1-24.5,1.3-36.3,4.8l-4.9-.2c-1.7-.9-3.5-.5-5.3-.2-8.1,1.1-15.4,4.2-22.5,8.1l-.5,1.1-11.9,4.9a88.5,88.5,0,0,0-43.5,29.9c-8,10.2-13.6,21.1-13.5,34.4a.7.7,0,0,0-.2.6l-.6,1.4-1.2,4c-4.3,8.6-6.7,17.5-5.2,27.2.5,3.8.6,7.6.9,11.4-4.4,6.9-7.9,14.2-7.8,22.6l-.8,2.7a2.3,2.3,0,0,0-1,2.1h0c-1.5,1.6-1.7,3.8-2,5.8-.4,3.5-1.1,6.8-4,9.2l-2,1.1a2.1,2.1,0,0,0-2.1.7c-1.1.2-2.4-.1-3.2,1s-2.4-.4-2.2,1.5h-.1c-3.8-1.6-7.1.7-10.4,1.8-10.3,3.6-19.3,9-24.1,19.5a19.9,19.9,0,0,0-3.7,10.4l-.5,3.9c-.9,11.3,2.8,20.9,10,29.4s18,13.9,28.9,17.7,20.2,7.4,27.3,16.2l3,8.8.2,2c.4,2.7.7,5.3,1,8s.4,4.6.9,6.8c3.8,19.1,12.9,34.3,31.3,42.7,10.5,4.7,21.5,5.1,32.7,4.3l13.1-2.3c7.6-1.5,14.5-5,21.6-7.7A203.3,203.3,0,0,0,331,559c4.1-2.5,7.8-5.6,9.2-10.6a16.6,16.6,0,0,0,2.7-10.4,21.2,21.2,0,0,0-.6-9,25.3,25.3,0,0,1,5.5.1c11.1,2.1,22.2-.2,33.2-.2,5.8,0,11.6-1.1,17.3-1.5,9.3-.6,18.2-3.7,27.6-3.7,6,0,12.1-1.6,18.1-2.5h.4c.2,7.6,1.7,14.7,6.5,20.7a43.9,43.9,0,0,0,15.4,15.2A14.9,14.9,0,0,0,472,560.8ZM176,529c1.7-2.5,1-5.3.9-8-1.1-12.3-13.4-15.4-24.4-13.5-4.3.7-8.7,2.1-10.6,6.9-1.7,1.1-1.9,2.9-2,4.8-.3,8.9,6.2,16.9,16.6,20.2S172.8,539.1,176,529Z" fill="#fefefe"/><path d="M556,359c2,9.4,1.7,18.6-2.3,27.5-1.1,2.6-2.4,5.1-3.7,7.7l-5.9,7.3c-.6.7-1.9,1.6-1,2.4,2.6,2.4,2.9,6.3,5.6,8.6s5.7,7.2,7.4,11.6c3.3,8,3.2,16.5,2.9,24.9l-2.1,10.7-.8,1.3a.4.4,0,0,0-.2.6c-4.8,4.6-11.4,7.6-12.1,15.4-5.1,7.4-13,11.4-19.8,16.9-13.7,8.9-29.3,13.2-44.3,19.1a60.1,60.1,0,0,1-26.9,4.1,14,14,0,0,0-8.5,2c-9,2.8-18.2,3.3-27.5,2.9-3.8-.2-7.5-1.2-11.4-.9-14.5,1.2-29,2.3-43.4-.9a6.9,6.9,0,0,0-4.9.3,26.3,26.3,0,0,1-18.2,2.6H338c-2.1-2.2-4.8-3-7.6-3.4-15.4-2.4-31-4.6-46.5-6.8h-.4c-12.3-3.5-24.8-6.1-36.5-11.5-13.3-6.2-22.9-15.6-27.7-29.6l3.5,2.7c8.7,7.9,18.5,13.2,30.6,13.8,7.5.4,15.1,1.6,22.6,2.4,5.1,3.1,10.8,3.5,16.6,3.3,7.1,6.5,13.5,7.4,21.7,3.2l1.7-.2a175,175,0,0,0,17.7,2.4,271.2,271.2,0,0,0,53.3-.8c18.2-2,36.1-5.3,54.5-5.7,15.8-.3,31.5-2.9,46.1-9.3,7.5-3.3,15.2-6.1,21.4-11.5h0c7.5-3.1,13.4-8.4,19.2-13.9,10-8.7,18.4-18.6,22.1-31.7,1.3-4.4.4-8.3-3-12.2-.4,1.7-.7,2.8-1,3.9-2.2,7.1-6.7,12.8-10.7,18.9l-.6.7c-1.5,1.7-3.5,2.9-4.1,5.3v-.2c-5.2,5.7-11.6,9.9-17.2,15.1a57.1,57.1,0,0,1-21.6,12.6A120.8,120.8,0,0,1,439,476c-2.8-.3-5.7.2-8.5.4-9.3.4-18.5,3.8-27.7,2.2a50.9,50.9,0,0,0-23.3,1.3,3.8,3.8,0,0,1-1.5.1l-50.9.9c-.1-8.8-2.9-17.2-3.7-25.8,14.6,0,29.2-.1,43.8.1,12.1.3,24.2-.1,36.3-.6,13.9-.6,27.7-3.5,41.7-3.4,18.4,0,36.5-2.3,53.7-9.2,10.3-4.1,20.8-8.3,29.3-15.7,4.8-4.2,7.4-9.5,7.8-16.8l-18.1,11.6a5.5,5.5,0,0,0-3.3.5c-17.1,7.5-34.9,9.9-53.6,8.1a35.2,35.2,0,0,0-16.3,1.8c-3.9,1.5-7.8,2.7-12,2.5-15.8-1-31.5-.1-47.3-.2q-6.7-.2-13.5.3c-16.9,1.1-33.8,1.9-50.7,1.6l-.3-.7-2.1-23c44.8.9,89.5-1.8,134.2-4,10.9.2,21.8.1,32.4-2.7C515.6,400,542.5,389.8,556,359Z" fill="#f7fdc3"/><path d="M556,359c-13.5,30.8-40.4,41-70.6,46.3-3.3-3,2.6-3.1,1.6-5.4l2-1.3c9-5.3,10.6-15.9,3-23-6-5.7-13.3-6.5-21-3.7l-5,1c-.4-3.5-3.5-3-5.6-3.8s-4.8-.2-5.4-3.2l6-3.9c5.3-4.6,5.5-7.6-.1-11.3s-11.9-6.5-17.6-10.2S431.5,335,431.9,327l2.1-5,.9-1c4.8-3.2,9.5-6.3,15.1-7.8a5.3,5.3,0,0,1-2.1,5.3c-1.4.9-4.1,1.9-2.1,3.8s4.6,3.1,6.9.1c.9-1.2,1.6-3.1,3.1-3,5.5.2,10.6-3.2,16.1-2.3,8.3,1.2,16.7,1.1,25,2.1s18.9,1.4,28.3,1.6c6.2.1,13.1-.5,17-6.9,3.8-.5,6.4,2.6,9.8,3.1,3.4,10.1,6.1,20.4,5.2,31.2Z" fill="#ebc141"/><path d="M198.9,520l-3-8.8c.4-1,.7-2.1,1.1-3.2s3.1,3.2,4.1.9,2.8-4.9,3.7-7.5-2-1.4-3.1-2-.2-.6-.1-.9c1.5-4-1.9-5.9-3.6-8.5l1-5c1.1-.1,2.5.3,2.8-1.3a3.3,3.3,0,0,0-1.7-3.4A7.1,7.1,0,0,1,196,477c.1-5.3,2.5-1.4,4-1,3.1.3,6.9-1.1,8.5,2.7a54.7,54.7,0,0,0,3.3,6.9c1.4,2.4,1.9,4.9,5.1,5.7s3,2,.6,3.8-1.8,3.5,1.2,4,5.5.6,8.3.9a18.6,18.6,0,0,1,2.7,2.2c6.5,7.6,15.2,11.2,24.7,12.5,12,1.7,24.2,2.4,36.3,4.3,8.9,1.5,17.9,2.4,26.3,6a10.3,10.3,0,0,1-.9,9.9c-2.8,4.4-4.8,8.8-9.1,12.5s-11,6.9-17.2,8.8c-1,.3-1.9,1-2.8.1s-3.1-.3-4.7.7c-7,4.4-13.6,3.8-18.5-1.5-1.3,1.2.8,4.1-.4,3.8-3-.8-5.3,2.4-5.7,2.2-5.2-2.5-11.5.5-16.4-3.7a16.1,16.1,0,0,0-5.9-3.2c-4.3-1-9.8.6-9.8-6.6,0-.7-.8-.8-1.5-.5-2.3.8-4.5-1-5.3-2s-6.7-3.6-5.7-7.4,0-3.1-2.1-3.1h-7c-2.8-.5-.9-4.7-3.9-5-.3-2.7-.6-5.3-1-8,1.8,0,2.4,2.4,4.4,1.9s1.6-.4,1.9-1.3-.1-1.2-.3-1.2C203.1,520.9,201.5,518,198.9,520Zm6.6,7.6c-.9.3-2,1.2-1.7,1.5a13.1,13.1,0,0,0,4.1,3c1,.5,1.2-.8,1-1.6S206.8,528.2,205.5,527.6Zm.5-20.1c-.1-.6.2-1.6-.6-1.5s-1.8.8-1.6,1.9a1.7,1.7,0,0,0,1.3,1.3C206.4,509.3,205.8,508.1,206,507.5Zm-2.8-18.6s.4-.6.3-.8a2.5,2.5,0,0,0-1.2-1.3c-.8-.3-1.2.2-1.1.9S201.8,488.8,203.2,488.9ZM225,514.8c-.3-.6-.4-1.2-.7-1.3s-1.2.3-1.1,1a1.3,1.3,0,0,0,.7,1C224.2,515.5,224.6,515.1,225,514.8Zm-10.4-21.1c-.3-.1-.6-.4-.8-.3s-.3.5-.4.8.6.4.8.3S214.5,494,214.6,493.7Zm-3.3-.5-.7-.6a2.4,2.4,0,0,0-.2.8c0,.1.3.3.3.3Zm9.5,22.8-.3-.4a.8.8,0,0,0-.2.4c0,.1.1.2.2.4Z" fill="#db880b"/><path d="M431.9,327c-.4,8,6.4,10.2,11.4,13.5s11.9,6.5,17.6,10.2,5.4,6.7.1,11.3c-1.8-6.9-7.5-4.5-12-5,.3-2.9,1.6-6-1.9-7.9s-9.1-4.9-13.8-7c-7.9-3.7-16.7-1.7-25-3.8-2.1-.5-4.5.4-5.7-2.2s-.7-6.6,1.5-8.3c3.8-2.9,3.4-9.4,9.2-10.3.2,0,.6-1.1.4-1.2-2.4-2.3-.9-6.3-3.8-8.3-.7-4.4,2.6-8.6.2-13,2.3-6.3-2.5-8.9-6.1-12.2.1-.7.1-1.8.4-1.9,5.7-1.5,4.1-6.9,4.3-10.2.3-7.4,1.3-13.7,8.4-18.2,1.8-1.3,7.8-3.5,3.9-8.6,4.7-2.3,9.5-.6,14,.3a93.2,93.2,0,0,1,20,5.7c.4,3.6-2.3,5.6-4.2,8l-2.8,1.2c-.5-6.7-4.3-8.7-10.6-5.2-8,4.5-15.6,9.6-20.3,18-2.6,4.6-1,10.4,3.6,11.1-.1,3.9,2.2,5,5.7,5.1a52.2,52.2,0,0,0,17.6-2.2c14.5-2.7,29.2-4.5,44-3.9s28.2-2.5,42.2-.2h0c0,.7.3,1,1,.9,2.5,1.7,5.6,2.3,7.1,5.1-2.1,1.3-.3,2.5,0,3.8.8,4.4,4.8,6.7,6.7,10.4a21.5,21.5,0,0,1-9-2c1.6-2.7.2-4.4-2.1-5.6-4.2-2.1-8.3-4.8-13.3-4.1-7,1-13.5-4.9-20.7-1.4-.8.4-2,0-3,.1-5.3.3-10.7-1.2-15.9,1.1a13.3,13.3,0,0,1-6.6,1.4c-4.9-.3-7.6,2.4-7.4,7.5-7.6,3.2-16,3.7-23.4,7.9s-11,8.5-13.4,15.2C429.6,323.6,428.9,326.3,431.9,327Z" fill="#d57c0f"/><path d="M555.9,461.6a.4.4,0,0,1,.2-.6l.8-1.3L559,449c4.3-.1,5.7,3,7.3,6.2,2.3,4.8,3.6,10.8,11.2,10.3,2.2-.2,5,1.3,3.1,4.8s.8,2.5,2.4,2.7c-2.7,3.9-6.9,6.1-10.4,9.1-8.3,7.1-13.1,15.9-13.6,26.9a1.9,1.9,0,0,1-2.1.9c-5-2.3-10.4-3.6-15.1-6.6-2.7-1.7-9.5-.6-10.3,2.4s-4.3,4.1-6.9,5.2-2.6.6-2.6,2.4c.1,3.7-2.9,4.2-5.4,5.4-5.9,2.8-12.4,4.2-17.7,8-3,2.2-5.7,4.9-10,3.4a2.8,2.8,0,0,0-3.5,1.2c-1.3,2.4-2.5,3.7-5.7,3.6s-1.7,2.2-.6,3.8c3.4,4.6,8.7,4.9,13.5,6.2,2.3.6,2-1.3,1.6-2.9a2.1,2.1,0,0,1,1.2-2.5c.3-.1.8.3,1.2.4-1.4,2.9,3.3,3.4,2.4,6.1-2,.3-5.3-1.1-4.9,2.8s-2.8,3.2-4.4,4.3-1.2-2.8-3.3-2.3c-3.7,5.9-3.6,6.3,2.4,9.2a3.3,3.3,0,0,1,2.2,3h-2c-1-2.3-3.4-2.2-5.3-2.9s-3.5.4-3.7-2.1a2.1,2.1,0,0,0,.4-3.3c-.1-.3-.9-.3-1.2-.1s-.7,2.2-.2,3.4c-2,0-4.1.3-5.8-.9-5.7-4.3-12.5-7-17.2-12.6-1.3-1.5-2.8-2.9-5.1-2.5-4.8-6-6.3-13.1-6.5-20.7,10.3-.8,20.6-1.1,30.7-2.6,17.6-2.7,33.2-10.2,46.9-21.6,1.1-.9,2-1.7,2-3.2,6.8-5.5,14.7-9.5,19.8-16.9,5.3-2.1,7.5-7.5,11.2-11.2C556.1,464.8,556.1,463.1,555.9,461.6Z" fill="#dc8b14"/><path d="M302,243c11.8-3.5,24.1-4.7,36.3-4.8,26.1-.3,52.1,1.5,77.7,6.9-1.6,1.5-3.5,2.7-4.6,4.5-4.4,7.3-10.6,13-16.4,19-3.2,3.4-7.8,5-10.6,8.8-3.6-.7-7.3-.8-10.6-2.1-8.9-3.5-17.1-3.1-24.8,2.7-11.5-6.3-23.3-12.1-31.8-22.6C313,250.1,307.8,246.3,302,243Z" fill="#ebc141"/><path d="M583,473c-1.6-.2-3.8.1-2.4-2.7s-.9-5-3.1-4.8c-7.6.5-8.9-5.5-11.2-10.3-1.6-3.2-3-6.3-7.3-6.2.3-8.4.4-16.9-2.9-24.9-1.7-4.4-3.8-8.4-7.4-11.6s-3-6.2-5.6-8.6c-.9-.8.4-1.7,1-2.4l5.9-7.3c11.6-.5,22,2.8,30.5,10.8s14.2,13.1,19.2,21.4a34.7,34.7,0,0,1-7.5,43.7A2.1,2.1,0,0,1,591,468c1-1,.8-1.9-.5-1.8s-3.6.2-2.5,2.8C587,471.2,585,472.1,583,473Zm1.6-8.9c-.7.1-1.4.5-1.2,1.2a2.4,2.4,0,0,0,1.3,1.3c.7.2,1.2-.5,1.1-1.2S585.3,464.3,584.6,464.1Zm3-2.4c-.3-.1-.6-.4-.8-.3s-.3.5-.4.8.6.4.8.3S587.5,462,587.6,461.7Z" fill="#db880b"/><path d="M199.7,321.6a.7.7,0,0,1,.2-.6c2.9-1.6,4.9-4.3,7.8-6,15.5-8.6,32.1-12,49.6-12.1,4.9,0,9.9.9,14.8-.7h.9c5.9,1.3,11.4-.7,17-2.2s6.9-3.6,10.9-4c.2.7.2,1.7,1.3,1.6a.5.5,0,0,0,.3-.3c0-1.1-.9-1.1-1.6-1.3a12.3,12.3,0,0,0,.2-1.9l5.9,1c-1.1,3.7-2.6,7.4,2.9,9,.8.3,1,1.2,1.1,2s-3-1-3.5,1.7A4.1,4.1,0,0,0,311,306c2,0,2.7,1.5,3.5,3s1.8,4.3,4.4,5c-.3,3.5,1.5,5.6,4.6,6.8l12.5,5.1c-.5,3.8,4.8,2,5,5.1-.6.4-1,1.3-.3,1.6,2.7.9,5.1,2.2,6.3,5.1.3.9,1.1.9,2,.8,9.5-.5,18.8,1.4,28.2,1.6,2.8.1,5.1,1.6,4.8,5.1-10.7-1.9-21.1-1.5-31,3.7a9.3,9.3,0,0,0-1-1.5c-4.6,1.8-8.1-2.4-11.3-3.7-5.1-2.1-9.8-5.7-15.4-7.1-1-.2-1-.7-.5-1.3a3.7,3.7,0,0,0-1.1-5.6c-1.5-1-3.9,0-5.4,1.1s-3.6,1.8-4.5-.4c-2.1-5.8-4.7-.9-6.3-.1s-1.3,4.1-.5,6.2,1,4.1,3,3.1,1.9.8,2,1.8-.4,2.8-2.3,1.9c-3.6-1.8-5.9-.1-7.8,2.8h-.8c0-1.7-.4-3.2-1.9-4.1a2.6,2.6,0,0,0-1.3-1.9c-.7-2.4-3.4-2.5-4.9-4.1V334c1.9,0,3,3.1,5.3,1.6s1.6-4.7.7-5.8c-2.7-3.6-3.3-7.9-4.8-11.8-.1-.3-.5-.5-.7-.7-2.2-1.5-3.6-3.4-7.2-2.6-5.1,1-9.2-5-14.9-3.2-.2.1-.9-.6-1-1-.6-2.3-1.1-1.3-2.4-.3-4,3.1-9.8.9-13.8,4.4-.5.4-.9-.9-1.3-1.2s-10.6,1.6-10.8,3.7c-.6,6.8-3,2.8-5.1.9l1-1c.7.2,1.5,1.2,2.1.4s-.1-1.6-.8-1.9-1.2.7-1.3,1.5h-1l-.4-.2.4.2v1c-4.5,2.4-6.2,7.1-9,11h-2c-1.6-2.2,1.9-6.1-2.5-7.5-.8,5.9-3.1-1-4.5.5l-.4-.2.4.2c-.4,2.4-1.3,1.3-2.6.5s-3.8-.2-5.2,1.4-.4,3,.7,4.3,2.7,1.5,1.6,3-2.3.1-3.6,0a13.7,13.7,0,0,0-2.9-.2c.3-1.7.7-3.3,1-5l.2-.4-.2.4c-2.4.8-3,3.1-4,5-.6.2-1.5-.2-1.3.9a.4.4,0,0,0,.4.4c1.1.2.7-.7.9-1.3h3c-.7,1.6,2,3.5-.4,4.8s-2.5-1-3.6-1.8h-2c-.4-2.3,1-4.9-1.1-7l1.2-4Zm27.3-3.1c-.6,1.2-3.1,1.1-2.1,3.1a2,2,0,0,0,2.1.9C228.6,321.6,228,320.1,227,318.5Zm71.7,5.3-.7-.5-.3.7c0,.1.3.3.4.3Z" fill="#d57c0f"/><path d="M272.1,302.2c-4.9,1.6-9.9.7-14.8.7-17.5.1-34.1,3.5-49.6,12.1-2.9,1.7-4.9,4.4-7.8,6-.1-13.3,5.5-24.2,13.5-34.4a88.5,88.5,0,0,1,43.5-29.9c.2,2.5.4,5,3.8,5.5s2.4,2.4,2.3,4.3c-.5,6.3,3.9,11.1,4.5,18,2.1-2.7.9-4.2.6-5.7s0-2.7,1.4-3.4,2.4.5,3.1,1.6,2.3,5.1,4.2,6.6c5.8,4.4,7.5,12,13.2,16.3-5.6,1.5-11.1,3.5-17,2.2-.2-1,.4-2.2-.5-3.2C271.7,299.9,272.1,301.1,272.1,302.2ZM269,286c0,3.1-.1,5.1.1,7s.4,3,2.2,2.3a2.5,2.5,0,0,0,1.4-3.3A55.5,55.5,0,0,0,269,286Z" fill="#ebc141"/><path d="M133.9,433.6c4.8-10.5,13.8-15.9,24.1-19.5,3.3-1.1,6.6-3.4,10.4-1.8,0,.3.1.6.1.9v-.9c-.2-1.9,1.3-1.2,2.2-1.5,4.5,4.2.8,10.4,4,15.3,1.4,2.2.8,5.2,4.8,4.4.7-.2,1.6,1,2.5,1.5v6a8.8,8.8,0,0,0-6,0,6.5,6.5,0,0,0-.4-1.3l-.4.2.8,1.1c.1.8.2,1.6,1.3,1.7,5,.5,5.3,1,2.7,5.3-.9.1-2.4-.4-2.4.9a2.6,2.6,0,0,0,2.5,2.5c1.2-.1.8-1.5.9-2.4,2.3,0,3.6,1.6,5,3s1.7,4.9.2,8.6l2.5-2c1-.7,6.4,2.3,5.7,3.2-2,2.5-1.2,6.1-3.5,8.5-1.5-.7-.5-3.6-2.9-3.3-.3-.8.6-2.1-.9-2.2s-.9.9-1,1.4,1.1,1,1.9.8v5c-4.1.6-4.1-2-4-4.9s.7-6.4-3.7-7.6c-.8,4.8.4,9.1,1.6,13.2.5,1.6.5,2.2-.9,2.4s-2.8,3.8-4-.1l.2-.4-.2.4-5,1c-2.2-.8-1.7-3-2.4-4.5s-1.1-1.6-1.9-.9-.6,1.7.3,2.4v1h-2c-1.9-2-3.7-4.3-7-4v-1c-2.5-3.2-4.6-6.9-9.5-6.6.3-2.1,3.6-1.6,2.8-2.3s-1.7-4-3.6-4.7-1.6,1.6-2.3,2.5c-2,2.8-4.7,2.1-6.1,0s-3.6-1.4-5.3.1a2,2,0,0,1-1-2c1-.7,1-1.3,0-2a4.9,4.9,0,0,0-4.3-3.1l.5-3.9a5.2,5.2,0,0,1,4.4,1.5c.8.8,1.9.4,2.6-.5s.7-1.3,0-1.6c-5.6-2.8.7-2.9,1.1-4.8C134.3,439.1,136.4,434.6,133.9,433.6ZM145,447c-6,1.7-6.1,1.8-2.5,6.9.3-2.7,4.8-3.3,2.5-6.9.7-.1,1.6-.1,1.5-1.2a.5.5,0,0,0-.3-.3C145.1,445.4,145.1,446.3,145,447Zm25.9-25.3c-.1-.7-.2-1.2-.9-.9s-.6.5-.6.7a6,6,0,0,0,.6,1.1Zm-21.3,27c-.3-.1-.6-.4-.8-.3a.8.8,0,0,0-.3.8c0,.2.5.4.7.3S149.5,449,149.6,448.7Zm24.8-14.2h-.8l.4.2ZM158.8,458l-.3-.4a.8.8,0,0,0-.2.4c0,.1.1.2.2.4Z" fill="#db880b"/><path d="M450.8,257.9c1.9-2.4,4.6-4.4,4.2-8a134.9,134.9,0,0,1,35.3,4.2c16.7,4.3,29.8,13.9,39.9,27.7-14-2.3-28.1.9-42.2.2s-29.5,1.2-44,3.9c-.2-2.5.2-4.5,3.2-5.2,1.2-.2,3.5-.8,1.9-2.9s.1-5.3,1.9-7.3S454.1,261.5,450.8,257.9Z" fill="#ebc141"/><path d="M499,546c.9-2.7-3.8-3.2-2.4-6.1-.4-.1-.9-.5-1.2-.4a2.1,2.1,0,0,0-1.2,2.5c.4,1.6.7,3.5-1.6,2.9-4.8-1.3-10.1-1.6-13.5-6.2-1.1-1.6-1.6-3.9.6-3.8s4.4-1.2,5.7-3.6a2.8,2.8,0,0,1,3.5-1.2c4.3,1.5,7-1.2,10-3.4,5.3-3.8,11.8-5.2,17.7-8,2.5-1.2,5.5-1.7,5.4-5.4,0-1.8,1.2-1.9,2.6-2.4s5.8-1.4,6.9-5.2,7.6-4.1,10.3-2.4c4.7,3,10.1,4.3,15.1,6.6a1.9,1.9,0,0,0,2.1-.9l1.9.3-.3,1.6c-3.2,1.3-3.3,3.5-1.6,6.1-.4,1.3-.7,2.7-1,4s-2.3-.2-3,1c-2.8-.5-1.8-2.7-2-4.4s-.4-3.1-2.2-1.8-3.2,7.5-8.6,5.3c-.1.5,0,1.1-.3,1.4-2.7,3.7-3.8,8.9-9.5,9.6a1.6,1.6,0,0,0-1.3,1.9c.1,3.9-3,5.1-5.7,5.8s-2.5-3.3-4.8-4.5c-.5,1.3-1.6,2.7-1.3,3.7,1.2,4.8-3.3,6-5.2,5.5C508.7,543.3,504.1,546.3,499,546Zm-4.3-13.6c-.1.3-.4.6-.3.8s.5.3.8.4.4-.6.3-.8S495,532.5,494.7,532.4Z" fill="#db880b"/><path d="M204,535h7c2.1,0,3,.2,2.1,3.1s3.8,5,5.7,7.4,3,2.8,5.3,2c.7-.3,1.5-.2,1.5.5,0,7.2,5.5,5.6,9.8,6.6a16.1,16.1,0,0,1,5.9,3.2c4.9,4.2,11.2,1.2,16.4,3.7.4.2,2.7-3,5.7-2.2,1.2.3-.9-2.6.4-3.8,4.9,5.3,11.5,5.9,18.5,1.5,1.6-1,2.8-2.5,4.7-.7s1.8.2,2.8-.1c6.2-1.9,11.9-4.2,17.2-8.8s6.3-8.1,9.1-12.5a10.3,10.3,0,0,0,.9-9.9c8.3,1.1,16.4,3.5,24.8,4h.5a21.2,21.2,0,0,1,.6,9c-2.4-.6-3.7,2-5.9,2,2.1-7.4.6-7.4-6-5.7-4.2,1.1-7.9,4.3-10.7,7.6-5.8,6.6-10.7,13.6-19.5,17.4a86.6,86.6,0,0,1-15.7,4.9c-7.4,1.6-14.8-.5-22.1.8l-.4-.2.4.2c-.1,2-.5,4.4-2.9,1.8s-3.4-1.3-5.1-.2-1.9,1.6-3.1,1.3c-7.6-1.5-15.8-.5-22-6.7-1.4-1.4-2.7.3-3.9.9s-.6,1.7.1,2.5,1.9,1.9,1.9,3.4c-2.7.6-4.4-1.1-6-2.8A71.8,71.8,0,0,1,204,535Zm20.6,24.7a2.6,2.6,0,0,0-1.8-2,2.1,2.1,0,0,0-2.3,1.9c-.3,1.5,1,1.4,1.9,1.4S224.5,561.1,224.6,559.7Z" fill="#dc8b14"/><path d="M290,299.9c-5.7-4.3-7.4-11.9-13.2-16.3-1.9-1.5-2.8-4.4-4.2-6.6s-1.4-2.4-3.1-1.6-1.6,2-1.4,3.4,1.5,3-.6,5.7c-.6-6.9-5-11.7-4.5-18,.1-1.9.1-4-2.3-4.3s-3.6-3-3.8-5.5l11.9-4.9a3.2,3.2,0,0,0,3.1,2.3,14.2,14.2,0,0,0,3.6,3.3c9.2,6.6,17.9,13.8,23.9,23.6,2.5,4.1,4.5,8.2,1.7,13l-.2,1.9h0C296.9,296.3,294.1,299.8,290,299.9Z" fill="#ecc348"/><path d="M271.9,254.1a3.2,3.2,0,0,1-3.1-2.3,3.7,3.7,0,0,0,.5-1.1,147.2,147.2,0,0,0,27.8-7.9l4.9.2c5.8,3.3,11,7.1,15.2,12.4,8.5,10.5,20.3,16.3,31.8,22.6l-11.8,8.1a3.4,3.4,0,0,1-2.2-3c-.1-1.6-.8-3.3-2.4-3.4s-2.4,1.5-2.6,3.1-3,2.3-4.6,2.7-2.2-1.4-2.5-2.9-1-2.1-1.2-3.2c-.4-2.7-1.1-4.3-4.2-2.7-1.4.6-3.5-.3-3-1.5s-.6-2.7-1.5-4c-3.3-4.6-8.8-7-11.5-11.6s-4.4-5.8-9.2-5.9c-2.5-.1-4.9-.7-7.3.3h0c-.3-1.5.7-3.2-1.1-4.7A5.2,5.2,0,0,0,282,254C278.6,252.5,275.2,250.7,271.9,254.1Zm41.8,10.8c-.8-1.2-1.8-1-2.9-.5C311.7,265.1,312.5,265.7,313.7,264.9Zm-7-5.4a9.5,9.5,0,0,0-1.3-1.1c-.2-.1-.6.2-.9.3s.3.9.6,1S305.9,259.7,306.7,259.5Z" fill="#d57c0f"/><path d="M141.9,514.4c1.9-4.8,6.3-6.2,10.6-6.9,11-1.9,23.3,1.2,24.4,13.5-2.8,3.1-4.7,6.7-8.1,9.4s-9.4.9-13.8,2.6h-1a11.9,11.9,0,0,0-7-5C142.8,524.4,143.2,519.1,141.9,514.4Z" fill="#dd901e"/><path d="M188,469v-5h0c2.4-.3,1.4,2.6,2.9,3.3,2.3-2.4,1.5-6,3.5-8.5.7-.9-4.7-3.9-5.7-3.2l-2.5,2c1.5-3.7-.3-6-.2-8.6,1.4-5.4,0-9.2-4-11v-6c2.6-4.2,1.7-7-2.3-8.8a4.6,4.6,0,0,1-2.6-5.4c.8-3.2,2.1.2,3.2,0s3.9-1.6,3.4-3.9-.4-4.3-2.3-6.3c-.7,6.7-2.2-1.2-3.4.4,2.9-2.4,3.6-5.7,4-9.2.3-2,.5-4.2,2-5.8.8,4.7-.3,10.1,3.8,14l.3,3.5c-4.1,2.4-2.8,6.6-2.5,9.9,1.2,14.3,6,26.6,19.8,33.4-2.2,2.4.4,4.7,1,5.9,2.2,4-.3,3.2-2.4,3.3-3.4-3.6-5.2-2.1-6,2l-.2.4.2-.4c1.6,1.7,3.2,3.4,3,6v1l-1,1v3c-1.5-.4-3.9-4.3-4,1C194.1,473.5,193.6,468.7,188,469Z" fill="#dd901e"/><path d="M204,535a71.8,71.8,0,0,0,18,30.2c1.6,1.7,3.3,3.4,6,2.8-.4,3.6,3.3,4.5,4.7,4.4,4-.2,6.8,1.8,10.1,3.2s5.7,2.9,9,2.3c5.4-1.1,10.8.5,16.2.1-1.9,1.5-3.6,3.1-3,5.8-11.2.8-22.2.4-32.7-4.3-18.4-8.4-27.5-23.6-31.3-42.7-.5-2.2-1.5-4.4-.9-6.8C203.1,530.3,201.2,534.5,204,535Z" fill="#d57f16"/><path d="M338.9,523.1a26.3,26.3,0,0,0,18.2-2.6,6.9,6.9,0,0,1,4.9-.3c14.4,3.2,28.9,2.1,43.4.9,3.9-.3,7.6.7,11.4.9,9.3.4,18.5-.1,27.5-2.9l-.3,2.1c-6,.9-12.1,2.5-18.1,2.5-9.4,0-18.3,3.1-27.6,3.7-5.7.4-11.5,1.5-17.3,1.5-11,0-22.1,2.3-33.2.2a25.3,25.3,0,0,0-5.5-.1h-.5C341.9,526.5,339.9,525.1,338.9,523.1Z" fill="#e1c0b2"/><path d="M129.7,447.9A4.9,4.9,0,0,1,134,451v2a2,2,0,0,0,1,2c.4,5.8,3.5,11.2,7,12v2c-1.7,2.1,0,3.6,1.3,4.4,3.1,2.1,5.4,5.2,8.8,6.9s3.2,3.4,5.9,1.7a8.7,8.7,0,0,0,5.2,4.5c3.8,1.4,7.2,3.4,11.4,4.2s6.6.3,8.4,3.9c.3.7,1.5.1,2-.6h0c3.1.3,1.8,5.9,6,5l6,9c-.4,1.1-.7,2.2-1.1,3.2-7.1-8.8-17.1-12.7-27.3-16.2s-21.2-8.6-28.9-17.7S128.8,459.2,129.7,447.9Z" fill="#d57f16"/><path d="M384.4,277.4c2.8-3.8,7.4-5.4,10.6-8.8,5.8-6,12-11.7,16.4-19,1.1-1.8,3-3,4.6-4.5s3.1-1.6,5-1.2c3.9,5.1-2.1,7.3-3.9,8.6-7.1,4.5-8.1,10.8-8.4,18.2-.2,3.3,1.4,8.7-4.3,10.2-.3.1-.3,1.2-.4,1.9C397.8,279.7,391,279,384.4,277.4Z" fill="#d37806"/><path d="M265,583.8c-.6-2.7,1.1-4.3,3-5.8h2a151.6,151.6,0,0,0,37.9-10.6c4.6-1.9,9.1-4.1,12.1-8.4a2,2,0,0,1,2-1c2.9-1.1,5.7-2.3,6-6,2.1-.5,1.6-3,3-4a8.9,8.9,0,0,0,2.6-1.2c3.1-3,5.2-2,6.6,1.6-1.4,5-5.1,8.1-9.2,10.6a203.3,203.3,0,0,1-31.3,14.8c-7.1,2.7-14,6.2-21.6,7.7Z" fill="#cf7310"/><path d="M489,563h2c.7,1.4,1.9,3.2,3.2,2.7,4.8-1.6,9.7.4,14.5-.7,1.2-.3,2.2-.5,2.3-2l5-1c.5,1,.9,2.1,1.4,3.2,3.2-3.5,7.8-3.8,11.8-5.1,1.9-.6,2.9-1.1,2.8-3.1l3-1a1.8,1.8,0,0,0,2-2,2,2,0,0,1,2-1c5.1-2.7,7.5-7.8,11-12,1.7-2.6,1.9-6.3,5.9-7-3.4,15.9-13.7,25.8-28.5,31.2-18.7,6.8-36.9,5.1-54.6-4.1,4-1.6,7.3.6,10.8,1.8C485.4,563.4,487.1,565,489,563Z" fill="#cf7310"/><path d="M444,521.2l.3-2.1a14,14,0,0,1,8.5-2,60.1,60.1,0,0,0,26.9-4.1c15-5.9,30.6-10.2,44.3-19.1,0,1.5-.9,2.3-2,3.2-13.7,11.4-29.3,18.9-46.9,21.6-10.1,1.5-20.4,1.8-30.7,2.6Z" fill="#cf7310"/><path d="M197.9,327c2.1,2.1.7,4.7,1.1,7-2.4.3-1.9,2.2-2,3.8s-.8,5.7-.6,8.3c.3,5.7-.5,11.9,3.5,16.9-.2,1-.5,2.1-.8,3.1-1.3,7.7,1.3,15.2.8,22.9-1.8-3.1-2-6.6-3-9.9s.4-5.3-2.9-6.1c-.1-2.5-.3-4.9-.4-7.4s-.4-7.6-.9-11.4C191.2,344.5,193.6,335.6,197.9,327Z" fill="#dd901e"/><path d="M141.9,514.4c1.3,4.7.9,10,5.1,13.6.5,4.2,4,4.2,7,5h1c2.4,3.5,5.8,2.3,9,2.1,4.9-.3,7.9-4.4,12-6.1-3.2,10.1-9.6,13.6-19.5,10.4s-16.9-11.3-16.6-20.2C140,517.3,140.2,515.5,141.9,514.4Z" fill="#cf7310"/><path d="M187.8,407c-4.1-3.9-3-9.3-3.8-14h0a2.1,2.1,0,0,0,1-2.1,27.6,27.6,0,0,1,.8-2.7c3.3-2,5.2-5.2,7.1-8.4A57.3,57.3,0,0,0,198,393v.9A30.6,30.6,0,0,0,187.8,407Z" fill="#d57f16"/><path d="M560.9,509.3,559,509c.5-11,5.3-19.8,13.6-26.9,3.5-3,7.7-5.2,10.4-9.1,2-.9,4-1.8,5-4l3-1a2.1,2.1,0,0,0,1.2,2.1c-2.7,3.4-6.3,5.9-9.8,8.4C571.5,486.2,564.9,496.9,560.9,509.3Z" fill="#d57c0f"/><path d="M178,408c1.2-1.6,2.7,6.3,3.4-.4,1.9,2,1.8,4.3,2.3,6.3s-1.1,3.6-3.4,3.9-2.4-3.2-3.2,0a4.6,4.6,0,0,0,2.6,5.4c4,1.8,4.9,4.6,2.3,8.8-.9-.5-1.8-1.7-2.5-1.5-4,.8-3.4-2.2-4.8-4.4-3.2-4.9.5-11.1-4-15.3.8-1.1,2.1-.8,3.2-1s.1,1.9,1.2,1.7.8-1.5.9-2.4Z" fill="#dc8b14"/><path d="M545,302c-1.9-3.7-5.9-6-6.7-10.4-.3-1.3-2.1-2.5,0-3.8,7.7,8.3,14,17.2,13.7,29.2-3.4-.5-6-3.6-9.8-3.1l-1.3-1.5C547.8,307.6,547.8,307.6,545,302Z" fill="#d57f16"/><path d="M489,563c-1.9,2-3.6.4-5.4-.1-3.5-1.2-6.8-3.4-10.8-1.8a.8.8,0,0,1-.8-.3c-.2-3.9-2.9-3.8-5.7-3.6A43.9,43.9,0,0,1,450.9,542c2.3-.4,3.8,1,5.1,2.5,4.7,5.6,11.5,8.3,17.2,12.6,1.7,1.2,3.8.9,5.8.9h1c.2,2.5,2.3,1.6,3.7,2.1S488,560.7,489,563Z" fill="#d57c0f"/><path d="M192.9,379.8c-1.9,3.2-3.8,6.4-7.1,8.4-.1-8.4,3.4-15.7,7.8-22.6.1,2.5.3,4.9.4,7.4S193.2,377.5,192.9,379.8Z" fill="#ecc348"/><path d="M555.9,534c-4,.7-4.2,4.4-5.9,7l-2-1v-2c1.2-.7,1-1.9,1-3,1.5-.1,1.7-1.1,2.1-2.3,1.2-3.6,2.6-7.1,3.9-10.7.7-1.2,1.9-1,3-1C558.2,525.5,556.8,529.7,555.9,534Z" fill="#d57c0f"/><path d="M176,529c-4.1,1.7-7.1,5.8-12,6.1-3.2.2-6.6,1.4-9-2.1,4.4-1.7,9.4.7,13.8-2.6s5.3-6.3,8.1-9.4C177,523.7,177.7,526.5,176,529Z" fill="#d57f16"/><path d="M297.1,242.8a147.2,147.2,0,0,1-27.8,7.9c7.1-3.9,14.4-7,22.5-8.1C293.6,242.3,295.4,241.9,297.1,242.8Z" fill="#dd901e"/><path d="M340.2,548.4c-1.4-3.6-3.5-4.6-6.6-1.6A8.9,8.9,0,0,1,331,548c.8-3.6,3.3-5.8,6-8,2.2,0,3.5-2.6,5.9-2A16.6,16.6,0,0,1,340.2,548.4Z" fill="#d57f16"/><path d="M133.9,433.6c2.5,1,.4,5.5,4.4,5-.4,1.9-6.7,2-1.1,4.8.7.3.5,1.1,0,1.6s-1.8,1.3-2.6.5a5.2,5.2,0,0,0-4.4-1.5A19.9,19.9,0,0,1,133.9,433.6Z" fill="#dc8b14"/><path d="M198.9,520c2.6-2,4.2.9,6.2,1.4.2,0,.5.9.3,1.2s-1.1,1.1-1.9,1.3-2.6-1.9-4.4-1.9Z" fill="#dc8b14"/><path d="M559,517c-1.7-2.6-1.6-4.8,1.6-6.1C560,512.9,560.2,515.2,559,517Z" fill="#d57c0f"/><path d="M466.3,557.2c2.8-.2,5.5-.3,5.7,3.6A14.9,14.9,0,0,1,466.3,557.2Z" fill="#cf7310"/><path d="M176,409.1c-.1.9.3,2.1-.9,2.4s-1-1-1.2-1.7A2.1,2.1,0,0,1,176,409.1Z" fill="#db880b"/><path d="M185,390.9a2.1,2.1,0,0,1-1,2.1A2.3,2.3,0,0,1,185,390.9Z" fill="#dd901e"/><path d="M199.7,321.6l-.6,1.4Z" fill="#ebc141"/><path d="M531.2,282.7c-.7.1-1-.2-1-.9Z" fill="#ebc141"/><path d="M168.5,412.3v.9c0-.3-.1-.6-.1-.9Z" fill="#dc8b14"/><path d="M453,408c-44.7,2.2-89.4,4.9-134.2,4h-.9c0-4.3-.1-8.6,0-12.9s-.9-11.4,1.2-16.8c5.8-15.1,17.4-24.7,30.9-32.4,2.9,3.8,9.6-1.3,11.6,4.9h.5c5.2,1.8,12.6-1.3,14.8,6.9,5.3-.5,7.9,4.3,11.9,6.4s8.6,1.5,10,6.9c.5,1.8,1.6,6.1,4.9,1.5a2.2,2.2,0,0,1,3.2.2c2.3,5.2,7.8,4.4,11.9,6.4s5.7,4.4,9.3,1.1a2.4,2.4,0,0,1,2.3.2c3.7,3.7,9,2,13.5,4.1,6.5,3.2,8.1,3.8,6.7,11.2-.1.3,0,.8.2.9C454.5,402.2,452.5,405.4,453,408Z" fill="#ebc141"/><path d="M517.9,421.1,536,409.5c-.4,7.3-3,12.6-7.8,16.8-8.5,7.4-19,11.6-29.3,15.7-17.2,6.9-35.3,9.2-53.7,9.2-14-.1-27.8,2.8-41.7,3.4-12.1.5-24.2.9-36.3.6-14.6-.2-29.2-.1-43.8-.1h-.6c.9-3.7-1.2-7.3-.8-11,8.8-.7,17.5,1.4,26.3.1,6.2-1,12.5-3.1,18.7-1.9a92.1,92.1,0,0,0,32.3-.6c19.7-3.4,39.6-2.5,59.4-4.8,9.4-1.1,18.9.3,28.2-1.8C498.2,432.4,508.9,428.6,517.9,421.1Z" fill="#ecc348"/><path d="M509,472c-6.2,5.4-13.9,8.2-21.4,11.5-14.6,6.4-30.3,9-46.1,9.3-18.4.4-36.3,3.7-54.5,5.7a271.2,271.2,0,0,1-53.3.8,175,175,0,0,1-17.7-2.4c3.6-2.8,7.1-5.6,9.1-9.8l.8-.2c9.3.8,18.6-.3,27.8-1s21.2-1.1,31.7-2.2c17.3-1.9,34.6-3.6,52-3.6,13.5,0,26.9-1.4,40.3-1.2,4.4,0,8.8-1.3,13.3-1.7C497.4,476.6,502.8,473,509,472Z" fill="#ecc54e"/><path d="M453,408c-.5-2.6,1.5-5.8-2.2-7.4-.2-.1-.3-.6-.2-.9,1.4-7.4-.2-8-6.7-11.2-4.5-2.1-9.8-.4-13.5-4.1a2.4,2.4,0,0,0-2.3-.2c-3.6,3.3-6.5.3-9.3-1.1s-9.6-1.2-11.9-6.4a2.2,2.2,0,0,0-3.2-.2c-3.3,4.6-4.4.3-4.9-1.5-1.4-5.4-6.5-5-10-6.9s-6.6-6.9-11.9-6.4c-2.2-8.2-9.6-5.1-14.8-6.9h-.5c-2-6.2-8.7-1.1-11.6-4.9l1-1c9.9-5.2,20.3-5.6,31-3.7,4.6,2.5,9.9,3.3,14,6.7.4,1.6-1.2,3.2.2,4.8,3,3.3,5.3,7.3,9.6,9.1s9,7.2,15.2,8.6c3,.7,6-.5,8.4.8,7.3,3.8,14.2.3,21.3-.3,1.3-.2,3.2-.7,3.1-2.6s-1.6-2.8-3.4-3.2-3.9.8-4.4-2l9-1.2c.6,3,3.4,2.4,5.4,3.2s5.2.3,5.6,3.8c-3.2,1.5-6.2,3.1-8.3,6.1-4.9,6.6-3.4,13.7,3.3,16.8l1,.2c.4.9,1.2,1,2,1.1,3,2,6.8,1.3,10,2.8h13c1,2.3-4.9,2.4-1.6,5.4C474.8,408.1,463.9,408.2,453,408Z" fill="#ecc348"/><path d="M517.9,421.1c-9,7.5-19.7,11.3-31,13.9-9.3,2.1-18.8.7-28.2,1.8-19.8,2.3-39.7,1.4-59.4,4.8a92.1,92.1,0,0,1-32.3.6c-6.2-1.2-12.5.9-18.7,1.9-8.8,1.3-17.5-.8-26.3-.1,0-.3-.1-.7-.1-1-.4-2.4-1.2-4.8-.7-7.3,16.9.3,33.8-.5,50.7-1.6q6.8-.5,13.5-.3c15.8.1,31.5-.8,47.3.2,4.2.2,8.1-1,12-2.5a35.2,35.2,0,0,1,16.3-1.8c18.7,1.8,36.5-.6,53.6-8.1A5.5,5.5,0,0,1,517.9,421.1Z" fill="#d19435"/><path d="M323.4,455.1c.8,8.6,3.6,17,3.7,25.8l-.4.2c-13.2-.5-26.5.6-39.7-1.1,0-8.7.1-17.4.1-26h.9c6,.1,12.1-.4,18,.9h17.4Z" fill="#de9e18"/><path d="M509,472c-6.2,1-11.6,4.6-18,5.2-4.5.4-8.9,1.7-13.3,1.7-13.4-.2-26.8,1.2-40.3,1.2-17.4,0-34.7,1.7-52,3.6-10.5,1.1-21.1,1.4-31.7,2.2s-18.5,1.8-27.8,1c.3-1.9.6-3.9.8-5.8l.4-.2L378,480a3.8,3.8,0,0,0,1.5-.1,50.9,50.9,0,0,1,23.3-1.3c9.2,1.6,18.4-1.8,27.7-2.2,2.8-.2,5.7-.7,8.5-.4a120.8,120.8,0,0,0,53.1-5.5,57.1,57.1,0,0,0,21.6-12.6c5.6-5.2,12-9.4,17.2-15.1.7,2.2-1,3.6-1.9,5.2l-1.1,1.9A6.7,6.7,0,0,0,525,453c-4.8,5.8-8.7,12.5-15.1,16.8-.6.4-.6,1.5-.9,2.2Z" fill="#d19435"/><path d="M317.9,412h.9l2.1,23a318,318,0,0,1-33.8-1v-.9a226.3,226.3,0,0,0-1-23.2c7.1-.7,13.9,1.4,20.9,1.1A39.9,39.9,0,0,1,317.9,412Z" fill="#de9e18"/><path d="M276,490.6c-7.5-.8-15.1-2-22.6-2.4-12.1-.6-21.9-5.9-30.6-13.8l-3.5-2.7a27.4,27.4,0,0,0-.5-2.8l4.6,1.8c9,3.8,18.3,6.7,27.9,7.1,12.5.6,24.5,3.7,36.6,6.3,1.1,2.9,2.2,5.7,3.2,8.6Z" fill="#ecc54e"/><path d="M338.9,523.1c1,2,3,3.4,2.9,5.9-8.4-.5-16.5-2.9-24.8-4-8.4-3.6-17.4-4.5-26.3-6-12.1-1.9-24.3-2.6-36.3-4.3-9.5-1.3-18.2-4.9-24.7-12.5A18.6,18.6,0,0,0,227,500c-1.4-3.8-4.7-6.7-5-11l2,2.1c7,7.3,12.9,15.9,23.5,18.5a106.5,106.5,0,0,0,36,3.2h.4c3.5,3.8,8.4,2.4,12.6,3.3,13.7,3,27.4,5.8,41.5,6.9Z" fill="#cf7310"/><path d="M283.5,512.8a106.5,106.5,0,0,1-36-3.2C236.9,507,231,498.4,224,491.1l-2-2.1c-.1-1.7-1.3-3-1.9-4.5-2.5-5.5-6.1-11-3.1-17.5l1.8,1.9a27.4,27.4,0,0,1,.5,2.8c4.8,14,14.4,23.4,27.7,29.6C258.7,506.7,271.2,509.3,283.5,512.8Z" fill="#de9e18"/><path d="M529,448c.9-1.6,2.6-3,1.9-5.2v.2c3.2-.4,4.2-2.4,4.1-5.3l.6-.7c5.2-1.7,11.6-10.4,12.1-16.5a2.6,2.6,0,0,0-1.4-2.4c.3-1.1.6-2.2,1-3.9,3.4,3.9,4.3,7.8,3,12.2-3.7,13.1-12.1,23-22.1,31.7-2.3-.9.2-4.8-3.2-5.1a6.7,6.7,0,0,1,2.9-3.1c2,.8-.5,2.8,1.1,3.8a4,4,0,0,0,2.7-4.5C531.6,447.7,530,448.1,529,448Z" fill="#ecc348"/><path d="M287.1,434a318,318,0,0,0,33.8,1l.3.7c-.5,2.5.3,4.9.7,7.3-5.4.6-10.6-1.1-15.9-1s-12.3-2.2-18.6-2a3,3,0,0,0-.4-1C287.1,437.3,287.1,435.7,287.1,434Z" fill="#cf7310"/><path d="M325.1,487.1c-2,4.2-5.5,7-9.1,9.8l-1.7.2L303,495c1.4-1.9.4-3.5-.6-5.1s-1.2-4.2,2.4-3.9Z" fill="#d57f16"/><path d="M338,523c-14.1-1.1-27.8-3.9-41.5-6.9-4.2-.9-9.1.5-12.6-3.3,15.5,2.2,31.1,4.4,46.5,6.8C333.2,520,335.9,520.8,338,523Z" fill="#de9e18"/><path d="M525,453c3.4.3.9,4.2,3.2,5.1-5.8,5.5-11.7,10.8-19.2,13.9.3-.7.3-1.8.9-2.2C516.3,465.5,520.2,458.8,525,453Z" fill="#ecc54e"/><path d="M303,495l11.3,2.1c-8.2,4.2-14.6,3.3-21.7-3.2h.3l.2.2C296.5,493.8,299.6,495.7,303,495Z" fill="#de9e18"/><path d="M555.9,461.6c.2,1.5.2,3.2-.9,4.2-3.7,3.7-5.9,9.1-11.2,11.2C544.5,469.2,551.1,466.2,555.9,461.6Z" fill="#cf7310"/><path d="M546.3,418.1a2.6,2.6,0,0,1,1.4,2.4c-.5,6.1-6.9,14.8-12.1,16.5C539.6,430.9,544.1,425.2,546.3,418.1Z" fill="#d19435"/><path d="M276,490.6l15.1,2.1,2,1.3-.2-.2h-.3C286.8,494.1,281.1,493.7,276,490.6Z" fill="#fefefe"/><path d="M535,437.7c.1,2.9-.9,4.9-4.1,5.3C531.5,440.6,533.5,439.4,535,437.7Z" fill="#d19435"/><path d="M556.9,459.7l-.8,1.3Z" fill="#cf7310"/><path d="M545,302c2.8,5.6,2.8,5.6-4.1,10.4L532,312c-.1-1.5-1.1-1.7-2.4-2-11.1-2.6-22.5-2.9-33.7-4.6-2-.3-5.4-.7-6.9,2.4-13.3-.4-26.4.8-39,5.4-5.6,1.5-10.3,4.6-15.1,7.8l-.9,1-2.1,5c-3-.7-2.3-3.4-1.7-4.9,2.4-6.7,6.9-11.6,13.4-15.2s15.8-4.7,23.4-7.9a27,27,0,0,0,6.9-.7c6.3-1.8,12.8-1.6,19.2-1.2,14.3.9,28.5,3.3,42.9,2.9A21.5,21.5,0,0,0,545,302Z" fill="#cf7310"/><path d="M532,312l8.9.4,1.3,1.5c-3.9,6.4-10.8,7-17,6.9-9.4-.2-19-.4-28.3-1.6s-16.7-.9-25-2.1c-5.5-.9-10.6,2.5-16.1,2.3-1.5-.1-2.2,1.8-3.1,3-2.3,3-5.3,1.5-6.9-.1s.7-2.9,2.1-3.8a5.3,5.3,0,0,0,2.1-5.3c12.6-4.6,25.7-5.8,39-5.4l7.3.8C508.2,310.1,519.9,313,532,312Z" fill="#ecc348"/><path d="M487,399.9H474c2-4.9,5.9-9.6,1-14.9,5.2-2.4,5.2-2.6.4-6.4-2.2-1.7-4.7-3.3-4.4-6.7,7.7-2.8,15-2,21,3.7,7.6,7.1,6,17.7-3,23Z" fill="#d37806"/><path d="M455,365.9l-9,1.2c-6.8-.3-13.8.7-20-3.2-.2-.6-.2-1.5-.6-1.8-4-2.2-6.6-6.6-11.6-7.1-2-.3-3-1.5-2.6-3.5a1.7,1.7,0,0,1,2.6-1.3c4.6,2.9,10.3,1.6,14.8,3.5,6.7,2.8,13.1,5.3,20.4,3.3,4.5.5,10.2-1.9,12,5Z" fill="#cf7310"/><path d="M471,371.9c-.3,3.4,2.2,5,4.4,6.7,4.8,3.8,4.8,4-.4,6.4-11.9-3.2-15,2.1-14,10.8-6.7-3.1-8.2-10.2-3.3-16.8,2.1-3,5.1-4.6,8.3-6.1Z" fill="#d57c0f"/><path d="M434,322l.9-1Z" fill="#d57c0f"/><path d="M185,494c-.5.7-1.7,1.3-2,.6-1.8-3.6-5.7-3.4-8.4-3.9s-7.6-2.8-11.4-4.2A8.7,8.7,0,0,1,158,482c-2.8-3.5,1.4-4.9,2.5-7s3.9,0,5.9.5c1.1-1.8-.6-3-.4-4.5h2c.7-.3.7-.7,0-1s-1.4-1.6-.3-2.4,1.5.1,1.9.9.2,3.7,2.4,4.5a6.3,6.3,0,0,1-1.5,4.6c-1.2,1.2-.9,2.2.2,2.9s2,.5,3.1-.4,4.5-1,5.4,1.9c.4,1.2.2,3,2.3,3.6-.3-2.8.4-5.3.9-8.1,4,2.9,1.1,6,.9,9.2,2.5-.4,4.5-.5,3.8-3.7a17.9,17.9,0,0,1-.1-4,3,3,0,0,1,2.7-3.1c2.2-.3,1.2,1.9,1.6,2.9,1.4,2.9-1.9,6.5,1.5,9.4,1.1-2.8,2.3-5.8,6.2-3.2-.3,1.7-.7,3.3-1,5-3.1.2-2.3,7.9-8,2.8l1,6.2c-4.2.9-2.9-4.7-6-5l-.4-.2Z" fill="#dd901e"/><path d="M217,467c-3,6.5.6,12,3.1,17.5.6,1.5,1.8,2.8,1.9,4.5.3,4.3,3.6,7.2,5,11-2.8-.3-5.6-.5-8.3-.9s-4-1.9-1.2-4,1.6-3.2-.6-3.8-3.7-3.3-5.1-5.7a54.7,54.7,0,0,1-3.3-6.9c-1.6-3.8-5.4-2.4-8.5-2.7v-3l1-1v-1c6.2-.7,3.6-4.8,3-8,2.1-.1,4.6.7,2.4-3.3-.6-1.2-3.2-3.5-1-5.9,4.7,1.4,7,5.7,10.5,8.5C216.3,463.9,216.6,465.4,217,467Z" fill="#dc8b14"/><path d="M199,485c-3.9-2.6-5.1.4-6.2,3.2-3.4-2.9-.1-6.5-1.5-9.4-.4-1,.6-3.2-1.6-2.9A3,3,0,0,0,187,479a17.9,17.9,0,0,0,.1,4c.7,3.2-1.3,3.3-3.8,3.7.2-3.2,3.1-6.3-.9-9.2-.5,2.8-1.2,5.3-.9,8.1-2.1-.6-1.9-2.4-2.3-3.6-.9-2.9-3.1-3.8-5.4-1.9s-2.1,1.1-3.1.4-1.4-1.7-.2-2.9A6.3,6.3,0,0,0,172,473l5-1h0c1.2,3.9,2.7.2,4,.1s1.4-.8.9-2.4c-1.2-4.1-2.4-8.4-1.6-13.2,4.4,1.2,3.7,4.6,3.7,7.6s-.1,5.5,4,4.9c5.6-.3,6.1,4.5,8,8a7.1,7.1,0,0,0,4.1,3.3,3.3,3.3,0,0,1,1.7,3.4C201.5,485.3,200.1,484.9,199,485Z" fill="#dc8b14"/><path d="M191,499l-1-6.2c5.7,5.1,4.9-2.6,8-2.8,1.7,2.6,5.1,4.5,3.6,8.5-.1.3-.1.8.1.9s4.1-1,3.1,2-2.6,4.9-3.7,7.5-2.5-1.4-4.1-.9Z" fill="#dc8b14"/><path d="M205.5,527.6c1.3.6,2.9,1.2,3.4,2.9s0,2.1-1,1.6a13.1,13.1,0,0,1-4.1-3C203.5,528.8,204.6,527.9,205.5,527.6Z" fill="#dc8b14"/><path d="M206,507.5c-.2.6.4,1.8-.9,1.7a1.7,1.7,0,0,1-1.3-1.3c-.2-1.1.9-1.7,1.6-1.9S205.9,506.9,206,507.5Z" fill="#dc8b14"/><path d="M203.2,488.9c-1.4-.1-1.9-.4-2-1.2s.3-1.2,1.1-.9a2.5,2.5,0,0,1,1.2,1.3C203.6,488.3,203.2,488.9,203.2,488.9Z" fill="#dc8b14"/><path d="M225,514.8c-.4.3-.8.7-1.1.7a1.3,1.3,0,0,1-.7-1c-.1-.7.3-1.2,1.1-1S224.7,514.2,225,514.8Z" fill="#dc8b14"/><path d="M214.6,493.7c-.1.3-.2.7-.4.8s-.5-.2-.8-.3.2-.7.4-.8S214.3,493.6,214.6,493.7Z" fill="#dc8b14"/><path d="M211.3,493.2l-.6.5s-.3-.2-.3-.3a2.4,2.4,0,0,1,.2-.8Z" fill="#dc8b14"/><path d="M220.8,516l-.3.4c-.1-.2-.2-.3-.2-.4a.8.8,0,0,1,.2-.4Z" fill="#dc8b14"/><path d="M384.4,277.4c6.6,1.6,13.4,2.3,19.6,5.4,3.6,3.3,8.4,5.9,6.1,12.2-.5,3.2-3.8,4.3-5.1,6.9l-4.9,2.4c-.4-1.9-.7-4.1-3.3-4.2s-6.3-.2-8.9,2.9c-5.6,6.6-12.4,10.9-21.6,11.2-4.5.1-8.9,1.8-13.3,2.8l-6-.9-15-5c-.7-5-3.3-9.8-1.3-15,.3-.7-1-2-1.6-2.9l8.1-7.1L349,278c7.7-5.8,15.9-6.2,24.8-2.7C377.1,276.6,380.8,276.7,384.4,277.4Z" fill="#faf7ca"/><path d="M449,357c-7.3,2-13.7-.5-20.4-3.3-4.5-1.9-10.2-.6-14.8-3.5a1.7,1.7,0,0,0-2.6,1.3c-.4,2,.6,3.2,2.6,3.5,5,.5,7.6,4.9,11.6,7.1.4.3.4,1.2.6,1.8-3.4.1-6.2-1.8-9.3-3-7-2.6-13.2-7.2-20.7-9-4.1-3.4-9.4-4.2-14-6.7.3-3.5-2-5-4.8-5.1-9.4-.2-18.7-2.1-28.2-1.6-.9.1-1.7.1-2-.8-1.2-2.9-3.6-4.2-6.3-5.1-.7-.3-.3-1.2.3-1.6,3.8.9,7.5,2.3,11.4,2.5s7.6.9,10.6-2.3c1.9-.5,3.8-.7,5.7-1.3,6.4-1.9,12.7-4,19.1-6,8.3.5,13.7-5.2,19.9-9.2,1.3-.9,2-2.4.3-3.7l1.9-3c2.9,2,1.4,6,3.8,8.3.2.1-.2,1.2-.4,1.2-5.8.9-5.4,7.4-9.2,10.3-2.2,1.7-2.9,5.2-1.5,8.3s3.6,1.7,5.7,2.2c8.3,2.1,17.1.1,25,3.8,4.7,2.1,9.3,4.6,13.8,7S449.3,354.1,449,357Z" fill="#d57f16"/><path d="M450.8,257.9c3.3,3.6,3.3,9.4.2,12.6s-4.2,4-1.9,7.3-.7,2.7-1.9,2.9c-3,.7-3.4,2.7-3.2,5.2a52.2,52.2,0,0,1-17.6,2.2c-3.5-.1-5.8-1.2-5.7-5.1s2.7-5.6,4.7-8c6.1-7.4,15-10.8,22.6-15.9Z" fill="#ecc348"/><path d="M536,300c-14.4.4-28.6-2-42.9-2.9-6.4-.4-12.9-.6-19.2,1.2a27,27,0,0,1-6.9.7c-.2-5.1,2.5-7.8,7.4-7.5a13.3,13.3,0,0,0,6.6-1.4c5.2-2.3,10.6-.8,15.9-1.1,1-.1,2.2.3,3-.1,7.2-3.5,13.7,2.4,20.7,1.4,5-.7,9.1,2,13.3,4.1C536.2,295.6,537.6,297.3,536,300Z" fill="#d57f16"/><path d="M409.9,308l-1.9,3c-2.8,1.9-5.8,3.8-8.5,5.8s-8.4,3.8-11.7,7.1c-6.4,2-12.7,4.1-19.1,6-1.9.6-3.8.8-5.7,1.3s-5.5.1-8.3-.7c-6.2-1.9-12.5-3.1-18.7-4.6l-12.5-5.1c-3.1-1.2-4.9-3.3-4.6-6.8s-.6-5.5.8-8.1a49.4,49.4,0,0,0,12.3,5.2l15,5c-.9,3.3-3,1.4-4.8,1.1s-3.6-.9-4.7.6.9,2.8,1.9,4.1c4.3,5.8,10.7,5.9,16.9,6,18.2.3,33.9-6.1,47.2-18.4,2.4-2.2,2.7-4.7,1.5-7.6,1.3-2.6,4.6-3.7,5.1-6.9C412.5,299.4,409.2,303.6,409.9,308Z" fill="#ebc141"/><path d="M448,259.1c-7.6,5.1-16.5,8.5-22.6,15.9-2,2.4-4.1,4.7-4.7,8-4.6-.7-6.2-6.5-3.6-11.1,4.7-8.4,12.3-13.5,20.3-18C443.7,250.4,447.5,252.4,448,259.1Z" fill="#cf7310"/><path d="M549,535c0,1.1.2,2.3-1,3-3.3.3-3,2.7-3,5s-4.9,6.1-6,10a2,2,0,0,0-2,1,1.8,1.8,0,0,0-2,2l-3,1-16,5-5,1H491a3.3,3.3,0,0,0-2.2-3c-6-2.9-6.1-3.3-2.4-9.2,2.1-.5,1,3.8,3.3,2.3s4.7-.7,4.4-4.3,2.9-2.5,4.9-2.8l-1.4,2.7c-.8,1.6-3.3,3.1-1.6,5s3.7.5,5.9-.4,6.7-3.8,11.3-2.5c3,.9,5-4.1,8.7-3.2.2-3.4,2.9-2.7,4.8-2.5s4.5-.9,6.5-2.1,2.6-4.6,4-4.8c5.5-1,2.9-3.3.9-5.8C542.6,531.6,545.4,534.8,549,535Z" fill="#dd901e"/><path d="M480,558h-1c-.5-1.2-1.4-2.4.2-3.4s1.1-.2,1.2.1A2.1,2.1,0,0,1,480,558Z" fill="#dd901e"/><path d="M591,468l-3,1c-1.1-2.6,1.1-2.7,2.5-2.8S592,467,591,468Z" fill="#dc8b14"/><path d="M584.6,464.1c.7.2,1.2.6,1.2,1.3s-.4,1.4-1.1,1.2a2.4,2.4,0,0,1-1.3-1.3C583.2,464.6,583.9,464.2,584.6,464.1Z" fill="#dc8b14"/><path d="M587.6,461.7c-.1.3-.2.7-.4.8s-.5-.2-.8-.3.2-.7.4-.8S587.3,461.6,587.6,461.7Z" fill="#dc8b14"/><path d="M299.1,346h.8c.6,5.4-1.1,10.2-3.4,14.8-1.3,2.6-2.7,5-2.9,8-2.7,3.9-1.9,8.9-3.6,13.1-.6-.3-1.5-.5-1.7-.9s1.4-4.2-1.8-4.7-4.7.6-6.3,2.8-6.7,3.1-3.4,7.6c.1.2-.3.9-.6,1.3-2.9,3.3-2.4,10.1-9.4,9.3-.2,0-.5.4-.6.7s-2.7,3.8-3.1,2.4-6.2-1.6-3.7-5.6c.4-.6.4-1.4-.4-1.6s-1.9.1-1.8,1.1c.3,4.6-2.5,2.8-4.5,1.9-1.1,6.9,5.5,6.7,8.3,9.8a85.7,85.7,0,0,1-25.7-7.7c2.2-.8,4.4.1,6.2,1,4.1,2.1,6.8,1.5,8-3.2.3-1,2.1-1.9.4-2.9s-2.5-.2-2.9,1.6-1.3,2.9-2.5,1.2a6.2,6.2,0,0,1-.3-7c1.8-2.6,1.6,2.9,3.5.9s-1.6-4.3,0-6.6a1.4,1.4,0,0,0-.7-2.1c-1.3-.4-1.8.5-2,1.6s0,3.7-1.8,2.5c-4-2.7-6.8,1-9.9,1.6-6.1,1.2-6,2.1-6.2-4.4-.1-2.1-1.1-4.8-2.2-4.5-5.5,1.4-4.8-3.2-5.3-5.5s.3-6.4,3.2-5.8,4.3-3.9,7.5-2.4c.3.2.8-1.1.3-1.6s-5.4-.1-6.6-3.2a4.7,4.7,0,0,0-3,3.5,1.9,1.9,0,0,1-2.5,1.7c-1.3-.2-1.5-1.3-1.5-2.3,0-2.6.8-5.2.3-7.8-.1-.7.9-1.8,1.6-2.3s1.5,0,2,.8c2.8,5.2,3.4,2,4.3-1.1s.8-3.9,3.2-3.7c4.3.3,9.3-1.5,11.8,4,.1.4,1.2.4,1.8.6a29,29,0,0,1,2,3.3c.8,2.1,2.4,2.1,3.2.6s5-4.4,5.8-7.9c.7-1.2,1.6-2.5,3.1-1.3s4.2.7,6.1,1.4c3.9,1.5,7.2,4.9,11.9,1.2,1-.7,3.6,2,5.9,1.7.1.9-.4,2.4.8,2.5s-.1-2.1,1.2-2.5a8.1,8.1,0,0,0,3.1-1C289.7,349.2,293.8,345.9,299.1,346Zm-35.5,33.5c-1,2.3-.9,4.2,1.4,5.5a3.4,3.4,0,0,1,1.9,3.7c-.1,1.2-1.7,3.2,1.2,3.1s1.8-2.1,1.7-3.7C269.7,383.9,267,381.5,263.6,379.5ZM286,367.6c-1.2,2.7-1.4,4.2,0,6.3C287.3,371.8,287.2,370.2,286,367.6Zm-57.5-11.2c1.7-1.6,3.2-3.3.8-5.9C229,352.8,228.8,354.6,228.5,356.4Zm2.1,12.3-.8-.3c-.2.1-.2.5-.4.8s.7.4.9.3S230.5,369,230.6,368.7Zm3.1,12.7c-.1.3-.4.6-.3.8s.5.3.8.4.4-.6.3-.8S234,381.5,233.7,381.4Z" fill="#ebc141"/><path d="M293.6,368.9c.2-3,1.6-5.4,2.9-8,2.3-4.6,4-9.4,3.4-14.8,1.9-2.9,4.2-4.6,7.8-2.8,1.9.9,2.4-.3,2.3-1.9s1.2-3.4-2-1.8-2.4-1.6-3-3.1-2.1-4.8.5-6.2,4.2-5.7,6.3.1c.9,2.2,2.6,1.7,4.5.4s3.9-2.1,5.4-1.1a3.7,3.7,0,0,1,1.1,5.6c-.5.6-.5,1.1.5,1.3,5.6,1.4,10.3,5,15.4,7.1,3.2,1.3,6.7,5.5,11.3,3.7a9.3,9.3,0,0,1,1,1.5l-1,1c-13.5,7.7-25.1,17.3-30.9,32.4-2.1,5.4-1,11.1-1.2,16.8s0,8.6,0,12.9a39.9,39.9,0,0,0-10.9-1c.4-3.2-4-4.3-3.1-7.9,2.3-9.1-.6-18.4,1-27.5.3-1.9-.9-2.8-2.4-3.3s-2.7-.6-3.3,1.1-.1,2.7-2,2-2.4-1.5-1.8-3.1S295.2,369.5,293.6,368.9Zm5-4.8c.3,1.5-.1,2.9,1.8,3.6C300.8,366,300.2,365,298.6,364.1Z" fill="#d37806"/><path d="M299.1,346c-5.3-.1-9.4,3.2-14,5a8.1,8.1,0,0,1-3.1,1c-.1-.9.2-2.3-.8-2.4s-1,1.5-1.2,2.4c-2.3.3-4.9-2.4-5.9-1.7-4.7,3.7-8,.3-11.9-1.2-1.9-.7-4.2.2-6.1-1.4s-2.4.1-3.1,1.3c-4.3-.4-6.8,4.1-11,4-.6-.2-1.7-.2-1.8-.6-2.5-5.5-7.5-3.7-11.8-4-2.4-.2-2.8,2.1-3.2,3.7s-1.5,6.3-4.3,1.1c-.5-.8-1.2-1.4-2-.8s-1.7,1.6-1.6,2.3c.5,2.6-.3,5.2-.3,7.8,0,1,.2,2.1,1.5,2.3a1.9,1.9,0,0,0,2.5-1.7,4.7,4.7,0,0,1,3-3.5c1.2,3.1,4.6,1.7,6.6,3.2s0,1.8-.3,1.6c-3.2-1.5-4.1,3.1-7.5,2.4s-3.6,3.7-3.2,5.8-.2,6.9,5.3,5.5c1.1-.3,2.1,2.4,2.2,4.5.2,6.5.1,5.6,6.2,4.4,3.1-.6,5.9-4.3,9.9-1.6,1.8,1.2,1.6-1.3,1.8-2.5s.7-2,2-1.6a1.4,1.4,0,0,1,.7,2.1c-1.6,2.3,1,4.5,0,6.6s-1.7-3.5-3.5-.9a6.2,6.2,0,0,0,.3,7c1.2,1.7,2.2.3,2.5-1.2s1.7-2.3,2.9-1.6-.1,1.9-.4,2.9c-1.2,4.7-3.9,5.3-8,3.2-1.8-.9-4-1.8-6.2-1-7.3-2-13.4-6.2-19.3-10.8s-12.4-13.5-16.9-21.5c.3-1,.6-2.1.8-3.1.7-7.9,6-12.9,11.2-17.9,5.5-2.9,10.5-7,16.8-8.2,1,1.5,1.2,4.2,3.7,3.8s1.1-3,2.1-4.4.2-.9.3-1.4a2.2,2.2,0,0,1,2-.8c0,1.6-.1,3.3,0,5s-.5,2.8,1,3.5,3.3-.1,4.6-1.1,1.6-2.1,2.6-2.9,2-1.7,3.1-1.1.4,2.1-.2,3.1c-1.3,2.6-1.8,4.9,1,7.1,1.2-1.7-1.2-5.3,1.5-5s7.2-1.6,10.5.5,5.5,3.8,9.7,3.5,5.4,2.3,8.7,0,4.5.8,7.1-2.3,4.5-3.8-.3-6.9c-1.5-.9-3.1-1.1-4.6-1.7-3.3-1.3-7.9.1-9.7-4.5a68.5,68.5,0,0,1,20,4.6c1.5,1.6,4.2,1.7,4.9,4.1-1.1,1-4,1.2-2.2,3.4s2.2-1.1,3.5-1.5S299.1,344.3,299.1,346Z" fill="#ecc348"/><path d="M211.1,345.1c-5.2,5-10.5,10-11.2,17.9-4-5-3.2-11.2-3.5-16.9-.2-2.6.5-5.5.6-8.3s-.4-3.5,2-3.8h1c.3.6.7.6,1,0s1.9,2.7,3.6,1.8-.3-3.2.4-4.8h0a13.7,13.7,0,0,1,2.9.2c1.3.1,2.7,1.5,3.6,0s-.8-2.1-1.6-3-2.1-2.7-.7-4.3,3.2-2.6,5.2-1.4,2.2,1.9,2.6-.5h0c1.4-1.5,3.7,5.4,4.5-.5,4.4,1.4.9,5.3,2.5,7.5.3.5.4,1.4.8,1.5s1.1-.8,1.2-1.5c2.8-3.9,4.5-8.6,9-11h0c2.1,1.9,4.5,5.9,5.1-.9.2-2.1,8.9-5,10.8-3.7s.8,1.6,1.3,1.2c4-3.5,9.8-1.3,13.8-4.4,1.3-1,1.8-2,2.4.3.1.4.8,1.1,1,1,5.7-1.8,9.8,4.2,14.9,3.2,3.6-.8,5,1.1,7.2,2.6.2.2.6.4.7.7,1.5,3.9,2.1,8.2,4.8,11.8.9,1.1,1.8,4.1-.7,5.8s-3.4-1.6-5.3-1.6c1.1-4-2.1-8.4-7.1-9.5a46,46,0,0,0-8.3-1.1c-10.2-.6-20.4-2.7-30.7-.1-1.8.4-1.8,3.3-4.8,2.1s-7-.9-8,3.8c-.3,1.1-1.3.8-1.8,1.1-3.7,3-9.6,1.3-12.5,6-.3.5-1.5.5-2.3.7C211.7,337.7,209.9,340.9,211.1,345.1Z" fill="#d57f16"/><path d="M319.7,305.9c-1.4,2.6-.3,5.4-.8,8.1-2.6-.7-3.2-3.1-4.4-5s-1.5-3-3.5-3h0c-.1-.8-.3-1.7-1.1-2-5.5-1.6-4-5.3-2.9-9a3.9,3.9,0,0,1,1.5-3.4c2.5-2,2.2-5.3,1.2-7.3A62.1,62.1,0,0,0,294,264.7c-3.5-2.9-6-7.1-9-10.7,2.4-1,4.8-.4,7.3-.3,4.8.1,6.9,2,9.2,5.9s8.2,7,11.5,11.6c.9,1.3,2.7,1.6,1.5,4s1.6,2.1,3,1.5c3.1-1.6,3.8,0,4.2,2.7.2,1.1,1,2.1,1.2,3.2s.6,3.5,2.5,2.9,4.3.4,4.6-2.7.9-3.2,2.6-3.1,2.3,1.8,2.4,3.4a3.4,3.4,0,0,0,2.2,3l-8.1,7.1A45.1,45.1,0,0,0,319.7,305.9Z" fill="#d57f16"/><path d="M211.1,345.1c-1.2-4.2.6-7.4,4.4-8.1.8-.2,2-.2,2.3-.7,2.9-4.7,8.8-3,12.5-6,.5-.3,1.5,0,1.8-1.1,1-4.7,4.7-5.2,8-3.8s3-1.7,4.8-2.1c10.3-2.6,20.5-.5,30.7.1a46,46,0,0,1,8.3,1.1c5,1.1,8.2,5.5,7.1,9.5v1.9a68.5,68.5,0,0,0-20-4.6c-11.8-.7-23.5-.7-35,2.8a2.2,2.2,0,0,0-2,.8,11.1,11.1,0,0,0-6.1,2C221.6,338.1,216.6,342.2,211.1,345.1Z" fill="#cf7310"/><path d="M285,254c3,3.6,5.5,7.8,9,10.7a62.1,62.1,0,0,1,15.7,19.6c1,2,1.3,5.3-1.2,7.3A3.9,3.9,0,0,0,307,295l-5.9-1c2.8-4.8.8-8.9-1.7-13-6-9.8-14.7-17-23.9-23.6a14.2,14.2,0,0,1-3.6-3.3c3.3-3.4,6.7-1.6,10.1-.1Z" fill="#cf7310"/><path d="M336,325.9c6.2,1.5,12.5,2.7,18.7,4.6,2.8.8,5.5.3,8.3.7-3,3.2-7.1,2.4-10.6,2.3s-7.6-1.6-11.4-2.5C340.8,327.9,335.5,329.7,336,325.9Z" fill="#cf7310"/><path d="M227,318.5c1,1.6,1.6,3.1,0,4a2,2,0,0,1-2.1-.9C223.9,319.6,226.4,319.7,227,318.5Z" fill="#d57f16"/><path d="M206,326c-.3,1.7-.7,3.3-1,5h-3c1-1.9,1.6-4.2,4-5Z" fill="#d57f16"/><path d="M297.2,341.9c-1.3.4-2.1,3.3-3.5,1.5s1.1-2.4,2.2-3.4A2.6,2.6,0,0,1,297.2,341.9Z" fill="#ecc54e"/><path d="M236,317c.1-.8.2-1.8,1.3-1.5s1.4,1.3.8,1.9-1.4-.2-2.1-.4Z" fill="#d57f16"/><path d="M311,306a4.1,4.1,0,0,1-3.5,1.7c.5-2.7,2.4-1.3,3.5-1.7Z" fill="#d57f16"/><path d="M300.9,295.9c.7.2,1.6.2,1.6,1.3a.5.5,0,0,1-.3.3c-1.1.1-1.1-.9-1.3-1.6Z" fill="#d57f16"/><path d="M272.1,302.2c0-1.1-.4-2.3.4-3.3.9,1,.3,2.2.5,3.2Z" fill="#ecc348"/><path d="M226,329c-.1.7-.1,1.7-1.2,1.5s-.5-1-.8-1.5Z" fill="#cf7310"/><path d="M202,331c-.2.6.2,1.5-.9,1.3a.4.4,0,0,1-.4-.4c-.2-1.1.7-.7,1.3-.9Z" fill="#d57f16"/><path d="M298.7,323.8l-.6.5c-.1,0-.4-.2-.4-.3l.3-.7Z" fill="#d57f16"/><path d="M235,317l-.4-.2.4.2Z" fill="#d57f16"/><path d="M206,326l.2-.4-.2.4Z" fill="#d57f16"/><path d="M235,318v-1h1l-1,1Z" fill="#d57f16"/><path d="M217,322l-.4-.2.4.2Z" fill="#d57f16"/><path d="M201,334c-.3.6-.7.6-1,0Z" fill="#dd901e"/><path d="M269,286a55.5,55.5,0,0,1,3.7,6,2.5,2.5,0,0,1-1.4,3.3c-1.8.7-2.2-1-2.2-2.3S269,289.1,269,286Z" fill="#ecc348"/><path d="M166,471c-.2,1.5,1.5,2.7.4,4.5-2-.5-4.5-3.2-5.9-.5s-5.3,3.5-2.5,7c-2.7,1.7-3.9-.7-5.9-1.7s-5.7-4.8-8.8-6.9c-1.3-.8-3-2.3-1.3-4.4,3.9-1,7.4,1.6,11.7,2.1-.7-1.5-1.5-2.2-1.4-2.9.3-4.7-3.7-5.2-6.4-5.9s-2.2,3.4-3.9,4.7c-3.5-.8-6.6-6.2-7-12,1.7-1.5,3.1-3.6,5.3-.1s4.1,2.8,6.1,0c.7-.9.5-3.3,2.3-2.5s2,3.3,3.6,4.7-2.5.2-2.8,2.3c4.9-.3,7,3.4,9.5,6.6-.1.1-.4.2-.4.3l.4.7C162.3,466.7,164.1,469,166,471Zm-12.1,3.5c-.6-.4-1.1-1-1.6-1.1s-1.1.6-.8,1.2a3.2,3.2,0,0,0,1.5.9C153.1,475.6,153.5,475,153.9,474.5Zm5.5-4.5c-.4.4-.9.7-.9,1s.5.7.9.8,1.3-.2,1.1-1S159.8,470.3,159.4,470Z" fill="#dc8b14"/><path d="M182,438c4,1.8,5.4,5.6,4,11-1.4-1.4-2.7-3-5-3l-1-1c2.6-4.3,2.3-4.8-2.7-5.3-1.1-.1-1.2-.9-1.3-1.7h0A8.8,8.8,0,0,1,182,438Z" fill="#dc8b14"/><path d="M145,447c2.3,3.6-2.2,4.2-2.5,6.9-3.6-5.1-3.5-5.2,2.5-6.9Z" fill="#dc8b14"/><path d="M180,445l1,1c-.1.9.3,2.3-.9,2.4a2.6,2.6,0,0,1-2.5-2.5C177.6,444.6,179.1,445.1,180,445Z" fill="#dd901e"/><path d="M188,464c-.8.2-2,1-1.9-.8s.7-1.4,1-1.4.6,1.4.9,2.2Z" fill="#dd901e"/><path d="M170.9,421.7l-.9.9a6,6,0,0,1-.6-1.1c0-.2.4-.6.6-.7S170.8,421,170.9,421.7Z" fill="#dc8b14"/><path d="M145,447c.1-.7.1-1.6,1.2-1.5a.5.5,0,0,1,.3.3c.1,1.1-.8,1.1-1.5,1.2Z" fill="#dc8b14"/><path d="M149.6,448.7c-.1.3-.2.7-.4.8s-.7-.1-.7-.3a.8.8,0,0,1,.3-.8C149,448.3,149.3,448.6,149.6,448.7Z" fill="#dc8b14"/><path d="M174.4,434.5l-.4.2-.4-.2Z" fill="#dc8b14"/><path d="M176,438l-.8-1.1.4-.2a6.5,6.5,0,0,1,.4,1.3Z" fill="#dc8b14"/><path d="M134,453v-2C135,451.7,135,452.3,134,453Z" fill="#dc8b14"/><path d="M158.8,458l-.3.4c-.1-.2-.2-.3-.2-.4a.8.8,0,0,1,.2-.4Z" fill="#dc8b14"/><path d="M159,467l-.4-.7c0-.1.3-.2.4-.3Z" fill="#dd901e"/><path d="M168,470c.7.3.7.7,0,1Z" fill="#dc8b14"/><path d="M177,472l.2-.4-.2.4Z" fill="#dc8b14"/><path d="M549,535c-3.6-.2-6.4-3.4-10.9-2.6,2,2.5,4.6,4.8-.9,5.8-1.4.2-2,3.6-4,4.8s-3.9,2.2-6.5,2.1-4.6-.9-4.8,2.5c-3.7-.9-5.7,4.1-8.7,3.2-4.6-1.3-7.8,1.1-11.3,2.5s-4.3,2-5.9.4.8-3.4,1.6-5L499,546c5.1.3,9.7-2.7,15.1-1.5,1.9.5,6.4-.7,5.2-5.5-.3-1,.8-2.4,1.3-3.7,2.3,1.2,1.6,5.4,4.8,4.5s5.8-1.9,5.7-5.8a1.6,1.6,0,0,1,1.3-1.9c5.7-.7,6.8-5.9,9.5-9.6.3-.3.2-.9.3-1.4,5.4,2.2,5.8-3.4,8.6-5.3s2.1.4,2.2,1.8-.8,3.9,2,4.4c-1.3,3.6-2.7,7.1-3.9,10.7C550.7,533.9,550.5,534.9,549,535Z" fill="#dc8b14"/><path d="M494.7,532.4c.3.1.7.2.8.4s-.2.5-.3.8-.7-.2-.8-.4S494.6,532.7,494.7,532.4Z" fill="#dc8b14"/><path d="M337,540c-2.7,2.2-5.2,4.4-6,8-1.4,1-.9,3.5-3,4a7.8,7.8,0,0,0-6,6,2,2,0,0,0-2,1,5.4,5.4,0,0,0-3.3.8C305.4,568,292,570.4,279,574.3c-3,.9-7.2-.5-9,3.7h-2c-5.4.4-10.8-1.2-16.2-.1-3.3.6-6.2-1-9-2.3s-6.1-3.4-10.1-3.2c-1.4.1-5.1-.8-4.7-4.4,0-1.5-.9-2.4-1.9-3.4s-1.3-1.7-.1-2.5,2.5-2.3,3.9-.9c6.2,6.2,14.4,5.2,22,6.7,1.2.3,2.1-.6,3.1-1.3s3.1-2,5.1.2,2.8.2,2.9-1.8h0c7.3-1.3,14.7.8,22.1-.8a86.6,86.6,0,0,0,15.7-4.9c8.8-3.8,13.7-10.8,19.5-17.4,2.8-3.3,6.5-6.5,10.7-7.6C337.6,532.6,339.1,532.6,337,540Z" fill="#dd901e"/><path d="M224.6,559.7c-.1,1.4-1.2,1.3-2.2,1.3s-2.2.1-1.9-1.4a2.1,2.1,0,0,1,2.3-1.9A2.6,2.6,0,0,1,224.6,559.7Z" fill="#dd901e"/><path d="M263,565l-.4-.2.4.2Z" fill="#dd901e"/><path d="M285,254h-3a5.2,5.2,0,0,1,1.9-4.7C285.7,250.8,284.7,252.5,285,254Z" fill="#d57f16"/><path d="M313.7,264.9c-1.2.8-2,.2-2.9-.5C311.9,263.9,312.9,263.7,313.7,264.9Z" fill="#d57f16"/><path d="M306.7,259.5c-.8.2-1.3.4-1.6.2s-.4-.7-.6-1,.7-.4.9-.3A9.5,9.5,0,0,1,306.7,259.5Z" fill="#d57f16"/><path d="M154,533c-3-.8-6.5-.8-7-5A11.9,11.9,0,0,1,154,533Z" fill="#d57f16"/><path d="M215.9,462.3c-3.5-2.8-5.8-7.1-10.5-8.5-13.8-6.8-18.6-19.1-19.8-33.4-.3-3.3-1.6-7.5,2.5-9.9a4.2,4.2,0,0,1,1.5,1.1c10.1,18.8,26.9,28.4,46.4,34.3a151.2,151.2,0,0,0,34,6.4,107.7,107.7,0,0,0,17.1,1.7c0,8.6-.1,17.3-.1,26h0c-5.3-.9-10.4-2-15.7-2.7s-9.9-.5-14.1-3.8c-.8-.6-2.3-.5-3.4-.4-8.7.6-16.7-2.2-24.4-5.8A70.2,70.2,0,0,0,215.9,462.3Z" fill="#f7fdc3"/><path d="M236,445.9c-19.5-5.9-36.3-15.5-46.4-34.3a4.2,4.2,0,0,0-1.5-1.1l-.3-3.5A30.6,30.6,0,0,1,198,393.9c2.8,1.2,3.1,5,6.1,6.1H204c.3.9.7.7,1.1.1,7.9,10.1,17.7,17.7,29.9,22,.4.9,1.2,1,2.1,1H237c.4,1,1.2,1.1,2.1,1.1H239c4.4,4.5,10.4,5.5,16,7,10.6,3,21.3,5.4,32,8.1a3,3,0,0,1,.4,1,36.6,36.6,0,0,0,.6,14h-.9a107.7,107.7,0,0,1-17.1-1.7c-.4-1.1-1.5-1.1-2.4-1.4-8.4-2.5-17.1-2.9-25.6-4.9C240.1,445.6,238.1,443.8,236,445.9Z" fill="#ecc54e"/><path d="M204,463c.6,3.2,3.2,7.3-3,8,.2-2.6-1.4-4.3-3-6h0C198.8,460.9,200.6,459.4,204,463Z" fill="#db880b"/><path d="M198,465l-.2.4.2-.4Z" fill="#db880b"/><path d="M201,472l-1,1Z" fill="#db880b"/><path d="M142,467c1.7-1.3.5-5.6,3.9-4.7s6.7,1.2,6.4,5.9c-.1.7.7,1.4,1.4,2.9-4.3-.5-7.8-3.1-11.7-2.1Z" fill="#dd901e"/><path d="M270,578c1.8-4.2,6-2.8,9-3.7,13-3.9,26.4-6.3,37.7-14.5a5.4,5.4,0,0,1,3.3-.8c-3,4.3-7.5,6.5-12.1,8.4A151.6,151.6,0,0,1,270,578Z" fill="#d57f16"/><path d="M322,558a7.8,7.8,0,0,1,6-6C327.7,555.7,324.9,556.9,322,558Z" fill="#d57f16"/><path d="M491,563h20c-.1,1.5-1.1,1.7-2.3,2-4.8,1.1-9.7-.9-14.5.7C492.9,566.2,491.7,564.4,491,563Z" fill="#d57c0f"/><path d="M516,562l16-5c.1,2-.9,2.5-2.8,3.1-4,1.3-8.6,1.6-11.8,5.1C516.9,564.1,516.5,563,516,562Z" fill="#d57f16"/><path d="M539,553c1.1-3.9,4.7-6.3,6-10a6.7,6.7,0,0,0,3-3l2,1C546.5,545.2,544.1,550.3,539,553Z" fill="#d57f16"/><path d="M535,556a1.8,1.8,0,0,1,2-2A1.8,1.8,0,0,1,535,556Z" fill="#d57f16"/><path d="M235,422c-12.2-4.3-22-11.9-29.9-22h-1c-.3-3.5-2.5-6.1-4.1-9v-2c.5-7.7-2.1-15.2-.8-22.9,4.5,8,9.5,15.7,16.9,21.5s12,8.8,19.3,10.8a85.7,85.7,0,0,0,25.7,7.7c8.2,2.5,16.7,2.5,25,3.9h.1a226.3,226.3,0,0,1,1,23.2,121.5,121.5,0,0,1-25.5-3.6c-7.6-1.7-15-4.2-22.6-5.6h.1c-.4-1-1.2-1.1-2.1-1.1h.1A2.1,2.1,0,0,0,235,422Z" fill="#f7fdc3"/><path d="M199.9,389v2l-2,2a57.3,57.3,0,0,1-5.1-13.2c.3-2.3.7-4.5,1.1-6.8,3.3.8,2.3,4,2.9,6.1S198.1,385.9,199.9,389Z" fill="#cf7310"/><path d="M198,393l2-2c1.6,2.9,3.8,5.5,4.1,9-3-1.1-3.3-4.9-6.1-6.1Z" fill="#d19435"/><path d="M548,540a6.7,6.7,0,0,1-3,3c0-2.3-.3-4.7,3-5Z" fill="#dc8b14"/><path d="M306,442c5.3-.1,10.5,1.6,15.9,1,0,.3.1.7.1,1-.4,3.7,1.7,7.3.8,11H306C305.1,450.6,306.2,446.3,306,442Z" fill="#d37806"/><path d="M293.1,494l-2-1.3c-1-2.9-2.1-5.7-3.2-8.6l-.9-4.2h0c13.2,1.7,26.5.6,39.7,1.1-.2,1.9-.5,3.9-.8,5.8l-.8.2L304.8,486c-3.6-.3-4.1,1.1-2.4,3.9s2,3.2.6,5.1C299.6,495.7,296.5,493.8,293.1,494Z" fill="#cf7310"/><path d="M396,351.9c7.5,1.8,13.7,6.4,20.7,9,3.1,1.2,5.9,3.1,9.3,3,6.2,3.9,13.2,2.9,20,3.2.5,2.8,2.9,1.6,4.4,2s3.2,1.3,3.4,3.2-1.8,2.4-3.1,2.6c-7.1.6-14,4.1-21.3.3-2.4-1.3-5.4-.1-8.4-.8-6.2-1.4-9.9-6.3-15.2-8.6s-6.6-5.8-9.6-9.1C394.8,355.1,396.4,353.5,396,351.9Z" fill="#ecc54e"/><path d="M461,395.8c-1-8.7,2.1-14,14-10.8,4.9,5.3,1,10-1,14.9-3.2-1.5-7-.8-10-2.8-.2-1.3-.3-2.6-2-1.1Z" fill="#cf7310"/><path d="M462,396c1.7-1.5,1.8-.2,2,1.1S462.4,396.9,462,396Z" fill="#d57c0f"/><path d="M306,442c.2,4.3-.9,8.6,0,12.9-5.9-1.3-12-.8-18-.9a36.6,36.6,0,0,1-.6-14C293.7,439.8,299.7,442.5,306,442Z" fill="#d57c0f"/><path d="M529,448c1,.1,2.6-.3,2.7,1.2a4,4,0,0,1-2.7,4.5c-1.6-1,.9-3-1.1-3.8Z" fill="#ecc54e"/><path d="M293.6,368.9c1.6.6,2.6,1.5,1.8,3.4s.7,2.6,1.8,3.1,1.6-1.1,2-2,2-1.5,3.3-1.1,2.7,1.4,2.4,3.3c-1.6,9.1,1.3,18.4-1,27.5-.9,3.6,3.5,4.7,3.1,7.9-7,.3-13.8-1.8-20.9-1.1H286c-1.2-9.7,3.1-18.6,4-28C291.7,377.8,290.9,372.8,293.6,368.9Z" fill="#d57c0f"/><path d="M239,423.9c7.6,1.4,15,3.9,22.6,5.6a121.5,121.5,0,0,0,25.5,3.6v.9c0,1.7,0,3.3-.1,5-10.7-2.7-21.4-5.1-32-8.1C249.4,429.4,243.4,428.4,239,423.9Z" fill="#d19435"/><path d="M287,479.9l.9,4.2c-12.1-2.6-24.1-5.7-36.6-6.3-9.6-.4-18.9-3.3-27.9-7.1l-4.6-1.8L217,467c-.4-1.6-.7-3.1-1.1-4.7a70.2,70.2,0,0,1,13.5,4.9c7.7,3.6,15.7,6.4,24.4,5.8,1.1-.1,2.6-.2,3.4.4,4.2,3.3,9.2,3.2,14.1,3.8S281.7,479,287,479.9Z" fill="#d19435"/><path d="M532,312c-12.1,1-23.8-1.9-35.7-3.4l-7.3-.8c1.5-3.1,4.9-2.7,6.9-2.4,11.2,1.7,22.6,2,33.7,4.6C530.9,310.3,531.9,310.5,532,312Z" fill="#d57f16"/><path d="M185,494l-.4-.2.4.2Z" fill="#d57f16"/><path d="M405,301.9c1.2,2.9.9,5.4-1.5,7.6-13.3,12.3-29,18.7-47.2,18.4-6.2-.1-12.6-.2-16.9-6-1-1.3-3.1-2.3-1.9-4.1s3.1-.8,4.7-.6,3.9,2.2,4.8-1.1l6,.9a18.4,18.4,0,0,0,11,1.8,107.8,107.8,0,0,0,36.1-14.5Z" fill="#ecc54e"/><path d="M400.1,304.3A107.8,107.8,0,0,1,364,318.8a18.4,18.4,0,0,1-11-1.8c4.4-1,8.8-2.7,13.3-2.8,9.2-.3,16-4.6,21.6-11.2,2.6-3.1,5.6-3.1,8.9-2.9S399.7,302.4,400.1,304.3Z" fill="#f7fdc3"/><path d="M319.7,305.9a45.1,45.1,0,0,1,9.4-12.7c.6.9,1.9,2.2,1.6,2.9-2,5.2.6,10,1.3,15A49.4,49.4,0,0,1,319.7,305.9Z" fill="#f7fdc3"/><path d="M387.8,323.9c3.3-3.3,8-4.3,11.7-7.1s5.7-3.9,8.5-5.8c1.7,1.3,1,2.8-.3,3.7C401.5,318.7,396.1,324.4,387.8,323.9Z" fill="#cf7310"/><path d="M290,382c-.9,9.4-5.2,18.3-4,28-8.3-1.4-16.8-1.4-25-3.9-2.8-3.1-9.4-2.9-8.3-9.8,2,.9,4.8,2.7,4.5-1.9-.1-1,.8-1.4,1.8-1.1s.8,1,.4,1.6c-2.5,4,2.9,3.2,3.7,5.6s2.5-.8,3.1-2.4.4-.7.6-.7c7,.8,6.5-6,9.4-9.3.3-.4.7-1.1.6-1.3-3.3-4.5,1.8-5.3,3.4-7.6s3.6-3.3,6.3-2.8,1.4,3,1.8,4.7S289.4,381.7,290,382Z" fill="#ecc348"/><path d="M263.6,379.5c3.4,2,6.1,4.4,6.2,8.6.1,1.6.8,3.7-1.7,3.7s-1.3-1.9-1.2-3.1A3.4,3.4,0,0,0,265,385C262.7,383.7,262.6,381.8,263.6,379.5Z" fill="#ecc348"/><path d="M242,353c4.2.1,6.7-4.4,11-4-.8,3.5-4.3,4.9-5.8,7.9s-2.4,1.5-3.2-.6A29,29,0,0,0,242,353Z" fill="#ecc54e"/><path d="M286,367.6c1.2,2.6,1.3,4.2,0,6.3C284.6,371.8,284.8,370.3,286,367.6Z" fill="#ecc348"/><path d="M280,352c.2-.9-.5-2.6,1.2-2.4s.7,1.5.8,2.4.7,2.6-1.2,2.5S280.1,352.9,280,352Z" fill="#ecc54e"/><path d="M228.5,356.4c.3-1.8.5-3.6.8-5.9C231.7,353.1,230.2,354.8,228.5,356.4Z" fill="#ecc54e"/><path d="M230.6,368.7c-.1.3-.1.8-.3.8s-.6-.2-.9-.3.2-.7.4-.8Z" fill="#ecc348"/><path d="M233.7,381.4c.3.1.7.2.8.4s-.2.5-.3.8-.7-.2-.8-.4S233.6,381.7,233.7,381.4Z" fill="#ecc348"/><path d="M298.6,364.1c1.6.9,2.2,1.9,1.8,3.6C298.5,367,298.9,365.6,298.6,364.1Z" fill="#d57c0f"/><path d="M236,334.1c11.5-3.5,23.2-3.5,35-2.8,1.8,4.6,6.4,3.2,9.7,4.5,1.5.6,3.1.8,4.6,1.7,4.8,3.1,4,2.6.3,6.9s-5.2,1.1-7.1,2.3-6-.2-8.7,0-6.7-1.6-9.7-3.5-7-.1-10.5-.5-.3,3.3-1.5,5c-2.8-2.2-2.3-4.5-1-7.1.6-1,1.4-2.2.2-3.1s-2.3.4-3.1,1.1-1.6,2.2-2.6,2.9-2.8,2-4.6,1.1-.9-2.3-1-3.5S236,335.7,236,334.1Z" fill="#ecc54e"/><path d="M227.9,336.9a11.1,11.1,0,0,1,6.1-2c-.1.5,0,1.1-.3,1.4s.2,4.1-2.1,4.4S228.9,338.4,227.9,336.9Z" fill="#ecc54e"/><path d="M153.9,474.5c-.4.5-.8,1.1-.9,1a3.2,3.2,0,0,1-1.5-.9c-.3-.6-.1-1.4.8-1.2S153.3,474.1,153.9,474.5Z" fill="#dd901e"/><path d="M159.4,470c.4.3,1,.5,1.1.8s-.5,1.1-1.1,1-.9-.5-.9-.8S159,470.4,159.4,470Z" fill="#dd901e"/><path d="M236,445.9c2.1-2.1,4.1-.3,6,.1,8.5,2,17.2,2.4,25.6,4.9.9.3,2,.3,2.4,1.4A151.2,151.2,0,0,1,236,445.9Z" fill="#ebc141"/><path d="M235,422a2.1,2.1,0,0,1,2.1,1C236.2,423,235.4,422.9,235,422Z" fill="#d19435"/><path d="M237,422.9c.9,0,1.7.1,2.1,1.1S237.4,423.9,237,422.9Z" fill="#d19435"/><path d="M204,399.9h1.1C204.7,400.6,204.3,400.8,204,399.9Z" fill="#d19435"/><path d="M446.8,247.7l-32-72.8,58.4,36.4,35.2-44.8,14,55.8,65.1-13-54,73.4S490.2,247.6,446.8,247.7Z" fill="#f6c64e"/><circle cx="415.2" cy="176.5" r="9.9" fill="#f6c64e"/><circle cx="508.9" cy="167.1" r="9.9" fill="#f6c64e"/><circle cx="581.5" cy="209.7" r="9.9" fill="#f6c64e"/></g><g id="Layer_2" data-name="Layer 2"><path d="M173.7,588.4a6.5,6.5,0,0,1-3.1.1,11.3,11.3,0,0,1-3.6-1.1c.2-14.8.2-29.5,0-44.2s-.2-26.6-.9-39.8l-3.2.3-5.4.5c-.3-1.9-.6-3.6-.7-5a16.7,16.7,0,0,1-.2-3.7,106.4,106.4,0,0,1,13-1.8c4.2-.4,8.9-.6,14.4-.6.1.5.2,1.1.3,1.9v2.6c0,.7-.1,1.5-.1,2.4s-.3,1.9-.4,3.5l-3.8-.2-5.4-.2c.1,5.4.2,12.4.2,20.5s0,17.5-.1,27.3c0,5.2-.2,10.9-.3,16.9S174,581,173.7,588.4Z" fill="#231f20"/><path d="M212,553.5c-.2,10.6-1,21.3-2,31.9s-2.3,19.1-3.5,23.8a14,14,0,0,1-3.6-2.2,20.8,20.8,0,0,1-3.5-3.7c1.2-7.2,2.2-15.8,2.9-24.9s1.2-18,1.3-26.2a81.8,81.8,0,0,0-.4-12.6c-.3-2.3-1-3.5-2-3.6s-1.8,1-2.8,3.6a68.2,68.2,0,0,0-2.9,11.4c-.1,4.8-.2,8.6-.3,11.3s-.1,5.3-.1,7.6-.1,7.7-.1,12.4,0,9.3.1,13.7a7.1,7.1,0,0,1-3.2.4,12.9,12.9,0,0,1-4-.7c-.2-10.8-.2-21.6-.2-32.3s.1-21.8.3-32.6c.1-7,.3-14,.5-20.3s.1-11.7.9-13.2a4.9,4.9,0,0,1,2.6-1.1,11.4,11.4,0,0,1,3.7-.3h1.5l1.9.6c-.6,3.4-1.2,8-1.7,14s-.9,13.5-1.3,21.8c1.2-4,2.4-6.8,3.8-8.7s2.8-2.7,4.4-2.6,4.8,2.8,6.1,7.9S212.1,542.1,212,553.5Z" fill="#231f20"/><path d="M237.2,583.2a12.3,12.3,0,0,1,3.4,4.1,33.5,33.5,0,0,1,2.8,6.4q-1.2,9-5.1,14.7c-2.6,3.9-5.6,5.2-8.8,4.5s-6.5-4.1-8.4-10.6-2.7-15.3-2.6-26.8,1.5-26.3,5.2-38.7c3.2-10.7,7-15.2,11-14.9s5.1,2.3,6.7,6.7,2.3,10.2,2.2,17.9c0,3.6-.2,7.5-.5,11.7s-.2,9.2-1.2,11.5-2.2,2.1-3.7,2.5a13.9,13.9,0,0,1-5.5.2,14.3,14.3,0,0,1-2.7-.9,15.6,15.6,0,0,1-2.7-2c-.1,1.8-.1,3.2-.1,4.1a21.8,21.8,0,0,0-.1,2.5,105.8,105.8,0,0,0,.9,17.7c.7,4.3,1.8,6.5,3.2,6.7s2.2-1.3,3.4-4.9A56.1,56.1,0,0,0,237.2,583.2Zm-9-26.7a12.8,12.8,0,0,0,2.3,1.9,7.4,7.4,0,0,0,2.2.8H234l.9-.3c.3-2.9.5-5.6.7-8.1s.3-4.8.3-6.8a34.2,34.2,0,0,0-.4-7.3c-.3-1.6-.9-2.3-1.6-2.4s-2.2,1.7-3.2,5.7A108.2,108.2,0,0,0,228.2,556.5Z" fill="#231f20"/><path d="M269.6,581.4c0,8.5,0,16.6.1,24.1s.1,15.1.2,22.3a22.4,22.4,0,0,1-3.9-1,14.3,14.3,0,0,1-3.5-1.7c-.4-16.7-.7-33.5-.9-50.2s-.1-32.8.1-49.1q0-5.4.3-11.4c.1-4,.3-7.5.5-10.7a21.2,21.2,0,0,1,6.4-3.9,18.1,18.1,0,0,1,6.7-1.3c4.3,0,7.6,1.8,9.8,6.2s3.3,11.3,3.2,21.1a108.7,108.7,0,0,1-4.8,33.1C280.6,568.8,275.9,576.4,269.6,581.4Zm10.9-51.8c0-6.8-.5-11.8-1.6-15.1s-2.7-4.9-4.9-5l-1.5.2-1.4.5c-.4,7.2-.7,15.4-.9,24.2s-.4,19.4-.5,29c3.6-2.5,6.3-6.7,8-12.4S280.4,537.8,280.5,529.6Z" fill="#231f20"/><path d="M313.4,562.1c.1,10.8-.2,21.7-.6,32.4s-1.2,24.3-2.1,36.5a9.4,9.4,0,0,1-3-1.2,9.7,9.7,0,0,1-2.8-2.2c.1-2.2.2-3.8.2-4.9s.2-2.1.2-2.9a7.1,7.1,0,0,1-2.3,2.5,4.5,4.5,0,0,1-2.8.4c-2.5-.5-4.7-3-6.3-7.6s-2.3-10.7-2.3-18.5.9-14.3,2.8-18.3,4.8-5.8,8.4-5.4l1.9.3,1.7.5v-2.8q-.1-16.9-.9-24c-.5-4.8-1.3-7.1-2.4-7.2s-1.9,2-2.7,6.2a104.3,104.3,0,0,0-1.1,16.5c-1.6-.3-3-1.6-4.1-4a35.6,35.6,0,0,1-2.3-9.5,49.5,49.5,0,0,1,3.9-16.8c2.1-4.5,4.4-6.6,7-6.5s5.4,3,7,9S313.3,549.7,313.4,562.1Zm-14.2,37.2a28.2,28.2,0,0,0,.9,8.1c.5,1.9,1.3,3,2.3,3.2a2.2,2.2,0,0,0,1.8-.6,5.6,5.6,0,0,0,1.6-2.3c.9-3.2.3-8.1.4-11.6s.1-7,.1-10.3a4.7,4.7,0,0,0-5.3,2.7C299.8,590.7,299.2,594.4,299.2,599.3Z" fill="#231f20"/><path d="M327.6,605.8c0,3.9.1,8.4.2,13.4s.1,9.2.2,12.8a5.3,5.3,0,0,1-2.9,1.4,7.6,7.6,0,0,1-3.3.2c-.6-16.3-1-32.6-1.4-48.9s-4.2-40.6-.8-53.2a4.7,4.7,0,0,1,2.3-2.3,5.2,5.2,0,0,1,3.1-.8,3.7,3.7,0,0,1,1.4.4l1.6.8c0,2-.1,4.4-.1,7.2s-.2,6.2-.2,10c1-5.8,2-10,3.2-12.8s2.5-4,4-3.9,3.9,3.1,5,9,1.8,15,2,27.5,0,22.5-.2,33.8-.6,21.5-1.1,27.7a13.4,13.4,0,0,1-3.3-1.2,20,20,0,0,1-4-2.5c.5-10.5.8-21,1-31.5s.3-19,.2-26.3a94,94,0,0,0-.7-12c-.4-2.5-1-3.7-1.8-3.7s-1.7,1.6-2.5,5.1a85.5,85.5,0,0,0-2,14.7c-.2,5.6,0,11.8,0,18S327.5,600.5,327.6,605.8Z" fill="#231f20"/><path d="M369.6,563a9.4,9.4,0,0,1-2.8,3.3,6.2,6.2,0,0,1-3.8.9,144.3,144.3,0,0,0-1-16.6c-.5-3.7-1.2-5.5-2-5.6s-2.4,4.6-3.3,14.4c-1,11.3-1,22.8-.9,34.1a124.9,124.9,0,0,0,1.3,20c.7,4.8,1.7,7.1,3,7.2s2-1.5,3-4.8a106.5,106.5,0,0,0,2.7-14.8,11.1,11.1,0,0,1,2.3,4,31.3,31.3,0,0,1,1.9,6.3,51.5,51.5,0,0,1-3.7,17.5c-2.1,4.8-4.5,7-7.4,6.8s-5.8-3.7-7.6-10.9c-2.5-10-2.8-20.6-3-30.8-.4-15,.2-30.7,3-45.6,2.2-12.3,5.2-17.8,8.9-17.5s5,2.9,6.6,8.5S369.4,552.8,369.6,563Z" fill="#231f20"/><path d="M396.1,567.3c.2,10.9.1,21.9-.1,32.8-.3,12.5-.8,25.2-1.4,37.8a7.9,7.9,0,0,1-3-.5,7.5,7.5,0,0,1-3-1.7c.1-2.3.2-4.1.2-5.2s.1-2.2.1-3.1a8.6,8.6,0,0,1-2.3,3.1,4.5,4.5,0,0,1-2.8,1.1c-2.6,0-4.7-2.3-6.4-6.9s-2.6-11.1-2.7-19.3.7-15.2,2.5-19.6,4.6-6.5,8.3-6.4h1.9l1.7.3v-2.9c-.3-11.5-.7-19.7-1.3-24.5s-1.4-7.2-2.5-7.2-2,2.1-2.7,6.5a103.3,103.3,0,0,0-.9,17.1c-1.6-.2-3-1.5-4.1-3.8a33.7,33.7,0,0,1-2.5-9.9c.4-7.2,1.6-13.1,3.6-17.8s4.3-6.9,6.9-6.8,5.6,3.1,7.4,9.2S395.8,554.8,396.1,567.3Zm-13.8,39.9a33.4,33.4,0,0,0,1,8.3c.6,1.9,1.4,2.9,2.4,2.9a2.3,2.3,0,0,0,1.8-.9,6,6,0,0,0,1.7-2.8c.7-3.4.1-8.4.1-12s.1-7.1,0-10.5c-2.4-.2-4.2,1-5.4,3.4S382.2,602,382.3,607.2Z" fill="#231f20"/><path d="M410.3,593.6c.3,8.9.5,16.9.8,23.8s.7,13.4,1.2,19.4a8.8,8.8,0,0,1-2.8,2.4,9.6,9.6,0,0,1-3.7.9c-.7-9.7-1.2-19.5-1.6-29.2-.5-11.3-.9-22.6-1.1-33.9-.4-14.6-.6-29.3-.7-43.9-.1-10.4-.2-20.9.1-31.3a11.5,11.5,0,0,1,8,3.5c-.3,6.7-.5,15.7-.6,27.7s-.1,24.8,0,37.1c1.4-5.4,2.7-11.5,4-18s2.8-15.4,4.6-25.6a35.4,35.4,0,0,1,3,6.4,63.2,63.2,0,0,1,2.4,8.5c-1.2,6.6-2.6,13-4.1,19.2s-3.2,12.7-5.4,19.6c1.5,6,3.3,11.7,5.2,17a163,163,0,0,0,7.2,16.8,104.3,104.3,0,0,1-2.7,11.6,16.9,16.9,0,0,1-2.6,5.4c-2-5-3.9-10.5-5.7-16.6s-3.5-13.4-5.4-22.2v1.4Z" fill="#231f20"/><path d="M445,594.1a9.2,9.2,0,0,1,3.2,3.3,24.2,24.2,0,0,1,2.9,5.8,57.4,57.4,0,0,1-3.8,17.9c-2.1,5.2-4.6,8-7.4,8.5s-5.8-2.2-7.8-8.9c-2.7-9.4-3.2-19.7-3.5-29.2-.4-14.3.1-29.1,2.6-43.6,2.2-12.4,5-18.2,8.6-18.6s4.6,1.8,6.3,6.2,2.7,10.4,2.9,18.4c.2,3.8.2,7.9.1,12.4s.3,9.5-.5,12.2-2,2.8-3.3,3.7a10.2,10.2,0,0,1-4.8,1.7,3.7,3.7,0,0,1-2.3-.2,7.1,7.1,0,0,1-2.4-1.3v4.4c0,1,.1,1.9.1,2.8a130.9,130.9,0,0,0,1.6,19c.8,4.5,1.9,6.5,3.1,6.3s1.9-2.3,2.7-6.6A83.7,83.7,0,0,0,445,594.1Zm-9.1-25.8a6,6,0,0,0,2.1,1.3,3.3,3.3,0,0,0,1.9.3,2,2,0,0,0,1.1-.3c.4-.2.7-.3.8-.5.1-3.1.2-6.1.3-8.8s0-5.1-.1-7.3a48.9,48.9,0,0,0-.7-7.6c-.4-1.6-.9-2.4-1.6-2.3s-1.7,2.3-2.4,6.9A148.8,148.8,0,0,0,435.9,568.3Z" fill="#231f20"/><path d="M488.7,562.5a80.3,80.3,0,0,1,2.3,10.9c.5,3.8.9,8.1,1.1,12.7.4,10.4-.5,19.1-2.8,26.1s-5.3,11-9,11.9-7.9-1.6-10.8-8.9c-3.8-9.6-6.7-23-5.1-30.1.2-1.3,1.8-3,3.1-4.3a8.9,8.9,0,0,1,3.4-2.4c.3,10.4,1.3,18.4,2.7,24s3.2,7.9,5.3,7.4,2.9-2,3.7-4.9a39.4,39.4,0,0,0,.9-11.6,55,55,0,0,0-1.8-12.1c-.9-3.7-3-8.5-6-14.4-2-3.9-3.5-7.2-4.5-9.7a70,70,0,0,1-2.5-7.3,98.2,98.2,0,0,1-2.3-11.3,96.9,96.9,0,0,1-1.1-12.4c-.5-10,.4-17.4,2.4-22.6s5.1-7.4,9.1-7.6,6.5,1.5,8.8,5.3,4.1,10,5.3,19.7a12.2,12.2,0,0,1-2.9,3.7,13.7,13.7,0,0,1-4.2,2c-.7-7-1.5-11.7-2.5-14.4s-2.4-4-4-3.9-2.2,1.1-2.9,3.2a27.7,27.7,0,0,0-.6,8.8,55.9,55.9,0,0,0,1.8,11.9,70.4,70.4,0,0,0,6.1,14,91,91,0,0,1,4.5,9.3A58.3,58.3,0,0,1,488.7,562.5Z" fill="#231f20"/><path d="M523.1,552.9c.4,10.4.1,20.9-.3,31.3s-1.1,20.4-1.9,26.1a8.2,8.2,0,0,1-3.8.2,12.9,12.9,0,0,1-3.9-1.6c.7-8.9,1.2-18.2,1.4-27.6s.3-18.4,0-26.4c-.3-6-.6-10.1-1.1-12.2s-1.3-3.2-2.3-3.1-1.9,1.7-2.8,4.7a83.5,83.5,0,0,0-2.4,12.6c.2,4.9.3,8.8.4,11.6s.2,5.4.2,7.8.4,7.9.7,12.9.6,9.8.9,14.5a14,14,0,0,1-3.3,2.6,23.4,23.4,0,0,1-4.3,2c-.9-11.7-1.6-23.4-2.2-35s-1.1-23.1-1.6-34.7c-.3-7.5-.6-15.3-.8-22.7s-1.2-14.4-.3-17c.2-.6,1.5-1.4,2.7-1.9a12.3,12.3,0,0,1,3.9-.7,4.3,4.3,0,0,1,1.6.1l2,.6c-.2,4.6-.3,10.2-.4,17.1s0,14.8.1,23.6a36.2,36.2,0,0,1,3.5-10.2c1.3-2.3,2.7-3.5,4.3-3.7s5.2,1.7,6.8,6.2S522.7,542.1,523.1,552.9Z" fill="#231f20"/><path d="M529.3,567.2c-.4-11.6-.1-23.7,3-34.9,2.4-8.9,5.9-13.1,10.2-13.7s6,1.6,7.9,6.3,3.1,11.6,3.4,21.1c.3,12-.3,24.2-2.8,35.9-2.2,10-5.4,15.6-9.7,17.5s-6-.5-8.2-6.2S529.8,578.8,529.3,567.2Zm16.6-11.7c-.3-8.7-.8-14.9-1.6-18.8s-1.9-5.6-3.2-5.4-2.3,3.1-3,8.8a143.3,143.3,0,0,0-.6,21.6,118.2,118.2,0,0,0,1.7,18.5c1,4.7,2,6.7,3.3,6.2s2.1-3.6,2.8-9.7A175.1,175.1,0,0,0,545.9,555.5Z" fill="#231f20"/><path d="M567.2,584.2l.3,7.7c.2,2.5.6,8.1,1.2,14a33.1,33.1,0,0,1-5.9,5.4c-1.1-9.7-1.6-19.5-2.1-29.1-.7-13.4-1.1-26.9-1.4-40.3-.2-5.4-.2-10.2-.3-14.4s-.7-9.2.1-11.8a6.9,6.9,0,0,1,2.5-2.2,10.7,10.7,0,0,1,3.3-1.1,2.4,2.4,0,0,1,1.2,0l1.3.4c-.1,1.3-.3,2.8-.4,4.5s-.2,3.7-.2,5.9a28.9,28.9,0,0,1,3.1-8.5c1.1-1.9,2.4-2.9,3.8-3.1s3.8,1.3,5,4.9,1.7,9.1,1.7,16.5a151.8,151.8,0,0,1-3.1,33.6c-2.1,9.3-4.8,14.8-8.2,16.7l-.8.4Zm-.4-12a1.7,1.7,0,0,0,1,.9,1.2,1.2,0,0,0,1-.1c1.4-.7,2.6-4.4,3.5-11.2a179.5,179.5,0,0,0,1.2-24.7,46.5,46.5,0,0,0-.8-9.1c-.5-2-1.1-2.9-2-2.6s-1.9,1.5-2.6,4.1a50,50,0,0,0-1.6,11.1c-.2,3.3-.1,7,0,11s0,8.5.1,13.3c.1,2,.1,3.6.1,4.6S566.8,571.4,566.8,572.2Z" fill="#231f20"/></g></svg>