<svg xmlns="http://www.w3.org/2000/svg" width="32" height="32" viewBox="0 0 32 32"><title>logo-32</title><g id="Layer_2" data-name="Layer 2"><path d="M.1,16.1V.3C.1.1.1.1.3.1H31.8c.2,0,.3,0,.3.2V31.8a.3.3,0,0,1-.3.3H.3c-.2,0-.2-.1-.2-.3Zm27.8,7.2c.1,0,.1-.1.1-.2a.3.3,0,0,0,.1-.2A3.1,3.1,0,0,1,29.4,21a3.4,3.4,0,0,0,.6-.6,2.1,2.1,0,0,0,.5-2.7,7.4,7.4,0,0,0-1.2-1.3,2.8,2.8,0,0,0-1.9-.7l.2-.5a2.5,2.5,0,0,0,.2-1.7v-.7a4,4,0,0,0-.3-1.9A2.6,2.6,0,0,0,26.6,9c-.1-.2-.3-.2-.4-.3h-.1a4.2,4.2,0,0,0-2.5-1.8l-2.2-.2-1.2-.4H19a19.9,19.9,0,0,0-4.9-.5,8.5,8.5,0,0,0-2.2.4h-.7l-1.4.5h0l-.7.3A6.7,6.7,0,0,0,6.3,9a3.2,3.2,0,0,0-.8,2.1H5.4v.2A3.3,3.3,0,0,0,5,13.2a1.7,1.7,0,0,1,.1.7,2.4,2.4,0,0,0-.5,1.4v.2H4.5a.6.6,0,0,0-.1.4c-.1.2-.1.4-.3.6H3.5c-.2-.1-.4.1-.6.1a2.4,2.4,0,0,0-1.5,1.3c-.2.2-.2.4-.3.6v.3a2.3,2.3,0,0,0,.6,1.8A3.8,3.8,0,0,0,3.5,22a3.2,3.2,0,0,1,1.7,1l.2.7a.4.4,0,0,0,.1.3h0a.7.7,0,0,0,.1.5,3.4,3.4,0,0,0,3.6,3h.9a7.6,7.6,0,0,0,1.6-.6,7.2,7.2,0,0,0,2-.9c.3-.2.6-.4.6-.8h0c.1-.1.1-.1.1-.2s.1-.2,0-.3,0-.4,0-.6h2.4a5,5,0,0,0,1.7-.2l2.2-.2c.1,0,.1.1.1.2a1.8,1.8,0,0,0,.4,1,2.2,2.2,0,0,0,.9,1l.4.2h.1a4.1,4.1,0,0,0,3.4.3,2.7,2.7,0,0,0,1.7-2,1.9,1.9,0,0,0,.2-.8ZM4,24.1a.7.7,0,0,0,.1-.5c-.1-.7-.9-.9-1.6-.8a.6.6,0,0,0-.6.4l-.2.3a1.4,1.4,0,0,0,1.1,1.3C3.4,25,3.8,24.8,4,24.1Z" fill="#fefefe"/><path d="M27.8,13.5a2.5,2.5,0,0,1-.2,1.7l-.2.5-.4.4c-.1.1,0,.2,0,.3s.5.6.7,1a2.9,2.9,0,0,1,.2,1.6v.8h-.1c-.3.3-.7.5-.7,1a4.5,4.5,0,0,1-1.3,1c0,.1-.1.1-.1.2h0l-2.3.9a4.3,4.3,0,0,1-1.9.4h-.7l-1.3.2H18.3a8.2,8.2,0,0,1-2.7,0c-.1,0-.2-.1-.3,0a2,2,0,0,1-1.1.2.1.1,0,0,1-.1-.1l-.4-.2-3-.4h0l-2.3-.7a3.2,3.2,0,0,1-1.7-1.9l.2.2a3.7,3.7,0,0,0,1.9.9h1.5a1.6,1.6,0,0,0,1,.2.9.9,0,0,0,1.3.2h.1l1.2.2a18.2,18.2,0,0,0,3.3-.1c1.1-.1,2.2-.3,3.4-.3a9.4,9.4,0,0,0,2.9-.6l1.3-.7h0a3.8,3.8,0,0,0,1.2-.9,4.6,4.6,0,0,0,1.4-2,.6.6,0,0,0-.2-.7v.2a6.7,6.7,0,0,1-.6,1.2h-.1l-.2.3h0a5.2,5.2,0,0,1-1.1,1l-1.3.8a7.8,7.8,0,0,1-3.4.3h-.5a5.2,5.2,0,0,1-1.7.2,2.6,2.6,0,0,0-1.5.1H13.4a8.8,8.8,0,0,0-.2-1.6h5l2.6-.2a9.7,9.7,0,0,0,3.4-.6,6.4,6.4,0,0,0,1.8-1,1.4,1.4,0,0,0,.5-1l-1.1.7h-.2a6.6,6.6,0,0,1-3.4.5h-1l-.8.2H13.1l-.2-1.5c2.8.1,5.6-.1,8.4-.2a6.5,6.5,0,0,0,2-.2h.6A5.3,5.3,0,0,0,27.8,13.5Z" fill="#f7fdc3"/><path d="M27.8,13.5a5.3,5.3,0,0,1-3.9,2.8h-.6c-.2-.2.2-.2.1-.3s.7-.6.6-1.1-.9-1-1.6-.7l-.5.2c0-.2-.2-.3-.3-.4s-.2,0-.2-.2l.4-.2c.4-.3.4-.5,0-.7a10.5,10.5,0,0,1-1.1-.7c-.3-.2-.7-.3-.7-.8v-.3h.1l.9-.5a.5.5,0,0,1-.3.5h-.1c.2.1.4.2.6,0a1.8,1.8,0,0,1,1.3-.3h3a1.1,1.1,0,0,0,1.3-.4l.6.2a4,4,0,0,1,.3,1.9Z" fill="#ebc141"/><path d="M27.8,19.8V19c.3,0,.5.3.6.5s.2.5.4.5a.6.6,0,0,1,.5.6v.2l-.6.5a2.5,2.5,0,0,0-.8,1.6.6.6,0,0,0-.2.7,1.4,1.4,0,0,0-.2.6c0,.2,0,.3-.2.3l-.6-.2c0,.2.3.3-.1.4a.1.1,0,0,0-.1.1.6.6,0,0,1-.6.3h-.3a.5.5,0,0,1-.5.3,1.1,1.1,0,0,0-.8.2c-.1.1-.2,0-.3,0a.1.1,0,0,1,0-.2l.2-.3h1c.1,0,.4,0,.3-.3s0-.2.1-.3,0,.3.2.3a.3.3,0,0,0,.3-.3h0c.2-.3.6-.3.6-.7a.5.5,0,0,0,.4-.7h.1c.1,0,.1.2.2.1s.2-.1.2-.2-.1-.1-.2-.1l-.2-.2c-.2-.2-.7-.3-.8-.1s-.4.3-.6.4h-.1c.1.3-.2.3-.4.4H25l-1.1.6c0,.1,0,.1-.1,0a1.5,1.5,0,0,0-.7.3c-.2.1-.1.2-.1.3s.6.3.9.4,0,.4-.3.4-.1-.1-.2-.1-.1.4,0,.6-.3.1-.4-.2.1-.1,0-.2h-.1v.2c-.1,0-.2.1-.3,0l-1-.7c-.1-.1-.2-.3-.4-.3a1.8,1.8,0,0,1-.4-1c0-.1,0-.2-.1-.2H22c0,.2.1.4.4.3h.3c.1.1.2,0,.3,0s.5-.3.6-.2.4.1.5-.2h.2c.2.1.3,0,.4-.2h.2c.3.1.3-.1.3-.3s.1-.1.2-.2h-.1c-.1-.2.3-.2.3-.4h0c.1,0,.1,0,.1-.2a4.5,4.5,0,0,0,1.3-1,4.6,4.6,0,0,0,.7-.7.2.2,0,0,0,0-.3h.1ZM23.3,24h0Z" fill="#dc8b12"/><path d="M20,11.5c0,.5.4.6.7.8a10.5,10.5,0,0,0,1.1.7c.4.2.4.4,0,.7s-.5-.3-.7-.3a.4.4,0,0,0-.3-.6l-.5-.3-.6-.2H18.4a.3.3,0,0,1-.3-.3,1.8,1.8,0,0,1,.6-.9c.2-.2.2-.4-.1-.6s.1-.6.1-.9a.9.9,0,0,0-.5-.8.7.7,0,0,0,.3-.6c.1-.1,0-.3,0-.4s.6-.7.7-1.2h0c.2,0,.2,0,.1-.2h.9l1.2.4c.1.2-.1.3-.2.5H21c0-.4-.3-.6-.6-.4A3.5,3.5,0,0,0,19.1,8a.5.5,0,0,0,.2.8.3.3,0,0,0,.3.3l1.1-.2a13.7,13.7,0,0,1,2.8-.2,11.3,11.3,0,0,1,2.6,0h.1c.1.1.3.1.4.3s0,.1,0,.2a1.8,1.8,0,0,0,.5.7h-.7c0-.1.2-.3,0-.4l-.6-.2a7.5,7.5,0,0,0-2.1-.2.8.8,0,0,0-.7.2h-.3c-.3,0-.4,0-.5.4l-.8.3a2.2,2.2,0,0,0-1.4.9C19.9,11,19.7,11.3,20,11.5Z" fill="#d57c0f"/><path d="M5.4,23.7,5.2,23v-.2h.6c0-.1-.1-.2-.2-.1H5.6c.1-.2.2-.2.2-.3s-.2,0-.2-.2-.1-.3-.2-.5v-.3c.3,0,.3-.1.2-.3H5.3v-.3h.4c.2,0,.3.1.4.4s.2.4.4.6h.1c.1,0,.1.1,0,.2s-.1.2.1.3h.6c.2.1.3.4.6.5a5.9,5.9,0,0,0,2.3.5,12.8,12.8,0,0,1,2.7.5c.1.1.1.1.2,0h0c0,.2,0,.3-.1.4s-.4.8-.8,1.1a2.1,2.1,0,0,1-1.2.5l-.9.2c-.4.1-.4.1-.5-.4a.5.5,0,0,1,.1-.3c.1.2.2.4.3.3h.6c.2-.2.5-.2.8-.3s.4-.2.5-.4.1-.3-.2-.3h-.5c-.1-.1-.2-.1-.2,0s-.2,0-.3-.1-.2-.2-.3,0l-.3.2c-.2-.1-.2-.2-.2-.3s-.2-.5-.5-.4H9.2c-.2-.3-.6-.3-.9-.4a.9.9,0,0,1-.7-.3H7.2a.2.2,0,0,1-.4.1h.1a.4.4,0,0,0,.1-.3c-.1-.1-.1.1-.2.1s-.1,0-.2,0-.1-.1-.2.1-.2.4.2.4h.1a1.3,1.3,0,0,0,.5,1.1c.1.1.2.5.5.5s.2.1.2.2.3.3.5.1a.2.2,0,0,1,.3,0,.6.6,0,0,0,.7.1h.1c-.1.2,0,.5-.3.3H9c-.1-.1-.3,0-.4,0s-.4,0-.6-.2l-.3-.2c-.3,0-.5,0-.6-.3s-.1-.1-.1-.1a.9.9,0,0,1-.7-.6c.1-.2-.1-.2-.2-.2H5.7c-.2,0,0-.3-.2-.4h0C5.6,23.9,5.6,23.8,5.4,23.7Zm.3-2.1c0-.1,0-.1-.1-.1h0c0,.1,0,.1.1.1Zm.7.3Zm-.2-.1h0Z" fill="#db880c"/><path d="M11.9,6.3a8.5,8.5,0,0,1,2.2-.4,19.9,19.9,0,0,1,4.9.5l-.3.3-1,1.2-.7.5h-.6a1.8,1.8,0,0,0-1.6.1,6.6,6.6,0,0,1-2-1.4A3.1,3.1,0,0,0,11.9,6.3Z" fill="#ebc141"/><path d="M29.4,20.6a.6.6,0,0,0-.5-.6c-.2,0-.3-.3-.4-.5s-.3-.5-.6-.5a2.9,2.9,0,0,0-.2-1.6c-.2-.4-.5-.6-.7-1s-.1-.2,0-.3l.4-.4a2.8,2.8,0,0,1,1.9.7,7.4,7.4,0,0,1,1.2,1.3,2.1,2.1,0,0,1-.5,2.7h-.1c.1,0,.1-.1,0-.1s-.2,0-.1.2A.5.5,0,0,1,29.4,20.6Zm.2-.5c0-.1.1-.1.1-.2h-.1c-.1.1,0,.2,0,.3s-.2,0-.1.1h.1Z" fill="#db8608"/><path d="M5.5,11.1A3.2,3.2,0,0,1,6.3,9,6.7,6.7,0,0,1,9.1,7.1c-.1.2-.1.4.2.4h.1c-.1.5.3.8.3,1.2s.1-.2.2-.2.6.3.6.6l.3.4c.1.1.1.2.2.2s-.6.1-.9.1,0-.1-.1-.2,0,.2,0,.3H8.9A5.8,5.8,0,0,0,5.5,11.1ZM9.8,8.9v.5H10c0-.1.1-.1,0-.2S9.9,9.1,9.8,8.9Zm-.7-.8h0Z" fill="#ebc141"/><path d="M5.5,11.1A5.8,5.8,0,0,1,8.9,10,2.2,2.2,0,0,0,10,9.9h.1c.3,0,.6.1.9-.1a.9.9,0,0,0,.8-.4h.4c0,.2-.1.3-.1.4h.1c.3.1.4.4.6.6s0,.2.1.2.1.3.3.4l.8.3c0,.2.1.2.2.2s-.1.4,0,.4.2.3.5.3.2.2.4.1h.7l.2.2a2.3,2.3,0,0,0-1.1.3c0-.2-.3,0-.3-.2s-.2-.2-.4-.1h-.1l-1-.5s.3,0,.2-.1-.1-.3-.3-.2h-.2c-.2.2-.3.1-.4-.1s.1-.2,0-.2l-.3.3c-.2,0-.1.2-.1.3s.1.3.2.3.2,0,.2.1-.1.1-.2.1a.4.4,0,0,0-.5.2h0a.4.4,0,0,0-.1-.3h-.1c-.1,0-.1-.1-.1-.2s.2-.1.2-.2-.3-.7-.3-1l-.4-.2c-.3.1-.5-.1-.7-.2h-.1c-.1,0-.2.1-.4-.1l-.3.2c-.2-.1-.4.1-.6.1s-.7-.1-.8.3H7.9c-.3-.2-.5,0-.6.2s0-.3-.1-.3l-.6.2H6.5c-.2-.2-.3-.1-.4,0s0,.2,0,.4.1,0,0,.1-.3-.2-.2-.4h0c-.2.1-.2.3-.4.4h.3c0,.1.1.1,0,.1s-.2,0-.2-.1H5.4c0-.1.1-.3,0-.4v-.2h.1Zm2.2-.2h0Zm4.7-.6h-.2c0,.1,0,.1.1.1Zm-4.3.1h0Zm3.6.9h0Z" fill="#d57c0f"/><path d="M1.4,18.2a2.4,2.4,0,0,1,1.5-1.3c.2,0,.4-.2.6-.1h.2c.2.3,0,.6.2,1s.1.3.3.3h.2v.3H4c0,.1,0,.1.1.1s.3.1.1.4H4.1a.2.2,0,0,0,.2.2v-.2c.2,0,.2.1.3.2s.1.3.1.5.1-.2.2-.1l.3.2c-.2.1-.1.4-.3.6h0c0-.1-.1-.3-.2-.3s.1.2.1.3-.1.1-.1.2-.2-.1-.2-.3,0-.4-.2-.5a1.1,1.1,0,0,0,.1.8c0,.1,0,.2-.1.2s-.2.2-.2,0H3.8c-.2,0-.2-.2-.2-.3s-.1-.1-.1,0-.1.1,0,.1H3.4c-.1-.1-.3-.3-.5-.2h0a.7.7,0,0,0-.6-.4c.1-.2.3-.1.2-.2l-.2-.3c-.1,0-.1.1-.1.2s-.3.1-.4,0-.3-.1-.4,0h0v-.2H1.1v-.3h.3c.1.1.1,0,.2,0h0c-.4-.2,0-.2,0-.3S1.6,18.2,1.4,18.2Zm.7.8c-.4.1-.4.1-.2.4s.3-.2.2-.4a.1.1,0,0,0,.1-.1H2.1Zm1.6-1.6h0ZM2.3,19.1Zm1.6-.9Zm-1,1.5Z" fill="#db880c"/><path d="M21.2,7.2c.1-.2.3-.3.2-.5l2.2.2a4.2,4.2,0,0,1,2.5,1.8,11.3,11.3,0,0,0-2.6,0,13.7,13.7,0,0,0-2.8.2.3.3,0,0,1,.3-.3s.2,0,.1-.2,0-.3.1-.4A.6.6,0,0,0,21.2,7.2Z" fill="#ebc141"/><path d="M9.6,25.7c.1.5.1.5.5.4l.9-.2a2.1,2.1,0,0,0,1.2-.5c.4-.3.5-.8.8-1.1s.1-.2.1-.4l1.3.2h0c0,.2.1.4,0,.6s-.3.2-.5.2.1-.1.1-.2.2-.1.1-.2h-.3c-.4,0-.6.3-.8.6a3.5,3.5,0,0,1-1.5,1.2,3.9,3.9,0,0,1-1.5.2H9.6a.3.3,0,0,1-.5,0c-.1,0-.1,0-.1.1s-.3,0-.4,0a2.8,2.8,0,0,1-1.3-.3H7.2c-.1.1-.1.1,0,.2a.1.1,0,0,1,0,.2l-.4-.3c-.2-.1-.2-.4-.4-.6a2.4,2.4,0,0,1-.7-1.2h.4c.1,0,.3,0,.2.2a.9.9,0,0,0,.7.6s.1-.1.1.1.3.3.6.3l.3.2c.2.2.4.1.6.2s.3-.1.4,0h.2c.3.2.2-.1.3-.3Zm-2.7.4c.1,0,.1,0,.1-.1a.1.1,0,0,0-.1-.1H6.8A.1.1,0,0,0,6.9,26.1Z" fill="#dc8b12"/><path d="M11.9,6.3a3.1,3.1,0,0,1,.9.7,6.6,6.6,0,0,0,2,1.4l-.7.5c-.2,0-.1-.1-.2-.2V8.5h-.1c-.1.2-.2.3-.4.3s-.1-.2-.1-.3h-.1c0-.2-.1-.2-.2-.2h-.2c0-.2-.1-.2-.1-.3l-.8-.7c0-.1-.1-.1-.1-.3s0-.1-.1-.1h-.3c-.2-.1-.3,0-.5,0h0V6.6a.4.4,0,0,0-.1.3c-.2-.1-.4-.2-.6,0s-.2,0-.2-.1h0a6.1,6.1,0,0,0,1.8-.5Zm.5,1.3h.1s.1.1.1,0Zm-.2-.3h0Z" fill="#d57c0f"/><path d="M1.9,23.2a.6.6,0,0,1,.6-.4c.7-.1,1.5.1,1.6.8a3.4,3.4,0,0,1-.6.6c-.2.2-.5.1-.8.2H2.6c-.1-.2-.2-.3-.4-.3A1.1,1.1,0,0,1,1.9,23.2Z" fill="#dd901e"/><path d="M4.4,18.4v-.3c.1-.2.1-.6-.1-.6s-.2-.2-.2-.4h.3c.2-.2,0-.4,0-.6s-.2,0-.3.1.2-.4.3-.6a.6.6,0,0,1,.1-.4c.1.3,0,.7.2.9v.2c-.3.2-.2.4-.2.6a2.4,2.4,0,0,0,1.2,2.1c-.1.2.1.3.1.4s0,.2-.2.2-.3-.1-.3.1h0a.5.5,0,0,1,.2.4H5.5v.2H5.3V21c-.1,0-.1-.1-.1-.2s-.2-.4-.5-.4,0-.2.1-.2-.3-.2-.1-.3.2.2.2.3h0c.2-.2.1-.5.3-.6l-.3-.2c-.1-.1-.1.1-.2.1s-.1-.3-.1-.5A.6.6,0,0,0,4.4,18.4Z" fill="#dd901e"/><path d="M9.8,6.8c0,.1.1.1.2.1s.5.4.6.6h0c-.2.2-.6,0-.8.2s.4.2.3.4,0,.1.1.2l.3.4.6.6c.2.1.4.2.6,0h.1a.9.9,0,0,1-.8.4c-.1,0-.1-.1-.2-.2l-.3-.4c0-.3-.3-.4-.6-.6s-.1.2-.2.2-.4-.7-.3-1.2H9.3c-.3,0-.3-.2-.2-.4Z" fill="#ecc348"/><path d="M20.8,23.6h-.1l-2.2.2a5,5,0,0,1-1.7.2H14.4c0-.1-.1-.2-.2-.3a2,2,0,0,0,1.1-.2c.1-.1.2,0,.3,0a8.2,8.2,0,0,0,2.7,0h1.1l1.3-.2Z" fill="#faf7ca"/><path d="M5.7,24.5a2.4,2.4,0,0,0,.7,1.2c.2.2.2.5.4.6l.4.3h.1l.2.2h.1c.3,0,.5.3.8.3H9.6c0,.1,0,.2-.2.1s-.2.1-.2.3a3.4,3.4,0,0,1-3.6-3,.7.7,0,0,1-.1-.5C5.7,24.2,5.5,24.5,5.7,24.5Z" fill="#d57f16"/><path d="M1.4,19.4h0a1.2,1.2,0,0,0,.5.8h0c-.1.1,0,.2.1.3l.5.4c.1,0,.2.2.4.1s.1.2.3.3l.7.2c.2.1.4.1.5.3h.2c.2.1.1.4.3.3l.4.6V23a3.2,3.2,0,0,0-1.7-1,3.8,3.8,0,0,1-1.8-1.1,2.3,2.3,0,0,1-.6-1.8h.3Z" fill="#d57f16"/><path d="M9.2,27.6c0-.2.1-.3.2-.3s.2,0,.2-.1h.5c.2-.1.5,0,.7-.3H11a1.5,1.5,0,0,0,1.1-.4h0c.4-.1.7-.2.8-.5H13a.2.2,0,0,0,.2-.2h0c.2,0,.3-.1.3-.2h0l.3-.3c.2-.2.3-.2.5-.1s-.3.6-.6.8a7.2,7.2,0,0,1-2,.9,7.6,7.6,0,0,1-1.6.6Z" fill="#cf7210"/><path d="M17,8.4l.7-.5,1-1.2.3-.3h.3c.1.2.1.2-.1.2h0c-.1.5-.7.7-.7,1.2s.1.3,0,.4a.7.7,0,0,1-.3.6A4.2,4.2,0,0,0,17,8.4Z" fill="#d37806"/><path d="M27.7,24.4a2.7,2.7,0,0,1-1.7,2,4.1,4.1,0,0,1-3.4-.3h.2a3.2,3.2,0,0,0,1.7.3c.1,0,.3.1.4-.1h.3v.2c.2-.2.5-.2.8-.3s.2-.1.2-.2h.1c.1,0,.2,0,.2-.1h.1c.3-.1.5-.5.7-.7S27.5,24.5,27.7,24.4Z" fill="#cf7210"/><path d="M5.4,11.5c.1.1,0,.3,0,.4a.4.4,0,0,0-.1.3v.5c0,.3-.1.7.2,1v.2c0,.5.1,1,.1,1.5s-.1-.4-.2-.6,0-.4-.2-.4v-.5a1.7,1.7,0,0,0-.1-.7A3.3,3.3,0,0,1,5.4,11.5Z" fill="#dd901e"/><path d="M2.6,24.4h.1c.1.2.4.1.6.1s.4-.3.7-.4-.6.9-1.2.7a1.4,1.4,0,0,1-1.1-1.3l.2-.3a1.1,1.1,0,0,0,.3.9C2.2,24.3,2.4,24.3,2.6,24.4Z" fill="#cf7210"/><path d="M29.9,20.3H30a3.4,3.4,0,0,1-.6.6,3.1,3.1,0,0,0-1.3,1.9h-.2a2.5,2.5,0,0,1,.8-1.6l.6-.5v-.2a.5.5,0,0,0,.4-.2Z" fill="#d57c0f"/><path d="M4.7,16.5c-.2-.2-.1-.6-.2-.9h.1v-.2l.5-.5a1.1,1.1,0,0,0,.3.8h0A2.7,2.7,0,0,0,4.7,16.5Z" fill="#d57f16"/><path d="M4.1,16.6c.1-.1.2.2.3-.1s.2.4,0,.6H4.1c0,.2,0,.4.2.4s.2.4.1.6H4.2c-.2,0-.2-.2-.3-.3s0-.7-.2-1h.2c.1,0,.1-.1.1-.2Z" fill="#dc8b12"/><path d="M24.9,26.3c-.1.2-.3.1-.4.1a3.2,3.2,0,0,1-1.7-.3h-.3c0-.2-.2-.2-.4-.2a2.2,2.2,0,0,1-.9-1c.2,0,.3.2.4.3l1,.7c.1.1.2,0,.3,0H23c.1.3.3.1.4.2l.4.2A4,4,0,0,1,24.9,26.3Z" fill="#d57c0f"/><path d="M27.1,9.9a1.8,1.8,0,0,1-.5-.7c0-.1-.1-.1,0-.2a2.6,2.6,0,0,1,.9,1.9l-.6-.2h-.1C27.2,10.3,27.2,10.3,27.1,9.9Z" fill="#d57f16"/><path d="M5.1,14.8l-.5.5a2.4,2.4,0,0,1,.5-1.4v.9Z" fill="#ecc348"/><path d="M4,24.1c-.3.1-.4.4-.7.4s-.5.1-.6-.1.6,0,.8-.2a3.4,3.4,0,0,0,.6-.6A.7.7,0,0,1,4,24.1Z" fill="#d57f16"/><path d="M27.7,24.4c-.2.1-.2.3-.3.5h-.1v-.2h0c.2,0,.2-.1.2-.3a1.4,1.4,0,0,1,.2-.6h.2A1.9,1.9,0,0,1,27.7,24.4Z" fill="#d57c0f"/><path d="M11.6,6.2a6.1,6.1,0,0,1-1.8.5l1.4-.5Z" fill="#dd901e"/><path d="M14.3,25.2c-.2-.1-.3-.1-.5.1l-.3.3c0-.3.3-.5.4-.7s.3-.3.5-.2,0,.2,0,.3-.2.1-.1.2Z" fill="#d57f16"/><path d="M1.4,18.2c.2,0-.1.4.2.3s-.4.1,0,.3h0c-.1,0-.1.1-.2,0H1.1C1.2,18.6,1.2,18.4,1.4,18.2Z" fill="#dc8b12"/><path d="M27.9,23.6h-.2a.6.6,0,0,1,.2-.7h.2a.3.3,0,0,1-.1.2c-.1.1-.2.1-.1.2Z" fill="#db880c"/><path d="M22.1,25.9c.2,0,.4,0,.4.2Z" fill="#cf7210"/><path d="M5.4,23.7c.2.1.2.2.1.3A.4.4,0,0,1,5.4,23.7Z" fill="#d57f16"/><path d="M4,16.6c0,.1,0,.2-.1.2H4Z" fill="#db880c"/><path d="M27.9,23.3c-.1-.1,0-.1.1-.2S28,23.3,27.9,23.3Z" fill="#d57c0f"/><path d="M14.3,25.2c-.1-.1,0-.2.1-.2S14.4,25.1,14.3,25.2Z" fill="#cf7210"/><path d="M4.6,15.5h0Z" fill="#dd901e"/><path d="M26.2,8.7h0Z" fill="#ebc141"/><path d="M3.5,16.8h0Z" fill="#dc8b12"/><path d="M5.5,11.2h0Z" fill="#ebc141"/><path d="M21.3,16.6c-2.8.1-5.6.3-8.4.2h0v-.7a4,4,0,0,1,0-1.1,4.1,4.1,0,0,1,2-2.1c.1.1.2.2.4.1h.1c.1.3.3.2.4.3h.4l.3.2c0,.2.1.2.2.2l.3.2.2.2c.4.1.7.2.8.5s.1.2.2.1.3-.1.3,0l.3.2h.4c.2.1.4.3.5.1h.2a3.2,3.2,0,0,0,.9.3c.2,0,.3.2.4.3s.1.3,0,.3h0C21.4,16.2,21.3,16.4,21.3,16.6Z" fill="#ebc141"/><path d="M25.4,17.4l1.1-.7a1.4,1.4,0,0,1-.5,1,6.4,6.4,0,0,1-1.8,1,9.7,9.7,0,0,1-3.4.6l-2.6.2h-5c0-.2-.1-.5-.1-.7h1.7c.4,0,.7-.2,1.1-.1a7.4,7.4,0,0,0,2.1,0,22.2,22.2,0,0,1,3.7-.3,8.8,8.8,0,0,0,1.7-.2A5,5,0,0,0,25.4,17.4Z" fill="#ecc348"/><path d="M24.8,20.6l-1.3.7a9.4,9.4,0,0,1-2.9.6c-1.2,0-2.3.2-3.4.3a18.2,18.2,0,0,1-3.3.1l-1.2-.2c.3-.2.5-.3.6-.6h3.8l3.2-.2h3.4C24.1,20.9,24.4,20.6,24.8,20.6Z" fill="#ecc54e"/><path d="M21.3,16.6c0-.2.1-.4-.1-.5h0q.2,0,0-.3c-.1-.1-.2-.3-.4-.3a3.2,3.2,0,0,1-.9-.3h-.2c-.1.2-.3,0-.5-.1h-.4l-.3-.2c0-.1-.2-.3-.3,0s-.2,0-.2-.1-.4-.4-.8-.5l-.2-.2-.3-.2c-.1,0-.2,0-.2-.2l-.3-.2h-.4c-.1-.1-.3,0-.4-.3h-.1c-.2.1-.3,0-.4-.1h0a2.3,2.3,0,0,1,1.1-.3,4,4,0,0,1,1.5.3.6.6,0,0,0,.1.7c.1,0,.2.1.2.3h.1c.5,0,.9.4,1.4.6l1.2.2c.3,0,.7-.2.9.2s0,.7.4.8H22l.6.2h.8c.1.1-.3.1-.1.3A6.5,6.5,0,0,1,21.3,16.6Z" fill="#ecc348"/><path d="M25.4,17.4a5,5,0,0,1-2,.8,8.8,8.8,0,0,1-1.7.2,22.2,22.2,0,0,0-3.7.3,7.4,7.4,0,0,1-2.1,0c-.4-.1-.7.1-1.1.1H13.1c0-.2-.1-.3,0-.5H20l.8-.2h1a6.6,6.6,0,0,0,3.4-.5Z" fill="#d19435"/><path d="M13.2,19.5a8.8,8.8,0,0,1,.2,1.6H10.9V19.4h2.3Z" fill="#de9e18"/><path d="M24.8,20.6c-.4,0-.7.3-1.1.3H20.3l-3.2.2H13.4v-.4h3.3a2.6,2.6,0,0,1,1.5-.1,5.2,5.2,0,0,0,1.7-.2h.5a7.8,7.8,0,0,0,3.4-.3l1.3-.8a5.2,5.2,0,0,0,1.1-1c0,.2-.1.3-.1.4H26a.2.2,0,0,0-.2.2c-.3.3-.5.8-.9,1s-.1.1-.1.2Z" fill="#d19435"/><path d="M12.9,16.8h0c.1.5.1,1,.2,1.5H10.9a6.6,6.6,0,0,0,0-1.4c.4-.1.9.1,1.3,0h.7Z" fill="#de9e18"/><path d="M10.3,21.7H8.8a3.7,3.7,0,0,1-1.9-.9l-.2-.2H7a4.7,4.7,0,0,0,1.7.4l2.3.4.2.6Z" fill="#ecc54e"/><path d="M14.2,23.8c.1.1.2.2.2.3l-1.3-.2h-.2a12.8,12.8,0,0,0-2.7-.5,5.9,5.9,0,0,1-2.3-.5c-.3-.1-.4-.4-.6-.5s-.4-.5-.4-.8.1.1.1.2a3.5,3.5,0,0,0,1.5,1.1,5.5,5.5,0,0,0,2.2.2h0a1.3,1.3,0,0,0,.8.2,11.7,11.7,0,0,0,2.6.4A.1.1,0,0,0,14.2,23.8Z" fill="#cf7210"/><path d="M10.7,23.1a5.5,5.5,0,0,1-2.2-.2A3.5,3.5,0,0,1,7,21.8c0-.1-.1-.1-.1-.2s-.1-.2-.1-.3-.4-.6-.2-1h.1a3.2,3.2,0,0,0,1.7,1.9Z" fill="#de9e18"/><path d="M20.8,23.6h.6a4.3,4.3,0,0,0,1.9-.4l2.3-.9c0,.2-.4.2-.3.4l-.4.2-.9.4a7.3,7.3,0,0,1-2,.5Z" fill="#cf7210"/><path d="M25.8,19.4a.2.2,0,0,1,.2-.2c.1,0,0,.2.1.2s.1-.1.1-.3-.1,0-.1,0,.1-.2.1-.4h0c.2,0,.2-.1.2-.3h.1a1.4,1.4,0,0,0,.7-1.1.1.1,0,0,0-.1-.1V17a.6.6,0,0,1,.2.7,4.6,4.6,0,0,1-1.4,2C25.9,19.6,26,19.4,25.8,19.4Z" fill="#ecc348"/><path d="M10.9,18.2h2.2c-.1.2,0,.3,0,.5H10.9Z" fill="#cf7210"/><path d="M13.3,21.5c-.1.3-.3.4-.6.6h-.8a.2.2,0,0,0,0-.3c-.1-.2-.1-.3.2-.3Z" fill="#d57f16"/><path d="M14.1,23.7a11.7,11.7,0,0,1-2.6-.4,1.3,1.3,0,0,1-.8-.2l3,.4Z" fill="#de9e18"/><path d="M25.8,19.4c.2,0,.1.2.2.3a3.8,3.8,0,0,1-1.2.9c0-.1,0-.1.1-.2S25.5,19.7,25.8,19.4Z" fill="#ecc54e"/><path d="M11.9,22h.7a.9.9,0,0,1-1.3-.2h.6Z" fill="#de9e18"/><path d="M27.7,19.9a.2.2,0,0,1,0,.3,4.6,4.6,0,0,1-.7.7C27,20.4,27.4,20.2,27.7,19.9Z" fill="#cf7210"/><path d="M27.1,17.2a.1.1,0,0,1,.1.1,1.4,1.4,0,0,1-.7,1.1A6.7,6.7,0,0,0,27.1,17.2Z" fill="#d19435"/><path d="M10.3,21.7l.9.2h.1A1.6,1.6,0,0,1,10.3,21.7Z" fill="#fefefe"/><path d="M26.4,18.4c0,.2,0,.3-.2.3Z" fill="#d19435"/><path d="M25.7,21.9c0,.2,0,.2-.1.2S25.7,22,25.7,21.9Z" fill="#cf7210"/><path d="M27.8,19.8h0Z" fill="#cf7210"/><path d="M27.1,9.9c.1.4.1.4-.3.7h-.5l-.2-.2a15.2,15.2,0,0,1-2.1-.3.4.4,0,0,0-.4.2,4.1,4.1,0,0,0-1.1,0c-.1-.2-.2-.1-.3.1l-1.1.2-.9.5h-.1v.3c-.3-.2-.1-.5,0-.6a2.2,2.2,0,0,1,1.4-.9l.8-.3c.1,0,.2.1.2,0a12.2,12.2,0,0,1,2.7,0l1.3.2Z" fill="#cf7210"/><path d="M21.1,10.6l1.1-.2h.3a4.1,4.1,0,0,1,1.1,0H24l2.3.2h.6a1.1,1.1,0,0,1-1.3.4h-3a1.8,1.8,0,0,0-1.3.3c-.2.2-.4.1-.6,0h.1A.5.5,0,0,0,21.1,10.6Z" fill="#ecc348"/><path d="M21.4,15c-.2-.4-.6-.2-.9-.2l-1.2-.2c-.5-.2-.9-.6-1.4-.6h-.1c0-.2-.1-.3-.2-.3a.6.6,0,0,1-.1-.7l1,.5c.4.1.7.4,1.1.4a2.8,2.8,0,0,0,1.8.1c0,.2.1.2.2.2s.3.2.3.4Z" fill="#ecc54e"/><path d="M23.4,16.1h-.8c0-.1,0-.2.1-.2s.2-.5,0-.7h.2c0-.2-.1-.2-.2-.3s-.3-.2-.3-.4,1.6.1,1.6.7S23.8,15.8,23.4,16.1Z" fill="#d37806"/><path d="M21.4,13.9a2.8,2.8,0,0,1-1.8-.1c0-.1,0-.1-.1-.1a1.8,1.8,0,0,0-.7-.5c-.1,0-.1-.1-.1-.2h.2c.3.1.6,0,.9.2a1.9,1.9,0,0,0,1.3.2c.2,0,.6-.1.7.3Z" fill="#cf7210"/><path d="M22.4,14.3c0,.2.2.3.3.4s.2.1.2.3h-.3c-.7-.1-.8.2-.8.7s-.4-.5-.4-.8l.5-.5Z" fill="#d57c0f"/><path d="M20.1,11.2h0Z" fill="#d57c0f"/><path d="M23.9,25.2c-.3-.1-.7-.1-.9-.4s-.1-.2.1-.3a1.5,1.5,0,0,1,.7-.3c.1.1.1.1.1,0l1.1-.6h.3c.2-.1.5-.1.4-.4h.1c.2-.1.5-.1.6-.4s.6-.1.8.1l.2.2c.1,0,.2,0,.2.1s-.1.1-.2.2-.1-.1-.2-.1h-.1a.5.5,0,0,1-.4.7c0,.4-.4.4-.6.7h0a.3.3,0,0,1-.3.3c-.2,0-.1-.2-.2-.3s-.2.2-.1.3-.2.3-.3.3h-1c-.1-.1-.1-.4-.2-.3s0,.2,0,.3h-.1Zm2.9-2.4c-.1-.1-.1-.1-.1,0h.1Zm-.3,1h0Z" fill="#db880c"/><path d="M23.9,25.2h.3l-.2.3a.1.1,0,0,0,0,.2c.1,0,.2.1.3,0a1.1,1.1,0,0,1,.8-.2.5.5,0,0,0,.5-.3h.3a.6.6,0,0,0,.6-.3.1.1,0,0,1,.1-.1c.4-.1.1-.2.1-.4l.6.2h0c-.3,0-.3.2-.3.4s-.3.4-.3.6h-.1c-.1,0-.2,0-.2.1h-.1l-1.1.3h-.3a4,4,0,0,0-1.1,0l-.4-.2c-.1-.2-.3-.4,0-.6s0,.2.2.1S23.9,25.4,23.9,25.2Z" fill="#dd901e"/><path d="M22,23.6a7.3,7.3,0,0,0,2-.5l.9-.4.4-.2h.1c-.1.1-.1.2-.2.2s0,.4-.3.3h-.2c-.1.2-.2.3-.4.2h-.2c-.1.3-.2.4-.5.2s-.5,0-.6.2-.2.1-.3,0h-.3C22.1,24,22,23.8,22,23.6Z" fill="#dd901e"/><path d="M23,25.9h-.1v-.2H23C23.1,25.8,23.1,25.9,23,25.9Z" fill="#dd901e"/><path d="M23.3,24h0Z" fill="#dd901e"/><path d="M17,8.4a4.2,4.2,0,0,1,1.2.3.9.9,0,0,1,.5.8l-.3.4-.4.2c0-.1,0-.3-.2-.3a.7.7,0,0,0-.6.2,1.6,1.6,0,0,1-1.3.7l-.8.2h-.4l-1-.3c0-.3-.2-.6,0-.9V9.4l.5-.5.7-.5a1.8,1.8,0,0,1,1.6-.1Z" fill="#faf7ca"/><path d="M21.1,13.4a1.9,1.9,0,0,1-1.3-.2c-.3-.2-.6-.1-.9-.2h-.2c0,.1,0,.2.1.2a1.8,1.8,0,0,1,.7.5c.1,0,.1,0,.1.1s-.7-.3-1.1-.4l-1-.5a4,4,0,0,0-1.5-.3l-.2-.2h-.7c-.2.1-.3-.2-.4-.1s-.3-.3-.5-.3,0-.2,0-.4a1.1,1.1,0,0,0,.8.3c.2,0,.5.1.7-.1H16l1.2-.4a2,2,0,0,0,1.3-.6c.1,0,.1-.1,0-.2h.1c.3.2.3.4.1.6a1.8,1.8,0,0,0-.6.9.3.3,0,0,0,.3.3h1.3l.6.2.5.3A.4.4,0,0,1,21.1,13.4Z" fill="#d57f16"/><path d="M21.2,7.2a.6.6,0,0,1,0,.8c-.1.1-.3.2-.1.4s-.1.2-.1.2a.3.3,0,0,0-.3.3l-1.1.2a.3.3,0,0,1-.3-.3.9.9,0,0,1,.3-.6A6.7,6.7,0,0,1,21,7.3Z" fill="#ecc348"/><path d="M26.4,9.9l-1.3-.2a12.2,12.2,0,0,0-2.7,0c0,.1-.1,0-.2,0s.2-.4.5-.4H23a.8.8,0,0,1,.7-.2,7.5,7.5,0,0,1,2.1.2l.6.2C26.6,9.6,26.4,9.8,26.4,9.9Z" fill="#d57f16"/><path d="M17.2,11.3l-1.2.4h-.8L14,11.4l-.8-.3c-.2-.1-.3-.2-.3-.4s0-.4.1-.5l.7.3,1,.3c-.1.2-.2.1-.3.1h-.2c-.1,0,0,.1,0,.1a.7.7,0,0,0,.6.4h.6a5.1,5.1,0,0,0,2-.6l.8-.5a.6.6,0,0,0,.2-.6l.3-.4c0,.3-.1.6-.1.9h-.1l-.7.5C17.6,11.1,17.4,11.1,17.2,11.3Z" fill="#ebc141"/><path d="M21,7.3a6.7,6.7,0,0,0-1.4.9.9.9,0,0,0-.3.6.5.5,0,0,1-.2-.8,3.5,3.5,0,0,1,1.3-1.1C20.7,6.7,21,6.9,21,7.3Z" fill="#cf7210"/><path d="M9.6,25.7H9.4a.6.6,0,0,1-.7-.1.2.2,0,0,0-.3,0c-.2.2-.4.2-.5-.1s0-.2-.2-.2-.4-.4-.5-.5a1.3,1.3,0,0,1-.5-1.1H6.6c-.4,0-.2-.2-.2-.4s.1-.2.2-.1.1.1.2,0,.1-.2.2-.1a.4.4,0,0,1-.1.3H6.8a.2.2,0,0,0,.4-.1h.4a.9.9,0,0,0,.7.3c.3.1.7.1.9.4h.2c.3-.1.4,0,.5.4s0,.2.2.3l.3-.2q.2-.3.3,0c.1.1.1.2.3.1s.1-.1.2,0h.5c.3,0,.3.1.2.3s-.2.4-.5.4-.6.1-.8.3H10c-.1.1-.2-.1-.3-.3A.5.5,0,0,0,9.6,25.7Zm-.7-.3Z" fill="#db8608"/><path d="M4.6,21.9H4.4c-.1-.2-.3-.2-.5-.3l-.7-.2q-.3-.2-.3-.3c-.2-.2.1-.3.1-.5s.3.1.4.1,0-.2,0-.3h.1c-.1,0-.1-.1,0-.1s.1,0,.1,0,0,.3.2.3v.3c-.1.1-.1.1,0,.2h.2c.1-.2.2-.1.3.1s0,.2.1.2.1-.3.1-.5.1.4.1.6.2,0,.2-.3V21a.2.2,0,0,1,.2-.2c.1,0,0,.1.1.2s-.2.4.1.6.1-.4.3-.2v.3c-.2,0-.2.5-.5.2v.3c-.2.1-.1-.2-.3-.3h0Z" fill="#dd901e"/><path d="M6.6,20.3c-.2.4,0,.7.2,1s.1.2.1.3.2.5.4.8H6.7c-.2-.1-.3-.2-.1-.3s.1-.2,0-.2H6.5c-.2-.2-.4-.4-.4-.6s-.2-.4-.4-.4H5.5v-.2h.1c.3-.1.2-.3.1-.5s.3,0,.2-.2-.2-.2-.1-.4.5.4.7.6Z" fill="#dc8b12"/><path d="M5.4,21.4c-.2-.2-.3,0-.3.2S5,21.2,5,21s0-.2-.1-.2a.2.2,0,0,0-.2.2v.2c0,.3-.1.3-.2.3s.2-.4-.1-.6-.1.3-.1.5-.1-.1-.1-.2-.2-.3-.3-.1H3.7c-.1-.1-.1-.1,0-.2v-.3h.3c0,.2.1,0,.2,0s.1-.1.1-.2a1.1,1.1,0,0,1-.1-.8c.2.1.2.3.2.5s0,.3.2.3.5.1.5.4,0,.2.1.2h.3C5.7,21.3,5.7,21.4,5.4,21.4Z" fill="#dc8b12"/><path d="M4.9,22.2v-.3c.3.3.3-.2.5-.2s.3.3.2.5.2,0,.2.2-.1.1-.2.3h.1c.1-.1.2,0,.2.1H5.3Z" fill="#dc8b12"/><path d="M5.7,21.6h0c-.1,0-.1,0-.1-.1h0C5.7,21.5,5.7,21.5,5.7,21.6Z" fill="#dc8b12"/><path d="M6.4,21.9h0Z" fill="#dc8b12"/><path d="M12.9,23.9h.2C13,24,13,24,12.9,23.9Z" fill="#dc8b12"/><path d="M6.2,21.8h0Z" fill="#dc8b12"/><path d="M9.4,25.6Z" fill="#dc8b12"/><path d="M29.6,20.1c0-.1-.1-.2,0-.3h.1c0,.1-.1.1-.1.2Z" fill="#dc8b12"/><path d="M29.9,20.3h-.1c-.1-.2,0-.2.1-.2S30,20.3,29.9,20.3Z" fill="#dc8b12"/><path d="M29.6,20.1h-.1c-.1-.1,0-.1.1-.1Z" fill="#dc8b12"/><path d="M9.8,8.9c.1.2.2.3.2.4s0,.1,0,.2H9.8Z" fill="#ecc348"/><path d="M9.1,8.1h0Z" fill="#ecc348"/><path d="M10.1,9.9H10a.1.1,0,0,1,0-.2C10.1,9.8,10,9.9,10.1,9.9Z" fill="#ecc348"/><path d="M11.7,12.7h0a1,1,0,0,1-.2.9c0,.2-.1.3-.1.5a4.1,4.1,0,0,0-.3.8H11c.1-.2,0-.2-.1-.2s-.7.3-.7.4,0,.3-.1.5,0,.4-.2.4-.3.2-.4.2H9.4c-.1-.3-.4-.1-.6-.3s.3.4.5.6A4.7,4.7,0,0,1,7.7,16h.4c.2.2.4.1.5-.2s.1-.1,0-.2H8.5l-.2.2c-.1-.1,0-.2-.1-.3s0-.2.1-.2.1.1.2.1-.1-.4,0-.5H8.3c0,.2-.1.2-.2.1H7.9c-.1.2-.4.1-.5.3s-.2-.1-.2-.2v-.3L7,14.7c-.3,0-.3-.3-.3-.4s0-.4.3-.3l.4-.2h0a.4.4,0,0,1-.4-.2l-.2.2c0,.1,0,.2-.1.2a.2.2,0,0,1-.2-.2,1.1,1.1,0,0,0,.1-.5c0-.1.1-.2.2,0H7v-.2c0-.1,0-.3.2-.3s.5-.1.7.3h.1a.3.3,0,0,1,.1.2c.1.2.2.2.2.1s.4-.3.4-.5.1-.2.2-.1h.4c.2.1.4.3.7.1s.3.1.4.1h.1c.1,0-.1-.1,0-.1h.2ZM9.5,14.8c-.1.1-.1.2.1.3a.4.4,0,0,1,.1.3c0,.1-.1.2.1.2s.1-.1.1-.2A.7.7,0,0,0,9.5,14.8Zm1.3-.8c0,.2,0,.3.1.4S11,14.2,10.8,14ZM9.2,15.7H9.1A.1.1,0,0,0,9.2,15.7ZM7.4,14.1Zm.2.9Z" fill="#ebc141"/><path d="M11.4,14.1c0-.2.1-.3.1-.5a1,1,0,0,0,.2-.9.4.4,0,0,1,.5-.2c.1,0,.2.1.2-.1s0-.2-.2-.1-.2-.2-.2-.3-.1-.3.1-.3l.3-.3c.1,0,0,.1,0,.2s.2.3.4.1H13c.2-.1.2.1.3.2s-.2.1-.2.1l1,.5h.1c.2-.1.3,0,.4.1s.3,0,.3.2h0a4.1,4.1,0,0,0-2,2.1,4,4,0,0,0,0,1.1v.7h-.7c.1-.1,0-.1-.1-.2s-.1-.1-.1-.2,0-1.2.1-1.8l-.3-.2h-.3A.4.4,0,0,0,11.4,14.1Zm.4-.1v-.2C11.7,13.9,11.7,14,11.8,14Z" fill="#d37806"/><path d="M8.1,13.1H8c-.2-.4-.5-.2-.7-.3s-.2.2-.2.3v.2H6.8c-.1-.2-.2-.1-.2,0a1.1,1.1,0,0,1-.1.5.2.2,0,0,0,.2.2c.1,0,.1-.1.1-.2l.2-.2a.4.4,0,0,0,.4.2h0L7,14c-.3-.1-.3.2-.3.3s0,.4.3.4l.2.2v.3c0,.1.2.2.2.2s.4-.1.5-.3h.2c.1.1.2.1.2-.1h.2c-.1.1,0,.3,0,.5s-.1-.2-.2-.1-.1.1-.1.2,0,.2.1.3l.2-.2h.1c.1.1,0,.1,0,.2s-.3.4-.5.2H7.7l-1.2-.7a4.9,4.9,0,0,1-1.1-1.4v-.2c0-.4.4-.8.7-1.1a9.3,9.3,0,0,1,1-.5c.1.1.1.3.3.3s0-.2.1-.3h.2c0,.1-.1.3,0,.4a.1.1,0,0,0,0,.2h.3l.2-.2h.2a.3.3,0,0,1-.1.2c0,.1-.1.3.1.4s-.1-.3.1-.3h.7a.6.6,0,0,0,.6.2c.1,0,.3.2.5,0a.5.5,0,0,0,.5-.1c.2-.3.2-.3-.1-.4h-.3c-.2-.1-.5,0-.6-.3a2.8,2.8,0,0,1,1.3.3h.2v.2c-.1.1-.3.1-.1.2h.2a.4.4,0,0,1,.1.3l-.9.3h-.2v-.2c-.1,0-.1.1-.1.2s-.3-.2-.4-.1-.5,0-.7-.1H9c-.1-.1-.1,0-.2.1S8.4,13.1,8.1,13.1Z" fill="#ecc348"/><path d="M6.2,12.6c-.3.3-.7.7-.7,1.1s-.2-.7-.2-1v-.5a.4.4,0,0,1,.1-.3h.2c0,.1.1.2.2.1s0,0,0-.1H5.5c.2-.1.2-.3.4-.4h0c-.1.2,0,.4.2.4s0-.1,0-.1-.1-.3,0-.4.2-.2.4,0h.1l.6-.2c.1,0,0,.2.1.3s.3-.4.6-.2H8c.1-.4.5-.4.8-.3s.4-.2.6-.1l.3-.2c.2.2.3.1.4.1h.1c.2.1.4.3.7.2l.4.2c0,.3.3.6.3,1s0,.3-.2.2h-.1c0-.1,0-.2-.1-.2a.5.5,0,0,0-.3-.5h-.7a4.1,4.1,0,0,0-1.9,0c-.1,0-.1.2-.3.1s-.4-.1-.5.3H7.4c-.2.2-.6.1-.8.4H6.5C6.2,12.2,6.1,12.4,6.2,12.6Zm.9-.9Z" fill="#d57f16"/><path d="M13,10.2c-.1.1,0,.3-.1.5s-.1-.1-.1-.2-.3-.5-.6-.6h-.1c0-.1.1-.2.1-.4s.3-.3.2-.5a3.8,3.8,0,0,0-.9-1.2l-.7-.8c.2,0,.3-.1.5,0h.3c.1,0,.2,0,.1.1s.1.2.1.3l.8.7c0,.1.1.1.1.3h.2c.1,0,.2,0,.2.2h.1c0,.1-.1.3.1.3s.3-.1.4-.3h.1v.2c.1.1,0,.2.2.2l-.5.5A1.6,1.6,0,0,0,13,10.2Z" fill="#d57f16"/><path d="M10.8,6.9l.7.8a3.8,3.8,0,0,1,.9,1.2c.1.2-.1.4-.2.5h-.4a.4.4,0,0,0,.1-.3,2,2,0,0,0-.8-1.2h0a1,1,0,0,0-.5-.4c-.1-.2-.4-.3-.6-.6s.4-.1.6,0Z" fill="#cf7210"/><path d="M14,11.4l1.2.3h.5c-.2.2-.5.1-.7.1a1.1,1.1,0,0,1-.8-.3C14.1,11.6,14,11.6,14,11.4Z" fill="#cf7210"/><path d="M11.6,12.4h-.2c-.2-.1,0-.1.1-.2Z" fill="#ecc54e"/><path d="M7.7,10.9h0Z" fill="#d57f16"/><path d="M12.4,10.3h-.1c-.1,0-.1,0-.1-.1h.2Z" fill="#d57f16"/><path d="M8.1,10.4h0Z" fill="#d57f16"/><path d="M11.7,11.3h0Z" fill="#d57f16"/><path d="M7.7,10.9Z" fill="#d57f16"/><path d="M7.8,10.9h0Z" fill="#d57f16"/><path d="M6.6,11.2h0Z" fill="#d57f16"/><path d="M5.6,11.9h0Z" fill="#dd901e"/><path d="M5.9,11.4Z" fill="#d57f16"/><path d="M3.4,20.5c0,.1.1.2,0,.3s-.3-.2-.4-.1-.3.3-.1.5-.3-.1-.4-.1L2,20.7c-.1-.1-.2-.2-.1-.3s.4.1.7.1-.1-.1-.1-.2-.2-.3-.4-.3-.1.2-.2.3a1.2,1.2,0,0,1-.5-.8c.1-.1.2-.2.4,0s.2.2.4,0,0-.2.1-.2l.2.3c.1.1-.1,0-.2.2a.7.7,0,0,1,.6.4h0C3.1,20.2,3.3,20.4,3.4,20.5Zm-.8.2H2.5s-.1.1,0,.1,0,.1.1.1Zm.3-.3h0Z" fill="#dc8b12"/><path d="M4.4,18.4a.6.6,0,0,1,.2.7c-.1-.1-.1-.2-.3-.2H4.2c.2-.3.2-.3-.1-.4s-.1,0-.1-.1h.4Z" fill="#dc8b12"/><path d="M2.1,19c.1.2-.1.3-.2.4s-.2-.3.2-.4Z" fill="#dc8b12"/><path d="M4.2,18.9h.1v.2a.2.2,0,0,1-.2-.2Z" fill="#dd901e"/><path d="M3.7,17.4h0Z" fill="#dc8b12"/><path d="M2.1,19h.1a.1.1,0,0,1-.1.1Z" fill="#dc8b12"/><path d="M2.3,19.1h0Z" fill="#dc8b12"/><path d="M3.9,18.2Z" fill="#dc8b12"/><path d="M4,18.4Z" fill="#dc8b12"/><path d="M2.9,19.7Z" fill="#dc8b12"/><path d="M1.4,19.4v0Z" fill="#dc8b12"/><path d="M2.9,20.3h0Z" fill="#dd901e"/><path d="M3.5,20.4h0Z" fill="#dc8b12"/><path d="M4.1,20.6h0Z" fill="#dc8b12"/><path d="M13.9,24.9c-.1.2-.4.4-.4.7h0l-.3.2h0a.2.2,0,0,0-.2.2h-.1a1.8,1.8,0,0,0-.8.5h0l-.7.2a.4.4,0,0,0-.4.2h-.2c-.4.1-.7,0-.9.3H8.4c-.3,0-.5-.3-.8-.3H7.5c0-.2-.1-.2-.2-.2H7.2a.1.1,0,0,0,0-.2c-.1-.1-.1-.1,0-.2h.1a2.8,2.8,0,0,0,1.3.3c.1,0,.2.1.4,0s0-.1.1-.1a.3.3,0,0,0,.5,0H10a3.9,3.9,0,0,0,1.5-.2A3.5,3.5,0,0,0,13,25c.2-.3.4-.6.8-.6h.3c.1.1-.1.2-.1.2S14,24.8,13.9,24.9Z" fill="#dd901e"/><path d="M6.9,26.1a.1.1,0,0,1-.1-.1h.1A.1.1,0,0,1,7,26C7,26.1,7,26.1,6.9,26.1Z" fill="#dd901e"/><path d="M10.8,6.9h-.2a.4.4,0,0,1,.1-.3Z" fill="#d57f16"/><path d="M12.4,7.6h.2c0,.1-.1,0-.1,0Z" fill="#d57f16"/><path d="M12.2,7.3h0Z" fill="#d57f16"/><path d="M2.6,24.4c-.2-.1-.4-.1-.4-.3S2.5,24.2,2.6,24.4Z" fill="#d57f16"/><path d="M6.5,20c-.2-.2-.4-.5-.7-.6a2.4,2.4,0,0,1-1.2-2.1c0-.2-.1-.4.2-.6a.1.1,0,0,0,.1.1,4,4,0,0,0,2.9,2.1,7.1,7.1,0,0,0,2.1.4h1v1.7h0c-.6-.2-1.3-.1-1.9-.5H8.9a2.9,2.9,0,0,1-1.6-.3A1.1,1.1,0,0,0,6.5,20Z" fill="#f7fdc3"/><path d="M10.9,19.4H9.7l-1.6-.3H7.8a4,4,0,0,1-2.9-2.1.1.1,0,0,1-.1-.1c-.1-.1-.1-.1-.1-.2a2.7,2.7,0,0,1,.7-.8l.4.4h0a3.6,3.6,0,0,0,1.9,1.3.1.1,0,0,0,.1.1h0a2.2,2.2,0,0,0,1.1.5l2,.5H11a1.1,1.1,0,0,0,0,.8h-.1Z" fill="#ecc54e"/><path d="M5.7,20c.1.2.2.4-.1.5a.5.5,0,0,0-.2-.4h0C5.4,19.9,5.5,19.8,5.7,20Z" fill="#db880c"/><path d="M5.4,20.1h0Z" fill="#db880c"/><path d="M5.6,20.6h0Z" fill="#db880c"/><path d="M11.7,9.3c-.2.2-.4.1-.6,0l-.6-.6-.3-.4c-.1-.1-.2-.1-.1-.2s-.1-.3-.3-.4.6,0,.8-.2.1.4.5.4h0c0,.1-.1.2,0,.2A6.7,6.7,0,0,1,11.7,9.3Z" fill="#ecc54e"/><path d="M11.7,9.3a6.7,6.7,0,0,0-.6-1.2c-.1,0,0-.1,0-.2a2,2,0,0,1,.8,1.2.4.4,0,0,1-.1.3Z" fill="#ebc141"/><path d="M11.1,7.9c-.4,0-.5-.1-.5-.4h0A1,1,0,0,1,11.1,7.9Z" fill="#ebc141"/><path d="M7.3,26.6c.1,0,.2,0,.2.2Z" fill="#dc8b12"/><path d="M1.9,20.3c.1-.1,0-.4.2-.3s.4,0,.4.3.1.1.1.2-.5-.2-.7-.1Z" fill="#dd901e"/><path d="M11,26.9a.4.4,0,0,1,.4-.2l.7-.2A1.5,1.5,0,0,1,11,26.9Z" fill="#d57f16"/><path d="M9.9,27.2c.2-.3.5-.2.9-.3s-.5.2-.7.3Z" fill="#d57f16"/><path d="M12.1,26.5a1.8,1.8,0,0,1,.8-.5C12.8,26.3,12.5,26.4,12.1,26.5Z" fill="#d57f16"/><path d="M13.2,25.8l.3-.2C13.5,25.7,13.4,25.8,13.2,25.8Z" fill="#d57f16"/><path d="M13,26a.2.2,0,0,1,.2-.2A.2.2,0,0,1,13,26Z" fill="#d57f16"/><path d="M25.2,26.2l1.1-.3c0,.1-.1.1-.2.2s-.6.1-.8.3Z" fill="#d57f16"/><path d="M26.7,25.6c0-.2.3-.3.3-.6l.3-.2h.1C27.2,25.1,27,25.5,26.7,25.6Z" fill="#d57f16"/><path d="M26.4,25.8c0-.1.1-.1.2-.1S26.5,25.8,26.4,25.8Z" fill="#d57f16"/><path d="M7.7,17.4a3.6,3.6,0,0,1-1.9-1.3h0a3.3,3.3,0,0,0-.3-.6h0c0-.5-.1-1-.1-1.5a4.9,4.9,0,0,0,1.1,1.4l1.2.7a4.7,4.7,0,0,0,1.6.4,9,9,0,0,0,1.6.3h0a6.6,6.6,0,0,1,0,1.4H9.8l-2-.5h0A.1.1,0,0,0,7.7,17.4Z" fill="#f7fdc3"/><path d="M5.5,15.4H5.4a1.1,1.1,0,0,1-.3-.8v-.4c.2,0,.2.2.2.4S5.4,15.2,5.5,15.4Z" fill="#cf7210"/><path d="M5.4,15.6h.1a3.3,3.3,0,0,1,.3.6l-.4-.4Z" fill="#d19435"/><path d="M27.3,24.8,27,25c0-.2,0-.4.3-.4Z" fill="#dc8b12"/><path d="M12.1,18.7h1c0,.2.1.5.1.7H12.1Z" fill="#d37806"/><path d="M11.3,21.9h-.1l-.2-.6v-.2h2.5v.4H12.1c-.3,0-.3.1-.2.3a.2.2,0,0,1,0,.3Z" fill="#cf7210"/><path d="M21.8,15.8c0-.5.1-.8.8-.7h.1c.2.2.2.4,0,.7s-.1.1-.1.2l-.6-.2c0-.1,0-.2-.1-.1Z" fill="#cf7210"/><path d="M21.9,15.8c.1-.1.1,0,.1.1Z" fill="#d57c0f"/><path d="M12.1,18.7v.8H11a1.1,1.1,0,0,1,0-.8Z" fill="#d57c0f"/><path d="M26.1,19.1s.1-.1.1,0,0,.3-.1.3,0-.2-.1-.2Z" fill="#ecc54e"/><path d="M11.4,14.1a.4.4,0,0,1,.1.3h.3l.3.2c-.1.6,0,1.2-.1,1.8s0,.2.1.2.2.1.1.2-.9-.1-1.3,0h0a11,11,0,0,1,.2-1.8A4.1,4.1,0,0,1,11.4,14.1Z" fill="#d57c0f"/><path d="M7.8,17.5l2,.5h1.1v.3l-2-.5A2.2,2.2,0,0,1,7.8,17.5Z" fill="#d19435"/><path d="M12.3,16.7h0Z" fill="#d57c0f"/><path d="M10.9,21.1v.2l-2.3-.4A4.7,4.7,0,0,1,7,20.5H6.6V20a1.1,1.1,0,0,1,.8.3,2.9,2.9,0,0,0,1.6.3H9C9.6,21,10.3,20.9,10.9,21.1Z" fill="#d19435"/><path d="M26.3,10.6,24,10.4h-.4a.4.4,0,0,1,.4-.2,15.2,15.2,0,0,0,2.1.3Z" fill="#d57f16"/><path d="M22.5,10.3h-.3C22.3,10.2,22.4,10.1,22.5,10.3Z" fill="#d57f16"/><path d="M24.2,25.2H24c0-.1-.3-.2,0-.3s.1.2.2.3Z" fill="#dc8b12"/><path d="M26.8,22.8h-.1C26.7,22.7,26.7,22.7,26.8,22.8Z" fill="#dc8b12"/><path d="M26.5,23.8h0Z" fill="#dc8b12"/><path d="M18.4,9.9a.6.6,0,0,1-.2.6l-.8.5a5.1,5.1,0,0,1-2,.6h-.6a.7.7,0,0,1-.6-.4s-.1-.1,0-.1h.2c.1,0,.2.1.3-.1h1.1a8.5,8.5,0,0,0,2.2-.9Z" fill="#ecc54e"/><path d="M18,10.1a8.5,8.5,0,0,1-2.2.9h-.7l.8-.2a1.6,1.6,0,0,0,1.3-.7.7.7,0,0,1,.6-.2C18,9.8,18,10,18,10.1Z" fill="#f7fdc3"/><path d="M13,10.2a1.6,1.6,0,0,1,.6-.8v.2c-.2.3,0,.6,0,.9Z" fill="#f7fdc3"/><path d="M17.2,11.3c.2-.2.4-.2.6-.3l.7-.5c.1.1.1.2,0,.2A2,2,0,0,1,17.2,11.3Z" fill="#cf7210"/><path d="M8.9,25.4h0Z" fill="#db880c"/><path d="M4.6,21.9h0Z" fill="#d57f16"/><path d="M11.1,14.9a11,11,0,0,0-.2,1.8,9,9,0,0,1-1.6-.3c-.2-.2-.6-.1-.5-.6s.5,0,.6.3h.1c.1,0,.2-.3.4-.2s.2-.2.2-.4.3-.3.1-.5.6-.5.7-.4.2,0,.1.2Z" fill="#ecc348"/><path d="M9.5,14.8a.7.7,0,0,1,.4.6c0,.1,0,.2-.1.2s-.1-.1-.1-.2a.4.4,0,0,0-.1-.3C9.4,15,9.4,14.9,9.5,14.8Z" fill="#ecc348"/><path d="M8.1,13.1c.3,0,.4-.3.7-.2s-.3.3-.4.5-.1.1-.2-.1A.3.3,0,0,0,8.1,13.1Z" fill="#ecc54e"/><path d="M10.5,13.1c0-.1,0-.2.1-.2v.2c-.1,0,.1.1,0,.1Z" fill="#ecc54e"/><path d="M10.8,14c.2.2.1.3.1.4S10.8,14.2,10.8,14Z" fill="#ecc348"/><path d="M9.2,15.7a.1.1,0,0,1-.1.1h.1Z" fill="#ecc348"/><path d="M7.4,14.1h0Z" fill="#ecc348"/><path d="M7.6,15h0Z" fill="#ecc348"/><path d="M11.8,14c-.1,0-.1-.1-.1-.2Z" fill="#d57c0f"/><path d="M6.2,12.6c-.1-.2,0-.4.3-.5h.1c.2-.3.6-.2.8-.4h.1c.1-.4.3-.4.5-.3s.2-.1.3-.1a4.1,4.1,0,0,1,1.9,0h.7a.5.5,0,0,1,.3.5v.2a2.8,2.8,0,0,0-1.3-.3,5,5,0,0,0-2.1.1H7.2A9.3,9.3,0,0,0,6.2,12.6Z" fill="#cf7210"/><path d="M7.8,11.9a5,5,0,0,1,2.1-.1c.1.3.4.2.6.3h.3c.3.1.3.1.1.4a.5.5,0,0,1-.5.1c-.2.2-.4,0-.5,0a.6.6,0,0,1-.6-.2H8.6c-.2,0,0,.2-.1.3s-.1-.3-.1-.4a.3.3,0,0,0,.1-.2H8.3l-.2.2H7.8a.1.1,0,0,1,0-.2C7.7,12.2,7.8,12,7.8,11.9Z" fill="#ecc54e"/><path d="M7.2,12.1h.4c-.1.1,0,.2-.1.3S7.3,12.2,7.2,12.1Z" fill="#ecc54e"/><path d="M11.2,12.1v-.2c.1,0,.1.1.1.2Z" fill="#d57c0f"/><path d="M7.1,11.7Z" fill="#cf7210"/><path d="M2.6,20.7h0c-.1,0-.1,0-.1-.1s0-.1,0-.1Z" fill="#dd901e"/><path d="M2.9,20.4h0Z" fill="#dd901e"/><path d="M7.8,18.9h.3l1.6.3h.2A7.1,7.1,0,0,1,7.8,18.9Z" fill="#ebc141"/><path d="M7.7,17.4a.1.1,0,0,1,.1.1A.1.1,0,0,1,7.7,17.4Z" fill="#d19435"/><path d="M5.8,16.1Z" fill="#d19435"/><path d="M20.9,6.6,18.9,2l3.7,2.3,2.2-2.8L25.6,5l4.1-.8L26.3,8.7S23.6,6.5,20.9,6.6Z" fill="#f6c64e"/><circle cx="18.9" cy="2.1" r="0.6" fill="#f6c64e"/><circle cx="24.8" cy="1.5" r="0.6" fill="#f6c64e"/><circle cx="29.3" cy="4.2" r="0.6" fill="#f6c64e"/></g></svg>