<svg xmlns="http://www.w3.org/2000/svg" width="16" height="16" viewBox="0 0 16 16"><title>logo-16</title><g id="Layer_2" data-name="Layer 2"><path d="M15.7,8v7.6H.3V.4C.3.3.3.3.4.3H15.6c.1,0,.1,0,.1.2Zm-2,3.9h0v-.4h.1a1.5,1.5,0,0,1,.6-.9l.3-.3A1.1,1.1,0,0,0,15,8.8l-.6-.6a.9.9,0,0,0-.9-.3c0-.1.1-.2.1-.3a1.9,1.9,0,0,0,.1-.8V6.5a4.4,4.4,0,0,0-.2-1c.1,0,0-.1,0-.1a1.5,1.5,0,0,0-.6-.9,2,2,0,0,0-1.2-.8l-1.1-.2h-1a.1.1,0,0,0-.1.1,9.7,9.7,0,0,0-2.4-.2H5.7L5,3.5H4.8a2.9,2.9,0,0,0-1.4.8A2.5,2.5,0,0,0,3,5.7H2.9a2.9,2.9,0,0,0-.2.9.4.4,0,0,1,.1.3.9.9,0,0,0-.3.7h0V8a.4.4,0,0,1-.1.3H2A1.3,1.3,0,0,0,1,9c-.1.1-.1.2-.1.4h0a.9.9,0,0,0,.3.9l.8.5a1.4,1.4,0,0,1,.8.5v.2c0,.1.1.1.1.2H3a1.2,1.2,0,0,0,.3.9,1.7,1.7,0,0,0,1.6.8h.3l.8-.2.9-.5c.2-.1.3-.2.3-.4h.1a.4.4,0,0,0-.1-.3H8.9l.8-.2c.2.1.4,0,.6,0h0a.7.7,0,0,0,.2.6l.4.4a1.8,1.8,0,0,0,2.2.1,1.5,1.5,0,0,0,.6-.9Zm-11.5,0a.3.3,0,0,0,.1-.2c-.1-.4-.4-.5-.8-.4s-.2,0-.3.2h0c-.1.3.1.5.5.6S2.1,12.2,2.2,11.9Z" fill="#fefefe"/><path d="M13.7,6.8a1.9,1.9,0,0,1-.1.8c0,.1-.1.2-.1.3l-.2.2h0v.3l.3.4a.8.8,0,0,1,0,.7v.3h0c-.2.1-.4.2-.4.4l-.6.6-.6.2-.7.3a1.2,1.2,0,0,1-.8.1H7.7c-.2,0-.4.1-.6,0H6.9l-1.4-.2h0l-1.1-.3a2,2,0,0,1-.9-.9c.1,0,.1,0,.1.1a1.8,1.8,0,0,0,1,.4H5.7c.3.1.5.2.7,0H8.6l1.6-.2a3.2,3.2,0,0,0,1.4-.3c.2-.1.5-.1.6-.3h0l.6-.4a2.3,2.3,0,0,0,.7-1,.8.8,0,0,0-.1-.4v.2a1,1,0,0,1-.4.5h-.1l-.5.5a1.5,1.5,0,0,1-.7.3,2.9,2.9,0,0,1-1.6.2H6.8c0-.3-.1-.6-.1-.8h3.7l1.5-.3.9-.5c.2-.1.2-.3.3-.5l-.6.4h-.1a2.9,2.9,0,0,1-1.6.2H6.6V8.4h4.3l1-.2A2.6,2.6,0,0,0,13.7,6.8Z" fill="#f7fdc3"/><path d="M13.7,6.8a2.6,2.6,0,0,1-1.9,1.3l-1,.2H6.5V7.8a1.4,1.4,0,0,1,.2-.6,2.7,2.7,0,0,1,.8-.7h.3l.5.2.4.3.8.4h1.1c0,.1,0,.2.1.2h.8c.3,0,.4-.3.4-.5s-.4-.4-.8-.3h-.3c.2-.2.2-.2,0-.4s-.4-.1-.5-.3-.4-.1-.4-.4H10l.5-.3v.2a.1.1,0,0,0-.1.1H12a3.3,3.3,0,0,0,1,0l.2-.2h.3a4.4,4.4,0,0,1,.2,1ZM7.9,6.7h0ZM10.7,8Z" fill="#ebc141"/><path d="M9.9,5.8c0,.3.2.3.4.4s.3.2.5.3.2.2,0,.4,0-.2-.1-.1h-.3a.1.1,0,0,0,0-.2l-.3-.2H9.2A.2.2,0,0,1,9,6V5.8l.2-.3h0V5.3c-.1-.1,0-.3,0-.4V4.7l-.2-.2h0c.2,0,.1-.1.1-.1V4c0-.2,0-.3.1-.3s.3-.2.2-.4h1a.4.4,0,0,1-.1.3h-.1c0-.2-.1-.3-.3-.2a1.7,1.7,0,0,0-.6.6.2.2,0,0,0,.1.3v.2h3.2a1.5,1.5,0,0,1,.6.9s.1.1,0,.1h-.4a.1.1,0,0,0,.1-.1h.2c0-.1-.1-.1-.2-.1l-1.5-.2a3.2,3.2,0,0,0-1.4.3.7.7,0,0,0-.4.5C9.8,5.7,9.8,5.8,9.9,5.8Z" fill="#d57d10"/><path d="M13.7,9.8V9.5c.2,0,.3.1.3.2s.1.3.2.3.2.1.3.2l-.3.3a1.4,1.4,0,0,0-.5.8c-.1.1-.2.2-.1.4s-.1.2,0,.3h-.4s-.1,0,0,.1h-.1a.5.5,0,0,1-.4.2h-.1l-.3.2h-.4c-.1,0,0,0,0-.1h-.3l-.2-.3v.2h0c-.1.1-.1.1-.1.2h-.2l-.5-.4h-.1a.7.7,0,0,1-.2-.6h.6c0,.1.1.2.2.1h.4c0-.1.1-.1.2,0s.2,0,.2-.1H12c.1.1.1,0,.1-.1h.3c0-.1.1-.1.1-.2h.2l.6-.6.3-.3h.1Zm-.3,1.6h.1l-.3-.2H13c0,.1-.1.1-.2.1s-.2.1-.1.2h-.1l-.5.2h-.2c0,.1,0,.2-.1.1h-.4c-.1,0-.1.1,0,.1l.3.2h.1a.1.1,0,0,1,.1.1c.1,0,.1.2.3.1h.1a.2.2,0,0,0,.2-.2h.4c.2-.1.2-.1.1-.2h.3C13.5,11.6,13.3,11.5,13.4,11.4Z" fill="#dc8b13"/><path d="M3,5.7a2.5,2.5,0,0,1,.4-1.2,2.9,2.9,0,0,1,1.4-.8h.3l.3.3H5.1c0-.1-.1-.1-.1,0h.1c0,.1.1.1.1.2s0,.1,0,.1l.3.3.3.2h.1c0-.2-.1-.3-.1-.4s-.2-.2-.2-.3l.4.4c0,.1.1.2,0,.3s-.3.2-.4.3h-1A2.3,2.3,0,0,0,3,5.7Z" fill="#ebc141"/><path d="M6,3.3H7.1a9.7,9.7,0,0,1,2.4.2H9.3l-.5.6c-.1.1-.2.1-.3.3H8.2a.8.8,0,0,0-.8.1,3.1,3.1,0,0,1-.9-.7A1,1,0,0,0,6,3.3Z" fill="#ebc141"/><path d="M3,5.7a2.3,2.3,0,0,1,1.6-.6h1c.1-.1.3-.1.4-.3h.2c0,.1,0,.2-.1.2h.1l.3.3h0c0,.2.1.2.2.3h.4c.1.1,0,.2.1.2H8.3c.1-.1.2,0,.3,0H9c.2.1.5.1.6.3s-.1,0-.1,0H9.3a.1.1,0,0,0,.1.1l.4.2H9.5L8.4,6.4a.9.9,0,0,0-.7,0H7.3s-.1-.1-.1,0-.1,0-.1-.1l-.5-.2c.2,0,.1-.1.1-.1H6.1v.2c0,.1,0,.1.1.1h.1s0,.1-.1,0-.2,0-.2.1H5.8V6a.5.5,0,0,0-.2-.4H5.2c-.1-.1-.2,0-.2-.1H4.6c-.2.1-.4,0-.5.2H3.2c0,.1,0,.2.1.2h0a.2.2,0,0,1-.2-.2h0V6H2.9a.1.1,0,0,0,0-.2H3Zm1-.2Zm2.2-.3Zm-1.9.1h0Zm1.6.4h0Z" fill="#d57d10"/><path d="M14.5,10.2c-.1-.1-.1-.2-.3-.2s-.2-.2-.2-.3-.1-.2-.3-.2a.8.8,0,0,0,0-.7l-.3-.4V8.1h0l.2-.2a.9.9,0,0,1,.9.3l.6.6a1.1,1.1,0,0,1-.3,1.3h-.2Zm0-.2Z" fill="#db8608"/><path d="M1,9a1.3,1.3,0,0,1,1-.6h.1c.1.1,0,.3.1.4s0,.2.1.1h.1v.2H2.3c.1,0,.1.1.1.2h.1v.2c0,.1,0-.1.1,0s.1.2,0,.4,0-.2-.1-.1H2.5a.4.4,0,0,0-.1-.3c-.1.2,0,.3,0,.4h0s-.1.1-.1,0H1.9L1.7,10h0c0-.1-.1-.2-.3-.2s.2,0,.1-.1H1.4a.1.1,0,0,1-.2,0H1.1c-.2-.1,0-.1,0-.1S1.1,9.1,1,9Zm.3.4c-.2.1-.2.1-.1.2s.2,0,.1-.2h0Zm.8-.7Zm-.7.8Zm.3.3Zm.5-.7Z" fill="#db880c"/><path d="M10.5,3.8a.4.4,0,0,0,.1-.3l1.1.2a2,2,0,0,1,1.2.8H10.3V4.4h0a.4.4,0,0,1,.1-.3A.2.2,0,0,0,10.5,3.8Z" fill="#ebc141"/><path d="M3,11.9H3c0-.1.1,0,.1-.1H2.9v-.2H3c0-.1.1-.1.1-.2H2.9v-.2H2.8c0-.1.1,0,.2,0h.2v.2c.1.1.1.2.2.2s.1,0,0,.1-.1.1,0,.1h.3v.2l.7.3H3.7c0-.1,0-.2-.1-.1s-.1,0-.2-.1,0,.2-.1.2,0,.2.1.3a.1.1,0,0,1,.1.1c0,.2.1.2.2.3h0l.2.3H4c.1-.1.1,0,.1.1h.8s0,.2-.1.1H4.3c-.2-.1-.4-.1-.5-.3s-.2-.1-.3-.3-.1-.2-.3-.2H3Zm.1-1.2h0Zm0,.5h0C3.2,11.3,3.1,11.2,3.1,11.2Zm.3-.4h0Zm-.1,0Z" fill="#db880c"/><path d="M3.2,12c.2,0,.2.2.3.2s.2.2.3.3.3.2.5.3h.5c.1.1.1-.1.1-.1h0c.1.1.2.2.4.1h.2c.3.1.7-.2.9-.4s0-.2.1-.2.1-.2,0-.3h.7a.4.4,0,0,1,.1.3H6.9l-.3.2c-.2.2-.4.5-.7.6H4.5c-.2-.1-.4,0-.6-.2H3.7v.2c-.2,0-.2-.2-.3-.3l-.4-.6V12h.2Z" fill="#dc8b13"/><path d="M6,3.3a1,1,0,0,1,.5.4,3.1,3.1,0,0,0,.9.7l-.3.2H6.6c0-.1,0-.1-.1-.1s-.1,0-.1,0h0c-.1-.1-.3-.2-.4-.4s-.1-.2-.3-.2H5.5a.1.1,0,0,0-.1.1c-.1,0-.2-.1-.3,0H5l.9-.2Zm.3.7h.1C6.4,3.9,6.3,3.9,6.3,4Zm-.1-.2h0Z" fill="#d57d10"/><path d="M1.2,11.5c.1-.2.2-.2.3-.2s.7,0,.8.4l-.3.2H1.4C1.2,11.8,1.3,11.6,1.2,11.5Z" fill="#dd901e"/><path d="M3,10.3c-.1,0-.2-.1-.2,0s0-.2-.2-.2h0c.1-.1,0,0,.1.1s.1-.3,0-.4-.1.1-.1,0V9.5c.1-.2,0-.3-.1-.3V9c.1-.1.1-.3,0-.3s-.1-.1-.1-.2h.2c0-.1-.1-.1-.1-.3s-.1,0-.1.1A.4.4,0,0,0,2.4,8V7.8c0,.2,0,.3.1.4h0a.4.4,0,0,0-.1.3c.1.5.2.8.6,1s0,.2.1.2H3.1c-.1-.1-.2,0-.2.1h0c.1,0,.1.1.1.2H3Z" fill="#dd901e"/><path d="M13.5,12.1h.2a1.5,1.5,0,0,1-.6.9,1.8,1.8,0,0,1-2.2-.1c.1,0,.1.1.2,0h1.5a.9.9,0,0,0,.8-.5.1.1,0,0,0,0-.2Z" fill="#cf7310"/><path d="M7.1,11.7c.2.1.4,0,.6,0h2.6c-.2,0-.4.1-.6,0l-.8.2H7.2Z" fill="#faf7ca"/><path d="M2.9,11.3H2.8a1.4,1.4,0,0,0-.8-.5l-.8-.5a.9.9,0,0,1-.3-.9H1c0,.2.1.3.2.3h.1c.1.1.1.2.2.2h.4l.3.2h.5Z" fill="#d68019"/><path d="M3,12v.2l.4.6c.1.1.1.3.3.3h.1a.1.1,0,0,1,.1-.1h.1c0,.1,0,.1.1.1h.7a1.7,1.7,0,0,1-1.6-.8,1.2,1.2,0,0,1-.3-.9Z" fill="#d57d10"/><path d="M8.5,4.4c.1-.2.2-.2.3-.3l.5-.6h.2a.1.1,0,0,1,.1-.1c.1.2.1.2-.2.4s-.1.1-.1.3v.4s.1.1-.1.1H8.5Z" fill="#d37806"/><path d="M4.9,13.5h.3c.1-.1.2,0,.3-.2h.1c.2,0,.4,0,.5-.2h.1c.1,0,.3,0,.3-.2h.1a.1.1,0,0,0,.1-.1h.5c0,.2-.1.3-.3.4l-.9.5-.8.2H4.9Z" fill="#cf7310"/><path d="M10.3,11.7h.3a1.2,1.2,0,0,0,.8-.1l.7-.3.6-.2h-.4a2,2,0,0,1-1.3.4Z" fill="#cf7310"/><path d="M2.9,5.8a.1.1,0,0,1,0,.2v.4c0,.2-.1.4.1.5H2.9c0,.2.1.5.1.7a.4.4,0,0,1-.1-.3c0-.1,0-.2-.1-.2V7a.4.4,0,0,0-.1-.3A2.9,2.9,0,0,1,2.9,5.8Z" fill="#dd901e"/><path d="M1.6,12h.3l.3-.2c-.1.3-.2.4-.5.3s-.6-.3-.5-.6h0c.1.1,0,.3.2.4Z" fill="#cf7310"/><path d="M2.6,8.2c-.1-.1-.1-.2-.1-.4h0l.3-.3c0,.2,0,.3.1.4h0Z" fill="#d68019"/><path d="M14.5,10.2h.2l-.3.3a1.5,1.5,0,0,0-.6.9h-.1a1.4,1.4,0,0,1,.5-.8Z" fill="#d57d10"/><path d="M2.3,8.3c0-.1.1.2.1-.1s.1.2.1.3H2.3c0,.1,0,.2.1.2s.1.2,0,.3H2.3c-.1.1-.1,0-.1-.1s0-.3-.1-.4h.1c.1,0,0-.1,0-.1Z" fill="#dc8b13"/><path d="M2.8,7.4l-.3.3A.9.9,0,0,1,2.8,7v.4Z" fill="#ecc34a"/><path d="M11.1,12.7c-.1.1-.1,0-.2,0l-.4-.4h.1Z" fill="#d57d10"/><path d="M2.2,11.9l-.3.2H2l.3-.2A.3.3,0,0,1,2.2,11.9Z" fill="#d68019"/><path d="M5.9,3.3,5,3.5l.7-.2Z" fill="#dd901e"/><path d="M7.2,12.4H6.8c0-.2.2-.3.3-.4h.1Z" fill="#d68019"/><path d="M1,9c.1.1,0,.2.1.2s-.2,0,0,.1H.9C.9,9.2.9,9.1,1,9Z" fill="#dc8b13"/><path d="M13.7,11.3h0v.2h-.1C13.5,11.5,13.6,11.4,13.7,11.3Z" fill="#db880c"/><path d="M13.6,11.7h.1v.2h-.1C13.5,11.9,13.6,11.8,13.6,11.7Z" fill="#d57d10"/><path d="M2.9,11.6h.2c0,.1-.1,0-.1.1S2.9,11.7,2.9,11.6Z" fill="#dc8b13"/><path d="M2.2,8.3s.1.1,0,.1Z" fill="#db880c"/><path d="M13.7,11.5h0Z" fill="#d57d10"/><path d="M7.2,12.4h0Z" fill="#cf7310"/><path d="M2.5,7.8Z" fill="#dd901e"/><path d="M13.7,11.9Z" fill="#cf7310"/><path d="M3,5.7H3Z" fill="#ebc141"/><path d="M2,8.4Z" fill="#dc8b13"/><path d="M12.5,8.7l.6-.4c-.1.2-.1.4-.3.5l-.9.5-1.5.3H6.7V9.4H8.9l1.8-.2h.9Z" fill="#ecc34a"/><path d="M12.2,10.2c-.1.2-.4.2-.6.3a3.2,3.2,0,0,1-1.4.3L8.6,11H6.4a.3.3,0,0,0,.3-.3h5Z" fill="#ecc54e"/><path d="M12.5,8.7l-.9.4h-.9l-1.8.2H6.6V9.1h4.2a2.9,2.9,0,0,0,1.6-.2Z" fill="#d19435"/><path d="M6.7,9.7c0,.2.1.5.1.8H5.6V9.7H6.7Z" fill="#de9e18"/><path d="M12.2,10.2l-.5.2H10.1a2.9,2.9,0,0,0,1.6-.2,1.5,1.5,0,0,0,.7-.3l.5-.5v.2h-.1a1,1,0,0,1-.4.5Z" fill="#d19435"/><path d="M6.5,8.4h0v.7h-1V8.3h.9Z" fill="#de9e18"/><path d="M5.2,10.8H4.6a1.8,1.8,0,0,1-1-.4c0-.1,0-.1-.1-.1h.2l.8.2,1.1.2v.2Z" fill="#ecc54e"/><path d="M7.1,11.7v.2H6.5l-.8-.2H4.6l-.7-.3V11c-.1-.1-.2-.2-.2-.3a.1.1,0,0,1,.1.1,1.8,1.8,0,0,0,.7.5,2,2,0,0,0,1.1.1h.4l1.2.2Z" fill="#cf7310"/><path d="M5.5,11.4a2,2,0,0,1-1.1-.1,1.8,1.8,0,0,1-.7-.5.1.1,0,0,0-.1-.1h0a.7.7,0,0,1-.1-.6h0a2,2,0,0,0,.9.9Z" fill="#de9e18"/><path d="M12.7,9.6h.1c.1,0,0,.2.1.1h-.1V9.3h0c.1,0,.1,0,.1-.1h0c.2,0,.4-.3.4-.5h0V8.4a.8.8,0,0,1,.1.4,2.3,2.3,0,0,1-.7,1C12.8,9.7,12.8,9.6,12.7,9.6Z" fill="#ecc34a"/><path d="M5.6,9.1h1v.2h-1Z" fill="#cf7310"/><path d="M6.7,10.6a.3.3,0,0,1-.3.3H6.1v-.2h.7Z" fill="#d57d10"/><path d="M7.1,11.7l-1.2-.2H5.5l1.4.2Z" fill="#de9e18"/><path d="M12.7,9.6c.1,0,.1.1.1.2l-.6.4h.1A1,1,0,0,0,12.7,9.6Z" fill="#ecc54e"/><path d="M6.1,10.9h.3c-.2.2-.4.1-.7,0h.4Z" fill="#de9e18"/><path d="M13.7,9.9h-.1l-.3.3C13.3,10.1,13.5,10,13.7,9.9Z" fill="#cf7310"/><path d="M13.4,8.6h0c0,.2-.2.5-.4.5A1,1,0,0,0,13.4,8.6Z" fill="#d19435"/><path d="M5.2,10.8h0Z" fill="#fefefe"/><path d="M13,9.2c0,.1,0,.1-.1.1Z" fill="#d19435"/><path d="M13.7,9.8h0Z" fill="#cf7310"/><path d="M6.5,8.4H6.2v-1H5.8c.1-.1,0-.1,0-.1s0-.2.1-.2.1-.3.1-.5.1-.1.2-.1.1,0,.1,0H6.2c-.1,0-.1,0-.1-.1V5.9h.6s.1.1-.1.1l.5.2c0,.1,0,.1.1.1s.1,0,.1,0h.2a2.7,2.7,0,0,0-.8.7,1.4,1.4,0,0,0-.2.6ZM6,7.1H6Z" fill="#d37806"/><path d="M7.7,6.4a.9.9,0,0,1,.7,0l1.1.4h.3c.2.2.5.1.8.1H11c-.4.2-.5.4-.3.7s-.1-.1-.1-.2H9.5L8.7,7l-.4-.3-.5-.2Z" fill="#ecc34a"/><path d="M9.9,5.8c-.1,0-.1-.1,0-.1a.7.7,0,0,1,.4-.5,3.2,3.2,0,0,1,1.4-.3l1.5.2c.1,0,.2,0,.2.1h-.2a.1.1,0,0,1-.1.1h-.2c0-.1,0-.1-.1-.1H10.5l-.5.3H9.9Z" fill="#cf7310"/><path d="M10.5,5.4h2.7l-.2.2a3.3,3.3,0,0,1-1,0H10.3a.1.1,0,0,1,.1-.1Z" fill="#ecc34a"/><path d="M11.1,7.2c.4-.1.7,0,.8.3s-.1.5-.4.5h-.3a.3.3,0,0,0,0-.4h.1c.1-.1,0-.2-.1-.2Z" fill="#d37806"/><path d="M10.6,7c-.3,0-.6.1-.8-.1l-.4-.2a.1.1,0,0,1-.1-.1h.2s.1.1.1,0,.5.3.8.1h.3c.1-.1.1,0,.1.1Z" fill="#cf7310"/><path d="M11.3,7.6h-.1c-.3-.1-.4,0-.4.3h-.1c-.2-.3-.1-.5.3-.7h.1v.2c.1,0,.2.1.1.2Z" fill="#d57d10"/><path d="M10.8,7.9c0-.3.1-.4.4-.3a.3.3,0,0,1,0,.4Z" fill="#cf7310"/><path d="M7.9,6.7h0Z" fill="#ecc34a"/><path d="M10.7,8h0Z" fill="#ecc34a"/><path d="M7.9,6.7Z" fill="#ecc34a"/><path d="M10,5.7Z" fill="#d57d10"/><path d="M10.6,7.7Z" fill="#d57d10"/><path d="M8.5,4.4h.6l.2.2v.2l-.2.2H9C9,5.1,9,5,8.9,5H8.6L8,5.5H6.9c0-.2-.1-.3,0-.5H6.8l.3-.2.3-.2a.8.8,0,0,1,.8-.1Z" fill="#faf7ca"/><path d="M10.4,6.7c-.3.2-.5-.1-.8-.1s-.4-.2-.6-.3H8.6c-.1,0-.2-.1-.3,0H7.2c-.1,0,0-.1-.1-.2H8l.6-.2c.3.1.4-.1.6-.2s.1-.1,0-.1h.1v.2h0l-.2.3V6a.2.2,0,0,0,.2.2h.9l.3.2A.1.1,0,0,1,10.4,6.7Z" fill="#d68019"/><path d="M10.5,3.8a.2.2,0,0,1,0,.3.4.4,0,0,0-.1.3h0v.2H9.7V4.5c0-.1.1-.1.1-.2l.7-.5Z" fill="#ecc34a"/><path d="M8.6,5.7,8,5.9H6.7c-.1-.1-.2-.1-.2-.3a.3.3,0,0,1,.1-.2l.3.2h.2a.7.7,0,0,0,.6.2,2,2,0,0,0,1.4-.6c0-.1.1-.1,0-.2l.2-.2c0,.1-.1.3,0,.4H9Z" fill="#ebc141"/><path d="M10.4,3.8l-.7.5c0,.1-.1.1-.1.2a.2.2,0,0,1-.1-.3,1.7,1.7,0,0,1,.6-.6C10.3,3.5,10.4,3.6,10.4,3.8Z" fill="#cf7310"/><path d="M13.4,11.4c-.1.1.1.2-.1.3H13c.1.1.1.1-.1.2h-.4a.2.2,0,0,1-.2.2h-.1c-.2.1-.2-.1-.3-.1a.1.1,0,0,0-.1-.1h-.1l-.3-.2c-.1,0-.1-.1,0-.1h.4c.1.1.1,0,.1-.1h.2l.5-.2h.1c-.1-.1,0-.1.1-.2s.2,0,.2-.1h.2l.3.2h-.1Zm-.2-.1a.1.1,0,0,0-.1-.1h.1Z" fill="#db880c"/><path d="M12.2,13h-.9c0-.1,0-.1.1-.2h0v-.2l.2.3h.3c0,.1-.1.1,0,.1h.4l.3-.2h.1a.5.5,0,0,0,.4-.2h.1c-.1-.1,0-.1,0-.1h.2c-.1.1,0,.1,0,.2a.9.9,0,0,1-.8.5h-.4Z" fill="#dd901e"/><path d="M11,11.6a2,2,0,0,0,1.3-.4h.2c0,.1-.1.1-.1.2h-.3c0,.1,0,.2-.1.1h-.1c0,.1-.1.2-.2.1s-.2-.1-.2,0h-.4c-.1.1-.2,0-.2-.1Z" fill="#dd901e"/><path d="M11.3,12.8h0Z" fill="#d57d10"/><path d="M11.5,11.8h0Z" fill="#dd901e"/><path d="M5.6,4.1c0,.1.1.2.2.3s.1.2.1.4H5.8l-.3-.2-.3-.3s-.1-.1,0-.1-.1-.1-.1-.2H5c0-.1.1-.1.1,0h.3c0,.2.1.2.2.2Z" fill="#ecc54e"/><path d="M5.1,3.6c.1-.1.2,0,.3,0h.1l.6.7c.1.1.2.4.1.5H6c.1-.1,0-.2,0-.3l-.4-.4h0a.2.2,0,0,0-.2-.2h0Z" fill="#cf7310"/><path d="M6,6.4c0,.2-.1.3-.1.5s-.1.1-.1.2a.6.6,0,0,0-.1.4H5.6l-.4.2c.1.1,0,.2,0,.3s0,.1-.1.1l-.2.2h0c-.1-.2-.3-.1-.4-.2s.2.2.3.3L4,8h.2c.1.1.2.1.3-.1h0c-.1,0-.1,0-.1.1h0a.1.1,0,0,1,0-.2H4c-.2.1-.2.1-.2-.1H3.7c-.1,0-.1-.1-.1-.2S3.5,7,3.7,7h.2c-.1,0-.2,0-.2-.1a.1.1,0,0,0-.1.1H3.5V6.7h.1c0,.1,0,.1.1.1h.5a.1.1,0,0,0,.1.1h.1c0-.1.1-.1.2-.2h.8c0-.1.1-.1.1-.2l.4-.2Zm-1.1,1c-.1.1-.1.1,0,.2a.1.1,0,0,1,.1.1s-.1.1,0,.1h.1C5.1,7.6,5,7.5,4.9,7.4Zm.7-.1c0-.1,0-.2-.1-.2A.3.3,0,0,0,5.6,7.3Zm-.8.6a.1.1,0,0,0-.1-.1h.1Zm-.9-.8Zm.1.4Z" fill="#ebc141"/><path d="M3,6.9c-.2-.1-.1-.3-.1-.5V6H3V5.8h0a.2.2,0,0,0,.2.2h0c-.1,0-.1-.1-.1-.2h.9c.1-.2.3-.1.5-.2H5c0,.1.1,0,.2.1h.5a.5.5,0,0,1,.2.4v.2H5.7c0-.1-.1-.3-.2-.3H5.2a2.7,2.7,0,0,0-.9,0H3.9l-.4.2H3.4a.4.4,0,0,0-.1.3A.5.5,0,0,0,3,6.9Zm.7-1Z" fill="#d68019"/><path d="M6.2,4.8c.1-.1,0-.4-.1-.5l-.6-.7h.2c.2,0,.2.1.3.2s.3.3.4.4h0s0,.1.1,0,.1,0,.1.1h.5l-.3.2a.8.8,0,0,0-.2.4.3.3,0,0,0-.1.2h0l-.3-.3H6.1C6.2,5,6.2,4.9,6.2,4.8Z" fill="#d68019"/><path d="M5.8,6.1h.1l-.4.2c0,.1-.1.1-.1.2H5.2l-.5-.2c-.2,0-.3,0-.3.2s-.1-.1,0-.2H4.1C4,6.3,4,6.2,4,6.1h.1a2.9,2.9,0,0,1,1.6.1Z" fill="#ecc54e"/><path d="M7,5.8H7Z" fill="#cf7310"/><path d="M4,5.5H4Z" fill="#d68019"/><path d="M6.2,5.2h0Z" fill="#d68019"/><path d="M4.3,5.3Z" fill="#d68019"/><path d="M5.9,5.7Z" fill="#d68019"/><path d="M3,6.1Z" fill="#dd901e"/><path d="M3.1,5.8h0Z" fill="#d68019"/><path d="M3.5,5.7Z" fill="#d68019"/><path d="M4,5.5Z" fill="#d68019"/><path d="M4,5.5Z" fill="#d68019"/><path d="M14.7,10.1h0Z" fill="#dc8b13"/><path d="M14.5,10Z" fill="#dc8b13"/><path d="M14.5,10h0Z" fill="#dc8b13"/><path d="M2.7,11H2.2l-.3-.2H1.7c-.1-.1,0-.2.1-.2s.1,0,.2,0a.1.1,0,0,0-.1-.1h.2v.2h.3v-.2c.2,0,.1.1.1.2h.2c0,.1-.1.2,0,.3s.1-.2.2-.1v.2H2.7Z" fill="#dd901e"/><path d="M1.9,10.2a.1.1,0,0,1,.1.1c-.1,0-.2-.1-.2,0s-.2.1-.1.2H1.5c-.1,0-.1-.1-.2-.2h.2c0-.2-.1-.2-.2-.2H1.2c-.1,0-.2-.1-.2-.3h.2a.1.1,0,0,0,.2,0h.1c.1.1,0,.1-.1.1s.3.1.3.2h0Zm-.3.1a.1.1,0,0,0-.1-.1h.1Zm.2-.1Z" fill="#dc8b13"/><path d="M2.9,10.6c-.1-.1-.1,0-.2.1s0-.2,0-.3H2.5c0-.1.1-.2-.1-.2v.2H2.1v-.2h.2c0,.1.1,0,.1,0h0c0-.1-.1-.2,0-.4a.4.4,0,0,1,.1.3h.1c.2,0,.2.1.2.2h.1Z" fill="#dc8b13"/><path d="M2.4,9.2c.1,0,.2.1.1.3H2.4c0-.1,0-.2-.1-.2h.1Z" fill="#dc8b13"/><path d="M1.3,9.4c.1.2-.1.2-.1.2s-.1-.1.1-.2Z" fill="#dc8b13"/><path d="M2.4,9.4Z" fill="#dd901e"/><path d="M2.6,10h0Z" fill="#dd901e"/><path d="M2.1,8.7h0Z" fill="#dc8b13"/><path d="M1.3,9.4Z" fill="#dc8b13"/><path d="M1.4,9.5Z" fill="#dc8b13"/><path d="M1.7,9.8Z" fill="#dc8b13"/><path d="M1,9.6Z" fill="#dc8b13"/><path d="M2.2,9.2h0Z" fill="#dc8b13"/><path d="M2.2,9.1Z" fill="#dc8b13"/><path d="M2.3,10.2Z" fill="#dc8b13"/><path d="M2,10.1H2Z" fill="#dc8b13"/><path d="M1.7,10Z" fill="#dd901e"/><path d="M4.6,11.5h.1c0,.1,0,.2.1.2a.1.1,0,0,0,.1-.1h.2c.1,0,.2.2.2.2h.8v.4l-.9.2H5c0-.2,0,0-.1,0H4.1c0-.1,0-.2-.1-.1H3.9l-.2-.3h0c-.1-.1-.2-.1-.2-.3a.1.1,0,0,0-.1-.1c-.1-.1-.1-.1-.1-.3s.1-.1.1-.2.1.3.2.1.1,0,.1.1h.9Zm.4.4H5Z" fill="#db8608"/><path d="M3.5,10a.7.7,0,0,0,.1.6h0c0,.1.1.2.2.3H3.5c-.1,0-.1,0,0-.1s0-.1,0-.1-.1-.1-.2-.2v-.2H3c.2-.1.1-.2.1-.3h.1c-.1,0-.1-.1-.1-.2s.2.2.3.3Z" fill="#dc8b13"/><path d="M2.7,11v-.2h.4c0,.1-.1.1-.1.2H2.9Z" fill="#dc8b13"/><path d="M3.2,12h0Z" fill="#dd901e"/><path d="M3.1,10.7h0Z" fill="#dc8b13"/><path d="M3.1,11.2s.1.1,0,.1h0Z" fill="#dc8b13"/><path d="M3.4,10.8Z" fill="#dc8b13"/><path d="M3.3,10.8Z" fill="#dc8b13"/><path d="M4.8,12.6h0Z" fill="#dc8b13"/><path d="M7.1,12.2c-.1.1-.3.2-.3.4H6.7c-.1,0-.1,0-.1.1H6.5l-.3.2H5.5c-.2.1-.3,0-.4.2H4.2a.1.1,0,0,0-.1-.1H3.8v-.2h.2c.2.2.4.1.6.2H5.9c.3-.1.5-.4.7-.6l.3-.2h.2Z" fill="#dd901e"/><path d="M4.9,12.7c.1,0,.1-.2.1,0h.1l.9-.2v-.4H5.3s-.1-.2-.2-.2H4.9a.1.1,0,0,1-.1.1c-.1,0-.1-.1-.1-.2h1l.8.2c.1.1,0,.2,0,.3s-.1.1-.1.2-.6.5-.9.4H5.3C5.1,12.9,5,12.8,4.9,12.7Z" fill="#db880c"/><path d="M3.7,12.9Z" fill="#dd901e"/><path d="M5.5,3.6H5.4a.1.1,0,0,1,.1-.1Z" fill="#d68019"/><path d="M6.3,4c0-.1.1-.1.1,0Z" fill="#d68019"/><path d="M6.2,3.8h0Z" fill="#d68019"/><path d="M1.6,12h0Z" fill="#d68019"/><path d="M3.4,9.9c-.1-.1-.1-.2-.3-.3s-.5-.5-.6-1a.4.4,0,0,1,.1-.3h.1A2.6,2.6,0,0,0,4,9.4l1.1.2h.5v.7H5.1l-.4-.2H4.6a1.2,1.2,0,0,1-.8-.2Z" fill="#f7fdc3"/><path d="M4,9.4a2.6,2.6,0,0,1-1.3-1H2.6l.3-.3h.2c.3.3.5.6.9.7h.1c.1.2.3.2.5.3l1,.2h0v.5H5l-.8-.2Z" fill="#ecc54e"/><path d="M3.1,9.9c0,.1.1.2-.1.3s0-.2-.1-.2h0C2.9,9.9,3,9.8,3.1,9.9Z" fill="#db880c"/><path d="M3,10.2Z" fill="#db880c"/><path d="M2.9,10Z" fill="#db880c"/><path d="M11.4,12.8Z" fill="#dc8b13"/><path d="M13.4,12.3c0-.1-.1-.1,0-.2A.1.1,0,0,1,13.4,12.3Z" fill="#dc8b13"/><path d="M11.9,12.9Z" fill="#d68019"/><path d="M11.4,12.8h0Z" fill="#d57d10"/><path d="M12.2,13h0Z" fill="#d68019"/><path d="M1.2,10h.1c.1,0,.2,0,.2.2H1.2Z" fill="#dd901e"/><path d="M4.5,13.4h0Z" fill="#d68019"/><path d="M4.1,13.2a.1.1,0,0,1,.1.1C4.1,13.3,4.1,13.3,4.1,13.2Z" fill="#d68019"/><path d="M3.9,13.2H4a.1.1,0,0,0-.1.1Z" fill="#d68019"/><path d="M4.9,13.5Z" fill="#d68019"/><path d="M5.6,13.2h.5C6,13.2,5.8,13.2,5.6,13.2Z" fill="#d68019"/><path d="M5.1,13.4c.1-.2.2-.1.4-.2s-.2.1-.3.2Z" fill="#d68019"/><path d="M6.2,13l.3-.2C6.5,13,6.3,13,6.2,13Z" fill="#d68019"/><path d="M6.7,12.7h0Z" fill="#d68019"/><path d="M6.6,12.8c0-.1,0-.1.1-.1A.1.1,0,0,1,6.6,12.8Z" fill="#d68019"/><path d="M4,8.7c-.4-.1-.6-.4-.9-.7h0V7.8H3c0-.2-.1-.5-.1-.7H3A2.2,2.2,0,0,0,4,8l.8.2h.8V9H5l-.9-.3H4Z" fill="#f7fdc3"/><path d="M4,8a2.2,2.2,0,0,1-1-.9H3a.5.5,0,0,1,.3-.5l.5-.3c0,.1,0,.2.1.2s0-.1.1-.2H4c0,.1,0,.2.1.2h.3c-.1.1,0,.1,0,.2s.1-.2.3-.2l.5.2H3.7c-.1,0-.1,0-.1-.1H3.5v.2h.1a.1.1,0,0,1,.1-.1c0,.1.1.1.2.1H3.7c-.2,0-.1.2-.1.2s0,.2.1.2h.1c0,.2,0,.2.2.1h.4a.1.1,0,0,0,0,.2h0c0-.1,0-.1.1-.1h0c-.1.2-.2.2-.3.1Z" fill="#ecc34a"/><path d="M3,7.7H2.9c-.1-.1-.1-.2-.1-.4V7.2c.1,0,.1.1.1.2A.4.4,0,0,0,3,7.7Z" fill="#cf7310"/><path d="M2.9,7.8H3V8H2.9Z" fill="#d19435"/><path d="M6.1,9.3h.5v.3H6.1C6.1,9.6,6.2,9.4,6.1,9.3Z" fill="#d37806"/><path d="M5.8,10.9H5.7v-.4H6v.2Z" fill="#cf7310"/><path d="M6.1,9.3c.1.1,0,.3,0,.4H5.6V9.2Z" fill="#d57d10"/><path d="M12.8,9.5h.1c-.1.1,0-.1-.1-.1Z" fill="#ecc54e"/><path d="M5.7,7.5a.6.6,0,0,1,.1-.4s.1,0,0,.1h.3v1H5.5A2.4,2.4,0,0,1,5.7,7.5Z" fill="#d57d10"/><path d="M4.1,8.7,5,9h.6L4.6,9C4.4,8.9,4.2,8.9,4.1,8.7Z" fill="#d19435"/><path d="M5.6,10.4v.2l-1.1-.2-.8-.2h.1a1.2,1.2,0,0,0,.8.2h.1l.4.2Z" fill="#d19435"/><path d="M6,7.1H6Z" fill="#d57d10"/><path d="M12.9,5.4h-.1C12.9,5.3,12.9,5.3,12.9,5.4Z" fill="#d68019"/><path d="M11.3,7.6h0Z" fill="#d57d10"/><path d="M9.1,5.1c.1.1,0,.1,0,.2a2,2,0,0,1-1.4.6.7.7,0,0,1-.6-.2h.8L9,5.2Z" fill="#ecc54e"/><path d="M9,5.2l-1.1.4H8l.6-.4h.3C9,5,9,5.1,9,5.2Z" fill="#f7fdc3"/><path d="M6.6,5.2a.8.8,0,0,1,.2-.4h.1c-.1.2,0,.3,0,.5Z" fill="#f7fdc3"/><path d="M8.6,5.7,9,5.5h.2c.1,0,0,0,0,.1S8.9,5.8,8.6,5.7Z" fill="#cf7310"/><path d="M13.2,11.3h-.1A.1.1,0,0,1,13.2,11.3Z" fill="#dc8b13"/><path d="M5.4,3.9a.2.2,0,0,1,.2.2C5.5,4.1,5.4,4.1,5.4,3.9Z" fill="#ebc141"/><path d="M5.7,7.5a2.4,2.4,0,0,0-.2.8H4.8c-.1-.1-.3-.1-.3-.3s.3,0,.4.2h0l.2-.2c.1,0,.1,0,.1-.1s.1-.2,0-.3l.4-.2h.1Z" fill="#ecc34a"/><path d="M4.9,7.4c.1.1.2.2.2.3H5c-.1,0,0-.1,0-.1a.1.1,0,0,0-.1-.1C4.8,7.5,4.8,7.5,4.9,7.4Z" fill="#ecc34a"/><path d="M4.2,6.6h.4c-.1.1-.2.1-.2.2H4.3A.1.1,0,0,1,4.2,6.6Z" fill="#ecc54e"/><path d="M5.6,7.3a.3.3,0,0,1-.1-.2C5.6,7.1,5.6,7.2,5.6,7.3Z" fill="#ecc34a"/><path d="M4.8,7.9H4.7A.1.1,0,0,1,4.8,7.9Z" fill="#ecc34a"/><path d="M3.9,7.1h0Z" fill="#ecc34a"/><path d="M4,7.5Z" fill="#ecc34a"/><path d="M4,6.1H3.8l-.5.3a.4.4,0,0,1,.1-.3h.1l.4-.2h.4a2.7,2.7,0,0,1,.9,0h.3c.1,0,.2.2.2.3h0A2.9,2.9,0,0,0,4.1,6Z" fill="#cf7310"/><path d="M5.7,6.1Z" fill="#d57d10"/><path d="M3.7,5.9Z" fill="#cf7310"/><path d="M2.5,10.9h0Z" fill="#d68019"/><path d="M1.6,10.3H1.5A.1.1,0,0,1,1.6,10.3Z" fill="#dd901e"/><path d="M1.8,10.2h0Z" fill="#dd901e"/><path d="M5,11.9H5Z" fill="#db880c"/><path d="M4,9.4h.2l.8.2h.1Z" fill="#ebc141"/><path d="M4,8.7H4Z" fill="#d19435"/><path d="M3.1,8Z" fill="#d19435"/><path d="M3.8,6.1H4c-.1.1,0,.1-.1.2S3.8,6.2,3.8,6.1Z" fill="#ecc54e"/><path d="M10.4,3.5l-1-2.2,1.7,1.1L12.2,1l.4,1.7,2-.4L13,4.5A5.1,5.1,0,0,0,10.4,3.5Z" fill="#f6c64e"/><circle cx="9.4" cy="1.3" r="0.3" fill="#f6c64e"/><circle cx="12.2" cy="1" r="0.3" fill="#f6c64e"/><circle cx="14.4" cy="2.3" r="0.3" fill="#f6c64e"/></g></svg>