<svg xmlns="http://www.w3.org/2000/svg" width="0.2in" height="0.2in" viewBox="0 0 16 16"><title>logo-16</title><g id="Layer_2" data-name="Layer 2"><path d="M.7,16c0-5,0-10-.1-15H15.8V15.9H.7Zm13.1-4.1h.1a1.5,1.5,0,0,1,.6-.9l.3-.3A.9.9,0,0,0,15,9.2l-.5-.6-.9-.3c0-.1,0-.2.1-.2a1.4,1.4,0,0,0,0-.9.3.3,0,0,1,.1-.2,3,3,0,0,0-.2-1V5.8A1.6,1.6,0,0,0,13,5a2,2,0,0,0-1.2-.8l-1-.2H9.6a8.6,8.6,0,0,0-2.3-.2H6L5.3,4H4.9a3.8,3.8,0,0,0-1.3.9,1.8,1.8,0,0,0-.4,1h0a1.9,1.9,0,0,0-.2.8c0,.1.1.2.1.3a1.1,1.1,0,0,0-.3.7h0v.2a.4.4,0,0,1-.1.3H2.4c0,.1-.1,0-.1.1h0a1.3,1.3,0,0,0-1,.6.4.4,0,0,0-.1.3v.2a.8.8,0,0,0,.3.8,1.4,1.4,0,0,0,.8.5l.8.5V12h0v.5A1.6,1.6,0,0,0,5,13.9h.4l.8-.2.9-.5c.2-.1.3-.2.3-.4h0v-.2a.4.4,0,0,0-.1-.3,2,2,0,0,0,1.1,0h2a.7.7,0,0,0,.1.5l.5.5h.2a1.8,1.8,0,0,0,1.6.1,1.1,1.1,0,0,0,.8-.9.6.6,0,0,0,.1-.4Zm-11.3.3c.1,0,.1-.1.1-.2s-.4-.4-.8-.4l-.3.2V12a.7.7,0,0,0,.5.6C2.3,12.6,2.4,12.5,2.5,12.2Z" fill="#fefefe"/><path d="M13.7,7.2a1.4,1.4,0,0,1,0,.9c-.1,0-.1.1-.1.2l-.2.2c-.1,0,0,.1,0,.1l.3.5a1.7,1.7,0,0,1,.1.7v.4h-.1c-.1.1-.3.2-.3.4l-.6.5a.1.1,0,0,0-.1.1h-.2l-1.1.4H7.1l-1.4-.2h0l-1.1-.4c-.4-.1-.6-.4-.8-.8h.1a1.2,1.2,0,0,0,.9.4H6a.5.5,0,0,0,.6.1H8.7l1.9-.2a3.5,3.5,0,0,0,1.1-.3l.7-.3h0l.5-.4.3-.3c.3-.2.5-.8.3-1h-.1a.5.5,0,0,1-.3.5H13l-.5.5-.6.3a3.1,3.1,0,0,1-1.6.2H9.2a.8.8,0,0,0-.7,0H7c0-.2-.1-.5-.1-.7h3.6l1.6-.3.8-.5c.2-.1.2-.3.2-.5l-.5.4h-.1a2.9,2.9,0,0,1-1.6.2H6.8V8.8h4.9C12.5,8.4,13.3,8.2,13.7,7.2Z" fill="#f7fdc3"/><path d="M13.7,7.2c-.4,1-1.2,1.2-2.1,1.4V8.4h.1a.5.5,0,0,0,.1-.7.8.8,0,0,0-.7-.1h-.3q.3-.1,0-.3l-.5-.3c-.1-.1-.3-.2-.3-.4h.1l.4-.2v.2s-.1,0,0,.1h.2c.1-.2.4-.2.6-.2h1.6a.4.4,0,0,0,.4-.2h.3a3,3,0,0,1,.2,1A.3.3,0,0,0,13.7,7.2Z" fill="#ebc141"/><path d="M3.2,12.3V12h0v-.3h.2c.1-.1.1-.1,0-.2h0c0-.2-.1-.2-.1-.3h.3V11h.2c-.1.1-.1.2,0,.2h.3l.3.3a1.8,1.8,0,0,0,1,.2l1.4.2c0,.1.1.2,0,.3s-.2.3-.4.4l-.4.3H5.5c-.2,0-.3,0-.3-.2H5.1c0,.1.1.2-.1.1H4c-.2-.1-.4-.1-.3-.3H3.2Zm2.1-.1h0v.2h.1C5.4,12.2,5.4,12.3,5.3,12.2Zm-1.9,0s-.1,0,0,.1h.1A.1.1,0,0,0,3.4,12.2Zm0-1.2h0Zm.3.2Zm-.1,0Z" fill="#db880b"/><path d="M10.1,6.3c0,.2.2.3.3.4l.5.3q.3.1,0,.3h-.3c0-.1.1-.1,0-.2l-.4-.2c-.1-.1-.2-.2-.4-.1H9.3s0,.1-.1,0a.4.4,0,0,1,.1-.3L9.5,6h0c0-.1,0-.2-.1-.2s.1-.3.1-.5L9.2,5h.2V4.7c0-.1.1-.2,0-.3a.2.2,0,0,1,.2-.2c.2-.2.2-.2.2-.4h1l-.2.3h0c-.1-.2-.2-.3-.3-.2a2,2,0,0,0-.7.6c0,.1,0,.3.1.3l.2.2H13a1.6,1.6,0,0,1,.6.8V6h-.1l-.2-.2H11.8a3.2,3.2,0,0,0-1.4.3.8.8,0,0,0-.4.4C10,6.2,10,6.3,10.1,6.3Z" fill="#d57d10"/><path d="M12.8,11.2l.6-.5.3-.3h.1V9.8c.2,0,.2.1.3.2s0,.3.2.3l.2.3h0l-.3.2a1.2,1.2,0,0,0-.4.8.4.4,0,0,0-.1.3c0,.1-.1.2-.1.3h-.4s.2.1,0,.1H12c-.1-.1,0-.1,0-.1h.5c.1,0,.2,0,.2-.2s0,0,0-.1.2.2.2.1l.2-.2h.2c.1-.1.2-.1.1-.3h.2c.1,0,.1-.1,0-.1l-.3-.2H13c-.1,0-.2,0-.2.1h-.3l-.6.3h-.4v.2h.4a.4.4,0,0,1-.1.3h-.1a.2.2,0,0,0,0,.3h-.2c-.1,0,0,.1,0,.1h-.2l-.5-.4h-.2a.7.7,0,0,1-.1-.5H11l.2.2h.4c.1-.1.4.2.5-.1h0l.2-.2h.2c0-.1.1-.2.2-.3h-.1v-.2h0A.1.1,0,0,0,12.8,11.2Zm-1.1,1Z" fill="#dc8b12"/><path d="M6.3,3.8h1a8.6,8.6,0,0,1,2.3.2H9.5L9,4.6l-.3.2H8.4a.8.8,0,0,0-.8.1,3.1,3.1,0,0,1-.9-.7Z" fill="#ebc141"/><path d="M14.5,10.6l-.2-.3c-.2,0-.2-.2-.2-.3s-.1-.2-.3-.2a1.7,1.7,0,0,0-.1-.7l-.3-.5s-.1-.1,0-.1l.2-.2.9.3.5.6a.9.9,0,0,1-.2,1.3h0c-.1,0-.2,0-.1.1Zm0-.2h.1A.3.3,0,0,1,14.5,10.4Z" fill="#db880b"/><path d="M3.2,6.1a1.8,1.8,0,0,1,.4-1,3.8,3.8,0,0,1,1.3-.9c0,.1,0,.2.1.2h.1c0,.2.1.3.1.5h.1c-.1-.1,0-.1,0-.1h.1c0,.1.2.2.3.4s.1.2.3.3H4.8A2.5,2.5,0,0,0,3.2,6.1Zm2.1-1v.2h.1C5.4,5.2,5.3,5.2,5.3,5.1Zm.1.4Z" fill="#ebc141"/><path d="M3.2,6.1a2.5,2.5,0,0,1,1.6-.5H6a.2.2,0,0,0,.2-.2h.2c-.1.1,0,.2.1.2h.1a.3.3,0,0,1,.1.2l.2.2.4.2h0a.2.2,0,0,0,.2.2s-.1.1,0,.1h.2c0-.1-.1,0-.2,0a.1.1,0,0,0-.1-.1H7.3l-.4-.2c-.1-.1.1,0,0-.1H6.7c-.1.1-.2,0-.2-.1H6.4c.1.1,0,.1,0,.2s-.1.1-.1.2.1.1.2,0,0,.2-.1.2-.2,0-.2.1h0c0-.1,0-.1-.1-.2h.1a.2.2,0,0,1,0-.3H6.1C6,6.2,6,6.1,6,6H5.9a.1.1,0,0,0-.2,0H5.4a.1.1,0,0,1-.2,0H4.8c-.1-.1-.2.1-.3,0H4.3c-.1-.1-.1,0-.2.1v.2H4a.4.4,0,0,1-.1-.3c0,.2-.1,0-.2,0h0c-.1-.1-.1,0-.2,0H3.2V6.3h0ZM4.4,6ZM4,6H4a.1.1,0,0,0,.1-.1Zm1-.3Zm-1.7.7h0Z" fill="#d57d10"/><path d="M1.2,9.9V9.7a.1.1,0,0,1,.1.1h.1c-.2-.1,0-.1,0-.1s0-.1-.1-.2a1.3,1.3,0,0,1,1-.6h0c0-.1.1,0,.1-.1s0,.3.1.5,0,.2.2.2h0v.2H2.6c.1,0,.1,0,.1.2h.1v.2H3v.2H3c-.2-.1-.1.1-.1.1s-.1-.1-.1-.2,0-.2-.1-.2,0,.3,0,.4H2l-.2-.2c0-.1.1,0,0-.1H1.2Zm.4-.1c-.2.1-.2.1-.1.2V9.8h0Zm1.2.5h0ZM2.4,9.1Zm-.6.8h0Zm.7-.4Zm-.5.6H2Z" fill="#db880b"/><path d="M10.6,4.3l.2-.3,1,.2A2,2,0,0,1,13,5H10.4V4.9c.1,0,.1,0,.1-.1s0-.1,0-.2A.2.2,0,0,0,10.6,4.3Z" fill="#ebc141"/><path d="M3.4,12.4h.3c-.1.2.1.2.3.3H5c.2.1.1,0,.1-.1h.1c0,.2.1.2.3.2H6l.4-.3c.2-.1.2-.3.4-.4s0-.2,0-.3l.6.2h0a.4.4,0,0,1,.1.3H7.3c0-.1.1-.1,0-.2H7.1l-.3.2c-.2.2-.3.4-.6.5a1.1,1.1,0,0,1-.8.2H4.8c-.2-.1-.5,0-.7-.2H3.9A1.3,1.3,0,0,1,3.4,12.4Zm.6.8H4Z" fill="#dc8b12"/><path d="M6.2,5.3a.2.2,0,0,1-.2.2q-.3-.1-.3-.3c-.1-.2-.3-.3-.3-.4H5.3s-.1,0,0,.1H5.2c0-.2-.1-.3-.1-.5H5c-.1,0-.1-.1-.1-.2h.5c0,.1,0,.1.1.1l.7.7C6.2,5.1,6.3,5.2,6.2,5.3Z" fill="#ecc348"/><path d="M5.4,4.1H5.3l.8-.2h.2l.4.4a3.1,3.1,0,0,0,.9.7l-.3.2H6.8c0-.1,0-.1-.1-.1H6.6l-.3-.3V4.2a.1.1,0,0,0-.1-.1.1.1,0,0,1-.1.1H5.4Zm1.1.4h0Zm-.1-.2Z" fill="#d57d10"/><path d="M1.5,11.8l.3-.2c.4,0,.7.1.8.4l-.3.3H1.9c-.1-.1-.1-.2-.2-.2Z" fill="#dd901e"/><path d="M2.7,9.6V9.4c.1-.1.1-.2-.1-.3h.2c0-.1,0-.2-.1-.2s-.1-.1-.1,0a.4.4,0,0,0,.1-.3V8.2a.9.9,0,0,0,.1.5h0c-.1,0-.1.2-.1.3a1.1,1.1,0,0,0,.6.9c-.1.1.1.1,0,.2H3.3c-.1-.1-.1,0-.1.1h0v.2H3.1c0-.1,0-.2-.2-.2s-.1-.2.1-.1H3v-.2H2.9V9.9C2.8,9.8,2.9,9.6,2.7,9.6Z" fill="#dd901e"/><path d="M10.4,12H8.5a2,2,0,0,1-1.1,0h0c0-.1,0-.2-.1-.2h3.1Z" fill="#e1c0b2"/><path d="M1.2,9.9h.1c0,.1.1.3.2.3h.1c.1.1.1.2.2.2h.9c.1.1.1,0,.1,0h0c.1,0,.1.2.2.2l.2.3H3.1l-.8-.5a1.4,1.4,0,0,1-.8-.5A.8.8,0,0,1,1.2,9.9Z" fill="#d57e17"/><path d="M3.4,12.4a1.3,1.3,0,0,0,.5.9h.3l.4.2h.6a.1.1,0,0,1-.1.1H5a1.6,1.6,0,0,1-1.7-1.4v-.2Z" fill="#d57e17"/><path d="M8.7,4.8,9,4.6,9.5,4h.3c0,.2,0,.2-.2.4a.2.2,0,0,0-.2.2c.1.1,0,.2,0,.3v.2H9.2Z" fill="#d37806"/><path d="M5,13.9h.1a.1.1,0,0,0,.1-.1h.2c.1-.1.3,0,.3-.2h.7c.1-.1.3-.1.4-.3h.4c0-.1.1-.1.2-.1s-.1.3-.3.4l-.9.5-.8.2Z" fill="#cf7310"/><path d="M13.7,12.4a1.1,1.1,0,0,1-.8.9,1.8,1.8,0,0,1-1.6-.1h.1a1.1,1.1,0,0,0,.8.1h1.1l.3-.4Z" fill="#cf7310"/><path d="M3.2,6.3v.2h0c0,.1-.1.2-.1.3a1.1,1.1,0,0,0,.1.5h0c0,.3.1.5,0,.7V7.8H3.1V7.4c0-.1-.1-.2-.1-.3A1.9,1.9,0,0,1,3.2,6.3Z" fill="#dd901e"/><path d="M1.9,12.4h.3l.3-.2c-.1.3-.2.4-.5.4a.7.7,0,0,1-.5-.6v-.2l.2.4C1.7,12.3,1.8,12.3,1.9,12.4Z" fill="#cf7310"/><path d="M2.9,8.7a.9.9,0,0,1-.1-.5h0L3,7.9l.2.3h0Z" fill="#d57e17"/><path d="M14.5,10.6h.3l-.3.3a1.5,1.5,0,0,0-.6.9h-.1a1.2,1.2,0,0,1,.4-.8l.3-.2Z" fill="#d57d10"/><path d="M2.6,8.7c0-.1.1.2.1,0s.1.1.1.2H2.6c.2.1.2.2.1.3h0c-.2,0-.2-.1-.2-.2s0-.3-.1-.5h.2Z" fill="#dc8b12"/><path d="M12.4,13.3h-.2a1.1,1.1,0,0,1-.8-.1h-.3l-.5-.5h.2l.5.4h.6C12.1,13.2,12.2,13.3,12.4,13.3Z" fill="#d57d10"/><path d="M13.7,12.4h-.1l-.3.4h-.1c.1-.2.2-.2.2-.3v-.2h.1c0-.1.1-.2.1-.3h.1A.6.6,0,0,1,13.7,12.4Z" fill="#d57d10"/><path d="M3,7.9l-.2.2a1.1,1.1,0,0,1,.3-.7v.5Z" fill="#ecc348"/><path d="M2.5,12.2l-.3.2h.1l.3-.3C2.6,12.1,2.6,12.2,2.5,12.2Z" fill="#d57e17"/><path d="M6.1,3.8,5.3,4,6,3.8Z" fill="#dd901e"/><path d="M7.4,12.7c-.1,0-.2,0-.2.1H7l.3-.3h.2v.2Z" fill="#d57e17"/><path d="M1.3,9.4c.1.1,0,.2.1.2s-.2,0,0,.1H1.3a.1.1,0,0,0-.1-.1A.4.4,0,0,1,1.3,9.4Z" fill="#dc8b12"/><path d="M13.8,12h-.1a.4.4,0,0,1,.1-.3h0Z" fill="#db880b"/><path d="M3.2,12h0Z" fill="#dc8b12"/><path d="M11.1,13.1h0Z" fill="#cf7310"/><path d="M2.5,8.7h0Z" fill="#db880b"/><path d="M13.8,11.9h0Z" fill="#d57d10"/><path d="M7.4,12.7Z" fill="#cf7310"/><path d="M2.8,8.2Z" fill="#dd901e"/><path d="M2.3,8.8Z" fill="#dc8b12"/><path d="M3.2,6.1h0Z" fill="#ebc141"/><path d="M10.7,8.7h-4V8.4a1.1,1.1,0,0,1,.1-.5A1.6,1.6,0,0,1,7.7,7H8c.1-.1.1.1.2.1s.2,0,.2.1a.1.1,0,0,1,.1.1c.1-.1.1,0,.1,0h.3c.1.1.2.1.2.2s.1.2.1.1.2,0,.2.1h.8c.1-.1.2,0,.3.1a.2.2,0,0,1,.2.2C10.6,8.5,10.7,8.6,10.7,8.7Z" fill="#ebc141"/><path d="M12.6,9.1l.5-.4c0,.2,0,.4-.2.5l-.8.5-1.6.3H6.9c0-.1-.1-.2-.1-.4s.6.1.8,0H9.1l1.8-.2h.8Z" fill="#ecc348"/><path d="M12.4,10.6l-.7.3a3.5,3.5,0,0,1-1.1.3l-1.9.2h-2l.2-.3h5.5Z" fill="#ecc54f"/><path d="M10.7,8.7c0-.1-.1-.2,0-.3a.2.2,0,0,0-.2-.2c-.1-.1-.2-.2-.3-.1H9.4c0-.1-.1-.2-.2-.1s-.1,0-.1-.1-.1-.1-.2-.2H8.6s0-.1-.1,0a.1.1,0,0,0-.1-.1c0-.1-.1-.2-.2-.1S8.1,7,8,7.1h.2L9,7a.5.5,0,0,0,.2.4l.5.3h.8c.3-.1.3-.1.2-.3h.2c-.2.2-.2.5,0,.6h.8v.2Z" fill="#ecc348"/><path d="M12.6,9.1l-.9.4h-.8l-1.8.2H7.6c-.2.1-.5,0-.8,0h0V9.5h4.1a2.9,2.9,0,0,0,1.6-.2Z" fill="#d19435"/><path d="M6.9,10.1c0,.2.1.5.1.7H5.8V10H6.9Z" fill="#de9e18"/><path d="M12.4,10.6H7v-.2H8.5a.8.8,0,0,1,.7,0h1.1a3.1,3.1,0,0,0,1.6-.2l.6-.3.5-.5c0,.1,0,.1-.1.2l-.5.6Z" fill="#d19435"/><path d="M6.7,8.8h0v.7h-1V8.7h.9Z" fill="#de9e18"/><path d="M5.5,11.1H4.8a1.2,1.2,0,0,1-.9-.4h0l.9.2,1,.2v.3Z" fill="#ecc54f"/><path d="M7.3,12.1c.1,0,.1.1.1.2l-.6-.2-1.4-.2a1.8,1.8,0,0,1-1-.2l-.3-.3-.2-.3H4c.2.2.3.5.6.6H6l1.3.2Z" fill="#cf7310"/><path d="M5.7,11.8H4.6c-.3-.1-.4-.4-.6-.6H3.9v-.2a4.3,4.3,0,0,1-.1-.5h.1c.2.4.4.7.8.8Z" fill="#de9e18"/><path d="M10.4,12h1l1.1-.4h.2v.2h-.2l-.5.2L11,12Z" fill="#cf7310"/><path d="M5.8,9.5h1v.2h-1Z" fill="#cf7310"/><path d="M12.9,9.9c.1-.1.1-.1.1-.2h.1c.2,0,.4-.3.4-.4h0c.2.2,0,.8-.3,1Z" fill="#ecc348"/><path d="M6.9,11l-.2.3H6.3c-.1-.1-.1-.1,0-.1Z" fill="#d57e17"/><path d="M12.9,9.9h.3l-.3.3-.5.4h0Z" fill="#ecc54f"/><path d="M7.3,12.1,6,11.9H5.7l1.4.2Z" fill="#de9e18"/><path d="M6.3,11.2h.3a.5.5,0,0,1-.6-.1H6C6.1,11.2,6.2,11.3,6.3,11.2Z" fill="#de9e18"/><path d="M13.7,10.3h0l-.3.3C13.4,10.5,13.6,10.4,13.7,10.3Z" fill="#cf7310"/><path d="M13.4,9h.1c0,.1-.2.4-.4.4A.5.5,0,0,0,13.4,9Z" fill="#d19435"/><path d="M5.5,11.1h0Z" fill="#fefefe"/><path d="M13.1,9.6h0Z" fill="#d19435"/><path d="M12.8,11.2a.1.1,0,0,1-.1.1A.1.1,0,0,1,12.8,11.2Z" fill="#cf7310"/><path d="M13.8,10.2h0Z" fill="#cf7310"/><path d="M10.1,6.3c-.1,0-.1-.1-.1-.2a.8.8,0,0,1,.4-.4,3.2,3.2,0,0,1,1.4-.3h1.5l.2.2H13c0-.1,0-.1-.1-.1H12a.2.2,0,0,0-.3,0H10.6l-.4.2h-.1Z" fill="#cf7310"/><path d="M10.6,5.9h2.7a.4.4,0,0,1-.4.2H11.3c-.2,0-.5,0-.6.2h-.2c-.1-.1,0-.1,0-.1Z" fill="#ecc348"/><path d="M11.7,8.4h-.4c.2-.2.2-.3,0-.4h.1a.2.2,0,0,1-.2-.2.8.8,0,0,1,.7.1.5.5,0,0,1-.1.7Z" fill="#d37806"/><path d="M10.8,7.4H9.9l-.4-.3H10a.6.6,0,0,0,.6.1h.2Z" fill="#cf7310"/><path d="M11.2,7.6a.2.2,0,0,0,.2.2h-.1c-.3-.1-.4.1-.4.3s-.2-.4,0-.6Z" fill="#d57d10"/><path d="M10.1,6.2h0Z" fill="#d57d10"/><path d="M2.8,11.2s0,.1-.1,0H2c-.1-.1,0-.2.1-.2h.2v-.2h.2c-.1.1,0,.1,0,.1h.3v-.3a.4.4,0,0,1,.1.3h.1c.1,0,.1,0,.1.1s-.1.2,0,.2h.2c-.1,0-.1.2-.2.1v.2c-.1,0-.1-.2-.2-.2Z" fill="#dd901e"/><path d="M3.7,10.4a4.3,4.3,0,0,0,.1.5v.2l.2.3H3.8c-.1,0-.1-.1,0-.2H3.6v-.2H3.3v-.2h0c0-.1,0-.2.1-.1h.1c.1-.1-.1-.1,0-.2l.3.3Z" fill="#dc8b12"/><path d="M3.2,11H3c-.1,0,0-.1,0-.2s0-.1-.1-.1H2.8a.4.4,0,0,0-.1-.3V11H2.4s-.1,0,0-.1h.3c0-.1-.1-.2,0-.4s.1.1.1.2,0,.2.1.2.2.1.2.2h.1Z" fill="#dc8b12"/><path d="M3,11.4v-.2c.1.1.1-.1.2-.1s.1.1.1.3h0c.1.1.1.1,0,.2H3.2Z" fill="#dc8b12"/><path d="M3.4,12.2a.1.1,0,0,1,.1.1H3.4C3.3,12.2,3.4,12.2,3.4,12.2Z" fill="#dd901e"/><path d="M5.3,12.2c.1.1.1,0,.1.1H5.3v-.2Z" fill="#dc8b12"/><path d="M3.4,11h0Z" fill="#dc8b12"/><path d="M3.7,11.2Z" fill="#dc8b12"/><path d="M3.6,11.2Z" fill="#dc8b12"/><path d="M5.3,12.2Z" fill="#dc8b12"/><path d="M8.7,4.8l.5.2.3.3-.2.2H8.8a.9.9,0,0,1-.7.3H7.6l-.5-.2c0-.1-.1-.3,0-.4A.1.1,0,0,0,7,5.3l.3-.2.3-.2a.8.8,0,0,1,.8-.1Z" fill="#faf7ca"/><path d="M10.6,7.2a.6.6,0,0,1-.6-.1H9.5l.4.3H9.7L9,7l-.8-.2H7.5c-.1,0,0-.1,0-.1a.2.2,0,0,1-.2-.2h.9l.6-.2.6-.3h0c.1,0,.1.1.1.2h0l-.2.3a.4.4,0,0,0-.1.3c.1.1.1,0,.1,0h.5c.2-.1.3,0,.4.1l.4.2C10.7,7.1,10.6,7.1,10.6,7.2Z" fill="#d57e17"/><path d="M10.6,4.3a.2.2,0,0,1,0,.3c0,.1-.1.1,0,.2s0,.1-.1.1v.2H9.9L9.7,5l.2-.2a1.2,1.2,0,0,1,.7-.5Z" fill="#ecc348"/><path d="M9.4,5.8h0L9.1,6l-.3.2-.6.2H7.3l-.4-.2-.2-.2c.1-.1,0-.1.1-.2h.3l.5.2H7.3l.3.2h.3l.9-.2.4-.3c.1,0,.2-.1.1-.3l.2-.2C9.5,5.5,9.4,5.6,9.4,5.8Z" fill="#ebc141"/><path d="M10.6,4.3a1.2,1.2,0,0,0-.7.5L9.7,5c-.1,0-.1-.2-.1-.3a2,2,0,0,1,.7-.6C10.4,4,10.5,4.1,10.6,4.3Z" fill="#cf7310"/><path d="M11.9,12.7h-.4v-.2h.4l.6-.3h.3c0-.1.1-.1.2-.1h.3l.3.2c.1,0,.1.1,0,.1h-.2c.1.2,0,.2-.1.3h-.2l-.2.2c0,.1-.1.1-.2-.1s-.1.1,0,.1-.1.2-.2.2h-.4c-.1,0-.1-.2-.2-.1h0Zm1.4-1.1h0Zm-.2.5Z" fill="#db880b"/><path d="M11.9,12.7H12s-.1,0,0,.1h1.2c.2,0,0-.1,0-.1h.3c-.1,0-.1.1-.1.2s-.1.1-.2.3h-.8c-.2,0-.3-.1-.5,0h-.2a.2.2,0,0,1,0-.3h.1A.4.4,0,0,0,11.9,12.7Z" fill="#dd901e"/><path d="M11,12l.9-.2.5-.2h.3c-.1.1-.2.2-.2.3h-.2l-.2.2h0c-.1.3-.4,0-.5.1h-.4Z" fill="#dd901e"/><path d="M11.5,13.1h0s-.1-.1,0-.1h0Z" fill="#dd901e"/><path d="M11.7,12.2Z" fill="#dd901e"/><path d="M14.5,10.4a.3.3,0,0,0,.1-.2h-.1Z" fill="#dc8b12"/><path d="M14.8,10.5h-.1c-.1-.1,0-.1.1-.1Z" fill="#dc8b12"/><path d="M5.3,5.1c0,.1.1.1.1.2H5.3Z" fill="#ecc348"/><path d="M5.4,5.6h0Z" fill="#d57e17"/><path d="M5.4,5.5Z" fill="#ecc348"/><path d="M6.2,6.9h0a.6.6,0,0,1-.1.4c0,.1-.1.1-.1.2a.6.6,0,0,0-.1.4.1.1,0,0,1-.1-.1c.1,0,0-.1,0-.1l-.3.2c.1.1-.1.2-.1.3s0,.2-.1.2H5.1V8.3H5a.1.1,0,0,0-.1.1H4.8c0,.2.2.2.2.3l-.7-.2h.2c.1.1.2.1.2-.1h0c0-.1-.1-.1-.1,0h0c-.1,0-.1-.1-.1-.2h.2c0-.1-.1-.2,0-.3H4.1V7.9H4c-.2,0-.2-.1-.2-.2s0-.2.1-.1h.2c0-.1-.1,0-.1-.1s-.1,0-.1.1H3.7c.1-.1,0-.2.1-.3H4c0-.1,0-.2.1-.2h.5l.2-.3h.3c.1.1.2.2.3.1h.8Zm-1.1.9c0,.1,0,.2.1.2h.1Zm.7-.1V7.5C5.8,7.6,5.7,7.6,5.8,7.7Zm-1.6.2Zm-.1-.4Z" fill="#ebc141"/><path d="M6,7.5c0-.1.1-.1.1-.2a.6.6,0,0,0,.1-.4c0-.1.1-.2.2-.1s.1,0,.1-.2-.1.1-.2,0-.1-.2.1-.2.1-.1,0-.2h.1c0,.1.1.2.2.1h.2c.1.1-.1,0,0,.1l.4.2h.1a.1.1,0,0,1,.1.1c.1,0,.2-.1.2,0h0a1.6,1.6,0,0,0-.9.9,1.1,1.1,0,0,0-.1.5v.4H6.4c0-.1-.1-.2-.1-.3s0-.5,0-.8h0c-.1,0-.1,0-.1.1H6.1s-.1,0,0-.1Zm.1-.1h0Z" fill="#d37806"/><path d="M6.2,6.9H5.4c-.1.1-.2,0-.3-.1H4.8l-.3.2H4.1C4,6.9,4,7,4,7.1H3.8c-.1.1,0,.2-.1.3h.2c0-.1,0-.1.1-.1s.1,0,.1.1H3.9c-.1-.1,0,0-.1.1s0,.2.2.2H4v.2h.6c-.1.1,0,.2,0,.3H4.5c0,.1,0,.2.1.2h0c0-.1.1-.1.1,0h0c0,.2-.1.2-.2.1H4.3l-.6-.3-.5-.7h0a1.3,1.3,0,0,1,.4-.6l.5-.2a.1.1,0,0,0,.1.1h.1v.2h.3c.1,0,0,.1,0,.1v.2s-.1-.1,0-.1H5.8c.1-.1.1-.1,0-.2H5.6c-.1-.1-.2,0-.3-.2h.6l.2.2h0C6.2,6.8,6.2,6.8,6.2,6.9Z" fill="#ecc348"/><path d="M6.1,6.7l-.2-.2c.1,0,0-.1,0-.2H5.5a2.7,2.7,0,0,0-.9,0H4.4c-.1,0-.2,0-.2.2H4.1c-.1.1-.3,0-.3.2H3.7c-.1,0-.2.1-.1.2a1.3,1.3,0,0,0-.4.6,1.1,1.1,0,0,1-.1-.5c0-.1.1-.2.1-.3h.3c.1,0,.1-.1.2,0h0c.1,0,.2.2.2,0a.4.4,0,0,0,.1.3H4V6.2c.1-.1.1-.2.2-.1h.2c.1.1.2-.1.3,0h.4a.1.1,0,0,0,.2,0h.3a.1.1,0,0,1,.2,0H6c0,.1,0,.2.1.2h.1a.2.2,0,0,0,0,.3Z" fill="#d57e17"/><path d="M6.8,5.7c-.1.1,0,.1-.1.2a.3.3,0,0,0-.1-.2H6.5c-.1,0-.2-.1-.1-.2h0c.1-.1.1-.1.1-.3l-.4-.5-.4-.4H6a.1.1,0,0,0,.1-.1.1.1,0,0,1,.1.1v.2l.3.3h.1c.1,0,.1,0,.1.1h.5L7,5.3A.5.5,0,0,0,6.8,5.7Z" fill="#d57e17"/><path d="M5.7,4.1l.4.4.4.5c0,.2,0,.2-.1.3H6.2c.1-.1,0-.2,0-.4l-.7-.7c-.1,0-.1,0-.1-.1Z" fill="#cf7310"/><path d="M7.3,6.3h0Z" fill="#cf7310"/><path d="M4,6h.1a.1.1,0,0,1-.1.1H4Z" fill="#d57e17"/><path d="M6.1,6.7Z" fill="#ecc54f"/><path d="M5,5.7H5Z" fill="#d57e17"/><path d="M4.4,6h0Z" fill="#d57e17"/><path d="M4,6.4Z" fill="#cf7310"/><path d="M3.3,6.4Z" fill="#d57e17"/><path d="M4.4,6Z" fill="#d57e17"/><path d="M3.7,6.1Z" fill="#d57e17"/><path d="M3.4,6.4Z" fill="#d57e17"/><path d="M2.2,10.5v.2H2.1c-.1,0-.2.1-.1.2H1.8c-.1,0-.1-.1-.2-.2h.2c0-.2-.1-.2-.2-.2H1.5c-.1,0-.2-.2-.2-.3h.5c.1.1,0,0,0,.1l.2.2h.2Zm-.3.2h0Zm.2-.1h0Z" fill="#dc8b12"/><path d="M2.7,9.6c.2,0,.1.2.1.3H2.7c0-.2,0-.2-.1-.2h.1Z" fill="#dc8b12"/><path d="M1.6,9.8V10c-.1-.1-.1-.1.1-.2Z" fill="#dc8b12"/><path d="M2.7,9.8Z" fill="#dd901e"/><path d="M2.8,10.3Z" fill="#dd901e"/><path d="M2.4,9.1Z" fill="#dc8b12"/><path d="M1.8,9.9h0Z" fill="#dc8b12"/><path d="M1.6,9.8h0Z" fill="#dc8b12"/><path d="M2.5,9.6h0Z" fill="#dc8b12"/><path d="M2.5,9.5Z" fill="#dc8b12"/><path d="M1.3,10Z" fill="#dc8b12"/><path d="M2,10.1H2Z" fill="#dc8b12"/><path d="M2.3,10.5Z" fill="#dc8b12"/><path d="M2,10.4Z" fill="#dd901e"/><path d="M2.6,10.6Z" fill="#dc8b12"/><path d="M7.3,12.6l-.3.3H6.8c-.2.1-.3.1-.4.3H5.7l-.4.2H4.6l-.4-.2H4.1c.2.2.5.1.7.2h.6a1.1,1.1,0,0,0,.8-.2c.3-.1.4-.3.6-.5l.3-.2h.2C7.4,12.5,7.3,12.5,7.3,12.6Z" fill="#dd901e"/><path d="M4,13.2H4Z" fill="#dd901e"/><path d="M5.1,13.3Z" fill="#dd901e"/><path d="M5.7,4.1Z" fill="#d57e17"/><path d="M6.5,4.5h0Z" fill="#d57e17"/><path d="M6.4,4.3h0Z" fill="#d57e17"/><path d="M1.9,12.4c-.1-.1-.2-.1-.2-.2S1.8,12.3,1.9,12.4Z" fill="#d57e17"/><path d="M3.7,10.3,3.4,10a1.1,1.1,0,0,1-.6-.9c0-.1,0-.3.1-.3h0a2.4,2.4,0,0,0,1.4,1l1,.2h.5v.8h0c-.3-.1-.6,0-.9-.2H4.8l-.7-.2Z" fill="#f7fdc3"/><path d="M5.8,10H4.5c-.1,0-.1-.1-.2,0a2.4,2.4,0,0,1-1.4-1h0l.3-.4h.2a1.6,1.6,0,0,0,.9.7h0c.2.2.4.2.6.3l.9.2h0V10Z" fill="#ecc54f"/><path d="M3.2,10.4Z" fill="#dc8b12"/><path d="M3.3,10.6h0Z" fill="#db880b"/><path d="M1.5,10.4h.1c.1,0,.2,0,.2.2H1.5Z" fill="#dd901e"/><path d="M5.8,13.5h0Z" fill="#d57e17"/><path d="M5.3,13.7l.4-.2c0,.2-.2.1-.3.2Z" fill="#d57e17"/><path d="M6.4,13.4c.1-.2.2-.2.4-.3S6.5,13.3,6.4,13.4Z" fill="#d57e17"/><path d="M6.9,13h0Z" fill="#d57e17"/><path d="M6.8,13.1h0Z" fill="#d57e17"/><path d="M12.6,13.2h0Z" fill="#d57e17"/><path d="M13.1,13h0Z" fill="#d57d10"/><path d="M4.3,9.1a1.6,1.6,0,0,1-.9-.7h0l-.2-.2h0c.1-.2,0-.4,0-.7l.5.7.6.3.7.2h.8v.7H5.3l-1-.3Z" fill="#f7fdc3"/><path d="M3.2,8.1h0L3,7.9V7.7h.1Z" fill="#cf7310"/><path d="M3.2,8.2h0l.2.2H3.2Z" fill="#d19435"/><path d="M13.4,12.7c0-.1,0-.2.1-.2Z" fill="#dc8b12"/><path d="M6.4,9.7h.4c0,.2.1.3.1.4H6.4C6.3,9.9,6.4,9.8,6.4,9.7Z" fill="#d37806"/><path d="M6,11.2H5.9v-.3H7V11H6.3c-.1,0-.1,0,0,.1h0C6.2,11.3,6.1,11.2,6,11.2Z" fill="#cf7310"/><path d="M9,7l.7.3h1c.1.2.1.2-.2.3H9.7l-.5-.3A.5.5,0,0,1,9,7Z" fill="#ecc54f"/><path d="M10.9,8.3c0-.2.1-.4.4-.3h0c.2.1.2.2,0,.4h-.4Z" fill="#cf7310"/><path d="M6.4,9.7c0,.1-.1.2,0,.4H5.8V9.6Z" fill="#d57d10"/><path d="M6,7.5h.1c-.1.1,0,.1,0,.1h.1c0-.1,0-.1.1-.1h0c0,.3.1.6,0,.8s.1.2.1.3H5.8c-.1-.2.1-.5.1-.8A.6.6,0,0,1,6,7.5Z" fill="#d57d10"/><path d="M4.3,9.1l1,.3h.5l-.9-.2C4.7,9.3,4.5,9.3,4.3,9.1Z" fill="#d19435"/><path d="M5.8,10.8h0l-1-.2-.9-.2h.2l.7.2h.1C5.2,10.8,5.5,10.7,5.8,10.8Z" fill="#d19435"/><path d="M13,5.9H11.7a.2.2,0,0,1,.3,0h.9C13,5.8,13,5.8,13,5.9Z" fill="#d57e17"/><path d="M2.8,11.2Z" fill="#d57e17"/><path d="M9.3,5.5c.1.2,0,.3-.1.3l-.4.3-.9.2H7.6l-.3-.2h.8a3.1,3.1,0,0,0,1-.5Z" fill="#ecc54f"/><path d="M9.1,5.6a3.1,3.1,0,0,1-1,.5h0a.9.9,0,0,0,.7-.3h.3Z" fill="#f7fdc3"/><path d="M6.8,5.7A.5.5,0,0,1,7,5.3a.1.1,0,0,1,.1.1c-.1.1,0,.3,0,.4Z" fill="#f7fdc3"/><path d="M8.8,6.2,9.1,6l.3-.2h0Z" fill="#cf7310"/><path d="M12.1,12.8h-.2c.1-.1.1.1.2.1Z" fill="#dc8b12"/><path d="M13.3,11.6h0Z" fill="#dc8b12"/><path d="M13.1,12.1Z" fill="#dc8b12"/><path d="M5.9,7.9c0,.3-.2.6-.1.8H5c0-.1-.2-.1-.2-.3h.1A.1.1,0,0,1,5,8.2H5v.2h.2c.1,0,.1-.1.1-.2s.2-.2.1-.3l.3-.2s.1.1,0,.1A.1.1,0,0,0,5.9,7.9Z" fill="#ecc348"/><path d="M5.1,7.8l.2.3H5.2C5.1,8,5.1,7.9,5.1,7.8Z" fill="#ecc348"/><path d="M4.5,7.1l.3-.2-.2.3H4.5Z" fill="#ecc54f"/><path d="M5.8,7.7c-.1-.1,0-.1,0-.2Z" fill="#ecc348"/><path d="M5.6,7Z" fill="#ecc54f"/><path d="M4.2,7.9h0Z" fill="#ecc348"/><path d="M4.1,7.5Z" fill="#ecc348"/><path d="M6.1,7.4h0Z" fill="#d57d10"/><path d="M3.6,6.8c-.1-.1,0-.2.1-.2h.1c0-.2.2-.1.3-.2h.1c0-.2.1-.2.2-.2h.2a2.7,2.7,0,0,1,.9,0h.4c0,.1.1.2,0,.2H4.1Z" fill="#cf7310"/><path d="M4.3,6.5h1c.1.2.2.1.3.2h.2c.1.1.1.1,0,.2H4.7c-.1,0,0,.1,0,.1V6.7s.1-.1,0-.1H4.3Z" fill="#ecc54f"/><path d="M4.1,6.6h.1A.1.1,0,0,1,4.1,6.6Z" fill="#ecc54f"/><path d="M1.9,10.7h0Z" fill="#dd901e"/><path d="M2.1,10.6h0Z" fill="#dd901e"/><path d="M4.3,9.8c.1-.1.1,0,.2,0h.8Z" fill="#ebc141"/><path d="M4.3,9.1Z" fill="#d19435"/><path d="M3.4,8.4Z" fill="#d19435"/><path d="M2.4,14H2.3V12.7a5.7,5.7,0,0,1-.1-1.2h.3v1.9A1.3,1.3,0,0,1,2.4,14Z" fill="#231f20"/><path d="M3.6,13a2.8,2.8,0,0,1-.1.9c0,.4,0,.6-.1.7H3.2c0-.3.1-.5.1-.8V12.6H3.2a.4.4,0,0,0-.1.3v1.3s-.1.1-.1,0H2.9V11.3h.3a.8.8,0,0,1-.1.4v.7c0-.2.1-.2.1-.3h.1c.1,0,.2.1.2.3S3.6,12.6,3.6,13Z" fill="#231f20"/><path d="M4.3,13.9h.1c.1,0,.1.1.1.2s-.1.3-.1.4-.2.2-.3.1l-.3-.3v-.8a3.7,3.7,0,0,1,.1-1.1c.1-.3.2-.5.3-.4s.2,0,.2.2a.7.7,0,0,1,.1.5v.7H4v.8c.1,0,.1-.1.1-.2A.4.4,0,0,0,4.3,13.9Zm-.2-.8h.2v-.6H4.2v.7Z" fill="#231f20"/><path d="M5.3,13.8v1.4H5.1c0-.5-.1-1-.1-1.5V11.8a.4.4,0,0,0,.1-.3h.6a1.5,1.5,0,0,1,.1.7,2.5,2.5,0,0,1-.1.9C5.6,13.4,5.5,13.7,5.3,13.8Zm.3-1.5a.7.7,0,0,0-.1-.5c0-.1,0-.1-.1-.1H5.3v1.6a.5.5,0,0,0,.2-.4A1.3,1.3,0,0,0,5.6,12.3Z" fill="#231f20"/><path d="M6.6,13.2a3.8,3.8,0,0,1-.1,1v1.1a.1.1,0,0,1-.1-.1H6.3V15H6.2L6,14.8a.7.7,0,0,1-.1-.5,3.5,3.5,0,0,1,.1-.6c.1-.1.1-.2.3-.1h.1a5.6,5.6,0,0,0-.1-.7v-.2c-.1,0-.1,0-.1.2v.4H6v-.3c0-.2,0-.3.1-.4s.1-.2.2-.2.1.1.2.2S6.6,12.9,6.6,13.2Zm-.5,1.1v.3h.1a.6.6,0,0,0,.1-.4v-.3H6.2C6.2,14.1,6.1,14.2,6.1,14.3Z" fill="#231f20"/><path d="M7,14.5v.8H6.8V13.9c0-.6-.1-1.3-.1-1.6h.2a.1.1,0,0,0,.1.1H7v.5c0-.2,0-.3.1-.4h.1c.1,0,.1.1.1.3s.1.4.1.8v1.8H7.2V13H7.1v1.6Z" fill="#231f20"/><path d="M8.2,13.3H8v-.5c0-.1,0-.2-.1-.2a1.8,1.8,0,0,1-.1.5v1a1.3,1.3,0,0,0,.1.6V15c.1,0,.1-.1.1-.2s.1-.2.1-.4h.1v.2a.7.7,0,0,1-.1.5.2.2,0,0,1-.2.2c-.1,0-.2-.1-.2-.3a2.2,2.2,0,0,1-.1-.9,6.1,6.1,0,0,1,.1-1.4c0-.3.1-.5.2-.5s.2.1.2.3A.8.8,0,0,1,8.2,13.3Z" fill="#231f20"/><path d="M9,13.4v2.1H8.8a.1.1,0,0,0-.1.1H8.6v-.2a1.1,1.1,0,0,1-.1-.6v-.6l.3-.2h.1V13a.8.8,0,0,1-.1-.3v.7H8.5c-.1,0-.1-.1-.1-.3a.7.7,0,0,1,.1-.5l.2-.2c.1,0,.2.1.2.3A1.7,1.7,0,0,1,9,13.4Zm-.4,1.2v.2h.2v-.7H8.6Z" fill="#231f20"/><path d="M9.4,14.2v.7a1.1,1.1,0,0,1,.1.5H9.3a2.5,2.5,0,0,0-.1-.8V11.5h.2v1.9a1.3,1.3,0,0,0,.1-.6,6.4,6.4,0,0,0,.2-.7.3.3,0,0,0,.1.2v.2c0,.2-.1.4-.1.6a1.4,1.4,0,0,1-.2.6c.1.1.1.3.2.5s.1.3.2.5a.4.4,0,0,1-.1.3v.2c-.1-.2-.2-.3-.2-.5a6.4,6.4,0,0,1-.2-.7h0Z" fill="#231f20"/><path d="M10.4,14.2c.1,0,.1,0,.1.1s.1.1.1.2a1.1,1.1,0,0,1-.1.5l-.2.2c-.1,0-.2,0-.2-.2a2.2,2.2,0,0,1-.1-.9,5.6,5.6,0,0,1,0-1.3c.1-.3.2-.5.3-.5l.2.2a4.3,4.3,0,0,1,.1.5v.7h-.4V14h0v.2Zm-.2-.8h.1c.1,0,.1-.1.1-.2V13c0-.1-.1-.2-.1-.3h0s-.1,0-.1.2Z" fill="#231f20"/><path d="M11.7,13.2a.6.6,0,0,1,.1.4v.3a1.7,1.7,0,0,1-.1.8.5.5,0,0,1-.2.4l-.3-.3a2.4,2.4,0,0,1-.2-.9h.2c0,.3,0,.6.1.7s.1.3.1.2h.2v-.3c0-.2,0-.3-.1-.4s-.1-.2-.2-.4v-.3c0-.1,0-.2-.1-.2v-.4c0-.1-.1-.2-.1-.3s.1-.5.1-.7l.3-.2h.2a1.1,1.1,0,0,1,.2.6h-.2a1,1,0,0,0-.1-.4c0-.1-.1-.2-.1-.1h-.1v.7c.1.1.1.2.2.4l.2.2Z" fill="#231f20"/><path d="M12.7,13a1.4,1.4,0,0,1,0,.9v.8h-.2V12.7h-.2a.8.8,0,0,1-.1.4.4.4,0,0,0,.1.3v1.1h-.2c0-.3-.1-.7-.1-1V12.5a1.3,1.3,0,0,0-.1-.6v-.5h.3v1.2a.4.4,0,0,0,.1-.3h.2l.2.2Z" fill="#231f20"/><path d="M12.9,13.4a2.8,2.8,0,0,1,.1-1c.1-.3.2-.4.3-.4s.2,0,.3.1v.7a3.3,3.3,0,0,1,0,1c-.1.3-.2.5-.3.5s-.2,0-.3-.1S12.9,13.7,12.9,13.4Zm.5-.4v-.7c-.1,0-.1.1-.1.3V14a.4.4,0,0,0,.1-.3Z" fill="#231f20"/><path d="M14,13.9v.6h-.2v-.9a4.9,4.9,0,0,1-.1-1.2v-.7H14v.2a.4.4,0,0,0,.1-.3h.1c.1-.1.1,0,.2.1v.5a3.1,3.1,0,0,1-.1,1,.8.8,0,0,1-.2.5H14Zm0-.4h.1c0-.1.1-.2.1-.4v-1h-.1v1.2Z" fill="#231f20"/><path d="M10.5,4,9.6,1.8l1.7,1.1,1-1.3.4,1.6,1.9-.4L13.1,5A5.1,5.1,0,0,0,10.5,4Z" fill="#f6c64e"/><circle cx="9.6" cy="1.9" r="0.3" fill="#f6c64e"/><circle cx="12.3" cy="1.6" r="0.3" fill="#f6c64e"/><circle cx="14.5" cy="2.9" r="0.3" fill="#f6c64e"/></g></svg>