<svg xmlns="http://www.w3.org/2000/svg" width="64" height="64" viewBox="0 0 64 64"><title>logo-64</title><g id="Layer_2" data-name="Layer 2"><path d="M57.1,28.8a6.6,6.6,0,0,1-.3,3.7,3.1,3.1,0,0,0-.5,1l-.7.8c-.3.3-.2.4-.1.7s1.1,1.3,1.4,2.1a7.6,7.6,0,0,1,.6,3.4l-.3,1.6v.2s-.1,0,0,.1-1.6,1-1.6,2a14.9,14.9,0,0,1-2.7,2.3l-.4.2h0A41,41,0,0,1,47.6,49a9,9,0,0,1-3.9.7,3.2,3.2,0,0,0-1.4.3,9.7,9.7,0,0,1-2.9.4l-2.2-.2a16.2,16.2,0,0,1-5.8-.1h-.6a3.4,3.4,0,0,1-2.4.3h-.1a2.4,2.4,0,0,0-1-.5l-6.2-.9h0a27.7,27.7,0,0,1-4.9-1.5,6.3,6.3,0,0,1-3.6-3.9c.1.1.3.2.4.4a7,7,0,0,0,4.1,1.8c1,0,2,.2,3,.3a4,4,0,0,0,2.2.5,2.3,2.3,0,0,0,2.8.4h.2l2.4.4a40.9,40.9,0,0,0,7-.1c2.4-.3,4.8-.7,7.2-.8a16.8,16.8,0,0,0,9-2.7h0a11,11,0,0,0,2.5-1.9,8.4,8.4,0,0,0,2.9-4.2,1.4,1.4,0,0,0-.4-1.6v.5a10.1,10.1,0,0,1-1.4,2.5h-.1c-.2.2-.5.4-.5.7h0c-.7.8-1.6,1.3-2.3,2a8.5,8.5,0,0,1-2.9,1.7,16.4,16.4,0,0,1-7,.7H40.5a15.4,15.4,0,0,1-3.7.3,6.6,6.6,0,0,0-3.1.2H26.8c0-1.1-.4-2.2-.5-3.4h5.8c1.6.1,3.2,0,4.8,0s3.7-.5,5.5-.5a18.9,18.9,0,0,0,7.1-1.2,11.3,11.3,0,0,0,3.9-2.1,2.7,2.7,0,0,0,1-2.2L52,37h-.4a14.4,14.4,0,0,1-7.1,1.1,3.8,3.8,0,0,0-2.1.2,3.2,3.2,0,0,1-1.6.3c-2.1-.1-4.2,0-6.3,0H32.7c-2.2.2-4.4.3-6.7.3h0l-.3-3.1c5.9.1,11.9-.2,17.8-.5a15,15,0,0,0,4.2-.4h1.2C52.4,33.8,55.6,32.5,57.1,28.8Z" fill="#f7fdc3"/><path d="M57.1,28.8c-1.5,3.7-4.7,5-8.2,6H47.7c-.4-.4.4-.4.2-.7a2,2,0,0,0,1.3-2.1c-.1-1.3-1.9-2.2-3.4-1.6a5.6,5.6,0,0,0-1.2.4c.1-.4-.2-.6-.5-.7s-.5-.1-.5-.4.7-.3.9-.6.7-1,0-1.5l-2.4-1.4c-.6-.4-1.5-.7-1.4-1.7a1.4,1.4,0,0,0,.2-.7h.2a6.3,6.3,0,0,1,2-1c0,.5-.4.7-.7.9s-.3.2-.1.3.7.4,1.1.1,1.8-.7,2.7-.7a5.5,5.5,0,0,1,2.2.1h1l3.2.2c1,.1,2.1.1,2.7-1s.9.4,1.3.5a8.3,8.3,0,0,1,.7,4.1C57.2,27.9,57.1,28.3,57.1,28.8Z" fill="#ebc141"/><path d="M57.2,42.1l.3-1.6a1.4,1.4,0,0,1,1.1,1c.2.5.4,1,.8,1.1s1.1.6,1.2,1.3-.1.2-.2.3L59,45.3a5.3,5.3,0,0,0-1.5,3.3,1.5,1.5,0,0,0-.6,1.6,6.1,6.1,0,0,0-.3,1.3c0,.4-.1.5-.5.6s-.8-.5-1.4-.3.8.6-.1.6l-.2.3a1.4,1.4,0,0,1-1.3.7.4.4,0,0,0-.5.2c-.3.3-.8.6-1.1.5a3.5,3.5,0,0,0-1.8.5c-.2.2-.4,0-.6,0s0-.4.1-.5l.3-.6a14.9,14.9,0,0,0,2.1-.2c.3.1.8,0,.6-.7a1.7,1.7,0,0,1,.2-.5c.3.2.2.7.6.6s.6-.2.6-.6h0c.4-.5,1.2-.6,1.2-1.4a1,1,0,0,0,1-1.4.1.1,0,0,1,.1-.1c.1.1.2.4.5.2s.3-.2.3-.4-.2-.2-.4-.3l-.3-.3c-.6-.5-1.5-.7-1.7-.3s-.9.6-1.3.9l-.2.2c.1.8-.5.7-.9.8l-.6.3A13.4,13.4,0,0,0,49,51.5c0,.1-.2.1-.2,0s-1.1.4-1.6.6-.2.3-.1.5,1.2.7,1.8.9,0,.8-.5,1-.2-.4-.5-.3-.3.9,0,1.3-.7.1-.9-.4a.2.2,0,0,0,.1-.4h-.2c-.2.1-.1.3,0,.4s-.5.1-.7-.1A10.7,10.7,0,0,1,44,53.5c-.2-.2-.4-.6-.8-.5a3.7,3.7,0,0,1-.8-2.2.5.5,0,0,0-.2-.4v-.2h2.6c0,.6.2.9.9.8h.7c.1.2.2.1.4-.1s1.2-.5,1.4-.3.9.1,1.1-.3.2-.4.3-.3.7,0,.9-.4l.4-.3c.7.3.7-.2.8-.6s.1-.2.2-.3.3-.2.2-.4-.3-.1-.4-.1.7-.5.6-1h0c.2,0,.4,0,.4-.2a14.9,14.9,0,0,0,2.7-2.3c.7-.3.9-1,1.4-1.5s.2-.3.2-.5,0-.1,0-.1ZM47.7,51v.2h.3Z" fill="#dc8b12"/><path d="M40.7,24.6c-.1,1,.8,1.3,1.4,1.7l2.4,1.4c.7.5.7.9,0,1.5s-1-.5-1.6-.6a.8.8,0,0,0-.4-1.2l-1.3-.7a2.1,2.1,0,0,0-1.1-.4,28.5,28.5,0,0,1-2.9-.3c-.4,0-.5-.3-.5-.6a4.4,4.4,0,0,1,1.2-1.8.9.9,0,0,0-.1-1.4c-.1-.6.2-1.2.1-1.9s-.4-1.1-.9-1.5a2.5,2.5,0,0,0,.6-1.4c0-.3-.1-.5-.1-.8s1.3-1.5,1.4-2.5H39c.4-.2.4-.2.2-.5a2.5,2.5,0,0,1,1.9.1,7.7,7.7,0,0,1,2.6.7c.1.5-.3.7-.5,1.1h-.4c-.1-.8-.5-1.1-1.3-.7a5.5,5.5,0,0,0-2.7,2.3c-.4.7-.3,1.5.4,1.7s.3.5.7.6a9.9,9.9,0,0,0,2.4-.3,22.4,22.4,0,0,1,5.8-.5c1.8,0,3.7-.4,5.6-.1h0c0,.1,0,.2.1.1s.6.3.8.6-.1.3,0,.4a8.6,8.6,0,0,0,1,1.6,5.7,5.7,0,0,0-1.3-.1c0-.3.3-.6,0-.8a5.2,5.2,0,0,0-1.3-.6,22.6,22.6,0,0,0-4.5-.2,2.9,2.9,0,0,0-1.6.3h-.4c-.8,0-1,.1-1.1,1l-1.7.5a5.2,5.2,0,0,0-3,1.8C40.4,23.6,40.1,24.1,40.7,24.6Z" fill="#d57c0f"/><path d="M9.9,50.4l-.4-1.5v-.4c.3.3.7.1,1,.2s.2-.2.2-.3-.1-.3-.3-.1-.2,0-.2-.1.4-.3.4-.6-.5,0-.5-.3-.2-.8-.4-1.2v-.6c.5,0,.4-.3.2-.6l-.5-.2v-.6c.2-.1.3.1.4.2h.4c.5,0,.7.1.9.7a2.2,2.2,0,0,0,.8,1.3h.2c.2.1.3.3.1.5s-.3.5.1.5a5.3,5.3,0,0,1,1.2.3l1.4,1.1a13.3,13.3,0,0,0,4.8,1,28.3,28.3,0,0,1,5.8,1.1c.1.1.1.3.3.1h.1a.6.6,0,0,1-.1.7c-.8.6-.9,1.8-1.8,2.4a5.8,5.8,0,0,1-2.6,1.1l-1.8.3c-.9.2-.9.2-1.2-.7s.1-.5.4-.6.3.7.6.4a.6.6,0,0,1,.7-.1.5.5,0,0,0,.5,0c.4-.5,1.1-.4,1.6-.6a1.4,1.4,0,0,0,1.2-1c.2-.4.1-.6-.4-.6A2.5,2.5,0,0,1,22,52a.3.3,0,0,0-.4,0c-.3.3-.4.1-.5-.1s-.6-.5-.8,0-.3.4-.6.3-.4-.3-.4-.6-.4-.9-1.1-.8h-.3A3.2,3.2,0,0,0,16,50a2.8,2.8,0,0,1-1.6-.6c-.3-.3-.6-.4-.8,0s-.5.3-.9.2l.3-.3c.1-.2.3-.3.1-.5s-.2,0-.3.1-.3,0-.4,0-.3-.1-.4.2-.5.8.3.9h.2a2.8,2.8,0,0,0,1.1,2.3c.3.4.5,1.2,1,1.2s.5.1.6.4.5.7.9.2a.6.6,0,0,1,.7,0,1.7,1.7,0,0,0,1.4.3h.2c.1,0,.1.1.1.2s.1.9-.6.5v.2c-.1.3-.2.3-.4.1s-.5-.1-.8-.1-.8.1-1.2-.3a1.2,1.2,0,0,0-.8-.4c-.5-.1-1.1-.1-1.1-.8s-.2-.1-.4-.1-1.4-.9-1.3-1.2-.2-.5-.5-.5h-.7c-.5-.1-.1-.7-.6-.8V51C10.2,50.8,10.3,50.5,9.9,50.4Zm.6-4.5a.2.2,0,0,0-.2-.2h-.1c0,.1,0,.2.1.2Zm1.5.7h0Zm-.6-.1h0Z" fill="#db880c"/><path d="M23.5,13.5a15.8,15.8,0,0,1,4.8-.6,44.9,44.9,0,0,1,10.3.9c-.2.2-.5.3-.6.6a17.1,17.1,0,0,1-2.2,2.5c-.4.4-1,.6-1.4,1.1L33,17.8a3.2,3.2,0,0,0-3.3.3,12.5,12.5,0,0,1-4.2-3A5.3,5.3,0,0,0,23.5,13.5Z" fill="#ebc141"/><path d="M60.6,43.9c-.1-.7-.5-1-1.2-1.3s-.6-.6-.8-1.1a1.4,1.4,0,0,0-1.1-1,7.6,7.6,0,0,0-.6-3.4c-.3-.8-1-1.3-1.4-2.1s-.2-.4.1-.7l.7-.8a5,5,0,0,1,4,1.4,13.2,13.2,0,0,1,2.5,2.8,4.6,4.6,0,0,1-.9,5.8c-.2,0-.2-.2-.2-.3s.1-.2-.1-.2-.4,0-.3.4A1.3,1.3,0,0,1,60.6,43.9Zm.3-1.2c.1-.1.4-.1.3-.3a.2.2,0,0,0-.2-.2c-.2.1-.1.3-.1.5s-.3,0-.2.2.2.2.2.1S60.9,42.8,60.9,42.7Z" fill="#db8608"/><path d="M10,23.8a6.7,6.7,0,0,1,1.8-4.5,10.9,10.9,0,0,1,5.7-4c0,.4-.2.9.6.9v.2c-.2.9.7,1.5.7,2.4s.2-.4.5-.2a1.8,1.8,0,0,1,1.3,1.1,1.5,1.5,0,0,0,.6.9l.4.5a4.7,4.7,0,0,1-2,.2c-.1-.2.1-.4-.2-.5s0,.4.1.5a10.5,10.5,0,0,1-2.5.1A12.1,12.1,0,0,0,10,23.8Zm9.1-4.6v.9l.2.3a.1.1,0,0,0,.2,0c.1-.2.2-.3.1-.5S19.4,19.5,19.1,19.2Zm-1.5-1.7a.2.2,0,0,1,.2-.2c0-.1,0-.2-.1-.2a.2.2,0,0,0-.2.2Z" fill="#ebc141"/><path d="M10,23.8a12.1,12.1,0,0,1,7.1-2.4,10.5,10.5,0,0,0,2.5-.1h.1a3.6,3.6,0,0,0,2-.3,2.5,2.5,0,0,0,1.7-.8h.8c-.1.3-.1.5-.2.8s-.1.3.1.3,1,.8,1.3,1.3.1.3.3.3a1,1,0,0,0,.6.9l1.7.6c0,.3.1.4.4.5s-.2.7.1.7.4.7,1,.6.5.4.8.3,1,0,1.6,0,.3.1.3.3a8.1,8.1,0,0,0-2.2.7c-.2-.4-.6,0-.8-.4a.6.6,0,0,0-.7-.2c-.1.1-.2,0-.2-.1a8.4,8.4,0,0,0-2.1-1.1c0-.1.5-.1.2-.4s-.1-.5-.5-.4l-.5.2c-.4.3-.6.1-.7-.3s.1-.3-.2-.4-.2.5-.5.5a.6.6,0,0,0-.2.8c0,.3.2.7.5.6s.3,0,.3.2-.2.3-.4.2-.8,0-1,.4h-.1c0-.2,0-.4-.2-.5l-.2-.3-.3-.4c.5.1.6-.2.5-.5s-.5-1.3-.7-2a.7.7,0,0,0-.8-.5c-.5.2-.9-.2-1.4-.3s-.1-.2-.2-.2-.5.3-.8-.1-.4.4-.8.3-.8.3-1.2.2-1.4-.1-1.8.8H15c-.6-.3-.9,0-1.1.5s0-.6-.3-.7a1.6,1.6,0,0,1-1.3.4h0c-.1.1-.1.3-.2.2a.6.6,0,0,0-.9.1c-.2.2,0,.5.2.7s.1.2,0,.3-.6-.3-.6-.7h0c-.4.1-.4.5-.7.8s.6-.1.6.2.1.2,0,.2-.4-.1-.5-.2H9.9c-.1-.3.1-.6-.1-.9v-.7Zm4.6-.5h.5c0-.1,0-.2-.1-.2s-.2.1-.2.2ZM24.5,22a.1.1,0,0,0-.1-.1h-.2a.2.2,0,0,0,.2.2Zm-8.9.3h.1c0,.1.1,0,.1-.1h-.1C15.6,22.1,15.6,22.2,15.6,22.3Zm7.5,1.9h0Z" fill="#d57c0f"/><path d="M1.3,38.7a4.9,4.9,0,0,1,3.2-2.6c.4-.1.8-.4,1.3-.2h.1c0-.3.3-.2.4-.3s0,1.3.4,2,.1.7.7.7a.2.2,0,0,1,.2.2v.8H6.9v-.2h0v.2c0,.1,0,.2.1.2s.7.1.4.7-.3-.1-.3.1a.3.3,0,0,0,.3.3c.2,0,.1-.2.1-.3a1,1,0,0,1,.7.4c0,.4.2.7.1,1s.3-.5.5-.2.3.3.6.4-.3.9-.6,1.3a.3.3,0,0,0-.1-.2c0-.3-.2-.6-.4-.6s.2.4.1.6v.4c-.5,0-.5-.3-.5-.7s.1-.8-.5-1a5.5,5.5,0,0,0,.2,1.8c.1.2.1.2-.1.3s-.4.5-.5,0H6.3c-.3-.1-.2-.4-.3-.6s-.1-.2-.2-.1-.1.2,0,.3H5.5a1.3,1.3,0,0,0-.9-.5h0c-.3-.5-.6-.9-1.2-.9s.4-.2.3-.3-.2-.5-.5-.6-.2.2-.3.3-.6.3-.8,0-.4-.2-.7,0-.1-.1-.1-.3.1-.1,0-.2a.7.7,0,0,0-.6-.4v-.5c.2-.1.4,0,.6.2s.2,0,.3-.1.1-.2,0-.2.1-.4.2-.7S1.7,38.8,1.3,38.7Zm1.5,1.8c-.8.2-.8.2-.4.8s.6-.4.4-.8.2-.1.2-.2H2.9C2.8,40.2,2.8,40.4,2.8,40.5Zm3.4-3.4c0-.1,0-.1-.1-.1a.1.1,0,0,0,0,.2ZM3.4,40.7h0Zm3.2-1.9ZM4.5,41.9h0a.1.1,0,0,1,.1-.1Z" fill="#db880c"/><path d="M43.2,15.5c.2-.4.6-.6.5-1.1a18.4,18.4,0,0,1,4.7.6,9.3,9.3,0,0,1,5.3,3.6c-1.9-.3-3.8.1-5.6.1a22.4,22.4,0,0,0-5.8.5c-.1-.4,0-.6.4-.7s.4-.1.2-.4,0-.7.3-1A1.2,1.2,0,0,0,43.2,15.5Z" fill="#ebc141"/><path d="M18.6,54.7c.3.9.3.9,1.2.7l1.8-.3A5.8,5.8,0,0,0,24.2,54c.9-.6,1-1.8,1.8-2.4a.6.6,0,0,0,.1-.7l2.7.4h0a2.5,2.5,0,0,1,.1,1.2c-.4-.1-.6.4-1,.4a.4.4,0,0,1,.1-.3c.1-.2.3-.3.2-.5s-.3-.1-.5-.1a2.3,2.3,0,0,0-1.8,1.1,7.7,7.7,0,0,1-3.1,2.6,11.7,11.7,0,0,1-3.2.4c-.2,0-.6-.2-.8,0a.9.9,0,0,1-1.2.1h-.3c-.2.2-.5.1-.8.1a6.8,6.8,0,0,1-2.7-.7c-.1,0-.2-.1-.3,0s0,.2,0,.3.2.3.2.4-.6-.2-.9-.4a10.1,10.1,0,0,1-.9-1.3,5.3,5.3,0,0,1-1.3-2.6h.7c.3,0,.7-.1.5.5s.9,1.1,1.3,1.2.3-.1.4.1.6.7,1.1.8a1.2,1.2,0,0,1,.8.4c.4.4.8.3,1.2.3s.6-.1.8.1.3.2.4-.1v-.2c.7.4.5-.2.6-.5Zm-5.5.8c.1,0,.2,0,.2-.2s-.1-.2-.3-.2v.2C12.8,55.5,12.9,55.5,13.1,55.5Z" fill="#dc8b12"/><path d="M23.5,13.5a5.3,5.3,0,0,1,2,1.6,12.5,12.5,0,0,0,4.2,3l-1.5,1.1c-.3-.1-.3-.4-.4-.6s-.1-.2-.2-.3a.3.3,0,0,0-.3.3c-.1.4-.3.5-.7.6s-.3-.5-.4-.7-.1-.1-.1-.2-.2-.5-.5-.4-.5,0-.4-.2-.1-.3-.2-.5l-1.6-1.4c-.1-.2-.3-.3-.2-.7s-.1-.3-.3-.2-.5.1-.7,0a1,1,0,0,0-.9,0h0l-.2-.6a.7.7,0,0,0-.2.6c-.5-.2-.9-.4-1.4.1s-.3-.2-.4-.3v-.2a25.4,25.4,0,0,0,3.7-1Zm1.2,2.8h.2s.2.1.1-.1Zm-.6-.6v-.2h.1Z" fill="#d57c0f"/><path d="M2.3,49.4a1.8,1.8,0,0,1,1.5-1c1.4-.2,3,.2,3.2,1.8L5.9,51.5c-.6.4-1.2.1-1.8.3H3.9a1.5,1.5,0,0,0-.9-.6A4,4,0,0,1,2.3,49.4Z" fill="#dd901e"/><path d="M7.6,39.3v-.8c.3-.4.2-1.2-.1-1.2s-.5-.4-.5-.9.6.3.8,0-.1-.7-.2-1.2-.3,0-.5.1a1.5,1.5,0,0,0,.5-1.2c.1-.3.1-.6.3-.8a3.4,3.4,0,0,0,.5,1.9v.4c-.5.4-.3.9-.3,1.3a5.2,5.2,0,0,0,2.6,4.5c-.3.3.1.6.2.7s-.1.5-.3.5-.7-.3-.8.2h0c.2.3.4.5.4.8v.2H10v.4c-.1-.1-.2-.3-.4-.2v.6a.5.5,0,0,1-.2-.4c0-.6-.4-.9-1-.9V43c.1-.2-.5-.4-.1-.6s.4.3.4.6a.3.3,0,0,1,.1.2c.3-.4.2-1,.6-1.3s-.5-.1-.6-.4-.3.3-.5.2-.1-.6-.1-1S8.2,39.5,7.6,39.3Z" fill="#dd901e"/><path d="M19.1,14.7c.1.1.2.3.4.3s1,.6,1.4,1.1h-.2c-.4.6-1.1,0-1.6.4s.8.4.6.9.1.3.2.4a6,6,0,0,1,.8.8A3.3,3.3,0,0,0,21.9,20a.8.8,0,0,0,1.2,0h.3a2.5,2.5,0,0,1-1.7.8l-.4-.4a1.5,1.5,0,0,1-.6-.9,1.8,1.8,0,0,0-1.3-1.1c-.3-.2-.2.3-.5.2s-.9-1.5-.7-2.4v-.2c-.8,0-.6-.5-.6-.9Z" fill="#ecc348"/><path d="M42.3,50.2v.2a39.6,39.6,0,0,0-4.7.5,22,22,0,0,1-3.6.4,29,29,0,0,1-5.1,0h0c0-.3-.3-.5-.4-.8a3.4,3.4,0,0,0,2.4-.3h.6a16.2,16.2,0,0,0,5.8.1l2.2.2a9.7,9.7,0,0,0,2.9-.4Z" fill="#faf7ca"/><path d="M10.6,52.1a5.3,5.3,0,0,0,1.3,2.6,10.1,10.1,0,0,0,.9,1.3c.3.2.5.5.9.4h.2c0,.3.1.4.4.4s0,.3.1.3,1.2.4,1.8.5,1.7,0,2.5.2.1.5-.3.3-.6,0-.6.4c-4,.2-6.9-2.1-7.6-6.2a3.6,3.6,0,0,1-.2-1C10.5,51.4,10.1,52,10.6,52.1Z" fill="#d57f16"/><path d="M1.3,41.2c0,.2,0,.3.1.3s.5,1.5,1,1.6v.3c-.3.2,0,.4.1.5a12.7,12.7,0,0,0,1.2,1c.3.1.4.4.8.2a.9.9,0,0,0,.7.6,6.6,6.6,0,0,0,1.5.5c.3.1.8.1,1.1.5H8c.5,0,.3.7.8.6l.8,1.2v.4a8.8,8.8,0,0,0-3.6-2.1,7.8,7.8,0,0,1-3.8-2.3A5.2,5.2,0,0,1,.7,40.6a.7.7,0,0,1,.6.4Z" fill="#d57f16"/><path d="M17.8,58.5c0-.4.3-.5.6-.4s.3-.2.3-.3h1c.4-.3,1.1,0,1.4-.7h.6a3,3,0,0,0,2.2-.8H24a2.5,2.5,0,0,0,1.8-1h.1c.2-.1.4-.2.4-.4h.1c.3-.1.6-.2.5-.6h0a2,2,0,0,0,.7-.6.7.7,0,0,1,1-.2,2.4,2.4,0,0,1-1.3,1.8l-4.1,1.9a20.6,20.6,0,0,1-3.5,1.2A5.9,5.9,0,0,1,17.8,58.5Z" fill="#cf7210"/><path d="M34.4,18c.4-.5,1-.7,1.4-1.1A17.1,17.1,0,0,0,38,14.4c.1-.3.4-.4.6-.6l.6-.2c.2.3.2.3-.2.5h-.1c-.1,1-1.4,1.4-1.4,2.5s.1.5.1.8a2.5,2.5,0,0,1-.6,1.4A11.2,11.2,0,0,0,34.4,18Z" fill="#d37806"/><path d="M57,52a5.3,5.3,0,0,1-3.7,4.1,8.6,8.6,0,0,1-7.2-.6.5.5,0,0,1,.5,0,8.6,8.6,0,0,0,3.5.6c.4-.1.8.1,1-.3h.7l.2.4c.4-.5,1-.5,1.5-.7s.4-.1.4-.4h.4a.3.3,0,0,0,.3-.3c0-.1.1-.1.2-.1s1-1.1,1.5-1.6S56.5,52,57,52Z" fill="#cf7210"/><path d="M9.8,24.6c.2.3,0,.6.1.9s-.3.3-.3.5-.1.8-.1,1.1,0,1.6.5,2.2v.5c-.2,1,.2,2,.1,3a6.5,6.5,0,0,1-.4-1.3c-.1-.3.1-.7-.4-.8v-1a7.6,7.6,0,0,1-.1-1.5A5.6,5.6,0,0,1,9.8,24.6Z" fill="#dd901e"/><path d="M3.9,51.8h.2c.3.5.7.3,1.2.3s1-.6,1.6-.8c-.5,1.3-1.3,1.8-2.6,1.4S2,51.2,2.1,50s0-.5.2-.6A4,4,0,0,0,3,51.2C3.1,51.7,3.6,51.7,3.9,51.8Z" fill="#cf7210"/><path d="M61.7,43.2c0,.1,0,.3.2.3a4.9,4.9,0,0,1-1.4,1.1,8.2,8.2,0,0,0-2.8,4.1h-.2A5.3,5.3,0,0,1,59,45.3l1.4-1.1c.1-.1.2-.1.2-.3a1.3,1.3,0,0,0,.7-.5Z" fill="#d57c0f"/><path d="M8.4,35.2a3.4,3.4,0,0,1-.5-1.9h0c.1,0,.1-.1.1-.3a.4.4,0,0,0,.1-.3,3.5,3.5,0,0,0,1-1.1,5.1,5.1,0,0,0,.7,1.7h0A4,4,0,0,0,8.4,35.2Z" fill="#d57f16"/><path d="M7.1,35.3c.2-.1.4.5.5-.1s.5.8.2,1.2-.5.3-.8,0,0,.8.5.9.4.8.1,1.2a.2.2,0,0,0-.2-.2c-.6,0-.5-.3-.7-.7s-.1-1.4-.4-2h.3c0,.1,0,.3.1.3s.1-.2.2-.4Z" fill="#dc8b12"/><path d="M51.1,55.8c-.2.4-.6.2-1,.3a8.6,8.6,0,0,1-3.5-.6.5.5,0,0,0-.5,0H46c-.1-.5-.4-.5-.8-.5a6.4,6.4,0,0,1-2-2c.4-.1.6.3.8.5A10.7,10.7,0,0,0,46.2,55c.2.2.5.1.7.1H47c.2.5.7.2.9.4a1.6,1.6,0,0,0,.9.3Z" fill="#d57c0f"/><path d="M55.6,21.3a8.6,8.6,0,0,1-1-1.6c-.1-.1-.3-.3,0-.4a5.1,5.1,0,0,1,1.9,4c-.4-.1-.8-.5-1.3-.5h-.1C56,22,56,22,55.6,21.3Z" fill="#d57f16"/><path d="M9.1,31.6a3.5,3.5,0,0,1-1,1.1,5.5,5.5,0,0,1,1.1-3v1C9.2,31,9.1,31.3,9.1,31.6Z" fill="#ecc348"/><path d="M6.9,51.3c-.6.2-1,.8-1.6.8s-.9.2-1.2-.3,1.2.1,1.8-.3L7,50.2C7,50.6,7.1,51,6.9,51.3Z" fill="#d57f16"/><path d="M57,52c-.5,0-.5.5-.7.9l-.3-.2v-.3a.4.4,0,0,0,.1-.3c.4-.1.5-.2.5-.6a6.1,6.1,0,0,1,.3-1.3h.4A3.8,3.8,0,0,1,57,52Z" fill="#d57c0f"/><path d="M22.9,13.5a25.4,25.4,0,0,1-3.7,1,9.8,9.8,0,0,1,3-1.1A.9.9,0,0,1,22.9,13.5Z" fill="#dd901e"/><path d="M28.6,53.5a.7.7,0,0,0-1,.2,2,2,0,0,1-.7.6c.1-.6.8-.9,1-1.4s.6-.5,1-.4-.1.4-.1.6-.3.2-.2.4Z" fill="#d57f16"/><path d="M1.3,38.7c.4.1-.1.8.6.6s-.9.3-.2.7.1.1,0,.2-.2.2-.3.1S1,40,.8,40.1A3.4,3.4,0,0,1,1.3,38.7Z" fill="#dc8b12"/><path d="M57.3,50.2h-.4a1.5,1.5,0,0,1,.6-1.6h.2a.9.9,0,0,1-.1.5c-.3,0-.3.2-.1.4Z" fill="#db880c"/><path d="M45.2,55c.4,0,.7,0,.8.5Z" fill="#cf7210"/><path d="M9.9,50.4c.4.1.3.4.1.6A1.3,1.3,0,0,1,9.9,50.4Z" fill="#d57f16"/><path d="M6.9,35.4c-.1.2,0,.3-.2.4s-.1-.2-.1-.3S6.7,35.4,6.9,35.4Z" fill="#db880c"/><path d="M57.5,49.6c-.2-.2-.2-.4.1-.4A.6.6,0,0,1,57.5,49.6Z" fill="#d57c0f"/><path d="M28.6,53.5c-.1-.2,0-.3.2-.4S28.8,53.4,28.6,53.5Z" fill="#cf7210"/><path d="M8,33c0,.2,0,.3-.1.3A.4.4,0,0,1,8,33Z" fill="#dd901e"/><path d="M53.8,18.7c-.1.1-.1,0-.1-.1Z" fill="#ebc141"/><path d="M5.9,35.9h0Z" fill="#dc8b12"/><path d="M10,23.9v0Z" fill="#ebc141"/><path d="M43.5,35.3c-5.9.3-11.9.6-17.8.5h-.1V34.2a6.2,6.2,0,0,1,.2-2.3,8.4,8.4,0,0,1,4-4.3c.3.2.6.4,1,.2H31c.1.5.6.4.9.5h.6c.4.1.8.1.8.5s.1.4.5.4.4.1.5.3l.6.4c.6.2,1.3.4,1.5,1.2s.3.4.4.1.6-.2.8.1.3.3.5.4a1.9,1.9,0,0,1,1,.3c.3.2.6.5,1,.1a.3.3,0,0,1,.4,0c.6.4,1.3.3,1.9.6a1.2,1.2,0,0,1,.9.8c.2.2.2.4-.1.6s-.1.1,0,.1S43.4,35,43.5,35.3Z" fill="#ebc141"/><path d="M52,37l2.4-1.5a2.7,2.7,0,0,1-1,2.2,11.3,11.3,0,0,1-3.9,2.1A18.9,18.9,0,0,1,42.4,41c-1.8,0-3.6.4-5.5.5s-3.2.1-4.8,0H26.3c.1-.5-.2-1-.1-1.4s2.3.1,3.4,0a7.2,7.2,0,0,1,2.5-.3,10.4,10.4,0,0,0,4.3-.1c2.6-.4,5.2-.3,7.8-.6a22.3,22.3,0,0,0,3.7-.2A10.3,10.3,0,0,0,52,37Z" fill="#ecc348"/><path d="M50.9,43.8a16.8,16.8,0,0,1-9,2.7c-2.4.1-4.8.5-7.2.8a40.9,40.9,0,0,1-7,.1L25.3,47a3.3,3.3,0,0,0,1.3-1.3h.1a21.7,21.7,0,0,0,3.6-.1c1.4-.1,2.8-.1,4.2-.3s4.6-.5,6.9-.5,3.5-.2,5.3-.1a11.3,11.3,0,0,0,1.8-.3C49.3,44.4,50,43.9,50.9,43.8Z" fill="#ecc54e"/><path d="M43.5,35.3c-.1-.3.1-.7-.3-1s-.1-.1,0-.1.3-.4.1-.6a1.2,1.2,0,0,0-.9-.8c-.6-.3-1.3-.2-1.9-.6a.3.3,0,0,0-.4,0c-.4.4-.7.1-1-.1a1.9,1.9,0,0,0-1-.3c-.2-.1-.4-.1-.5-.4s-.4-.6-.8-.1-.3.2-.4-.1-.9-1-1.5-1.2l-.6-.4c-.1-.2-.3-.4-.5-.3s-.4,0-.5-.4-.4-.4-.8-.5h-.6c-.3-.1-.8,0-.9-.5h-.2c-.4.2-.7,0-1-.2H30a8.1,8.1,0,0,1,2.2-.7,7.2,7.2,0,0,1,3.2.8c-.3.6-.3,1,.3,1.4a.9.9,0,0,1,.4.6c0,.1,0,.3.2.3s1.9.9,2.9,1.2l2.5.4c.7,0,1.5-.4,2,.4s-.1,1.5.8,1.8h.1l.3.2c.4.2.9.1,1.3.3h1.7c.2.3-.6.3-.2.7A15,15,0,0,1,43.5,35.3Z" fill="#ecc348"/><path d="M52,37a10.3,10.3,0,0,1-4.1,1.9,22.3,22.3,0,0,1-3.7.2c-2.6.3-5.2.2-7.8.6a10.4,10.4,0,0,1-4.3.1,7.2,7.2,0,0,0-2.5.3c-1.1.1-2.3-.1-3.4,0v-.2c0-.3-.1-.6-.1-.9,2.3,0,4.5-.1,6.7-.3h1.8c2.1,0,4.2-.1,6.3,0a3.2,3.2,0,0,0,1.6-.3,3.8,3.8,0,0,1,2.1-.2,14.4,14.4,0,0,0,7.1-1.1Z" fill="#d19435"/><path d="M26.3,41.5c.1,1.2.5,2.3.5,3.4h0c-1.8-.1-3.5,0-5.3-.2V41.4h.2a8.9,8.9,0,0,1,2.3.1Z" fill="#de9e18"/><path d="M50.9,43.8c-.9.1-1.6.6-2.4.6a11.3,11.3,0,0,1-1.8.3c-1.8-.1-3.5.1-5.3.1s-4.6.3-6.9.5-2.8.2-4.2.3a21.7,21.7,0,0,1-3.6.1,1.7,1.7,0,0,1,.1-.7h6.9a6.6,6.6,0,0,1,3.1-.2,15.4,15.4,0,0,0,3.7-.3h1.1a16.4,16.4,0,0,0,7-.7,8.5,8.5,0,0,0,2.9-1.7c.7-.7,1.6-1.2,2.3-2a1.5,1.5,0,0,1-.3.7v.2c-.2.1-.3.3-.4.4a15,15,0,0,1-2,2.3c-.1,0-.1.2-.1.3Z" fill="#d19435"/><path d="M25.6,35.8h.1l.3,3.1a33.9,33.9,0,0,1-4.5-.2h0a15.1,15.1,0,0,0-.1-3c1-.1,1.9.2,2.9.1h1.3Z" fill="#de9e18"/><path d="M20.1,46.2c-1-.1-2-.3-3-.3A7,7,0,0,1,13,44.1c-.1-.2-.3-.3-.4-.4s-.1-.2-.1-.3l.6.2a9.6,9.6,0,0,0,3.7.9,25.4,25.4,0,0,1,4.8.9l.5,1.1Z" fill="#ecc54e"/><path d="M28.4,50.5c.1.3.4.5.4.8l-2.7-.4H26c0-.1-.1-.1-.3-.1a28.3,28.3,0,0,0-5.8-1.1,13.3,13.3,0,0,1-4.8-1l-1.4-1.1c-.2-.5-.7-1-.8-1.6l.3.3c.9.9,1.7,2.1,3.1,2.4a13,13,0,0,0,4.8.4h0c.5.5,1.1.4,1.7.5a48.5,48.5,0,0,0,5.5.9Z" fill="#cf7210"/><path d="M21.1,49.1a13,13,0,0,1-4.8-.4c-1.4-.3-2.2-1.5-3.1-2.4l-.3-.3a1.4,1.4,0,0,0-.2-.6,2.4,2.4,0,0,1-.4-2.3l.2.3c0,.1.1.2.1.3a6.3,6.3,0,0,0,3.6,3.9A27.7,27.7,0,0,0,21.1,49.1Z" fill="#de9e18"/><path d="M42.3,50.2V50a3.2,3.2,0,0,1,1.4-.3,9,9,0,0,0,3.9-.7,41,41,0,0,0,4.8-2.1c.1.5-.6.5-.6,1s-.5.1-.8.3a6.9,6.9,0,0,1-1.9,1,21,21,0,0,1-4.2.9Z" fill="#cf7210"/><path d="M53,41.2c.1-.1.2-.3.4-.4s-.1.4.1.5a.5.5,0,0,0,.4-.6c-.1-.2-.3-.1-.4-.1a1.5,1.5,0,0,0,.3-.7h0c.4,0,.5-.3.5-.7h.1A2.9,2.9,0,0,0,56,36.9c0-.1-.1-.2-.2-.3v-.5a1.4,1.4,0,0,1,.4,1.6,8.4,8.4,0,0,1-2.9,4.2C53.1,41.8,53.4,41.3,53,41.2Z" fill="#ecc348"/><path d="M21.5,38.7a33.9,33.9,0,0,0,4.5.2h0c0,.3.1.6.1.9a14.8,14.8,0,0,1-2.1-.1,19.7,19.7,0,0,1-2.4-.3h-.1Z" fill="#cf7210"/><path d="M26.6,45.7A3.3,3.3,0,0,1,25.3,47h-.2l-1.5-.3a.6.6,0,0,0,0-.7c-.3-.4-.2-.5.3-.5Z" fill="#d57f16"/><path d="M28.3,50.5a48.5,48.5,0,0,1-5.5-.9c-.6-.1-1.2,0-1.7-.5l6.2.9A2.4,2.4,0,0,1,28.3,50.5Z" fill="#de9e18"/><path d="M53,41.2c.4.1.1.6.4.7a11,11,0,0,1-2.5,1.9c0-.1,0-.3.1-.3A15,15,0,0,0,53,41.2Z" fill="#ecc54e"/><path d="M23.6,46.8l1.5.3a2.3,2.3,0,0,1-2.8-.4h0C22.8,46.6,23.2,46.9,23.6,46.8Z" fill="#de9e18"/><path d="M57.1,42.4c0,.2,0,.4-.2.5s-.7,1.2-1.4,1.5S56.4,43,57.1,42.4Z" fill="#cf7210"/><path d="M55.8,36.6c.1.1.2.2.2.3a2.9,2.9,0,0,1-1.6,2.2A10.1,10.1,0,0,0,55.8,36.6Z" fill="#d19435"/><path d="M20.1,46.2l2,.3.2.2h0A4,4,0,0,1,20.1,46.2Z" fill="#fefefe"/><path d="M54.3,39.2c0,.4-.1.7-.5.7S54.1,39.4,54.3,39.2Z" fill="#d19435"/><path d="M52.8,46.7c0,.2-.2.2-.4.2Z" fill="#cf7210"/><path d="M57.2,42.1v0Z" fill="#cf7210"/><path d="M55.6,21.3c.4.7.4.7-.5,1.4H53.9c0-.2-.1-.2-.3-.3s-3-.3-4.5-.6-.7-.1-.9.4a8.1,8.1,0,0,0-2.2,0c-.3-.5-.4-.2-.6.1l-2.3.6a6.3,6.3,0,0,0-2,1h-.2a1.4,1.4,0,0,1-.2.7c-.6-.5-.3-1,0-1.4a5.2,5.2,0,0,1,3-1.8l1.7-.5h.4a15.1,15.1,0,0,1,5.6,0,25.8,25.8,0,0,0,2.9.3A5.7,5.7,0,0,1,55.6,21.3Z" fill="#cf7210"/><path d="M43.1,22.8l2.3-.6H46a8.1,8.1,0,0,1,2.2,0h1a24.2,24.2,0,0,0,4.7.4h1.3c-.6,1.1-1.7,1.1-2.7,1l-3.2-.2h-1a5.5,5.5,0,0,0-2.2-.1c-.9,0-2-.1-2.7.7s-.8,0-1.1-.1,0-.3.1-.3S43.1,23.3,43.1,22.8Z" fill="#ecc348"/><path d="M43.7,31.9c-.5-.8-1.3-.4-2-.4l-2.5-.4c-1-.3-1.8-1.1-2.9-1.2s-.2-.2-.2-.3a.9.9,0,0,0-.4-.6c-.6-.4-.6-.8-.3-1.4l2.2,1a9.2,9.2,0,0,0,2.3.9,6.6,6.6,0,0,0,3.7.3c0,.3.2.3.5.4s.6.3.5.7A8.1,8.1,0,0,0,43.7,31.9Z" fill="#ecc54e"/><path d="M47.9,34.2H46.2a.4.4,0,0,1,.2-.4c.5-.5.4-.9-.1-1.4a.5.5,0,0,0-.1-.3c.3,0,.6.1.6-.2s-.2-.3-.3-.5-.7-.4-.7-.9c1.5-.6,3.3.3,3.4,1.6A2,2,0,0,1,47.9,34.2Z" fill="#d37806"/><path d="M43.6,29.8a6.6,6.6,0,0,1-3.7-.3.5.5,0,0,0-.2-.4c-.5-.2-.8-.8-1.5-.8s-.3-.2-.3-.5a.2.2,0,0,1,.4-.1c.6.4,1.3.1,1.9.4a4.4,4.4,0,0,0,2.7.5c.6.1,1.4-.3,1.6.6S43.9,29.6,43.6,29.8Z" fill="#cf7210"/><path d="M45.8,30.5c0,.5.4.7.7.9s.4.3.3.5-.3.2-.6.2-1.8.4-1.7,1.6c-.9-.3-.8-1.1-.8-1.8a8.1,8.1,0,0,1,.9-1A5.6,5.6,0,0,1,45.8,30.5Z" fill="#d57c0f"/><path d="M40.9,23.9h0Z" fill="#d57c0f"/><path d="M48.9,53.5c-.6-.2-1.4-.2-1.8-.9s-.3-.3.1-.5.9-.7,1.6-.6.2.1.2,0a13.4,13.4,0,0,1,2.3-1.3l.6-.3c.4-.1,1,0,.9-.8l.2-.2c.4-.3,1-.2,1.3-.9s1.1-.2,1.7.3l.3.3c.2.1.4.1.4.3s-.2.3-.3.4-.4-.1-.5-.2a.1.1,0,0,0-.1.1,1,1,0,0,1-1,1.4c0,.8-.8.9-1.2,1.4h0c0,.4-.3.5-.6.6s-.3-.4-.6-.6a1.7,1.7,0,0,0-.2.5c.2.7-.3.8-.6.7a14.9,14.9,0,0,1-2.1.2.1.1,0,0,0,0-.2c-.1-.2-.1-.7-.5-.6s.2.5.1.7h-.2Zm6.1-5c0-.1-.1-.1-.2-.1s-.2,0-.2.1.1.1.2.1S55,48.6,55,48.5Zm-.7,2.2h0Z" fill="#db880c"/><path d="M48.9,53.5h.6l-.3.6c-.1.1-.3.3-.1.5s.4.2.6,0a3.5,3.5,0,0,1,1.8-.5c.3.1.8-.2,1.1-.5a.4.4,0,0,1,.5-.2,1.4,1.4,0,0,0,1.3-.7l.2-.3c.9,0,.2-.4.1-.6s1,.3,1.4.3a.4.4,0,0,1-.1.3c-.6-.1-.5.4-.5.7s-.6.9-.7,1.4-.2,0-.2.1a.3.3,0,0,0-.3.3h-.4l-2.1.7h-3a1.6,1.6,0,0,1-.9-.3c-.3-.4-.6-.9,0-1.3s.1.4.5.3S48.9,54,48.9,53.5Z" fill="#dd901e"/><path d="M44.9,50.1a21,21,0,0,0,4.2-.9,6.9,6.9,0,0,0,1.9-1c.3-.2.5-.4.8-.3s.4-.1.4.1-.1.2-.2.4-.2.2-.2.3-.1.9-.8.6l-.4.3c-.2.4-.4.6-.9.4s-.2.1-.3.3-.4.8-1.1.3-1,0-1.4.3-.3.3-.4.1h-.7C45.1,51,44.9,50.7,44.9,50.1Z" fill="#dd901e"/><path d="M47,55.1h-.1c-.1-.1-.2-.3,0-.4h.2A.2.2,0,0,1,47,55.1Z" fill="#dd901e"/><path d="M47.7,51l.2.2h-.3Z" fill="#dd901e"/><path d="M34.4,18a11.2,11.2,0,0,1,2.6.8c.5.4,1,.8.9,1.5l-.6.9-.8.4c-.1-.3-.1-.5-.5-.6a1.2,1.2,0,0,0-1.1.4A3.8,3.8,0,0,1,32,22.9a5.8,5.8,0,0,0-1.8.4h-.8l-1.9-.7c-.1-.7-.5-1.3-.2-2s-.1-.2-.2-.4l1.1-.9,1.5-1.1a3.2,3.2,0,0,1,3.3-.3Z" fill="#faf7ca"/><path d="M42.9,28.6a4.4,4.4,0,0,1-2.7-.5c-.6-.3-1.3,0-1.9-.4a.2.2,0,0,0-.4.1c0,.3.1.5.3.5s1,.6,1.5.8a.5.5,0,0,1,.2.4,9.2,9.2,0,0,1-2.3-.9l-2.2-1a7.2,7.2,0,0,0-3.2-.8c0-.2-.1-.4-.3-.3s-1.1-.3-1.6,0-.6-.3-.8-.3-.6-.5-1-.6,0-.5-.1-.7a3.5,3.5,0,0,0,1.7.6c.5,0,1.1.1,1.5-.4h.7l2.5-.8c1.1.1,1.9-.7,2.7-1.2a.3.3,0,0,0,0-.5l.2-.3a.9.9,0,0,1,.2,1.4,4.4,4.4,0,0,0-1.2,1.8c0,.3.1.6.5.6a28.5,28.5,0,0,0,2.9.3,2.1,2.1,0,0,1,1.1.4l1.3.7A.8.8,0,0,1,42.9,28.6Z" fill="#d57f16"/><path d="M43.2,15.5a1.2,1.2,0,0,1,0,1.6c-.3.3-.6.6-.3,1s0,.3-.2.4-.5.3-.4.7a9.9,9.9,0,0,1-2.4.3c-.4-.1-.7-.2-.7-.6a2,2,0,0,1,.6-1.2c.8-1,2-1.4,3-2.1Z" fill="#ecc348"/><path d="M54.3,21.2a25.8,25.8,0,0,1-2.9-.3,15.1,15.1,0,0,0-5.6,0h-.4c.1-.9.3-1,1.1-1h.4a2.9,2.9,0,0,1,1.6-.3,22.6,22.6,0,0,1,4.5.2,5.2,5.2,0,0,1,1.3.6C54.6,20.6,54.3,20.9,54.3,21.2Z" fill="#d57f16"/><path d="M34.8,24.2l-2.5.8H30.5L28,24.4l-1.7-.6a1,1,0,0,1-.6-.9c.1-.4,0-.7.1-1.1l1.7.7,1.9.7c0,.3-.3.2-.5.1l-.6.2s0,.2.1.2a1.5,1.5,0,0,0,1.3.9H31a10,10,0,0,0,4.1-1.1c.7-.2,1.1-.8,1.7-1.1a1.1,1.1,0,0,0,.5-1.3l.6-.9c.1.7-.2,1.3-.1,1.9l-.3.3a7.1,7.1,0,0,1-1.4,1A4.2,4.2,0,0,0,34.8,24.2Z" fill="#ebc141"/><path d="M42.8,15.6c-1,.7-2.2,1.1-3,2.1a2,2,0,0,0-.6,1.2c-.7-.2-.8-1-.4-1.7a5.5,5.5,0,0,1,2.7-2.3C42.3,14.5,42.7,14.8,42.8,15.6Z" fill="#cf7210"/><path d="M18.6,54.7h-.1c0-.1,0-.2-.1-.2s-.1-.1-.2,0a1.7,1.7,0,0,1-1.4-.3.6.6,0,0,0-.7,0c-.4.5-.7.4-.9-.2s-.1-.4-.6-.4-.7-.8-1-1.2a2.8,2.8,0,0,1-1.1-2.3h-.2c-.8-.1-.5-.5-.3-.9s.2-.4.4-.2.2.2.4,0,.2-.3.3-.1,0,.3-.1.5l-.3.3c.4.1.7.1.9-.2s.5-.3.8,0A2.8,2.8,0,0,0,16,50a3.2,3.2,0,0,1,1.9.7h.3c.7-.1,1,0,1.1.8s0,.5.4.6.4-.1.6-.3.6-.4.8,0,.2.4.5.1a.3.3,0,0,1,.4,0,2.5,2.5,0,0,0,1.2.2c.5,0,.6.2.4.6a1.4,1.4,0,0,1-1.2,1c-.5.2-1.2.1-1.6.6a.5.5,0,0,1-.5,0,.6.6,0,0,0-.7.1c-.3.3-.5-.2-.6-.4S18.8,54.6,18.6,54.7ZM17.2,54h.1C17.2,53.9,17.2,53.9,17.2,54Z" fill="#db8608"/><path d="M8,46.7H7.8c-.3-.4-.8-.4-1.1-.5a6.6,6.6,0,0,1-1.5-.5.9.9,0,0,1-.7-.6c-.4-.5.2-.7.3-.9s.5,0,.8,0-.1-.4-.1-.6h.3c-.1-.1-.2-.2,0-.3s.2,0,.2.1,0,.5.3.6a.7.7,0,0,1-.2.6c-.1.2-.1.3,0,.4s.3.1.5-.1.6-.1.7.3a.5.5,0,0,0,.3.5,2,2,0,0,1,.1-1.1c.5.4.1.8.1,1.2s.6-.1.5-.5v-.5a.4.4,0,0,1,.4-.4c.3-.1.1.2.2.4s-.3.8.2,1.2.3-.8.8-.4v.6c-.4.1-.3,1.1-1.1.4v.8c-.5.1-.3-.6-.8-.6H8Z" fill="#dd901e"/><path d="M12.3,43.1a2.4,2.4,0,0,0,.4,2.3,1.4,1.4,0,0,1,.2.6c.1.6.6,1.1.8,1.6a5.3,5.3,0,0,0-1.2-.3c-.4,0-.5-.2-.1-.5s.1-.4-.1-.5h-.2a2.2,2.2,0,0,1-.8-1.3c-.2-.6-.4-.7-.9-.7H10v-.4h.2v-.2c.6-.1.5-.6.4-1s.6.1.3-.5-.5-.4-.2-.7,1,.7,1.4,1.1S12.2,42.9,12.3,43.1Z" fill="#dc8b12"/><path d="M9.9,45.5c-.5-.4-.7,0-.8.4s0-.9-.2-1.2.1-.5-.2-.4a.4.4,0,0,0-.4.4v.5c.1.4-.1.5-.5.5s.4-.8-.1-1.2a2,2,0,0,0-.1,1.1.5.5,0,0,1-.3-.5c-.1-.4-.4-.5-.7-.3s-.3.2-.5.1-.1-.2,0-.4a.7.7,0,0,0,.2-.6H7c.1.5.3,0,.5,0s.2-.1.1-.3a5.5,5.5,0,0,1-.2-1.8c.6.2.5.6.5,1s0,.7.5.7,1,.3,1,.9a.5.5,0,0,0,.2.4l.5.2C10.3,45.2,10.4,45.5,9.9,45.5Z" fill="#dc8b12"/><path d="M8.8,47.3v-.8c.8.7.7-.3,1.1-.4s.6.6.4,1.2.5-.1.5.3-.4.3-.4.6.1.2.2.1.3-.1.3.1.1.3-.2.3-.7.1-1-.2Z" fill="#dc8b12"/><path d="M10.5,45.9h-.2c-.1,0-.1-.1-.1-.2h.1A.2.2,0,0,1,10.5,45.9Z" fill="#dc8b12"/><path d="M12,46.6h0Z" fill="#dc8b12"/><path d="M25.7,50.8c.2,0,.3,0,.3.1S25.8,50.9,25.7,50.8Z" fill="#dc8b12"/><path d="M11.4,46.5h0Z" fill="#dc8b12"/><path d="M18.2,54.5c.1-.1.1-.1.2,0Z" fill="#dc8b12"/><path d="M60.9,42.7c0-.2-.1-.4.1-.5a.2.2,0,0,1,.2.2c.1.2-.2.2-.3.3Z" fill="#dc8b12"/><path d="M61.7,43.2l-.4.2c-.1-.4.1-.4.3-.4S61.8,43.1,61.7,43.2Z" fill="#dc8b12"/><path d="M60.9,42.7c0,.1.2.2,0,.3s-.2,0-.2-.1.1-.2.2-.2Z" fill="#dc8b12"/><path d="M19.1,19.2c.3.3.3.6.5.7s0,.3-.1.5a.1.1,0,0,1-.2,0l-.2-.3Z" fill="#ecc348"/><path d="M17.6,17.5v-.2a.2.2,0,0,1,.2-.2c.1,0,.1.1.1.2A.2.2,0,0,0,17.6,17.5Z" fill="#ecc348"/><path d="M19.7,21.3h-.1c-.1-.1-.3-.3-.1-.5S19.6,21.1,19.7,21.3Z" fill="#ecc348"/><path d="M23.1,27.1h.1a3.4,3.4,0,0,1-.4,2,1.8,1.8,0,0,0-.4,1c-.4.5-.3,1.2-.5,1.8s-.3-.2-.2-.4-.1-.3-.2-.4-1.6.8-1.5.9-.1.7-.2,1.1-.1.8-.5.7-.5.4-.8.5-.1.1-.1,0-1-.2-1.4-.6.7.9,1.1,1.3a10.2,10.2,0,0,1-3.4-1,.8.8,0,0,1,.7.1c.6.4,1,.3,1.2-.4s.2-.2,0-.3-.2,0-.3.1-.1.4-.3.3-.2-.3-.2-.5a.6.6,0,0,1,.1-.6c.2-.1.2.4.4.3s-.2-.7,0-1,0-.2-.1-.2-.2,0-.2.1-.2.5-.6.3-.2-.1-.3,0-.8.1-1.1.6-.3-.2-.4-.4v-.5c0-.3-.1-.6-.4-.6s-.5-.5-.6-.8,0-.8.6-.7.5-.4.9-.3v-.2c-.3-.1-.7-.1-.9-.4s-.4.2-.4.5-.1.2-.3.2a.3.3,0,0,1-.3-.3,5,5,0,0,1,.2-1.2c0-.2.3-.3.4,0s.1.3.3.3.2-.2.2-.4.1-.6.5-.6,1.2-.2,1.5.5.2.1.3.1.2.3.2.5.4.3.5.1.6-.6.7-1.1.2-.3.4-.2.6.1.8.2,1,.7,1.6.2.5.2.8.2-.1.3.1.3,0-.2.2-.3h.4A4,4,0,0,1,23.1,27.1Zm-4.7,4.4a.6.6,0,0,0,.2.8.5.5,0,0,1,.3.5c-.1.2-.2.4.1.4s.3-.2.3-.4A1.5,1.5,0,0,0,18.4,31.5ZM21.3,30c0,.3-.1.5.2.6S21.6,30.2,21.3,30Zm-3.4,3.5a.2.2,0,0,0-.2-.2c-.1,0-.1.1-.1.2s0,.2.1.2S17.9,33.6,17.9,33.5Zm-3.8-3.4h0Zm.3,1.8c.1,0,.1.1.1,0h-.1Z" fill="#ebc141"/><path d="M22.4,30.1a1.8,1.8,0,0,1,.4-1,3.4,3.4,0,0,0,.4-2c.2-.4.5-.5,1-.4s.4.2.4-.2.1-.4-.3-.2-.5-.3-.5-.6a.6.6,0,0,1,.2-.8c.3,0,.4-.3.5-.5s.2.3.2.4.3.6.7.3l.5-.2c.4-.1.4.3.5.4s-.2.3-.2.4a8.4,8.4,0,0,1,2.1,1.1c0,.1.1.2.2.1a.6.6,0,0,1,.7.2c.2.4.6,0,.8.4h-.2a8.4,8.4,0,0,0-4,4.3,6.2,6.2,0,0,0-.2,2.3v1.6h-1c-.1-.1-.1-.1-.2,0h-.1a.5.5,0,0,0-.3-.5.4.4,0,0,1-.2-.6,21.7,21.7,0,0,0,.1-3.6c0-.3-.2-.4-.5-.5s-.3.1-.3.3,0,.2-.2.2l-.2-.2C22.7,30.5,22.7,30.2,22.4,30.1Zm.9-.1c0-.2,0-.4-.2-.5S23.1,29.9,23.3,30Z" fill="#d37806"/><path d="M15.6,28c-.1,0-.3,0-.3-.1s-1-.4-1.5-.5-.4.4-.5.6,0,.3-.2.4-.2-.1-.3-.3-.4-.2-.4,0a5,5,0,0,0-.2,1.2.3.3,0,0,0,.3.3c.2,0,.3-.1.3-.2s.2-.4.4-.5.6.3.9.4v.2c-.4-.1-.6.4-.9.3s-.6.5-.6.7-.1.9.6.8.4.3.4.6v.5c.1.2.3.5.4.4s.9-.1,1.1-.6.2,0,.3,0,.6.2.6-.3.1-.2.2-.1.2.1.1.2.2.6,0,1-.2-.4-.4-.3a.6.6,0,0,0-.1.6c0,.2,0,.4.2.5s.2-.2.3-.3.2-.2.3-.1,0,.2,0,.3-.6.8-1.2.4a.8.8,0,0,0-.7-.1,6.6,6.6,0,0,1-2.6-1.4,11.8,11.8,0,0,1-2.2-2.8c0-.2.1-.3.1-.5A3.9,3.9,0,0,1,11.5,27a9.1,9.1,0,0,1,2.2-1.1c.1.2.2.6.5.5s.1-.4.3-.6v-.2h.3v.7c0,.2-.1.4.1.5s.5-.1.6-.2.2-.3.4-.4.2-.2.4-.1,0,.3,0,.4-.3.6.1.9-.2-.7.2-.6a3.3,3.3,0,0,1,1.4,0,1.8,1.8,0,0,0,1.2.5c.4,0,.8.3,1.2,0s.6.1.9-.3.6-.5,0-.9l-.6-.2c-.4-.2-1.1,0-1.3-.6a6.6,6.6,0,0,1,2.7.6h.3l.3.4c-.1.1-.5.2-.3.5s.3-.2.5-.2.2.3.2.5a4,4,0,0,0-1.8.7h-.4c-.1-.1,0-.3-.1-.3s-.2.2-.2.3-.7-.3-.8-.2-1,0-1.6-.2-.5,0-.8-.2-.3,0-.4.2S16.1,28,15.6,28Z" fill="#ecc348"/><path d="M11.5,27A3.9,3.9,0,0,0,10,29.3c-.5-.6-.4-1.4-.5-2.2s.1-.7.1-1.1,0-.4.3-.5H10c.1.1.1.1.2,0s.2.4.5.2.1-.1,0-.2-.4-.2-.6-.2.3-.7.7-.8h0c0,.4.1.7.6.7s0-.2,0-.3-.4-.5-.2-.7a.6.6,0,0,1,.9-.1c.1.1.1-.1.2-.2h0a1.6,1.6,0,0,0,1.3-.4c.3.1,0,.5.3.7s.5-.8,1.1-.5h.2c.4-.9,1.1-.8,1.8-.8s.8-.3,1.2-.2.6-.5.8-.3.5.2.8.1.1.1.2.2.9.5,1.4.3a.7.7,0,0,1,.8.5c.2.7.7,1.2.7,2s0,.6-.5.5h-.1c0-.2,0-.4-.3-.4s-.2-1-.6-1.2a6.8,6.8,0,0,0-1.4-.2,10.8,10.8,0,0,0-4,0c-.3.1-.2.4-.6.3a.8.8,0,0,0-1.2.5c0,.2-.2.1-.2.1s-1.3.2-1.6.8h-.3A.8.8,0,0,0,11.5,27Zm1.9-2a.1.1,0,0,0-.1-.1h0a.1.1,0,0,0,.1.1Z" fill="#d57f16"/><path d="M25.8,21.8c-.1.4,0,.7-.1,1.1s-.2-.2-.3-.3-.5-1.2-1.3-1.3-.1-.2-.1-.3.1-.5.2-.8a1.2,1.2,0,0,0,.3-1.2,6.7,6.7,0,0,0-1.9-2.5,18.3,18.3,0,0,1-1.3-1.6,1,1,0,0,1,.9,0c.2.1.4.3.7,0s.3.1.3.2.1.5.2.7L25,17.2c.1.2.3.2.2.5s.2.3.4.2.5,0,.5.4.1.1.1.2,0,.7.4.7.6-.2.7-.6a.3.3,0,0,1,.3-.3c.1.1.2.2.2.3s.1.5.4.6l-1.1.9A7,7,0,0,0,25.8,21.8Z" fill="#d57f16"/><path d="M21.3,14.9a18.3,18.3,0,0,0,1.3,1.6A6.7,6.7,0,0,1,24.5,19a1.2,1.2,0,0,1-.3,1.2h-.8a1.4,1.4,0,0,0,.2-.6A4.1,4.1,0,0,0,21.8,17h0a2,2,0,0,0-.9-.9c-.4-.5-1-.6-1.4-1.1s.9-.3,1.4-.1Z" fill="#cf7210"/><path d="M28,24.4l2.5.7h1.1c-.4.5-1,.4-1.5.4a3.5,3.5,0,0,1-1.7-.6C28.1,24.8,28,24.7,28,24.4Z" fill="#cf7210"/><path d="M22.9,26.6c-.2,0-.3.4-.5.2s.2-.4.3-.5Z" fill="#ecc54e"/><path d="M14.8,23.3c0-.1,0-.3.2-.2s.1.1.1.2Z" fill="#d57f16"/><path d="M24.5,22h-.1a.2.2,0,0,1-.2-.2h.2A.1.1,0,0,1,24.5,22Z" fill="#d57f16"/><path d="M15.6,22.3c0-.1,0-.2.1-.1h.1c0,.1-.1.2-.1.1Z" fill="#d57f16"/><path d="M23.1,24.2h0Z" fill="#d57f16"/><path d="M14.6,23.3h0Z" fill="#d57f16"/><path d="M14.8,23.3h0Z" fill="#d57f16"/><path d="M12.3,23.9h0Z" fill="#d57f16"/><path d="M10.2,25.5c-.1.1-.1.1-.2,0Z" fill="#dd901e"/><path d="M10.8,24.5h0Z" fill="#d57f16"/><path d="M5.5,43.6c0,.2.2.4.1.6s-.6-.4-.8,0-.7.4-.3.9-.5-.1-.8-.2a12.7,12.7,0,0,1-1.2-1c-.1-.1-.4-.3-.1-.5s.9.2,1.5.2l-.2-.3c.1-.7-.5-.7-.8-.8s-.3.4-.5.6-.9-.8-1-1.6.4-.5.7,0,.6.4.8,0,.1-.4.3-.3.3.4.5.6-.3,0-.3.3.9.4,1.2.9-.1.1,0,.1A1.3,1.3,0,0,1,5.5,43.6Zm-1.6.5-.2-.2c-.1,0-.1.1-.1.2s.1.1.2.1A.1.1,0,0,0,3.9,44.1Zm.7-.6a.1.1,0,0,1-.1.1h.2c.1,0,.1,0,.1-.1S4.7,43.5,4.6,43.5Z" fill="#dc8b12"/><path d="M7.6,39.3c.6.2.8.7.6,1.4a1,1,0,0,0-.7-.4H7.4c.3-.6.3-.6-.4-.7s-.1-.1-.1-.2h.7Z" fill="#dc8b12"/><path d="M2.8,40.5c.2.4-.3.5-.4.8s-.4-.6.4-.8Z" fill="#dc8b12"/><path d="M7.4,40.2h.1c0,.1.1.3-.1.3a.3.3,0,0,1-.3-.3C7.1,40.1,7.3,40.2,7.4,40.2Z" fill="#dd901e"/><path d="M6.2,37.1H6.1a.1.1,0,0,1,0-.2C6.2,37,6.2,37,6.2,37.1Z" fill="#dc8b12"/><path d="M2.8,40.5c0-.1,0-.3.1-.2H3c0,.1-.1.1-.2.2Z" fill="#dc8b12"/><path d="M3.4,40.7h0Z" fill="#dc8b12"/><path d="M6.6,38.8h0Z" fill="#dc8b12"/><path d="M6.9,39.3v-.2h0v.2Z" fill="#dc8b12"/><path d="M4.5,41.9h.1a.1.1,0,0,0-.1.1Z" fill="#dc8b12"/><path d="M1.3,41.2V41C1.4,41.1,1.4,41.2,1.3,41.2Z" fill="#dc8b12"/><path d="M4.6,43.1c-.1,0-.1-.1,0-.1Z" fill="#dd901e"/><path d="M5.8,43.5h0Z" fill="#dc8b12"/><path d="M7,43.8H7Z" fill="#dc8b12"/><path d="M27.9,52.9c-.2.5-.9.8-1,1.4h0c-.3.1-.5.2-.5.6h-.1c-.3,0-.4.1-.4.4h-.1a4.6,4.6,0,0,0-1.8,1h-.1l-1.4.4c-.3.1-.7,0-.8.4h-.6c-.6.2-1.3.1-1.8.7h-.6c-.8-.2-1.6,0-2.5-.2s-1.1-.6-1.8-.5-.1-.2-.1-.3l-.4-.4h-.2c0-.1-.1-.2-.2-.4s-.1-.2,0-.3.2,0,.3,0a6.8,6.8,0,0,0,2.7.7c.3,0,.6.1.8-.1h.3a.9.9,0,0,0,1.2-.1c.2-.2.6,0,.8,0a11.7,11.7,0,0,0,3.2-.4,7.7,7.7,0,0,0,3.1-2.6A2.3,2.3,0,0,1,27.7,52c.2,0,.4-.1.5.1s-.1.3-.2.5A.4.4,0,0,0,27.9,52.9Z" fill="#dd901e"/><path d="M13.1,55.5c-.2,0-.3,0-.2-.2v-.2c.2,0,.3.1.3.2S13.2,55.5,13.1,55.5Z" fill="#dd901e"/><path d="M21.3,14.9h-.4a.7.7,0,0,1,.2-.6Z" fill="#d57f16"/><path d="M24.7,16.3H25c.1.2-.1.1-.1.1h-.2Z" fill="#d57f16"/><path d="M24.1,15.7H24Z" fill="#d57f16"/><path d="M3.9,51.8c-.3-.1-.8-.1-.9-.6A1.5,1.5,0,0,1,3.9,51.8Z" fill="#d57f16"/><path d="M12.1,42.5c-.4-.4-.7-1-1.4-1.1a5.2,5.2,0,0,1-2.6-4.5c0-.4-.2-.9.3-1.3l.3.2c1.3,2.5,3.5,3.7,6.1,4.5a21.1,21.1,0,0,0,4.5.9l2.2.2v3.4h0c-1.3-.4-2.7-.1-4-.9h-.4a6.1,6.1,0,0,1-3.2-.8A6.4,6.4,0,0,0,12.1,42.5Z" fill="#f7fdc3"/><path d="M21.5,41.4l-2.2-.2c-.1-.2-.2-.2-.3-.2s-2.3-.4-3.4-.7-.5-.3-.8,0c-2.6-.8-4.8-2-6.1-4.5l-.3-.2v-.4a4,4,0,0,1,1.4-1.8c.3.2.4.7.8.8h.1a7.5,7.5,0,0,0,3.9,2.9c.1.2.2.2.3.2h0a5.1,5.1,0,0,0,2.4,1l4.2,1.1h.1a4.1,4.1,0,0,0,.1,1.9h-.2Z" fill="#ecc54e"/><path d="M10.6,42.6c.1.4.2.9-.4,1s-.2-.5-.4-.8h0C9.9,42.3,10.1,42.1,10.6,42.6Z" fill="#db880c"/><path d="M9.8,42.8h0Z" fill="#db880c"/><path d="M10.2,43.8h0Z" fill="#db880c"/><path d="M23.1,20a.8.8,0,0,1-1.2,0,3.3,3.3,0,0,1-1.2-1.4,6,6,0,0,0-.8-.8c-.1-.1-.3-.2-.2-.4s-.2-.7-.6-.9,1.2.2,1.6-.4.4.9,1.1.9h0v.4A9.1,9.1,0,0,1,23.1,20Z" fill="#ecc54e"/><path d="M23.1,20a9.1,9.1,0,0,0-1.3-2.6V17a4.1,4.1,0,0,1,1.8,2.5,1.4,1.4,0,0,1-.2.6Z" fill="#ebc141"/><path d="M21.8,17c-.7,0-1-.2-1.1-.9h.2A2,2,0,0,1,21.8,17Z" fill="#ebc141"/><path d="M13.9,56.4l.4.4C14,56.8,13.9,56.7,13.9,56.4Z" fill="#dc8b12"/><path d="M2.4,43.1c.2-.2,0-.8.5-.6s.9.1.8.8l.2.3c-.6,0-1-.4-1.5-.2Z" fill="#dd901e"/><path d="M21.7,57.1c.1-.4.5-.3.8-.4l1.4-.4A3,3,0,0,1,21.7,57.1Z" fill="#d57f16"/><path d="M19.3,57.8c.5-.6,1.2-.5,1.8-.7s-1,.4-1.4.7Z" fill="#d57f16"/><path d="M24,56.3a4.6,4.6,0,0,1,1.8-1A2.5,2.5,0,0,1,24,56.3Z" fill="#d57f16"/><path d="M26.4,54.9c0-.4.2-.5.5-.6S26.7,54.8,26.4,54.9Z" fill="#d57f16"/><path d="M25.9,55.3c0-.3.1-.4.4-.4S26.1,55.2,25.9,55.3Z" fill="#d57f16"/><path d="M51.8,55.7l2.1-.7c0,.3-.1.3-.4.4s-1.1.2-1.5.7Z" fill="#d57f16"/><path d="M54.8,54.5c.1-.5.7-.8.7-1.4s.4-.1.5-.4l.3.2C55.8,53.4,55.5,54.1,54.8,54.5Z" fill="#d57f16"/><path d="M54.3,54.9a.3.3,0,0,1,.3-.3A.3.3,0,0,1,54.3,54.9Z" fill="#d57f16"/><path d="M14.6,37.1a7.5,7.5,0,0,1-3.9-2.9h-.1a3.9,3.9,0,0,0-.6-1.1v-.3c.1-1-.3-2-.1-3a11.8,11.8,0,0,0,2.2,2.8A6.6,6.6,0,0,0,14.7,34a10.2,10.2,0,0,0,3.4,1,19.1,19.1,0,0,0,3.3.6h0a15.1,15.1,0,0,1,.1,3,8.6,8.6,0,0,1-2.3-.2l-4.3-1.1h0Z" fill="#f7fdc3"/><path d="M10,32.8v.3l-.2.2a5.1,5.1,0,0,1-.7-1.7c0-.3.1-.6.1-.9s.3.5.4.8A6.5,6.5,0,0,0,10,32.8Z" fill="#cf7210"/><path d="M9.8,33.3l.2-.2a3.9,3.9,0,0,1,.6,1.1c-.4-.1-.5-.6-.8-.8Z" fill="#d19435"/><path d="M56,52.7c-.1.3-.2.4-.5.4s-.1-.8.5-.7Z" fill="#dc8b12"/><path d="M24,39.8a14.8,14.8,0,0,0,2.1.1v.2c-.1.4.2.9.1,1.4H24C23.9,40.9,24.1,40.4,24,39.8Z" fill="#d37806"/><path d="M22.3,46.7l-.2-.2a11.7,11.7,0,0,0-.5-1.1,1.3,1.3,0,0,0-.1-.6h0c1.8.2,3.5.1,5.3.2a1.7,1.7,0,0,0-.1.7H23.9c-.5,0-.6.1-.3.5a.6.6,0,0,1,0,.7C23.2,46.9,22.8,46.6,22.3,46.7Z" fill="#cf7210"/><path d="M44.5,33.7c-.1-1.2.2-1.7,1.7-1.6a.5.5,0,0,1,.1.3c.5.5.6.9.1,1.4a.4.4,0,0,0-.2.4c-.4-.2-.9-.1-1.3-.3s0-.4-.3-.2Z" fill="#cf7210"/><path d="M44.6,33.7c.3-.2.3,0,.3.2Z" fill="#d57c0f"/><path d="M24,39.8c.1.6-.1,1.1,0,1.7a8.9,8.9,0,0,0-2.3-.1,4.1,4.1,0,0,1-.1-1.9A19.7,19.7,0,0,0,24,39.8Z" fill="#d57c0f"/><path d="M53.5,40.6c.1,0,.3-.1.4.1a.5.5,0,0,1-.4.6c-.2-.1.1-.4-.1-.5Z" fill="#ecc54e"/><path d="M22.4,30.1c.3.1.3.4.3.7l.2.2c.2,0,.2-.1.2-.2s.1-.4.3-.3.5.2.5.5a21.7,21.7,0,0,1-.1,3.6.4.4,0,0,0,.2.6.5.5,0,0,1,.3.5c-1,.1-1.9-.2-2.9-.1h0c-.2-1.3.4-2.5.5-3.7S22,30.6,22.4,30.1Z" fill="#d57c0f"/><path d="M14.9,37.3l4.3,1.1a8.6,8.6,0,0,0,2.3.2h0v.7l-4.2-1.1A5.1,5.1,0,0,1,14.9,37.3Z" fill="#d19435"/><path d="M24.4,35.7c.1-.1.1-.1.2,0h-.2Z" fill="#d57c0f"/><path d="M21.5,44.8a1.3,1.3,0,0,1,.1.6,25.4,25.4,0,0,0-4.8-.9,9.6,9.6,0,0,1-3.7-.9l-.6-.2-.2-.3c-.1-.2-.1-.4-.2-.6a6.4,6.4,0,0,1,1.8.6,6.1,6.1,0,0,0,3.2.8h.4C18.8,44.7,20.2,44.4,21.5,44.8Z" fill="#d19435"/><path d="M53.9,22.6a24.2,24.2,0,0,1-4.7-.4h-1c.2-.5.7-.4.9-.4s3,.3,4.5.6S53.9,22.4,53.9,22.6Z" fill="#d57f16"/><path d="M46,22.1h-.6C45.6,21.9,45.7,21.6,46,22.1Z" fill="#d57f16"/><path d="M49.5,53.5h-.4c.1-.2-.5-.5-.1-.7s.4.4.5.6A.1.1,0,0,1,49.5,53.5Z" fill="#dc8b12"/><path d="M55,48.5c0,.1-.1.1-.2.1s-.2,0-.2-.1.1-.1.2-.1S55,48.4,55,48.5Z" fill="#dc8b12"/><path d="M54.3,50.7Z" fill="#dc8b12"/><path d="M37.3,21.2a1.1,1.1,0,0,1-.5,1.3c-.6.3-1,.9-1.7,1.1A10,10,0,0,1,31,24.7H29.7a1.5,1.5,0,0,1-1.3-.9c-.1,0-.1-.2-.1-.2l.6-.2c.2.1.5.2.5-.1h.8a2.6,2.6,0,0,0,1.5.2,14.2,14.2,0,0,0,4.8-1.9Z" fill="#ecc54e"/><path d="M36.5,21.6a14.2,14.2,0,0,1-4.8,1.9,2.6,2.6,0,0,1-1.5-.2,5.8,5.8,0,0,1,1.8-.4,3.8,3.8,0,0,0,2.9-1.5A1.2,1.2,0,0,1,36,21C36.4,21.1,36.4,21.3,36.5,21.6Z" fill="#f7fdc3"/><path d="M25.8,21.8a7,7,0,0,1,1.3-1.7c.1.2.2.3.2.4s.1,1.3.2,2Z" fill="#f7fdc3"/><path d="M34.8,24.2a4.2,4.2,0,0,1,1.3-.7,7.1,7.1,0,0,0,1.4-1,.3.3,0,0,1,0,.5C36.7,23.5,35.9,24.3,34.8,24.2Z" fill="#cf7210"/><path d="M17.2,54c0-.1,0-.1.1-.1h-.1Z" fill="#db880c"/><path d="M8,46.7H8Z" fill="#d57f16"/><path d="M21.9,31.9c-.1,1.2-.7,2.4-.5,3.7a19.1,19.1,0,0,1-3.3-.6c-.4-.4-1.3-.3-1.1-1.3s1.1,0,1.4.6,0,.1.1,0,.3-.5.8-.5.5-.4.5-.7.6-.6.2-1.1,1.2-1,1.5-.9.3.1.2.4S21.7,31.8,21.9,31.9Z" fill="#ecc348"/><path d="M18.4,31.5a1.5,1.5,0,0,1,.9,1.3c0,.2,0,.4-.3.4s-.2-.2-.1-.4a.5.5,0,0,0-.3-.5A.6.6,0,0,1,18.4,31.5Z" fill="#ecc348"/><path d="M15.6,28c.5,0,.9-.6,1.4-.5s-.5.7-.7,1.1-.4.1-.5-.1S15.7,28.2,15.6,28Z" fill="#ecc54e"/><path d="M20.6,27.9c0-.1-.1-.3.2-.3s0,.2.1.3.1.3-.2.3S20.6,28,20.6,27.9Z" fill="#ecc54e"/><path d="M21.3,30c.3.2.2.4.2.6S21.3,30.3,21.3,30Z" fill="#ecc348"/><path d="M17.9,33.5c0,.1-.1.1-.2.2s-.1-.1-.1-.2,0-.2.1-.2A.2.2,0,0,1,17.9,33.5Z" fill="#ecc348"/><path d="M14.1,30.1h0Z" fill="#ecc348"/><path d="M14.4,31.9h.1C14.5,32,14.5,31.9,14.4,31.9Z" fill="#ecc348"/><path d="M23.3,30c-.2-.1-.2-.3-.2-.5S23.3,29.8,23.3,30Z" fill="#d57c0f"/><path d="M11.5,27a.8.8,0,0,1,.6-1.1h.3c.3-.6,1.1-.3,1.6-.8s.2.1.2-.1a.8.8,0,0,1,1.2-.5c.4.1.3-.2.6-.3a10.8,10.8,0,0,1,4,0,6.8,6.8,0,0,1,1.4.2c.4.2.8.8.6,1.2v.3a6.6,6.6,0,0,0-2.7-.6,14.1,14.1,0,0,0-4.6.3h-.3l-.8.3A9.1,9.1,0,0,0,11.5,27Z" fill="#cf7210"/><path d="M14.8,25.5a14.1,14.1,0,0,1,4.6-.3c.2.6.9.4,1.3.6l.6.2c.6.4.5.3,0,.9s-.7.1-.9.3-.8,0-1.2,0a1.8,1.8,0,0,1-1.2-.5,3.3,3.3,0,0,0-1.4,0c-.4-.1-.1.4-.2.6s-.3-.6-.1-.9.1-.3,0-.4-.3,0-.4.1-.2.3-.4.4-.4.3-.6.2-.1-.3-.1-.5Z" fill="#ecc54e"/><path d="M13.7,25.9l.8-.3v.2c-.2.2,0,.6-.3.6S13.8,26.1,13.7,25.9Z" fill="#ecc54e"/><path d="M22.1,25.8v-.3c.3,0,.3.2.3.4Z" fill="#d57c0f"/><path d="M13.4,25h0a.1.1,0,0,1-.1-.1h0A.1.1,0,0,1,13.4,25Z" fill="#cf7210"/><path d="M3.9,44.1a.1.1,0,0,1-.1.1c-.1,0-.2,0-.2-.1s0-.2.1-.2Z" fill="#dd901e"/><path d="M4.6,43.5c.1,0,.2,0,.2.1s0,.1-.1.1H4.5A.1.1,0,0,0,4.6,43.5Z" fill="#dd901e"/><path d="M14.8,40.3c.3-.3.5,0,.8,0s2.3.3,3.4.7.2,0,.3.2A21.1,21.1,0,0,1,14.8,40.3Z" fill="#ebc141"/><path d="M14.6,37.1l.3.2C14.8,37.3,14.7,37.3,14.6,37.1Z" fill="#d19435"/><path d="M10.6,34.2h0Z" fill="#d19435"/><path d="M42.6,14.1,38.4,4.5l7.7,4.8,4.6-5.9,1.9,7.4,8.6-1.7L54,18.8S48.3,14.1,42.6,14.1Z" fill="#f6c64e"/><circle cx="38.4" cy="4.7" r="1.3" fill="#f6c64e"/><circle cx="50.8" cy="3.5" r="1.3" fill="#f6c64e"/><circle cx="60.4" cy="9.1" r="1.3" fill="#f6c64e"/></g></svg>