<svg xmlns="http://www.w3.org/2000/svg" id="icons" viewBox="0 0 4098.3 4098.3" width="4098.3" height="4098.3"><style>.st0{opacity:.24}.st1{fill:#fff}.st2{fill:#3f6498}.st3{fill:url(#SVGID_1_)}.st4{fill:#fb51dc}.st5{fill:#1bceeb}.st6{fill:#62f686}.st7{fill:#fbc64f}</style><g class="st0"><path d="M853.1 3358.8c-350.3 0-634.3-284-634.3-634.3 0-185.5 150.3-335.8 335.8-335.8h81c6.4-38.7 18-76.3 34.3-111.9-27-58.5-40.9-122.2-40.7-186.6.1-64.4 13.9-128 40.7-186.6-27-58.5-40.9-122.2-40.7-186.6.1-64.4 13.9-128 40.7-186.6-77.8-169.7-42.1-369.9 89.6-502.2 84-84.5 198.3-132.1 317.5-132.1h708.9v-37.3c0-185.5 150.3-335.8 335.8-335.8h373.1c185.5 0 335.8 150.3 335.8 335.8v37.3h335.8c247.3 0 447.8 200.4 447.8 447.7 0 64.4-13.9 128.1-40.7 186.6 27 58.5 40.9 122.2 40.7 186.6-.1 64.4-13.9 128-40.7 186.6 27 58.5 40.9 122.2 40.7 186.6-.1 64.4-13.9 128-40.7 186.6 16.4 35.6 27.9 73.3 34.3 111.9h81c185.5 0 335.8 150.3 335.8 335.8 0 350.3-284 634.3-634.3 634.3H853.1z" class="st1"/><path d="M2494.8 560.4c164.9 0 298.5 133.6 298.5 298.5v74.6h373.1c226.7 0 410.5 183.7 410.5 410.4 0 64.9-15.4 128.8-44.9 186.6 59.8 117.2 59.8 255.9 0 373.1 59.8 117.2 59.8 255.9 0 373.1 24.4 46.4 39.6 97.1 44.8 149.2h111.9c164.9 0 298.5 133.6 298.5 298.5 0 329.7-267.3 597-597 597H853.1c-329.7 0-597-267.3-597-597 0-164.9 133.6-298.5 298.5-298.5h111.9c4.5-52.1 19.1-102.7 42.9-149.2-59.8-117.2-59.8-255.9 0-373.1-59.8-117.2-59.8-255.9 0-373.1-103-201.9-22.9-449.1 179-552.2 58.4-29.8 123-45.2 188.5-44.8h746.3v-74.6c0-164.9 133.6-298.5 298.5-298.5h373.1m0-74.6h-373.1c-206.1 0-373.1 167.1-373.1 373.1H1077c-267.9 0-485.1 217.2-485.1 485.1-.1 64.1 12.5 127.5 37.3 186.6a489.29 489.29 0 0 0-37.3 186.6c-.1 64.1 12.5 127.5 37.3 186.6a489.29 489.29 0 0 0-37.3 186.6c-.1 64.1 12.5 127.5 37.3 186.6-10.1 24.2-18.2 49.1-24.3 74.6h-50.4c-206.1 0-373.1 167.1-373.1 373.1 0 370.9 300.7 671.6 671.6 671.6h2537.3c370.9 0 671.6-300.7 671.6-671.6 0-206.1-167.1-373.1-373.1-373.1h-50.4c-6-25.5-14.1-50.5-24.3-74.6a489.29 489.29 0 0 0 37.3-186.6c.1-64.1-12.5-127.5-37.3-186.6a489.29 489.29 0 0 0 37.3-186.6c.1-64.1-12.5-127.5-37.3-186.6 103-247.3-13.9-531.3-261.2-634.3a485.54 485.54 0 0 0-186.6-37.3H2868c0-206.2-167.1-373.2-373.2-373.2z" class="st2"/><path d="M853.1 3321.5c-329.7 0-597-267.3-597-597 0-164.9 133.6-298.5 298.5-298.5h111.9c4.5-52.1 19.1-102.7 42.9-149.2-59.8-117.2-59.8-255.9 0-373.1-59.8-117.2-59.8-255.9 0-373.1-103-201.9-22.9-449.1 179-552.2 58.4-29.8 123-45.2 188.5-44.8h746.3V859c0-164.9 133.6-298.5 298.5-298.5h373.1c164.9 0 298.5 133.6 298.5 298.5v74.6h373.1c226.7 0 410.5 183.7 410.5 410.4 0 64.9-15.4 128.8-44.9 186.6 59.8 117.2 59.8 255.9 0 373.1 59.8 117.2 59.8 255.9 0 373.1 24.4 46.4 39.6 97.1 44.8 149.2h111.9c164.9 0 298.5 133.6 298.5 298.5 0 329.7-267.3 597-597 597H853.1z" class="st1"/></g><linearGradient id="SVGID_1_" x1="910.43" x2="3258.49" y1="-601.75" y2="-2950.19" gradientTransform="matrix(1 0 0 -1 0 502)" gradientUnits="userSpaceOnUse"><stop offset="0" stop-color="#fdea61"/><stop offset=".25" stop-color="#fd7c67"/><stop offset=".5" stop-color="#fa48fb"/><stop offset=".75" stop-color="#0dd9ea"/><stop offset="1" stop-color="#73fc73"/></linearGradient><path d="M3651.5 2575.3h-286.9c47.8-100.6 26.5-220.5-53-298.5l2.6-2.2c101.8-102.2 101.5-267.6-.7-369.4l-1.5-1.5 2.6-2.2c101.7-102.3 101.2-267.7-1.1-369.4l-1.5-1.5 2.6-2.2c101.8-102.2 101.5-267.6-.7-369.4-49-48.9-115.5-76.2-184.7-76.1h-522.4v-224c0-82.4-66.8-149.3-149.2-149.3h-373.1c-82.4 0-149.3 66.8-149.3 149.3v223.9h-895.5c-144.2 0-261.2 116.9-261.2 261.1 0 70.2 28.2 137.5 78.4 186.6l-2.6 2.2c-101.7 102.3-101.2 267.7 1.1 369.4l1.5 1.5-2.6 2.2c-101.6 102.4-101 267.8 1.4 369.4l1.5 1.5c-79.6 77.9-101.1 197.8-53.4 298.5H517.3c-82.4 0-149.3 66.8-149.3 149.2 0 247.3 200.5 447.8 447.8 447.8H3353c247.3 0 447.8-200.5 447.8-447.8 0-82.3-66.8-149.1-149.3-149.1zM2494.8 1829v-87.3c116.6 41.3 244.5-19.8 285.7-136.4 0-.1 0-.1.1-.2h273.9c50.8 66 50.8 157.9 0 223.9h-559.7zm559.7-597c50.8 66 50.8 157.9 0 223.9h-261.2V1232h261.2zm-970.1-373.1h223.9v223.9h-223.9V858.9zm0 373.1h559.7v298.5c0 41.2-33.4 74.6-74.6 74.6s-74.6-33.4-74.6-74.6-33.4-74.6-74.6-74.6c-41.2 0-74.6 33.4-74.6 74.6v373.1c0 41.2-33.4 74.6-74.6 74.6-41.2 0-74.6-33.4-74.6-74.6v-522.4c0-41.2-33.4-74.6-74.6-74.6-41.2 0-74.6 33.4-74.6 74.6s-33.4 74.6-74.6 74.6c-41.2 0-74.6-33.4-74.6-74.6V1232h186.3zM927.7 1343.9c0-61.8 50.1-111.9 111.9-111.9h708.9v149.3c0 25.4 4.3 50.7 12.7 74.6h-721.6c-61.8 0-111.9-50.1-111.9-112zm0 373.2c0-61.8 50.1-111.9 111.9-111.9H2047V1829H1039.7c-61.9 0-112-50.1-112-111.9zm0 373.1c0-61.8 50.1-111.9 111.9-111.9h1020.1c41.3 116.5 169.3 177.5 285.8 136.2 63.6-22.6 113.6-72.6 136.2-136.2h572.7c50.8 66 50.8 157.9 0 223.9H1039.7c-61.9-.1-112-50.2-112-112zm0 373.1c0-61.8 50.1-111.9 111.9-111.9h2014.9c50.9 65.9 50.9 157.9 0 223.9H1039.7c-61.9 0-112-50.2-112-112zm-410.4 261.2h2985c0 117.4-55.3 228-149.3 298.5H815.8c-164.9 0-298.5-133.6-298.5-298.5z" class="st3"/><circle cx="3427.7" cy="261.9" r="223.9" class="st4"/><circle cx="218.8" cy="746.9" r="186.6" class="st5"/><circle cx="890.4" cy="299.2" r="74.6" class="st6"/><circle cx="2756" cy="3731.9" r="111.9" class="st5"/><circle cx="815.8" cy="3881.2" r="149.3" class="st7"/></svg>