<svg id="icons" xmlns="http://www.w3.org/2000/svg" xmlns:xlink="http://www.w3.org/1999/xlink" viewBox="0 0 128 128"><defs><style>.cls-1{opacity:0.24;}.cls-2{fill:#fff;}.cls-3{fill:#3f6498;}.Graphic-Style-3{fill:url(#linear-gradient);}.cls-4{fill:#fb51dc;}.cls-5{fill:#1bceeb;}.cls-6{fill:#62f686;}.cls-7{fill:#fbc64f;}</style><linearGradient id="linear-gradient" x1="32.53" y1="41.56" x2="95.46" y2="104.5" gradientUnits="userSpaceOnUse"><stop offset="0" stop-color="#fdea61"/><stop offset="0.25" stop-color="#fd7c67"/><stop offset="0.5" stop-color="#fa48fb"/><stop offset="0.75" stop-color="#0dd9ea"/><stop offset="1" stop-color="#73fc73"/></linearGradient></defs><title>stack-of-pancakes</title><g class="cls-1"><path class="cls-2" d="M31,102A17,17,0,0,1,14,85a9,9,0,0,1,9-9h2.17a11.83,11.83,0,0,1,.92-3A11.85,11.85,0,0,1,25,68a12.07,12.07,0,0,1,1.09-5A11.85,11.85,0,0,1,25,58a12.07,12.07,0,0,1,1.09-5,12,12,0,0,1,2.4-13.46A12,12,0,0,1,37,36H56V35a9,9,0,0,1,9-9H75a9,9,0,0,1,9,9v1h9a12,12,0,0,1,10.91,17A11.85,11.85,0,0,1,105,58a12.07,12.07,0,0,1-1.09,5A11.85,11.85,0,0,1,105,68a12.07,12.07,0,0,1-1.09,5,11.83,11.83,0,0,1,.92,3H107a9,9,0,0,1,9,9,17,17,0,0,1-17,17Z"/><path class="cls-3" d="M75,27a8,8,0,0,1,8,8v2H93a11,11,0,0,1,9.8,16,11,11,0,0,1,0,10,11,11,0,0,1,0,10A10.88,10.88,0,0,1,104,77h3a8,8,0,0,1,8,8,16,16,0,0,1-16,16H31A16,16,0,0,1,15,85a8,8,0,0,1,8-8h3a10.86,10.86,0,0,1,1.15-4,11,11,0,0,1,0-10,11,11,0,0,1,0-10A11,11,0,0,1,37,37H57V35a8,8,0,0,1,8-8H75m0-2H65A10,10,0,0,0,55,35H37A13,13,0,0,0,24,48a12.85,12.85,0,0,0,1,5,13.09,13.09,0,0,0-1,5,12.85,12.85,0,0,0,1,5,13.09,13.09,0,0,0-1,5,12.85,12.85,0,0,0,1,5,12.75,12.75,0,0,0-.65,2H23A10,10,0,0,0,13,85a18,18,0,0,0,18,18H99a18,18,0,0,0,18-18,10,10,0,0,0-10-10h-1.35a12.78,12.78,0,0,0-.65-2,13.09,13.09,0,0,0,1-5,12.85,12.85,0,0,0-1-5,13.09,13.09,0,0,0,1-5,12.85,12.85,0,0,0-1-5A13,13,0,0,0,93,35H85A10,10,0,0,0,75,25Z"/><path class="cls-2" d="M31,101A16,16,0,0,1,15,85a8,8,0,0,1,8-8h3a10.86,10.86,0,0,1,1.15-4,11,11,0,0,1,0-10,11,11,0,0,1,0-10A11,11,0,0,1,37,37H57V35a8,8,0,0,1,8-8H75a8,8,0,0,1,8,8v2H93a11,11,0,0,1,9.8,16,11,11,0,0,1,0,10,11,11,0,0,1,0,10A10.88,10.88,0,0,1,104,77h3a8,8,0,0,1,8,8,16,16,0,0,1-16,16Z"/></g><path class="Graphic-Style-3" d="M106,81H98.31a7,7,0,0,0-1.42-8l.07-.06A7,7,0,0,0,96.9,63l.07-.06A7,7,0,0,0,96.9,53l.07-.06A7,7,0,0,0,92,41H78V35a4,4,0,0,0-4-4H64a4,4,0,0,0-4,4v6H36a7,7,0,0,0-4.9,12l-.07.06A7,7,0,0,0,31.1,63l-.07.06A7,7,0,0,0,31.11,73a7,7,0,0,0-1.43,8H22a4,4,0,0,0-4,4A12,12,0,0,0,30,97H98a12,12,0,0,0,12-12A4,4,0,0,0,106,81ZM75,61V58.66A6,6,0,0,0,82.66,55H90a4.92,4.92,0,0,1,0,6ZM90,45a4.92,4.92,0,0,1,0,6H83V45ZM64,35h6v6H64Zm0,10H79v8a2,2,0,0,1-4,0,2,2,0,0,0-4,0V63a2,2,0,0,1-4,0V49a2,2,0,0,0-4,0,2,2,0,0,1-4,0V45ZM33,48a3,3,0,0,1,3-3H55v4a6,6,0,0,0,.34,2H36A3,3,0,0,1,33,48Zm0,10a3,3,0,0,1,3-3H63v6H36A3,3,0,0,1,33,58Zm0,10a3,3,0,0,1,3-3H63.34a6,6,0,0,0,11.31,0H90a4.92,4.92,0,0,1,0,6H36A3,3,0,0,1,33,68Zm0,10a3,3,0,0,1,3-3H90a4.91,4.91,0,0,1,0,6H36A3,3,0,0,1,33,78ZM22,85h80a10,10,0,0,1-4,8H30A8,8,0,0,1,22,85Z"/><circle class="cls-4" cx="100" cy="19" r="6"/><circle class="cls-5" cx="14" cy="32" r="5"/><circle class="cls-6" cx="32" cy="20" r="2"/><circle class="cls-5" cx="82" cy="112" r="3"/><circle class="cls-7" cx="30" cy="116" r="4"/></svg>